<svg xmlns="http://www.w3.org/2000/svg" viewBox="0 0 133.63 142.48"><defs><style>.cls-1{fill:#bdb0c9;}.cls-2{fill:#1d053d;}.cls-3{fill:#1c053d;}</style></defs><g id="Capa_2" data-name="Capa 2"><g id="Capa_1-2" data-name="Capa 1"><ellipse class="cls-1" cx="66.81" cy="79.46" rx="67.53" ry="62.23" transform="translate(-25.06 31.11) rotate(-22.19)"></ellipse><path class="cls-2" d="M50.19,37.35c-8.68,3.54-20,6-34.69,5.85h-.58l-.44-.39C2.06,31.59,2.71,29.11,2.92,28.3c.3-1.16.93-3.53,20.58-1.71C25.14,9.91,27.63,9.44,28.59,9.25c2.37-.45,9.54,3.4,14.53,6.32C48.23,1.43,49.93.88,50.59.66a1.79,1.79,0,0,1,1.59.22c1.26.84,6.76,6.45,9.54,9.31,7-10.37,8.1-10.26,9-10.17a1.71,1.71,0,0,1,1.42,1.06C72.72,2.5,75,13.67,75.51,15.9l.1.53-.24.48C75,17.66,68.63,29.84,50.19,37.35ZM16.13,40.09C56.28,40.44,70.36,19.32,72.34,16c-.8-3.85-1.87-8.79-2.53-11.59-1.65,2-4.34,5.78-6.57,9.14l-1.07,1.62-1.35-1.4C57.71,10.51,53.27,6,51.31,4.2,50,6.45,47.38,12.83,45.42,18.39l-.64,1.8-1.63-1C37.84,16,31.31,12.63,29.4,12.34c-1,1.66-2.35,9.43-2.95,16.08L26.31,30l-1.56-.16c-7.35-.72-16-1-18.57-.43C7.25,31.37,11.83,36.16,16.13,40.09Z"></path><path class="cls-3" d="M73.35,76.64C54.12,72.87,47.46,37.82,47.18,36.33l3.07-.57c.06.35,6.54,34.46,23.7,37.83Z"></path><path class="cls-3" d="M56.72,84.23l-1.18-2.88a1.33,1.33,0,0,0-.49.33c.07-.08,5.88-8.9.51-20.84l2.84-1.27a26.45,26.45,0,0,1,.75,20.89C58.55,82,57.63,83.85,56.72,84.23Z"></path><path class="cls-3" d="M70,73.39S88.91,103.26,97.91,87C104.75,74.63,70,73.39,70,73.39Z"></path><path class="cls-3" d="M56.68,79.93s-23.55,20.92-9.37,27.77C63.25,115.38,56.68,79.93,56.68,79.93Z"></path><path class="cls-3" d="M28.87,58.4S22.46,67,27.78,70.29,33.35,62.55,28.87,58.4Z"></path><path class="cls-3" d="M15.57,84.55s.1,10.69,6.35,10.12S21.65,85.14,15.57,84.55Z"></path><path class="cls-3" d="M34.76,106.83s-4,9.9,2,11.78S40.15,109.71,34.76,106.83Z"></path><path class="cls-3" d="M70.58,113.84s-10.53,6-6.06,11.61S73.79,119.91,70.58,113.84Z"></path><path class="cls-3" d="M115.23,67.57s-10.52,6-6,11.61S118.45,73.64,115.23,67.57Z"></path><path class="cls-3" d="M85.94,53.58s2.6,11.85,9.27,9.25S92.7,52.33,85.94,53.58Z"></path><path class="cls-3" d="M81,28.22s-8.49,6-4.19,10.44S84.29,33.13,81,28.22Z"></path><path class="cls-3" d="M94.47,103.93s5.27,9.32,10.23,5.4S99.85,101.12,94.47,103.93Z"></path></g></g></svg>