<svg xmlns="http://www.w3.org/2000/svg" viewBox="0 0 303.83 350.14"><defs><style>.cls-1{fill:#270360;}.cls-2{fill:#400083;}.cls-3{fill:#6d3782;}.cls-4{fill:#280360;}.cls-5{fill:#140233;}</style></defs><g id="Capa_2" data-name="Capa 2"><g id="Capa_1-2" data-name="Capa 1"><path class="cls-1" d="M96.24,226.61l14.07,32.49,2,4.58c1.18,2.72,5.16.37,4-2.33l-14.07-32.49-2-4.58c-1.18-2.72-5.16-.37-4,2.33Z"></path><path class="cls-2" d="M63.57,258.42C51.76,266.14,36.3,260,24.36,248.18a21,21,0,0,0-2.77,6.08,1,1,0,0,1-1.77.21c-1.33-2.56-2.94-7-1-11L12.94,245a1,1,0,0,1-1.07-1.42l3-4.94L5.3,236A1,1,0,0,1,5,234.34l4.76-3.59A73.74,73.74,0,0,1,.3,223.21a1,1,0,0,1,1-1.62,22.94,22.94,0,0,0,7.08,1.28A45.62,45.62,0,0,1,5.9,209.79C5.13,180.66,32.46,166.56,56,170.71S107.71,229.53,63.57,258.42Z"></path><path class="cls-3" d="M93.45,265.91c33.05-21.12,72.05-14,80.33,30.72s-27.33,62.9-72.88,48.86S77.41,276.16,93.45,265.91Z"></path><path class="cls-3" d="M242.81,160c24.74-15.8,53.92-10.47,60.12,23s-20.45,47.08-54.54,36.56S230.81,167.64,242.81,160Z"></path><path class="cls-4" d="M98,167.65c11.72-13.89,2.68-48.87-26.11-50.31s-40.88,19-38.58,35.41,15,22.23,15,22.23,29,14.72,49.73-7.33"></path><path class="cls-1" d="M141.41,182.43l37.75-4.56,8.5-1a8.24,8.24,0,0,0,1.94-.23c.57-.25-.88-.2.07-.05,6.29,1,12.58,1.93,18.87,2.89l18.93,2.9c2.91.45,4.16-4,1.23-4.45l-36.89-5.65c-3.29-.5-6.6.27-9.89.67l-23.79,2.88-16.72,2c-2.91.35-2.95,5,0,4.61Z"></path><path class="cls-1" d="M135.32,122.08a42.41,42.41,0,0,0,24.49,7,43.69,43.69,0,0,0,23.74-8.73c19-14,28.26-38.28,32.27-60.8,3.37-18.88,3.49-38.2,1.64-57.25a2.34,2.34,0,0,0-3.47-2c-4.65,2.64-9.21,5.47-13.72,8.34C189.75,15.34,179.48,22.43,169.59,30c-11.38,8.74-22.43,18.09-32,28.82-7.9,8.86-15.84,19.39-18.07,31.33a28.18,28.18,0,0,0,1.07,15.2A32.37,32.37,0,0,0,131.08,119c1.37,1.08,2.78,2.1,4.24,3,2.5,1.62,4.82-2.37,2.33-4-4.75-3.08-9-6.9-11.62-11.85a22.29,22.29,0,0,1-2.31-13.17,32.67,32.67,0,0,1,.63-3.4c.3-1.24.67-2.47,1.09-3.69a46.88,46.88,0,0,1,3.26-7.18A87.58,87.58,0,0,1,139.23,64c9.05-10.54,19.63-19.75,30.55-28.3,9.78-7.66,20-14.77,30.43-21.49q5.29-3.4,10.67-6.66a53,53,0,0,0,5.2-3.07l.24-.14-3.47-2c2.82,29.1,1.61,60.61-11.12,87.47-7.49,15.81-20.58,31.9-38.81,34.42-8.94,1.24-17.69-1.26-25.27-6.1C135.14,116.49,132.82,120.49,135.32,122.08Z"></path><path class="cls-1" d="M120,157l21-32.46c3.39-5.23,6.66-10.54,10-15.81l24.85-39.5,26.79-42.56c4.77-7.59,9.89-15,14.36-22.82.06-.11.14-.22.21-.33,1.59-2.52-2.41-4.84-4-2.33L201.31,20l-26,41.35-25.85,41.08c-3.88,6.15-7.72,12.34-11.63,18.47-7,10.93-14.09,21.77-21.13,32.65l-.71,1.1c-1.62,2.5,2.37,4.82,4,2.33Z"></path><path class="cls-1" d="M191.74,245.2A18.66,18.66,0,0,1,204.5,239c6.7-.61,13.18.92,19.46,3.42,18.24,7.26,32.86,22.6,43.39,38.74a166.81,166.81,0,0,1,19.35,42.3l2.22-2.92a193.79,193.79,0,0,1-46-3.63c-11.89-2.34-23.84-5.88-34.27-12.21a62.41,62.41,0,0,1-15.93-14.12,41.54,41.54,0,0,1-9-18.22c-1.89-9.85,1.86-19.86,8-27.2,1.9-2.26-1.35-5.54-3.26-3.26-6,7.18-10,16.13-9.87,25.63.28,14.73,10.26,28,21.44,36.79,10.1,7.92,22.47,12.52,34.82,15.54a196.29,196.29,0,0,0,35.13,5,180.94,180.94,0,0,0,18.92.3,2.34,2.34,0,0,0,2.23-2.92c-7.69-25.09-20.38-49.55-39.94-67.45-12-11-28.24-21.19-45.13-20.51-6.56.26-13.23,2.5-17.6,7.62C186.56,244.18,189.81,247.46,191.74,245.2Z"></path><path class="cls-1" d="M135.58,193.93l28.94,28,18.32,17.74c2,1.93,3.92,4,6,5.79,8.76,7.31,17.81,14.3,26.7,21.45l44.34,35.62c9,7.21,17.93,14.45,26.93,21.63l.43.34c2.29,1.85,5.58-1.4,3.26-3.26L268.07,303.2,224,267.78,193.3,243.14c-1.53-1.23-2.9-2.55-4.31-3.92l-16.2-15.68L139.5,191.31l-.66-.64c-2.13-2.07-5.4,1.19-3.26,3.26Z"></path><path class="cls-1" d="M192.14,246.34l-5.86,39.77c-.43,2.9,4,4.16,4.45,1.22l5.86-39.76c.43-2.9-4-4.16-4.45-1.23Z"></path><path class="cls-1" d="M200.9,253.45l-6.18,41.89c-.43,2.9,4,4.16,4.45,1.22l6.18-41.88c.42-2.91-4-4.16-4.45-1.23Z"></path><path class="cls-1" d="M209.65,260.56,204,298.89l-.8,5.4c-.43,2.91,4,4.16,4.45,1.23l5.65-38.33.8-5.4c.43-2.91-4-4.16-4.45-1.23Z"></path><path class="cls-1" d="M218.41,267.67l-6,40.43c-.43,2.91,4,4.16,4.45,1.23l6-40.44c.42-2.9-4-4.16-4.45-1.22Z"></path><path class="cls-1" d="M227.16,274.77l-5.58,37.86c-.43,2.9,4,4.15,4.45,1.22L231.61,276c.43-2.9-4-4.16-4.45-1.23Z"></path><path class="cls-1" d="M235.92,281.88l-5,34.24a2.39,2.39,0,0,0,1.61,2.84,2.32,2.32,0,0,0,2.84-1.62l5.05-34.23a2.39,2.39,0,0,0-1.61-2.84,2.32,2.32,0,0,0-2.84,1.61Z"></path><path class="cls-1" d="M244.67,289l-4.09,27.75a2.38,2.38,0,0,0,1.61,2.84A2.32,2.32,0,0,0,245,318l4.09-27.76a2.37,2.37,0,0,0-1.61-2.83,2.32,2.32,0,0,0-2.84,1.61Z"></path><path class="cls-1" d="M253.43,296.1,249.9,320a2.39,2.39,0,0,0,1.61,2.84,2.32,2.32,0,0,0,2.84-1.61l3.53-23.9a2.39,2.39,0,0,0-1.61-2.84,2.32,2.32,0,0,0-2.84,1.62Z"></path><path class="cls-1" d="M262.18,303.2l-2.27,15.43a2.36,2.36,0,0,0,1.61,2.84c1.09.25,2.65-.34,2.84-1.61l2.27-15.43a2.36,2.36,0,0,0-1.61-2.84c-1.09-.25-2.65.34-2.84,1.61Z"></path><path class="cls-1" d="M270.94,310.31l-1.7,11.51a2.55,2.55,0,0,0,.23,1.78,2.37,2.37,0,0,0,1.38,1.06,2.34,2.34,0,0,0,2.84-1.61l1.7-11.51a2.61,2.61,0,0,0-.23-1.78,2.31,2.31,0,0,0-4.22.55Z"></path><path class="cls-1" d="M196.18,248.43l21-7.72a2.37,2.37,0,0,0,1.61-2.84,2.32,2.32,0,0,0-2.84-1.61L195,244a2.37,2.37,0,0,0-1.61,2.84,2.33,2.33,0,0,0,2.84,1.61Z"></path><path class="cls-1" d="M204.92,255.55l24.31-8.93a2.37,2.37,0,0,0,1.61-2.84,2.33,2.33,0,0,0-2.83-1.61l-24.32,8.93a2.37,2.37,0,0,0-1.61,2.84,2.33,2.33,0,0,0,2.84,1.61Z"></path><path class="cls-1" d="M213.66,262.67,240.13,253a2.37,2.37,0,0,0,1.61-2.84,2.33,2.33,0,0,0-2.84-1.61l-26.46,9.72a2.37,2.37,0,0,0-1.61,2.84,2.33,2.33,0,0,0,2.83,1.61Z"></path><path class="cls-1" d="M222.41,269.79l27.52-10.1c2.76-1,1.57-5.48-1.23-4.45l-27.52,10.1c-2.76,1-1.57,5.48,1.23,4.45Z"></path><path class="cls-1" d="M231.15,276.91l27-9.91a2.37,2.37,0,0,0,1.61-2.84,2.33,2.33,0,0,0-2.84-1.61l-27,9.91a2.38,2.38,0,0,0-1.62,2.84,2.33,2.33,0,0,0,2.84,1.61Z"></path><path class="cls-1" d="M239.9,284l23.18-8.51a2.37,2.37,0,0,0,1.61-2.84,2.32,2.32,0,0,0-2.83-1.61l-23.19,8.51a2.37,2.37,0,0,0-1.61,2.84A2.32,2.32,0,0,0,239.9,284Z"></path><path class="cls-1" d="M248.64,291.15l20.51-7.53a2.37,2.37,0,0,0,1.62-2.84,2.34,2.34,0,0,0-2.84-1.61l-20.52,7.53a2.37,2.37,0,0,0-1.61,2.84,2.32,2.32,0,0,0,2.84,1.61Z"></path><path class="cls-1" d="M257.38,298.28l17.71-6.51a2.37,2.37,0,0,0,1.61-2.84,2.33,2.33,0,0,0-2.83-1.61l-17.71,6.51a2.36,2.36,0,0,0-1.61,2.83,2.32,2.32,0,0,0,2.83,1.62Z"></path><path class="cls-1" d="M266.13,305.4,279,300.67a2.36,2.36,0,0,0,1.61-2.84,2.32,2.32,0,0,0-2.83-1.61L264.9,301a2.31,2.31,0,1,0,1.23,4.45Z"></path><path class="cls-1" d="M274.87,312.52l7.37-2.71a2.48,2.48,0,0,0,1.38-1.06,2.31,2.31,0,0,0-2.6-3.39l-7.37,2.71a2.41,2.41,0,0,0-1.38,1.06,2.3,2.3,0,0,0,2.6,3.39Z"></path><path class="cls-1" d="M144,114.94l-16.59-33c-1.33-2.65-5.31-.32-4,2.33l16.59,33c1.33,2.66,5.31.32,4-2.33Z"></path><path class="cls-1" d="M150.05,105.45,132.69,70.89c-1.33-2.65-5.31-.32-4,2.33l17.35,34.56c1.34,2.65,5.32.32,4-2.33Z"></path><path class="cls-1" d="M156.13,96,140,63.81c-1.34-2.66-5.32-.32-4,2.33l16.15,32.14c1.33,2.66,5.31.33,4-2.32Z"></path><path class="cls-1" d="M162.22,86.46,146.45,55.05c-1.34-2.65-5.32-.32-4,2.33l15.77,31.41c1.34,2.65,5.32.32,4-2.33Z"></path><path class="cls-1" d="M168.3,77,153.61,47.72c-1.33-2.66-5.31-.32-4,2.33L164.32,79.3c1.33,2.65,5.31.32,4-2.33Z"></path><path class="cls-1" d="M174.39,67.47,161.27,41.36c-1.33-2.65-5.31-.32-4,2.33L170.4,69.8c1.34,2.66,5.32.32,4-2.33Z"></path><path class="cls-1" d="M180.47,58l-11.4-22.71a2.33,2.33,0,0,0-3.16-.83,2.36,2.36,0,0,0-.83,3.16l11.41,22.71a2.31,2.31,0,0,0,4-2.33Z"></path><path class="cls-1" d="M186.56,48.48l-9.4-18.71a2.31,2.31,0,1,0-4,2.33l9.39,18.71a2.33,2.33,0,0,0,3.16.83,2.36,2.36,0,0,0,.83-3.16Z"></path><path class="cls-1" d="M192.64,39l-8.26-16.46a2.31,2.31,0,1,0-4,2.33l8.27,16.46a2.33,2.33,0,0,0,3.15.83,2.35,2.35,0,0,0,.83-3.16Z"></path><path class="cls-1" d="M198.73,29.49l-6.35-12.64a2.32,2.32,0,0,0-3.16-.82,2.36,2.36,0,0,0-.83,3.15l6.35,12.64a2.33,2.33,0,0,0,3.16.83,2.37,2.37,0,0,0,.83-3.16Z"></path><path class="cls-1" d="M204.81,20l-4.46-8.89a2.33,2.33,0,0,0-3.16-.83,2.37,2.37,0,0,0-.83,3.16l4.47,8.89a2.32,2.32,0,0,0,3.15.83,2.36,2.36,0,0,0,.83-3.16Z"></path><path class="cls-1" d="M143.47,120.11l37,2c3,.16,3-4.45,0-4.61l-37-2c-3-.16-3,4.45,0,4.61Z"></path><path class="cls-1" d="M150.64,110.79,190.41,113c3,.16,3-4.46,0-4.62l-39.77-2.16c-3-.17-3,4.45,0,4.61Z"></path><path class="cls-1" d="M157.29,101.44l39.39,2.15c3,.16,3-4.46,0-4.62l-39.39-2.15c-3-.16-3,4.46,0,4.62Z"></path><path class="cls-1" d="M163.56,92.07,203,94.22c3,.16,3-4.46,0-4.62l-39.4-2.15c-3-.16-3,4.46,0,4.62Z"></path><path class="cls-1" d="M168.61,82.63l38.76,2.11c3,.16,2.95-4.45,0-4.61L168.61,78c-3-.17-3,4.45,0,4.61Z"></path><path class="cls-1" d="M173.71,73.2l35.23,1.92c3,.16,3-4.46,0-4.62l-35.23-1.92c-3-.16-3,4.45,0,4.62Z"></path><path class="cls-1" d="M178.8,63.76l33.85,1.85c3,.16,3-4.46,0-4.62L178.8,59.15c-3-.17-3,4.45,0,4.61Z"></path><path class="cls-1" d="M183.91,54.33l29.62,1.61c3,.16,3-4.45,0-4.61l-29.62-1.62c-3-.16-3,4.45,0,4.62Z"></path><path class="cls-1" d="M190.18,45l24.67,1.35c3,.16,3-4.46,0-4.62l-24.67-1.34c-3-.16-3,4.45,0,4.61Z"></path><path class="cls-1" d="M196.46,35.58l19.46,1.06a2.31,2.31,0,0,0,0-4.61L196.46,31a2.31,2.31,0,1,0,0,4.61Z"></path><path class="cls-1" d="M202.73,26.21l13.76.75a2.32,2.32,0,0,0,2.31-2.31,2.36,2.36,0,0,0-2.31-2.3l-13.76-.75a2.32,2.32,0,0,0-2.31,2.3,2.36,2.36,0,0,0,2.31,2.31Z"></path><path class="cls-5" d="M245.32,167.56l3.33,7.3a1.22,1.22,0,0,1-.08,1.17l-4.34,6.65a1.22,1.22,0,0,0,1.67,1.69l7.93-5a1.21,1.21,0,0,1,1.76.53l2.31,5.22a1.21,1.21,0,0,0,2.32-.61l-1-9.65a1.21,1.21,0,0,1,.9-1.3l5.33-1.35a1.21,1.21,0,0,0-.25-2.39l-7.08-.33a1.22,1.22,0,0,1-1.12-1.5l1.14-4.73a1.22,1.22,0,0,0-2.15-1l-3.82,5a1.21,1.21,0,0,1-1.44.39l-3.89-1.65A1.21,1.21,0,0,0,245.32,167.56Z"></path><path class="cls-5" d="M123.83,267.37a46.57,46.57,0,0,1-5,9.65.89.89,0,0,1-1,.35L109,274.43a.9.9,0,0,0-.94,1.48l8.91,9.32a.85.85,0,0,1,.25.56l.54,7.89a.9.9,0,0,0,1.75.23c1.18-3.61,3.25-7.75,6.61-8.45s6.94,1.83,9.54,4.28a.9.9,0,0,0,1.43-1l-4.58-10.43a.9.9,0,0,1,.35-1.12l7.58-4.79a.9.9,0,0,0-.66-1.65l-11.74,2.37a.91.91,0,0,1-1.05-.63l-1.49-5A.9.9,0,0,0,123.83,267.37Z"></path><path class="cls-3" d="M78.44,167.05c23.37-21.25,66.95-13.69,66,33.72S87.72,232.05,76,225.7,56.93,186.6,78.44,167.05Z"></path><path class="cls-5" d="M122.44,175.14l-.6,2a1.55,1.55,0,0,1-1.59,1.11l-7-.43a1.55,1.55,0,0,0-.9,2.87c3.16,1.91,6.24,4.48,6.48,7.34.2,2.38-1.89,4.21-4.49,5.55a1.55,1.55,0,0,0,.76,2.91h6.1a1.71,1.71,0,0,1,.59.11l9,3.67a1.55,1.55,0,0,0,1.94-2.21L126,186.34a1.55,1.55,0,0,1,.1-1.69l3.89-5.22a1.55,1.55,0,0,0-2.06-2.25h0a1.56,1.56,0,0,1-2.35-1l-.15-.84A1.56,1.56,0,0,0,122.44,175.14Z"></path></g></g></svg>