<svg xmlns="http://www.w3.org/2000/svg" viewBox="0 0 230.79 245.23"><defs><style>.cls-1{fill:#c0b2cc;}.cls-2{fill:#1d053d;}.cls-3{fill:#1c053d;}</style></defs><g id="Capa_2" data-name="Capa 2"><g id="Capa_1-2" data-name="Capa 1"><ellipse class="cls-1" cx="115.39" cy="137.85" rx="115.88" ry="106.79" transform="translate(-30.02 32.14) rotate(-14.05)"></ellipse><path class="cls-2" d="M97.37,62.29C81.77,66.2,61.88,67.7,37,63.8l-1-.16-.64-.77C17,40.81,18.7,36.77,19.26,35.44c.8-1.9,2.43-5.78,35.38,2.08C61.47,9.59,65.83,9.39,67.5,9.31c4.13-.2,15.38,8.09,23.15,14.26C102.76.79,105.79.27,107,.05a3.11,3.11,0,0,1,2.66.75c1.92,1.75,9.92,12.61,13.94,18.14C138,3,139.81,3.48,141.32,3.85A2.92,2.92,0,0,1,143.46,6c.64,2.56,1.88,22.1,2.13,26l0,.92-.53.77C144.29,34.86,130.52,54,97.37,62.29ZM38.85,58.67C107,69,136,36.56,140.19,31.33c-.42-6.74-1-15.4-1.48-20.32-3.28,3-8.77,8.77-13.39,14l-2.21,2.48-2-2.69c-4.49-6.23-11-14.95-13.84-18.51-2.83,3.49-8.76,13.7-13.45,22.68l-1.51,2.89-2.54-2.06c-8.26-6.7-18.52-14-21.69-15-2.2,2.57-6.29,15.47-8.91,26.62L58.6,44,56,43.34c-12.31-3-26.9-5.66-31.45-5.24C25.87,41.7,32.48,51,38.85,58.67Z"></path><path class="cls-3" d="M127.17,134.66C95.42,123.58,92.62,62.42,92.51,59.82l5.34-.22c0,.6,2.75,60.13,31.08,70Z"></path><path class="cls-3" d="M97.08,143.51l-1.3-5.18a2.26,2.26,0,0,0-.91.44c.13-.11,12.15-13.68,5.92-35.27l5.13-1.48c4.87,16.86-.29,29.59-3.79,35.68C100.74,140.12,98.73,143.1,97.08,143.51Z"></path><path class="cls-3" d="M122.28,128.32s24.87,55.35,44.1,29.91C181,138.87,122.28,128.32,122.28,128.32Z"></path><path class="cls-3" d="M98.05,136.2S53,166,75.41,181.1C100.61,198,98.05,136.2,98.05,136.2Z"></path><path class="cls-3" d="M56.05,92.86s-13,13-4.75,20S62.64,101,56.05,92.86Z"></path><path class="cls-3" d="M27.1,134.07s-2.43,18.19,8.33,18.74S37.29,136.55,27.1,134.07Z"></path><path class="cls-3" d="M54.29,176.57s-9.23,15.85.49,20.5S62.74,182.78,54.29,176.57Z"></path><path class="cls-3" d="M113.43,197.18s-19.34,7.68-13.1,18.26S117.42,208.27,113.43,197.18Z"></path><path class="cls-3" d="M200.54,129.42s-19.34,7.68-13.11,18.26S204.53,140.51,200.54,129.42Z"></path><path class="cls-3" d="M154.17,98.54s1.54,20.75,13.5,18S166,98.05,154.17,98.54Z"></path><path class="cls-3" d="M152,54.25S136.07,62.46,142.3,71,156.32,63.4,152,54.25Z"></path><path class="cls-3" d="M156.44,186.14s6.68,17.12,16.06,11.67S166.25,182.68,156.44,186.14Z"></path></g></g></svg>