<svg xmlns="http://www.w3.org/2000/svg" viewBox="0 0 873.94 435.41"><defs><style>.cls-1{font-size:30.9px;font-family:Author-Regular, Author;}.cls-1,.cls-2{fill:#270360;}.cls-3{fill:#400083;}.cls-4{fill:#6d3782;}.cls-5{fill:#280360;}.cls-6{fill:#140233;}</style></defs><g id="Capa_2" data-name="Capa 2"><g id="Capa_1-2" data-name="Capa 1"><text class="cls-1" transform="translate(399.33 350.72)">Arándanos de Perú para el Mundo</text><path class="cls-2" d="M568.63,124.85q2.67,6.15-1.4,13.44-3.78,5.79-9.18,7.18a13.77,13.77,0,0,1-10.25-1.18,11.93,11.93,0,0,1-4.61-4.07,24.16,24.16,0,0,1-2.26-4.57,15.43,15.43,0,0,0-1.42-3,4.6,4.6,0,0,0-2.15-1.82c-2.57-.77-4.52-.12-5.86,1.93a20.14,20.14,0,0,0-2.75,8,61,61,0,0,0-.75,9.19v25.58a15,15,0,0,0,2,7.43,9.59,9.59,0,0,0,5.72,4.72H486.27a9.6,9.6,0,0,0,5.71-4.72,14.94,14.94,0,0,0,2-7.43V134.22a14.75,14.75,0,0,0-2-7.4,9.64,9.64,0,0,0-5.71-4.68h1.64q4.5.08,12.22-.18a122.41,122.41,0,0,0,15.44-1.5A33.8,33.8,0,0,0,528,116.28v14.65a39.31,39.31,0,0,1,8.18-9.61,26.88,26.88,0,0,1,11-5.72,22.64,22.64,0,0,1,13.11.89A14.94,14.94,0,0,1,568.63,124.85Z"></path><path class="cls-2" d="M708.87,122.14A24.8,24.8,0,0,1,722,116.21a29.19,29.19,0,0,1,14.76,1.68,26.58,26.58,0,0,1,12.11,9.32q4.86,6.58,5.22,17.08l.07,31.16a15,15,0,0,0,2,7.43,9.59,9.59,0,0,0,5.72,4.72H734.67c-3.52,0-6.28-.73-8.25-2.18a13.06,13.06,0,0,1-4.33-5.22,19.23,19.23,0,0,1-1.64-6c-.19-2-.29-3.46-.29-4.51l-.07-20.58a118,118,0,0,0-1-18.33c-.71-4.55-2.14-6.89-4.28-7-1-.09-2,.48-3,1.72s-1.84,3.6-2.43,7.07a78,78,0,0,0-.47,15.3v27.58a14.78,14.78,0,0,0,2,7.43,9.76,9.76,0,0,0,5.75,4.72H667.21a9.62,9.62,0,0,0,5.72-4.72,15,15,0,0,0,2-7.43V134.22a14.85,14.85,0,0,0-2-7.4,9.65,9.65,0,0,0-5.72-4.68q2.92,0,10.83-.29a137.39,137.39,0,0,0,16.51-1.64,42.93,42.93,0,0,0,14.32-4.57Z"></path><path class="cls-2" d="M423.43,297.48q-15.09.86-24-6.22a33.18,33.18,0,0,1-11.76-18.15,42.15,42.15,0,0,1,.22-22.15,34.46,34.46,0,0,1,12-18.19q8.94-7.11,23.52-6.32a17.87,17.87,0,0,1,6,1.75,8.07,8.07,0,0,1,3.07,2.18V211a14.93,14.93,0,0,0-2-7.36,9.65,9.65,0,0,0-5.79-4.72h2.5q5,.07,12.65-.07c5.1-.09,10.11-.42,15.05-1a35.2,35.2,0,0,0,11.54-2.9v90.33a14.94,14.94,0,0,0,2,7.43,9.58,9.58,0,0,0,5.79,4.72H441.65a20.88,20.88,0,0,1-5.83-.71,5,5,0,0,1-3.32-3.22,13.25,13.25,0,0,1-3.36,2.32A15.59,15.59,0,0,1,423.43,297.48Zm9.07-31.3v-8.43q0-14.73-1.32-20.62t-3.47-5.68q-2.64.28-4.18,6.43a82.72,82.72,0,0,0-2,15.15,150.31,150.31,0,0,0,.07,18,87,87,0,0,0,2.11,15.22c1,4.15,2.37,6.22,4,6.22s2.77-1.93,3.58-5.79S432.5,276,432.5,266.18Z"></path><path class="cls-2" d="M613.45,232a24.73,24.73,0,0,1,13.07-5.93,29.17,29.17,0,0,1,14.76,1.68,26.53,26.53,0,0,1,12.11,9.32q4.86,6.58,5.22,17.08l.07,31.16a15,15,0,0,0,2,7.43,9.62,9.62,0,0,0,5.72,4.72H639.24q-5.28,0-8.25-2.18a13,13,0,0,1-4.32-5.22,19,19,0,0,1-1.65-6c-.19-2-.28-3.46-.28-4.51L624.67,259a120.5,120.5,0,0,0-1-18.33c-.72-4.55-2.15-6.89-4.29-7-1-.09-2,.48-3,1.72s-1.83,3.6-2.43,7.07a77.37,77.37,0,0,0-.46,15.3v27.58a14.87,14.87,0,0,0,2,7.43,9.75,9.75,0,0,0,5.76,4.72H571.78a9.59,9.59,0,0,0,5.72-4.72,15,15,0,0,0,2-7.43V244.1a14.85,14.85,0,0,0-2-7.4,9.63,9.63,0,0,0-5.72-4.68c2,0,5.57-.09,10.83-.29a137.19,137.19,0,0,0,16.51-1.64,42.84,42.84,0,0,0,14.33-4.57Z"></path><path class="cls-2" d="M727,231a39.45,39.45,0,0,1,14.54,12.9,32.35,32.35,0,0,1,0,35.88A39.45,39.45,0,0,1,727,292.66a44.93,44.93,0,0,1-40.49,0,39.34,39.34,0,0,1-14.58-12.9,32.35,32.35,0,0,1,0-35.88A39.34,39.34,0,0,1,686.48,231,44.93,44.93,0,0,1,727,231Zm-24.44,7.51a132.93,132.93,0,0,0-1.76,23.33,132.93,132.93,0,0,0,1.76,23.33q1.74,9.69,4.18,9.69t4.25-9.69a133,133,0,0,0,1.75-23.33A133,133,0,0,0,711,238.49q-1.76-9.69-4.25-9.69T702.53,238.49Z"></path><path class="cls-2" d="M812.29,227a35.78,35.78,0,0,1,14,6.22A12.82,12.82,0,0,1,831.41,245c-.57,3.82-2.28,6.54-5.11,8.19a16.31,16.31,0,0,1-9.58,2.07,18.14,18.14,0,0,1-9.39-3.29,10.23,10.23,0,0,1-4.51-7.75,12.2,12.2,0,0,1,.68-5,17.71,17.71,0,0,1,1.75-3.39,6.65,6.65,0,0,0,1.29-3.08,3.93,3.93,0,0,0-2.39-3.43,11.77,11.77,0,0,0-5.76-1.14q-7.92.36-10.64,3.79c-1.82,2.28-2,5.06-.72,8.32s4.1,6.42,8.29,9.47a101.36,101.36,0,0,0,15.94,8.72,104.08,104.08,0,0,1,11.29,5.86,19.56,19.56,0,0,1,7.11,7.54,14.51,14.51,0,0,1,1.46,8.18q-.93,6.87-8.21,11.51A48.26,48.26,0,0,1,805,297.94a72.55,72.55,0,0,1-21.69.4,48.18,48.18,0,0,1-19.55-6.72,26.17,26.17,0,0,1-11.5-14.86,38.47,38.47,0,0,0,9.36,6.21,28.9,28.9,0,0,0,10.4,3.08c3.21.23,5.35-.81,6.39-3.15q.79-2.36-1.68-4.18a41.75,41.75,0,0,0-6.61-3.82,81.87,81.87,0,0,1-8.79-5,26.42,26.42,0,0,1-7.54-7.47,19.33,19.33,0,0,1-2.89-11.4,21.24,21.24,0,0,1,8.29-15.83,46,46,0,0,1,17.94-8.47,67.51,67.51,0,0,1,19.44-2A91.29,91.29,0,0,1,812.29,227Z"></path><path class="cls-2" d="M474,182.58a15.73,15.73,0,0,1-2.09-7.76V150.25a33.75,33.75,0,0,0-5.19-18.48,38.22,38.22,0,0,0-14.18-13.1A49.08,49.08,0,0,0,431.85,113a58.8,58.8,0,0,0-17,1.79,39.06,39.06,0,0,0-14.71,6.9,16.53,16.53,0,0,0-6.75,11.84q-.22,7.32,4.18,11.16A17.72,17.72,0,0,0,418.82,146q4.74-3.26,5.19-10.19a13.29,13.29,0,0,0-1.09-6.12,18.59,18.59,0,0,0-2.57-4,16,16,0,0,1-1.68-2.57,4.41,4.41,0,0,1-.41-2.73,5.21,5.21,0,0,1,3.28-3.92,10.33,10.33,0,0,1,5.3-.48,10.58,10.58,0,0,1,7.66,5.22A14.37,14.37,0,0,1,436,131.62q-1.18,6.09-7.65,12.06t-19.6,9.93q-12.24,3.73-16.54,9.67t-3,12a17,17,0,0,0,7.1,10.35q5.74,4.14,14.85,4A37.58,37.58,0,0,0,426,186a23.83,23.83,0,0,0,10.53-9.19,23.81,23.81,0,0,0,.22,2.84,8.52,8.52,0,0,0,4.74,6.57,14.06,14.06,0,0,0,6.61,1.27H480A10.08,10.08,0,0,1,474,182.58Zm-52-6.51c-6.09-3.66-9.48-12.17-3.61-18.56a13.69,13.69,0,0,1,3.1-2.45,7,7,0,0,0-1.84-1.11.29.29,0,0,1,.1-.55,22.75,22.75,0,0,1,3.59.15l-.36-1.73a.29.29,0,0,1,.4-.32l2.65,1.27.3-1.68a.29.29,0,0,1,.52-.11l1,1.49a3.75,3.75,0,0,1,2.38-2.27.28.28,0,0,1,.36.39,6.1,6.1,0,0,0-.56,1.91c5-.32,9.66,1.32,10.8,5.36C445.12,173,428.1,179.74,422,176.07Z"></path><path class="cls-2" d="M657.92,182.58a15.73,15.73,0,0,1-2.09-7.76V150.25a33.75,33.75,0,0,0-5.19-18.48,38.22,38.22,0,0,0-14.18-13.1A49.08,49.08,0,0,0,615.74,113a58.8,58.8,0,0,0-17,1.79,39.06,39.06,0,0,0-14.71,6.9,16.56,16.56,0,0,0-6.75,11.84q-.22,7.32,4.18,11.16A17.72,17.72,0,0,0,602.71,146q4.74-3.26,5.19-10.19a13.43,13.43,0,0,0-1.08-6.12,19,19,0,0,0-2.58-4,16,16,0,0,1-1.68-2.57,4.41,4.41,0,0,1-.41-2.73,5.21,5.21,0,0,1,3.28-3.92,10.36,10.36,0,0,1,5.31-.48,10.58,10.58,0,0,1,7.65,5.22,14.37,14.37,0,0,1,1.45,10.49q-1.19,6.09-7.65,12.06t-19.6,9.93q-12.24,3.73-16.54,9.67t-2.95,12a17,17,0,0,0,7.1,10.35q5.74,4.14,14.86,4A37.58,37.58,0,0,0,609.84,186a23.83,23.83,0,0,0,10.53-9.19,23.81,23.81,0,0,0,.22,2.84,8.9,8.9,0,0,0,1.31,3.55,8.71,8.71,0,0,0,3.43,3,14.06,14.06,0,0,0,6.61,1.27h32A10.1,10.1,0,0,1,657.92,182.58Zm-52-6.51c-6.09-3.66-9.47-12.17-3.61-18.56a13.69,13.69,0,0,1,3.1-2.45,7,7,0,0,0-1.84-1.11.29.29,0,0,1,.1-.55,22.75,22.75,0,0,1,3.59.15l-.36-1.73a.29.29,0,0,1,.4-.32l2.65,1.27.3-1.68a.29.29,0,0,1,.52-.11l1,1.49a3.74,3.74,0,0,1,2.39-2.27.28.28,0,0,1,.35.39,6.1,6.1,0,0,0-.56,1.91c5-.32,9.66,1.32,10.8,5.36C629,173,612,179.74,605.9,176.07Z"></path><path class="cls-2" d="M562.62,292.59a15.74,15.74,0,0,1-2.09-7.77V260.26a33.75,33.75,0,0,0-5.19-18.48,38.14,38.14,0,0,0-14.18-13.1A49.08,49.08,0,0,0,520.44,223a58.82,58.82,0,0,0-17,1.8,39.06,39.06,0,0,0-14.71,6.9A16.55,16.55,0,0,0,482,243.54c-.15,4.87,1.24,8.6,4.18,11.16A17.72,17.72,0,0,0,507.41,256q4.74-3.25,5.19-10.19a13.5,13.5,0,0,0-1.08-6.13,18.77,18.77,0,0,0-2.58-4,16,16,0,0,1-1.68-2.57,4.42,4.42,0,0,1-.41-2.73,5.19,5.19,0,0,1,3.28-3.92,10.36,10.36,0,0,1,5.31-.48,10.55,10.55,0,0,1,7.65,5.22,14.33,14.33,0,0,1,1.45,10.49q-1.18,6.09-7.65,12.06t-19.6,9.93q-12.24,3.74-16.54,9.67t-2.94,12a17,17,0,0,0,7.09,10.34q5.75,4.15,14.86,4A37.59,37.59,0,0,0,514.54,296a23.81,23.81,0,0,0,10.53-9.18,24,24,0,0,0,.22,2.84,8.56,8.56,0,0,0,4.74,6.57,14.18,14.18,0,0,0,6.61,1.27h32A10.1,10.1,0,0,1,562.62,292.59Zm-52-6.51c-6.09-3.66-9.47-12.17-3.61-18.56a14,14,0,0,1,3.1-2.46,7,7,0,0,0-1.84-1.1.29.29,0,0,1,.1-.55,22.75,22.75,0,0,1,3.59.15l-.36-1.73a.28.28,0,0,1,.4-.32l2.65,1.27.3-1.68a.28.28,0,0,1,.52-.11l1,1.49a3.74,3.74,0,0,1,2.39-2.27.28.28,0,0,1,.35.39,6.1,6.1,0,0,0-.56,1.91c5-.33,9.66,1.32,10.8,5.36C533.71,283,516.69,289.74,510.6,286.08Z"></path><path class="cls-2" d="M624.8,107.72s-10.38-24.89,27.75-35.11C652.55,72.61,655.55,106.57,624.8,107.72Z"></path><path class="cls-2" d="M427,61a9.38,9.38,0,0,1-2-1.28,1.5,1.5,0,0,0-2.54,1.05c0,7.14-.11,14.28,0,21.42.06,4.2,2.18,8.29,6.32,9.65l.39-2.92H386.83l.39,2.92c4.13-1.36,6.26-5.44,6.32-9.63,0-.82,0-1.64,0-2.46v-46c0-4.87.66-11.68-5-13.54l-.39,2.92H418.9c3.72,0,7.43,0,11.14,0a25.57,25.57,0,0,1,15.26,4.53,20.19,20.19,0,0,1,8.19,15,17.67,17.67,0,0,1-8.21,16.25A21.29,21.29,0,0,1,437,61.75c-3.13.41-7.09.7-10-.75-1.7-.86-3.21,1.71-1.5,2.56,2.91,1.46,6.27,1.52,9.46,1.35a26,26,0,0,0,8.26-1.71,20.76,20.76,0,0,0,11.95-11.85,22.38,22.38,0,0,0-1.48-18.54,24.38,24.38,0,0,0-13.61-11.18c-5.41-1.82-11.2-1.47-16.82-1.47H388.17a1.49,1.49,0,0,0-.4,2.92c3.59,1.18,2.8,7.05,2.8,10.26V77.8c0,4,.57,9.62-4.14,11.17a1.49,1.49,0,0,0,.4,2.92h42.36a1.49,1.49,0,0,0,.4-2.92c-4.65-1.53-4.14-7.07-4.14-11V60.77l-2.53,1a12,12,0,0,0,2.55,1.74C427.15,64.48,428.66,61.91,427,61Z"></path><path class="cls-2" d="M423,56.06c.43,2.51,1.79,6.36,5.16,5.27,2.84-.92,3.5-5,3.94-7.51A59.18,59.18,0,0,0,433,42.55a40.82,40.82,0,0,0-1.55-11.74c-1.12-3.59-3.37-7-7.46-7.1a1.5,1.5,0,0,0-1.49,1.48V46.53a61.93,61.93,0,0,0,.49,9.53c.29,1.88,3.15,1.08,2.86-.79-.75-4.88-.38-10.06-.38-15V25.19L424,26.68c3.47.1,4.58,4.44,5.19,7.2A46,46,0,0,1,430,45.41a42.76,42.76,0,0,1-1.46,10.68c-.16.54-.67,2.35-1.33,2.43-1,.11-1.26-2.77-1.35-3.25C425.51,53.39,422.64,54.18,423,56.06Z"></path><path class="cls-2" d="M533.28,32.81c3.84,9.2-5.7,20.28-15.39,16.93a10.38,10.38,0,0,1-5.57-4.32c-1.27-2.1-1.82-4.56-3.15-6.62a5.89,5.89,0,0,0-5.64-2.66,6.1,6.1,0,0,0-4.66,3.35c-2.46,4.26-2.89,9.67-3,14.49-.05,1.52,0,3.05,0,4.57V74.72c0,1.57,0,3.15,0,4.72.16,5.27,3,10.51,8.19,12.2l.4-2.92H458.84l.4,2.92c5.74-1.87,8.2-7.72,8.2-13.39V42.48a23.07,23.07,0,0,0-.28-4.31c-.83-4.41-3.59-8.27-7.92-9.69l-.4,2.92c6.63,0,13.28,0,19.89-.63s13.56-1.47,19.31-5l-2.24-1.29V38a1.5,1.5,0,0,0,2.77.75c3.89-6.34,9.77-11.86,17.19-13.54a18.41,18.41,0,0,1,11.48,1.19,13,13,0,0,1,6.19,6.75c.78,1.75,3.34.24,2.57-1.5a15.54,15.54,0,0,0-7.26-7.82,21.79,21.79,0,0,0-13-1.65c-8.5,1.53-15.39,7.92-19.77,15.07l2.77.75V24.51a1.5,1.5,0,0,0-2.24-1.28c-5.55,3.38-12.43,4.1-18.76,4.66s-12.62.54-18.94.54a1.49,1.49,0,0,0-.39,2.92c4.69,1.53,6,6.55,6,11V77c0,.69,0,1.37,0,2.06-.05,4-2,8.43-6,9.76a1.49,1.49,0,0,0,.39,2.92H504.4a1.49,1.49,0,0,0,.39-2.92c-4.06-1.33-6-5.77-6-9.79,0-1.39,0-2.78,0-4.18V58.91c0-1.22,0-2.44,0-3.67,0-4.74.27-10.4,2.84-14.55.94-1.52,3-2.31,4.5-1a7.82,7.82,0,0,1,1.65,3,27.89,27.89,0,0,0,1.53,3.39,14,14,0,0,0,11.44,7.18c10.58.69,19.53-11.43,15.41-21.3a1.54,1.54,0,0,0-1.83-1A1.5,1.5,0,0,0,533.28,32.81Z"></path><path class="cls-2" d="M595.05,30.24a34.84,34.84,0,0,1,14.19,13.51A28.44,28.44,0,0,1,612,64.05c-3.2,13.3-16,22.56-29.16,24.32-13.8,1.85-28.5-3.43-36.43-15.23a28.58,28.58,0,0,1-4.57-19.6A29.68,29.68,0,0,1,551.13,36c11.53-10.9,29.94-13,43.92-5.75,1.7.89,3.2-1.68,1.5-2.57-13.61-7.11-31.12-6.06-43.6,3a34.79,34.79,0,0,0-12.87,17.05,31.53,31.53,0,0,0,1.1,22.16c6.1,14,21.39,21.9,36.18,21.83s29.82-8.08,35.82-22a31.49,31.49,0,0,0,1-22.17,35,35,0,0,0-12.94-17,41.65,41.65,0,0,0-4.64-2.87C594.87,26.77,593.36,29.34,595.05,30.24Z"></path><path class="cls-2" d="M571.86,35.47a134.46,134.46,0,0,0-1.38,31.88A88.63,88.63,0,0,0,572.43,82c.54,2.33,1.56,7.34,4.83,7.22s4.31-5.59,4.84-8a96.19,96.19,0,0,0,1.82-14.75c.58-10.57.44-21.5-1.6-31.93a24.36,24.36,0,0,0-2-6.68c-.64-1.23-1.7-2.44-3.21-2.41s-2.55,1.37-3.15,2.62a28.75,28.75,0,0,0-2.07,7.38c-.35,1.87,2.52,2.68,2.86.79a35.13,35.13,0,0,1,1.52-6.06,6.9,6.9,0,0,1,.78-1.53c.05-.08.17-.14.26-.27,0,.05,0,0-.14,0s-.11-.08,0,0c-.14-.21.23.25.26.29a6.56,6.56,0,0,1,.68,1.32,30.53,30.53,0,0,1,1.54,6c1.68,9.12,1.83,18.59,1.49,27.84a108.28,108.28,0,0,1-1.21,13.2,45.85,45.85,0,0,1-1.33,6.13,8.5,8.5,0,0,1-1.47,3.1c-.09.1.18-.06.19,0s-.07,0-.19-.18a4.7,4.7,0,0,1-.41-.68,19.26,19.26,0,0,1-1.54-5,87.27,87.27,0,0,1-1.63-12.68c-.68-10.43-.6-21.19,1.24-31.51C575.06,34.39,572.19,33.59,571.86,35.47Z"></path><path class="cls-2" d="M93.5,220.14l13.67,31.57,1.92,4.44c1.14,2.64,5,.36,3.87-2.26L99.29,222.32l-1.92-4.44c-1.15-2.64-5-.36-3.87,2.26Z"></path><path class="cls-3" d="M61.76,251c-11.47,7.51-26.49,1.55-38.09-9.94A20.12,20.12,0,0,0,21,247a.93.93,0,0,1-1.72.2c-1.3-2.49-2.86-6.78-1-10.7L12.57,238a.93.93,0,0,1-1-1.38l2.87-4.8L5.15,229.3a.94.94,0,0,1-.32-1.65l4.62-3.48a72.29,72.29,0,0,1-9.16-7.33.94.94,0,0,1,.93-1.57,22.41,22.41,0,0,0,6.88,1.24A44.06,44.06,0,0,1,5.74,203.8c-.76-28.29,25.8-42,48.65-38S104.64,223,61.76,251Z"></path><path class="cls-4" d="M90.78,258.32c32.11-20.52,70-13.6,78,29.84S142.27,349.27,98,335.63,75.2,268.28,90.78,258.32Z"></path><path class="cls-4" d="M235.88,155.41c24-15.36,52.39-10.18,58.41,22.33s-19.87,45.74-53,35.53S224.22,162.86,235.88,155.41Z"></path><path class="cls-5" d="M95.19,162.87c11.38-13.5,2.6-47.48-25.37-48.88s-39.72,18.46-37.48,34.4S46.87,170,46.87,170,75,184.29,95.19,162.87"></path><path class="cls-2" d="M137.38,177.23l36.67-4.44,8.26-1a7.86,7.86,0,0,0,1.88-.22c.55-.24-.85-.2.07,0,6.1,1,12.22,1.87,18.33,2.81L221,177.15c2.82.43,4-3.89,1.19-4.33l-35.83-5.49c-3.2-.48-6.42.27-9.61.66l-23.11,2.79-16.24,2c-2.83.35-2.87,4.83,0,4.49Z"></path><path class="cls-2" d="M131.46,118.6a41.06,41.06,0,0,0,23.79,6.8,42.39,42.39,0,0,0,23.06-8.47c18.51-13.64,27.45-37.19,31.35-59.07,3.28-18.34,3.39-37.11,1.6-55.61A2.27,2.27,0,0,0,207.89.31c-4.53,2.56-8.95,5.32-13.34,8.11-10.22,6.48-20.2,13.37-29.8,20.73-11.05,8.49-21.79,17.58-31.08,28C126,65.76,118.28,76,116.12,87.59a27.4,27.4,0,0,0,1,14.77,31.39,31.39,0,0,0,10.18,13.28q2,1.58,4.12,3c2.43,1.57,4.68-2.31,2.26-3.87-4.61-3-8.75-6.7-11.29-11.51a21.78,21.78,0,0,1-2.24-12.8,32.9,32.9,0,0,1,.61-3.3c.29-1.21.65-2.4,1.06-3.58a45.67,45.67,0,0,1,3.17-7,84.26,84.26,0,0,1,10.22-14.43c8.8-10.24,19.07-19.19,29.68-27.5,9.5-7.44,19.43-14.34,29.57-20.87q5.13-3.31,10.36-6.47a50.17,50.17,0,0,0,5.06-3,1.71,1.71,0,0,1,.23-.13l-3.38-1.93c2.74,28.26,1.57,58.87-10.8,85-7.27,15.36-20,31-37.7,33.44-8.68,1.2-17.18-1.23-24.55-5.93C131.28,113.17,129,117.05,131.46,118.6Z"></path><path class="cls-2" d="M116.53,152.48l20.41-31.54c3.29-5.08,6.46-10.23,9.69-15.36l24.15-38.37,26-41.34c4.63-7.37,9.61-14.62,13.95-22.17.06-.11.13-.21.2-.32,1.54-2.45-2.33-4.7-3.87-2.27l-11.51,18.3L170.28,59.58l-25.11,39.9c-3.76,6-7.49,12-11.29,18-6.78,10.62-13.69,21.15-20.53,31.72l-.69,1.07c-1.57,2.43,2.31,4.68,3.87,2.26Z"></path><path class="cls-2" d="M186.27,238.2a18.13,18.13,0,0,1,12.39-6c6.51-.6,12.81.89,18.91,3.32,17.72,7.05,31.92,22,42.15,37.64a161.39,161.39,0,0,1,18.79,41.09l2.17-2.84A188.65,188.65,0,0,1,236,307.91c-11.55-2.28-23.15-5.72-33.28-11.86a60.7,60.7,0,0,1-15.48-13.72,40.56,40.56,0,0,1-8.77-17.7c-1.82-9.57,1.81-19.3,7.8-26.43,1.84-2.19-1.32-5.38-3.17-3.17-5.86,7-9.76,15.67-9.59,24.9.28,14.32,10,27.24,20.83,35.75,9.81,7.68,21.83,12.16,33.83,15.09a190.71,190.71,0,0,0,34.12,4.86,179.08,179.08,0,0,0,18.39.29,2.28,2.28,0,0,0,2.16-2.84c-7.47-24.38-19.79-48.14-38.8-65.52C232.41,236.91,216.6,227,200.2,227.63c-6.38.26-12.86,2.43-17.1,7.4C181.23,237.22,184.39,240.4,186.27,238.2Z"></path><path class="cls-2" d="M131.71,188.4l28.11,27.22,17.8,17.23c1.94,1.87,3.81,3.89,5.88,5.62,8.51,7.1,17.3,13.9,25.94,20.84l43.07,34.6c8.73,7,17.42,14,26.17,21l.41.33c2.23,1.79,5.42-1.36,3.17-3.17l-21.84-17.54-42.84-34.41-29.8-23.94c-1.48-1.2-2.81-2.48-4.18-3.81l-15.74-15.23-32.34-31.31-.64-.62c-2.07-2-5.25,1.16-3.17,3.17Z"></path><path class="cls-2" d="M186.66,239.31,181,277.94c-.42,2.82,3.9,4,4.32,1.19l5.7-38.62c.42-2.83-3.9-4-4.32-1.2Z"></path><path class="cls-2" d="M195.16,246.22l-6,40.69c-.42,2.82,3.9,4,4.32,1.19l6-40.69c.41-2.82-3.91-4-4.33-1.19Z"></path><path class="cls-2" d="M203.67,253.12l-5.49,37.24-.78,5.25c-.42,2.82,3.9,4,4.32,1.19l5.5-37.24.77-5.25c.42-2.82-3.9-4-4.32-1.19Z"></path><path class="cls-2" d="M212.17,260l-5.79,39.28c-.42,2.82,3.9,4,4.32,1.19l5.8-39.28c.41-2.82-3.91-4-4.33-1.19Z"></path><path class="cls-2" d="M220.68,266.93l-5.43,36.77c-.41,2.83,3.91,4,4.33,1.2L225,268.12c.42-2.82-3.9-4-4.32-1.19Z"></path><path class="cls-2" d="M229.18,273.84l-4.9,33.26a2.31,2.31,0,0,0,1.56,2.75,2.25,2.25,0,0,0,2.76-1.56L233.51,275a2.32,2.32,0,0,0-1.57-2.76,2.26,2.26,0,0,0-2.76,1.57Z"></path><path class="cls-2" d="M237.69,280.74l-4,27a2.32,2.32,0,0,0,1.57,2.76A2.27,2.27,0,0,0,238,308.9l4-27a2.32,2.32,0,0,0-1.56-2.76,2.27,2.27,0,0,0-2.76,1.57Z"></path><path class="cls-2" d="M246.19,287.65l-3.42,23.21a2.31,2.31,0,0,0,1.57,2.76,2.25,2.25,0,0,0,2.75-1.57l3.43-23.21a2.32,2.32,0,0,0-1.57-2.76,2.26,2.26,0,0,0-2.76,1.57Z"></path><path class="cls-2" d="M254.7,294.55l-2.21,15a2.31,2.31,0,0,0,1.57,2.76,2.26,2.26,0,0,0,2.75-1.57l2.21-15a2.31,2.31,0,0,0-1.56-2.76,2.27,2.27,0,0,0-2.76,1.57Z"></path><path class="cls-2" d="M263.21,301.45l-1.65,11.19a2.44,2.44,0,0,0,.22,1.72,2.25,2.25,0,0,0,4.1-.53l1.65-11.18a2.47,2.47,0,0,0-.23-1.73,2.24,2.24,0,0,0-4.09.53Z"></path><path class="cls-2" d="M190.58,241.34l20.42-7.5a2.3,2.3,0,0,0,1.57-2.76,2.26,2.26,0,0,0-2.76-1.56L189.39,237a2.31,2.31,0,0,0-1.57,2.76,2.26,2.26,0,0,0,2.76,1.57Z"></path><path class="cls-2" d="M199.07,248.26l23.62-8.68a2.29,2.29,0,0,0,1.57-2.75,2.26,2.26,0,0,0-2.76-1.57l-23.62,8.67a2.3,2.3,0,0,0-1.57,2.76,2.27,2.27,0,0,0,2.76,1.57Z"></path><path class="cls-2" d="M207.57,255.17l25.71-9.44a2.3,2.3,0,0,0,1.56-2.75,2.26,2.26,0,0,0-2.76-1.57l-25.71,9.44a2.31,2.31,0,0,0-1.56,2.76,2.26,2.26,0,0,0,2.76,1.56Z"></path><path class="cls-2" d="M216.06,262.09l26.74-9.82c2.68-1,1.52-5.32-1.2-4.32l-26.73,9.82c-2.69,1-1.53,5.32,1.19,4.32Z"></path><path class="cls-2" d="M224.56,269l26.22-9.63a2.3,2.3,0,0,0,1.57-2.76,2.26,2.26,0,0,0-2.76-1.56l-26.23,9.63a2.3,2.3,0,0,0-1.56,2.75,2.26,2.26,0,0,0,2.76,1.57Z"></path><path class="cls-2" d="M233.05,275.93l22.52-8.27a2.3,2.3,0,0,0,1.57-2.76,2.26,2.26,0,0,0-2.76-1.57l-22.52,8.27a2.3,2.3,0,0,0-1.57,2.76,2.26,2.26,0,0,0,2.76,1.57Z"></path><path class="cls-2" d="M241.54,282.85l19.93-7.32a2.3,2.3,0,0,0,1.57-2.76,2.28,2.28,0,0,0-2.76-1.57l-19.93,7.32a2.31,2.31,0,0,0-1.56,2.76,2.27,2.27,0,0,0,2.75,1.57Z"></path><path class="cls-2" d="M250,289.76l17.2-6.31a2.3,2.3,0,0,0,1.57-2.76,2.26,2.26,0,0,0-2.76-1.57l-17.2,6.32a2.3,2.3,0,0,0-1.57,2.76,2.26,2.26,0,0,0,2.76,1.56Z"></path><path class="cls-2" d="M258.53,296.68l12.52-4.59a2.29,2.29,0,0,0,1.56-2.76,2.26,2.26,0,0,0-2.75-1.57l-12.52,4.6a2.24,2.24,0,0,0,1.19,4.32Z"></path><path class="cls-2" d="M267,303.6l7.16-2.63a2.42,2.42,0,0,0,1.34-1,2.24,2.24,0,0,0-2.53-3.29l-7.16,2.63a2.38,2.38,0,0,0-1.34,1A2.24,2.24,0,0,0,267,303.6Z"></path><path class="cls-2" d="M139.86,111.66,123.74,79.57c-1.3-2.58-5.17-.31-3.87,2.27L136,113.93c1.3,2.58,5.17.31,3.88-2.27Z"></path><path class="cls-2" d="M145.77,102.44,128.91,68.87c-1.3-2.58-5.17-.31-3.88,2.26L141.9,104.7c1.29,2.58,5.16.31,3.87-2.26Z"></path><path class="cls-2" d="M151.68,93.22,136,62c-1.29-2.58-5.16-.32-3.87,2.26l15.69,31.23c1.29,2.58,5.16.31,3.87-2.26Z"></path><path class="cls-2" d="M157.59,84,142.27,53.48c-1.3-2.58-5.17-.31-3.88,2.27l15.33,30.51c1.29,2.58,5.16.31,3.87-2.27Z"></path><path class="cls-2" d="M163.5,74.77,149.23,46.35c-1.3-2.57-5.16-.31-3.87,2.27L159.63,77c1.29,2.58,5.16.31,3.87-2.26Z"></path><path class="cls-2" d="M169.41,65.55,156.67,40.18c-1.29-2.58-5.16-.31-3.87,2.26l12.74,25.37c1.29,2.58,5.16.31,3.87-2.26Z"></path><path class="cls-2" d="M175.32,56.32,164.24,34.26a2.25,2.25,0,0,0-3.06-.8,2.28,2.28,0,0,0-.81,3.06l11.08,22.07a2.24,2.24,0,0,0,3.87-2.27Z"></path><path class="cls-2" d="M181.23,47.1,172.1,28.92a2.26,2.26,0,0,0-3.06-.8,2.29,2.29,0,0,0-.81,3.07l9.13,18.17a2.24,2.24,0,1,0,3.87-2.26Z"></path><path class="cls-2" d="M187.14,37.88l-8-16a2.28,2.28,0,0,0-3.07-.81,2.3,2.3,0,0,0-.81,3.07l8,16a2.24,2.24,0,0,0,3.87-2.26Z"></path><path class="cls-2" d="M193.06,28.65l-6.17-12.28a2.26,2.26,0,0,0-3.07-.8,2.29,2.29,0,0,0-.8,3.07l6.16,12.28a2.26,2.26,0,0,0,3.07.8,2.3,2.3,0,0,0,.81-3.07Z"></path><path class="cls-2" d="M199,19.43l-4.34-8.64a2.26,2.26,0,0,0-3.07-.8,2.29,2.29,0,0,0-.8,3.07l4.34,8.63a2.26,2.26,0,0,0,3.06.81,2.3,2.3,0,0,0,.81-3.07Z"></path><path class="cls-2" d="M139.37,116.68l36,2c2.88.16,2.87-4.32,0-4.48l-36-2c-2.88-.16-2.87,4.33,0,4.48Z"></path><path class="cls-2" d="M146.34,107.63l38.64,2.1c2.88.16,2.87-4.32,0-4.48l-38.64-2.1c-2.88-.16-2.87,4.32,0,4.48Z"></path><path class="cls-2" d="M152.8,98.54l38.27,2.09c2.88.16,2.88-4.33,0-4.48L152.8,94.06c-2.89-.16-2.88,4.33,0,4.48Z"></path><path class="cls-2" d="M158.89,89.44l38.27,2.09c2.89.15,2.88-4.33,0-4.49L158.89,85c-2.88-.16-2.87,4.32,0,4.48Z"></path><path class="cls-2" d="M163.8,80.27l37.65,2c2.88.16,2.87-4.32,0-4.48l-37.65-2c-2.88-.16-2.87,4.33,0,4.48Z"></path><path class="cls-2" d="M168.75,71.11,203,73c2.88.16,2.87-4.32,0-4.48l-34.23-1.87c-2.88-.15-2.87,4.33,0,4.49Z"></path><path class="cls-2" d="M173.7,61.94l32.89,1.79c2.88.16,2.87-4.32,0-4.48L173.7,57.46c-2.88-.16-2.87,4.32,0,4.48Z"></path><path class="cls-2" d="M178.66,52.77l28.78,1.57c2.88.16,2.87-4.32,0-4.48l-28.78-1.57c-2.88-.16-2.87,4.33,0,4.48Z"></path><path class="cls-2" d="M184.75,43.67l24,1.31c2.89.15,2.88-4.33,0-4.49l-24-1.3c-2.88-.16-2.87,4.32,0,4.48Z"></path><path class="cls-2" d="M190.85,34.57l18.9,1a2.25,2.25,0,1,0,0-4.49l-18.9-1a2.25,2.25,0,0,0,0,4.49Z"></path><path class="cls-2" d="M196.94,25.46l13.37.73A2.25,2.25,0,0,0,212.55,24a2.28,2.28,0,0,0-2.24-2.24L196.94,21a2.26,2.26,0,0,0-2.24,2.24,2.29,2.29,0,0,0,2.24,2.24Z"></path><path class="cls-6" d="M238.31,162.78l3.25,7.09a1.17,1.17,0,0,1-.09,1.13l-4.21,6.47a1.18,1.18,0,0,0,1.62,1.64l7.7-4.9a1.19,1.19,0,0,1,1.72.52l2.24,5.07a1.18,1.18,0,0,0,2.26-.59l-.93-9.38a1.18,1.18,0,0,1,.88-1.26l5.17-1.32a1.18,1.18,0,0,0-.24-2.32l-6.88-.32a1.18,1.18,0,0,1-1.09-1.46l1.11-4.59a1.18,1.18,0,0,0-2.08-1L245,162.43a1.18,1.18,0,0,1-1.4.37l-3.78-1.6A1.19,1.19,0,0,0,238.31,162.78Z"></path><path class="cls-6" d="M120.3,259.74a45.4,45.4,0,0,1-4.87,9.37.86.86,0,0,1-1,.34l-8.5-2.85A.87.87,0,0,0,105,268l8.65,9.06a.88.88,0,0,1,.25.54l.51,7.67a.88.88,0,0,0,1.71.22c1.15-3.51,3.15-7.53,6.42-8.2s6.74,1.77,9.26,4.15a.87.87,0,0,0,1.39-1l-4.44-10.13a.88.88,0,0,1,.33-1.09l7.37-4.66a.88.88,0,0,0-.64-1.6l-11.41,2.31a.88.88,0,0,1-1-.61L122,259.8A.87.87,0,0,0,120.3,259.74Z"></path><path class="cls-4" d="M76.2,162.28c22.71-20.64,65-13.29,64.09,32.76s-55.07,30.39-66.46,24.21S55.31,181.27,76.2,162.28Z"></path><path class="cls-6" d="M119,170.14l-.59,2a1.52,1.52,0,0,1-1.54,1.08l-6.82-.43a1.51,1.51,0,0,0-.88,2.79c3.07,1.86,6.07,4.36,6.3,7.13.19,2.32-1.84,4.09-4.36,5.39a1.51,1.51,0,0,0,.73,2.83h5.93a1.56,1.56,0,0,1,.57.11l8.72,3.56a1.51,1.51,0,0,0,1.89-2.14L122.43,181a1.52,1.52,0,0,1,.1-1.64l3.78-5.07a1.51,1.51,0,0,0-2-2.19h0a1.51,1.51,0,0,1-2.28-1l-.15-.81A1.51,1.51,0,0,0,119,170.14Z"></path></g></g></svg>