<svg xmlns="http://www.w3.org/2000/svg" viewBox="0 0 668.95 417.74"><defs><style>.cls-1{fill:#fff;}</style></defs><g id="Capa_2" data-name="Capa 2"><g id="Capa_1-2" data-name="Capa 1"><path class="cls-1" d="M314.82,11A54.38,54.38,0,0,1,335,28.85a43.54,43.54,0,0,1,7.52,24.83A43.54,43.54,0,0,1,335,78.51a54.47,54.47,0,0,1-20.13,17.86,62.21,62.21,0,0,1-56.05,0,54.39,54.39,0,0,1-20.18-17.86,43.54,43.54,0,0,1-7.52-24.83,43.54,43.54,0,0,1,7.52-24.83A54.31,54.31,0,0,1,258.77,11a62.13,62.13,0,0,1,56.05,0ZM281,21.38a184.17,184.17,0,0,0-2.43,32.3A184.17,184.17,0,0,0,281,86q2.42,13.41,5.78,13.41T292.66,86a185.24,185.24,0,0,0,2.42-32.3,185.24,185.24,0,0,0-2.42-32.3Q290.23,8,286.77,8T281,21.38Z"/><path class="cls-1" d="M274,155.11q4,9.24-2.09,20.19-5.7,8.7-13.81,10.79a20.73,20.73,0,0,1-15.41-1.77,18,18,0,0,1-6.92-6.12,35.54,35.54,0,0,1-3.39-6.88,24,24,0,0,0-2.14-4.56A6.91,6.91,0,0,0,227,164q-5.79-1.71-8.8,2.9a30.1,30.1,0,0,0-4.14,12,91.5,91.5,0,0,0-1.13,13.8v38.44a22.6,22.6,0,0,0,3,11.17,14.48,14.48,0,0,0,8.59,7.09H150.21a14.48,14.48,0,0,0,8.59-7.09,22.59,22.59,0,0,0,3-11.17v-62a22.33,22.33,0,0,0-3-11.12,14.52,14.52,0,0,0-8.59-7h2.47q6.76.1,18.36-.27a180.36,180.36,0,0,0,23.2-2.26q11.59-1.87,18.68-6.28v22a59.55,59.55,0,0,1,12.3-14.45,40.34,40.34,0,0,1,16.54-8.59q9.18-2.31,19.71,1.34Q269.95,145.87,274,155.11Z"/><path class="cls-1" d="M484.74,151a37.36,37.36,0,0,1,19.66-8.92,44,44,0,0,1,22.17,2.53,40,40,0,0,1,18.21,14q7.31,9.89,7.84,25.67l.11,46.82a22.59,22.59,0,0,0,3,11.17,14.48,14.48,0,0,0,8.59,7.09H523.51q-7.95,0-12.4-3.27a19.72,19.72,0,0,1-6.5-7.84,29,29,0,0,1-2.47-9c-.28-2.94-.43-5.19-.43-6.77l-.1-30.93q.11-17.28-1.51-27.54t-6.44-10.58q-2.27-.23-4.57,2.57t-3.65,10.64q-1.33,7.83-.7,23v41.45a22.25,22.25,0,0,0,3.06,11.17,14.7,14.7,0,0,0,8.65,7.09H422.13a14.45,14.45,0,0,0,8.59-7.09,22.5,22.5,0,0,0,3-11.17v-62a22.23,22.23,0,0,0-3-11.12,14.49,14.49,0,0,0-8.59-7q4.41,0,16.27-.43a208.65,208.65,0,0,0,24.81-2.47q12.94-2,21.53-6.88Z"/><path class="cls-1" d="M55.77,414.53q-22.67,1.29-36-9.34A49.82,49.82,0,0,1,2.07,377.91a63.31,63.31,0,0,1,.32-33.29,51.76,51.76,0,0,1,18.05-27.34q13.41-10.68,35.33-9.5a27,27,0,0,1,9,2.63q3.87,2,4.62,3.28V284.58a22.43,22.43,0,0,0-3-11.06,14.46,14.46,0,0,0-8.7-7.09h3.76q7.51.12,19-.11t22.61-1.44q11.11-1.25,17.34-4.35V396.27a22.5,22.5,0,0,0,3,11.17,14.43,14.43,0,0,0,8.7,7.09h-49a31.18,31.18,0,0,1-8.75-1.07,7.41,7.41,0,0,1-5-4.84,19.94,19.94,0,0,1-5,3.5A23.67,23.67,0,0,1,55.77,414.53Zm13.64-47V354.82q0-22.12-2-31t-5.21-8.54q-4,.43-6.28,9.66a123.94,123.94,0,0,0-3.06,22.77A226.21,226.21,0,0,0,53,374.79a131.6,131.6,0,0,0,3.16,22.88Q58.45,407,62.21,407c2.37,0,4.15-2.9,5.37-8.7S69.41,382.24,69.41,367.49Z"/><path class="cls-1" d="M341.33,316.16A37.36,37.36,0,0,1,361,307.24a44,44,0,0,1,22.18,2.53,40,40,0,0,1,18.2,14q7.31,9.89,7.84,25.67l.11,46.82a22.59,22.59,0,0,0,3,11.17,14.47,14.47,0,0,0,8.6,7.09H380.1q-7.94,0-12.4-3.27a19.72,19.72,0,0,1-6.5-7.84,29,29,0,0,1-2.47-9c-.28-2.94-.43-5.19-.43-6.77l-.1-30.93q.1-17.28-1.51-27.54t-6.44-10.58c-1.51-.14-3,.71-4.57,2.57s-2.75,5.41-3.65,10.64-1.13,12.88-.7,23v41.45a22.16,22.16,0,0,0,3.07,11.17,14.66,14.66,0,0,0,8.64,7.09H278.72a14.42,14.42,0,0,0,8.59-7.09,22.5,22.5,0,0,0,3-11.17v-62a22.23,22.23,0,0,0-3-11.12,14.46,14.46,0,0,0-8.59-7q4.41,0,16.27-.43a208.65,208.65,0,0,0,24.81-2.47q12.94-2,21.53-6.88Z"/><path class="cls-1" d="M511.93,314.6A59.2,59.2,0,0,1,533.79,334a48.62,48.62,0,0,1,0,53.92,59.11,59.11,0,0,1-21.86,19.38,67.44,67.44,0,0,1-60.84,0,59.11,59.11,0,0,1-21.91-19.38,48.62,48.62,0,0,1,0-53.92,59.2,59.2,0,0,1,21.91-19.38,67.44,67.44,0,0,1,60.84,0ZM475.2,325.88a200.82,200.82,0,0,0-2.63,35.06A200.86,200.86,0,0,0,475.2,396q2.64,14.55,6.29,14.55T487.88,396a200.86,200.86,0,0,0,2.63-35.07,200.82,200.82,0,0,0-2.63-35.06q-2.64-14.55-6.39-14.56T475.2,325.88Z"/><path class="cls-1" d="M640.16,308.59a53.56,53.56,0,0,1,21,9.34q8.49,6.49,7.73,17.67-1.29,8.58-7.68,12.29A24.45,24.45,0,0,1,646.82,351a27.42,27.42,0,0,1-14.12-4.94,15.39,15.39,0,0,1-6.77-11.66,18.1,18.1,0,0,1,1-7.57,26.73,26.73,0,0,1,2.64-5.1,10.08,10.08,0,0,0,1.93-4.62c-.07-2.22-1.27-3.93-3.6-5.15a17.67,17.67,0,0,0-8.64-1.72q-11.92.54-16,5.69t-1.07,12.51q3,7.37,12.46,14.23a152.41,152.41,0,0,0,24,13.11,155.45,155.45,0,0,1,17,8.8q7.73,5.16,10.68,11.33a21.9,21.9,0,0,1,2.2,12.3q-1.4,10.3-12.35,17.29t-27,9.72a109.09,109.09,0,0,1-32.6.59,72.61,72.61,0,0,1-29.37-10.09,39.36,39.36,0,0,1-17.29-22.34A57.67,57.67,0,0,0,564,392.73a43.35,43.35,0,0,0,15.62,4.62q7.26.54,9.61-4.73,1.18-3.54-2.52-6.28a63.45,63.45,0,0,0-9.93-5.75,119.56,119.56,0,0,1-13.21-7.51,39.35,39.35,0,0,1-11.33-11.23q-4.58-6.81-4.35-17.13a31.88,31.88,0,0,1,12.46-23.78,69.1,69.1,0,0,1,26.95-12.73,100.8,100.8,0,0,1,29.21-3A136.51,136.51,0,0,1,640.16,308.59Z"/><path class="cls-1" d="M131.82,241.86a23.51,23.51,0,0,1-3.14-11.67V193.28a50.69,50.69,0,0,0-7.8-27.77,57.32,57.32,0,0,0-21.32-19.7q-13.52-7.4-31.14-8.52A88,88,0,0,0,42.9,140a58.8,58.8,0,0,0-22.11,10.38q-9.13,7.13-10.15,17.78-.35,11,6.28,16.78a25.39,25.39,0,0,0,15.71,6.28,25.33,25.33,0,0,0,16.21-4.38q7.13-4.87,7.8-15.31a20.24,20.24,0,0,0-1.62-9.2,28,28,0,0,0-3.88-6.06,25.54,25.54,0,0,1-2.52-3.87,6.61,6.61,0,0,1-.62-4.1,7.82,7.82,0,0,1,4.94-5.89,15.56,15.56,0,0,1,8-.73,15.88,15.88,0,0,1,11.5,7.86q4,6.61,2.19,15.76T63.09,183.4q-9.71,9-29.45,14.93-18.4,5.61-24.85,14.53t-4.43,18q2,9.31,10.65,15.55t22.33,6A56.47,56.47,0,0,0,59.56,247a35.82,35.82,0,0,0,15.82-13.8,35.13,35.13,0,0,0,.34,4.26,12.8,12.8,0,0,0,7.12,9.88q3.54,1.9,9.93,1.91h48A15.13,15.13,0,0,1,131.82,241.86Zm-78.18-9.78c-9.16-5.51-14.24-18.29-5.43-27.89a20.66,20.66,0,0,1,4.67-3.7,10.49,10.49,0,0,0-2.77-1.65.43.43,0,0,1,.15-.83,34.07,34.07,0,0,1,5.4.22l-.55-2.6a.43.43,0,0,1,.61-.48l4,1.92.45-2.54a.43.43,0,0,1,.78-.16l1.52,2.24A5.71,5.71,0,0,1,66,193.19a.44.44,0,0,1,.54.6,9.24,9.24,0,0,0-.85,2.86c7.5-.48,14.52,2,16.23,8.06C88.37,227.42,62.8,237.58,53.64,232.08Z"/><path class="cls-1" d="M408.17,241.86A23.61,23.61,0,0,1,405,230.19V193.28a50.69,50.69,0,0,0-7.8-27.77,57.25,57.25,0,0,0-21.32-19.7q-13.52-7.4-31.13-8.52A88,88,0,0,0,319.25,140a58.68,58.68,0,0,0-22.1,10.38Q288,157.49,287,168.14q-.33,11,6.29,16.78a26.62,26.62,0,0,0,31.92,1.9q7.13-4.87,7.8-15.31a20.23,20.23,0,0,0-1.63-9.2,28,28,0,0,0-3.87-6.06,25.66,25.66,0,0,1-2.53-3.87,6.61,6.61,0,0,1-.61-4.1,7.79,7.79,0,0,1,4.93-5.89,15.57,15.57,0,0,1,8-.73,15.88,15.88,0,0,1,11.5,7.86q4,6.61,2.19,15.76t-11.5,18.12q-9.7,9-29.46,14.93-18.39,5.61-24.85,14.53t-4.43,18q2,9.31,10.66,15.55t22.33,6A56.43,56.43,0,0,0,335.91,247a35.82,35.82,0,0,0,15.82-13.8,37.31,37.31,0,0,0,.34,4.26,12.78,12.78,0,0,0,7.13,9.88q3.53,1.9,9.93,1.91h48A15.16,15.16,0,0,1,408.17,241.86ZM330,232.08c-9.15-5.51-14.23-18.29-5.42-27.89a20.38,20.38,0,0,1,4.66-3.7,10.29,10.29,0,0,0-2.76-1.65.43.43,0,0,1,.15-.83,33.9,33.9,0,0,1,5.39.22l-.55-2.6a.44.44,0,0,1,.61-.48l4,1.92.46-2.54a.43.43,0,0,1,.78-.16l1.51,2.24a5.7,5.7,0,0,1,3.59-3.42.43.43,0,0,1,.53.6,9.24,9.24,0,0,0-.85,2.86c7.5-.48,14.52,2,16.24,8.06C364.72,227.42,339.15,237.58,330,232.08Z"/><path class="cls-1" d="M265,407.18a23.52,23.52,0,0,1-3.15-11.67V358.6A50.77,50.77,0,0,0,254,330.83a57.4,57.4,0,0,0-21.32-19.7q-13.53-7.39-31.14-8.52A88,88,0,0,0,176,305.3a58.75,58.75,0,0,0-22.1,10.38q-9.15,7.13-10.16,17.78-.33,11,6.29,16.78A26.64,26.64,0,0,0,182,352.15q7.13-4.89,7.8-15.32a20.23,20.23,0,0,0-1.63-9.2,28,28,0,0,0-3.87-6.06,24.8,24.8,0,0,1-2.52-3.87,6.54,6.54,0,0,1-.62-4.1,7.8,7.8,0,0,1,4.94-5.89,15.53,15.53,0,0,1,8-.73,15.89,15.89,0,0,1,11.5,7.86q4,6.62,2.19,15.76t-11.5,18.12q-9.71,9-29.45,14.93-18.4,5.61-24.86,14.53t-4.43,18q2,9.31,10.66,15.54t22.33,6a56.52,56.52,0,0,0,22.22-5.39,35.87,35.87,0,0,0,15.82-13.8,37.2,37.2,0,0,0,.33,4.27,13.31,13.31,0,0,0,2,5.33,13.14,13.14,0,0,0,5.16,4.54c2.35,1.27,5.67,1.91,9.93,1.91h48A15.11,15.11,0,0,1,265,407.18Zm-78.18-9.78c-9.16-5.51-14.24-18.29-5.43-27.89a20.29,20.29,0,0,1,4.66-3.69,10.08,10.08,0,0,0-2.76-1.66.43.43,0,0,1,.15-.83,33.43,33.43,0,0,1,5.4.23l-.56-2.61a.44.44,0,0,1,.61-.48l4,1.92.46-2.54a.43.43,0,0,1,.78-.16l1.52,2.24a5.64,5.64,0,0,1,3.58-3.41.42.42,0,0,1,.53.59,9.6,9.6,0,0,0-.85,2.86c7.51-.48,14.52,2,16.24,8.06C221.5,392.74,195.93,402.91,186.78,397.4Z"/><path class="cls-1" d="M358.4,129.35S342.8,92,400.1,76.59C400.1,76.59,404.61,127.63,358.4,129.35Z"/><path class="cls-1" d="M60,61.07a15.13,15.13,0,0,1-3.39-2.27V91.08a15.22,15.22,0,0,0,2,7.5,9.72,9.72,0,0,0,5.84,4.75H.77A9.7,9.7,0,0,0,6.6,98.58a15.11,15.11,0,0,0,2-7.5V12.25A30.6,30.6,0,0,0,8.19,7.1a11.33,11.33,0,0,0-1.7-4.47A6.43,6.43,0,0,0,2.78,0h63A41.57,41.57,0,0,1,83.86,3.64a34,34,0,0,1,12.25,9.51A32.29,32.29,0,0,1,102.38,26a31.34,31.34,0,0,1,.18,13.76,28.16,28.16,0,0,1-6,12.32,29.06,29.06,0,0,1-12.25,8.47q-7.68,3-18.55,2.16A15.86,15.86,0,0,1,60,61.07Zm-2.74-9.94c.43,2.66,1,4.42,1.73,5.26a3.18,3.18,0,0,0,2.45,1.26q3-.07,4.65-7.17a85.79,85.79,0,0,0,1.84-16.9,88.51,88.51,0,0,0-.36-9.12,51.36,51.36,0,0,0-1.63-9.18,19.34,19.34,0,0,0-3.45-7.14,7.22,7.22,0,0,0-5.88-2.81V38.84A84.6,84.6,0,0,0,57.23,51.13Z"/><path class="cls-1" d="M223,16.19q3.7,8.5-1.93,18.59-5.24,8-12.71,9.94a19.09,19.09,0,0,1-14.2-1.63,16.65,16.65,0,0,1-6.38-5.64,32.39,32.39,0,0,1-3.11-6.33,22.3,22.3,0,0,0-2-4.2,6.42,6.42,0,0,0-3-2.53q-5.34-1.58-8.11,2.68a27.68,27.68,0,0,0-3.81,11,84.44,84.44,0,0,0-1,12.71V86.23a20.7,20.7,0,0,0,2.77,10.28,13.32,13.32,0,0,0,7.92,6.53H109a13.31,13.31,0,0,0,7.91-6.53,20.7,20.7,0,0,0,2.77-10.28V29.14a20.43,20.43,0,0,0-2.77-10.23A13.33,13.33,0,0,0,109,12.43h2.27q6.24.09,16.92-.25a168,168,0,0,0,21.37-2.08q10.68-1.72,17.21-5.79V24.6A54.34,54.34,0,0,1,178.1,11.29a37.13,37.13,0,0,1,15.23-7.92q8.46-2.12,18.16,1.24Q219.3,7.69,223,16.19Z"/></g></g></svg>