<svg xmlns="http://www.w3.org/2000/svg" viewBox="0 0 536.17 334.82"><defs><style>.cls-1{fill:#c2a9d3;}.cls-2{fill:#fff;}</style></defs><g id="Capa_2" data-name="Capa 2"><g id="Capa_1-2" data-name="Capa 1"><path class="cls-1" d="M219.6,124.32q3.22,7.41-1.68,16.18-4.56,7-11.06,8.65a16.6,16.6,0,0,1-12.35-1.42,14.45,14.45,0,0,1-5.56-4.9,29.15,29.15,0,0,1-2.71-5.51,19.28,19.28,0,0,0-1.72-3.66,5.54,5.54,0,0,0-2.58-2.2q-4.65-1.36-7.06,2.33a24.31,24.31,0,0,0-3.32,9.6,73.42,73.42,0,0,0-.9,11.06v30.81a18.07,18.07,0,0,0,2.41,9A11.6,11.6,0,0,0,180,199.9H120.39a11.63,11.63,0,0,0,6.89-5.68,18.18,18.18,0,0,0,2.41-9V135.6a17.91,17.91,0,0,0-2.41-8.91,11.67,11.67,0,0,0-6.89-5.64h2q5.43.09,14.72-.22a146,146,0,0,0,18.59-1.8q9.3-1.52,15-5v17.65a47.59,47.59,0,0,1,9.86-11.58,32.36,32.36,0,0,1,13.25-6.89,27.3,27.3,0,0,1,15.8,1.08A17.94,17.94,0,0,1,219.6,124.32Z"></path><path class="cls-1" d="M388.53,121.05a29.94,29.94,0,0,1,15.75-7.15,35.28,35.28,0,0,1,17.77,2,32,32,0,0,1,14.6,11.23q5.85,7.92,6.28,20.57l.09,37.53a18.07,18.07,0,0,0,2.41,9,11.58,11.58,0,0,0,6.88,5.68H419.6q-6.37,0-9.94-2.63a15.74,15.74,0,0,1-5.21-6.28,23.15,23.15,0,0,1-2-7.19c-.23-2.35-.34-4.16-.34-5.42L402,153.59a143.1,143.1,0,0,0-1.2-22.08q-1.29-8.22-5.17-8.48c-1.2-.11-2.42.57-3.66,2.06s-2.21,4.34-2.92,8.53-.91,10.33-.56,18.42v33.22a17.81,17.81,0,0,0,2.45,9,11.79,11.79,0,0,0,6.93,5.68H338.34a11.6,11.6,0,0,0,6.89-5.68,18.07,18.07,0,0,0,2.41-9V135.6a17.81,17.81,0,0,0-2.41-8.91,11.64,11.64,0,0,0-6.89-5.64q3.54,0,13-.35a164.74,164.74,0,0,0,19.89-2,51.62,51.62,0,0,0,17.26-5.51Z"></path><path class="cls-1" d="M44.7,332.25q-18.16,1-28.88-7.49A40,40,0,0,1,1.66,302.9a50.68,50.68,0,0,1,.26-26.69,41.46,41.46,0,0,1,14.46-21.9q10.76-8.56,28.32-7.62a21.57,21.57,0,0,1,7.23,2.11q3.1,1.59,3.7,2.62V228.1a17.91,17.91,0,0,0-2.41-8.87,11.61,11.61,0,0,0-7-5.68h3q6,.09,15.24-.09t18.12-1.16q8.91-1,13.9-3.49V317.62a18,18,0,0,0,2.41,8.95,11.61,11.61,0,0,0,7,5.68H66.65a24.61,24.61,0,0,1-7-.86,5.93,5.93,0,0,1-4-3.87,15.68,15.68,0,0,1-4,2.79A18.68,18.68,0,0,1,44.7,332.25Zm10.93-37.7V284.39q0-17.73-1.59-24.83t-4.18-6.85q-3.18.34-5,7.75a99.61,99.61,0,0,0-2.46,18.25,182.51,182.51,0,0,0,.09,21.69A106.36,106.36,0,0,0,45,318.74q1.84,7.49,4.86,7.49c1.9,0,3.33-2.33,4.31-7S55.63,306.37,55.63,294.55Z"></path><path class="cls-1" d="M273.58,253.4a29.91,29.91,0,0,1,15.76-7.14,35.27,35.27,0,0,1,17.77,2,32.09,32.09,0,0,1,14.59,11.23q5.85,7.92,6.28,20.58l.09,37.53a18,18,0,0,0,2.41,8.95,11.6,11.6,0,0,0,6.89,5.68H304.66q-6.37,0-9.94-2.62a15.69,15.69,0,0,1-5.21-6.29,23.08,23.08,0,0,1-2-7.19c-.23-2.35-.35-4.16-.35-5.42l-.08-24.79a144.17,144.17,0,0,0-1.21-22.08q-1.29-8.22-5.16-8.48-1.82-.16-3.66,2.07c-1.24,1.49-2.21,4.33-2.93,8.52s-.9,10.33-.56,18.42v33.23a17.79,17.79,0,0,0,2.46,8.95,11.73,11.73,0,0,0,6.93,5.68H223.4a11.63,11.63,0,0,0,6.89-5.68,18.14,18.14,0,0,0,2.41-8.95V268a17.91,17.91,0,0,0-2.41-8.91,11.67,11.67,0,0,0-6.89-5.64q3.53,0,13-.34a166.51,166.51,0,0,0,19.88-2,51.55,51.55,0,0,0,17.26-5.51Z"></path><path class="cls-1" d="M410.32,252.15a47.56,47.56,0,0,1,17.52,15.54,39,39,0,0,1,0,43.21,47.39,47.39,0,0,1-17.52,15.54,54.06,54.06,0,0,1-48.76,0A47.2,47.2,0,0,1,344,310.9a38.91,38.91,0,0,1,0-43.21,47.38,47.38,0,0,1,17.56-15.54,54.06,54.06,0,0,1,48.76,0Zm-29.44,9a160.35,160.35,0,0,0-2.11,28.11,160.15,160.15,0,0,0,2.11,28.1c1.41,7.78,3.08,11.67,5,11.67s3.71-3.89,5.12-11.67a161.12,161.12,0,0,0,2.11-28.1A161.32,161.32,0,0,0,391,261.19q-2.12-11.66-5.12-11.66C384,249.53,382.29,253.42,380.88,261.19Z"></path><path class="cls-1" d="M513.1,247.33a43.21,43.21,0,0,1,16.83,7.49q6.8,5.22,6.19,14.16c-.68,4.59-2.74,7.88-6.15,9.86a19.65,19.65,0,0,1-11.54,2.5,22,22,0,0,1-11.31-4,12.33,12.33,0,0,1-5.43-9.34,14.48,14.48,0,0,1,.82-6.07,21.21,21.21,0,0,1,2.11-4.09,8,8,0,0,0,1.55-3.7,4.7,4.7,0,0,0-2.89-4.13,14.06,14.06,0,0,0-6.92-1.38q-9.56.44-12.83,4.56t-.86,10q2.41,5.89,10,11.4a122.48,122.48,0,0,0,19.2,10.51,122.87,122.87,0,0,1,13.6,7.05q6.19,4.14,8.56,9.09a17.53,17.53,0,0,1,1.77,9.85q-1.12,8.26-9.9,13.86t-21.61,7.79a87.47,87.47,0,0,1-26.12.47,57.93,57.93,0,0,1-23.54-8.09,31.52,31.52,0,0,1-13.86-17.9A46.52,46.52,0,0,0,452,314.78a34.86,34.86,0,0,0,12.53,3.7q5.81.43,7.7-3.79.94-2.83-2-5a50.37,50.37,0,0,0-8-4.61,94.45,94.45,0,0,1-10.59-6,31.6,31.6,0,0,1-9.08-9q-3.66-5.46-3.49-13.73a25.6,25.6,0,0,1,10-19.07A55.42,55.42,0,0,1,470.7,247a81.27,81.27,0,0,1,23.42-2.41A109.88,109.88,0,0,1,513.1,247.33Z"></path><path class="cls-1" d="M105.65,193.85a18.93,18.93,0,0,1-2.51-9.35V154.91a40.74,40.74,0,0,0-6.25-22.26A46.06,46.06,0,0,0,79.8,116.87a59.14,59.14,0,0,0-25-6.83,71,71,0,0,0-20.46,2.15,47.16,47.16,0,0,0-17.71,8.32,19.94,19.94,0,0,0-8.14,14.26q-.27,8.8,5,13.44a20.32,20.32,0,0,0,12.59,5,20.36,20.36,0,0,0,13-3.51q5.72-3.92,6.25-12.27a16.33,16.33,0,0,0-1.3-7.38A22.22,22.22,0,0,0,41,125.23a19.6,19.6,0,0,1-2-3.1,5.27,5.27,0,0,1-.5-3.28,6.25,6.25,0,0,1,4-4.72,12.45,12.45,0,0,1,6.39-.59,12.73,12.73,0,0,1,9.22,6.3q3.18,5.31,1.75,12.63T50.57,147Q42.79,154.2,27,159,12.21,163.46,7,170.61T3.49,185A20.49,20.49,0,0,0,12,197.5q6.93,5,17.9,4.81A45.21,45.21,0,0,0,47.74,198a28.77,28.77,0,0,0,12.68-11.06,29.16,29.16,0,0,0,.27,3.42,10.23,10.23,0,0,0,5.71,7.91,17,17,0,0,0,8,1.53h38.49A12.13,12.13,0,0,1,105.65,193.85ZM43,186c-7.34-4.41-11.41-14.66-4.35-22.35a16.13,16.13,0,0,1,3.74-3,8.23,8.23,0,0,0-2.21-1.33.34.34,0,0,1,.12-.66,26,26,0,0,1,4.32.18l-.44-2.09a.34.34,0,0,1,.49-.38L47.85,158l.36-2a.35.35,0,0,1,.63-.13l1.21,1.79a4.55,4.55,0,0,1,2.88-2.73.34.34,0,0,1,.42.47,7.73,7.73,0,0,0-.68,2.3c6-.39,11.64,1.59,13,6.46C70.83,182.28,50.33,190.43,43,186Z"></path><path class="cls-1" d="M327.15,193.85a18.93,18.93,0,0,1-2.51-9.35V154.91a40.74,40.74,0,0,0-6.25-22.26,46.06,46.06,0,0,0-17.09-15.78,59.14,59.14,0,0,0-25-6.83,71,71,0,0,0-20.46,2.15,47.16,47.16,0,0,0-17.71,8.32A19.94,19.94,0,0,0,230,134.77q-.27,8.8,5,13.44a21.33,21.33,0,0,0,25.59,1.53q5.72-3.92,6.25-12.27a16.33,16.33,0,0,0-1.3-7.38,22.22,22.22,0,0,0-3.11-4.86,19.6,19.6,0,0,1-2-3.1,5.27,5.27,0,0,1-.5-3.28,6.25,6.25,0,0,1,4-4.72,12.45,12.45,0,0,1,6.39-.59,12.73,12.73,0,0,1,9.22,6.3q3.18,5.31,1.75,12.63T272.07,147q-7.79,7.2-23.61,12-14.75,4.5-19.92,11.65T225,185a20.49,20.49,0,0,0,8.54,12.46q6.93,5,17.9,4.81A45.21,45.21,0,0,0,269.24,198a28.77,28.77,0,0,0,12.68-11.06,29.16,29.16,0,0,0,.27,3.42,10.23,10.23,0,0,0,5.71,7.91,17,17,0,0,0,8,1.53h38.49A12.13,12.13,0,0,1,327.15,193.85ZM264.49,186c-7.34-4.41-11.41-14.66-4.35-22.35a16.13,16.13,0,0,1,3.74-3,8.23,8.23,0,0,0-2.21-1.33.34.34,0,0,1,.12-.66,26,26,0,0,1,4.32.18l-.44-2.09a.34.34,0,0,1,.49-.38l3.19,1.53.36-2a.35.35,0,0,1,.63-.13l1.21,1.79a4.55,4.55,0,0,1,2.88-2.73.34.34,0,0,1,.43.47,7.48,7.48,0,0,0-.69,2.3c6-.39,11.64,1.59,13,6.46C292.33,182.28,271.83,190.43,264.49,186Z"></path><path class="cls-1" d="M212.36,326.36a19,19,0,0,1-2.51-9.35V287.42a40.74,40.74,0,0,0-6.25-22.26,46,46,0,0,0-17.09-15.78,59.14,59.14,0,0,0-25-6.84,70.71,70.71,0,0,0-20.46,2.16A47,47,0,0,0,123.38,253a19.93,19.93,0,0,0-8.14,14.25q-.27,8.82,5,13.45a21.33,21.33,0,0,0,25.59,1.53q5.71-3.92,6.25-12.28a16.31,16.31,0,0,0-1.3-7.37,22.22,22.22,0,0,0-3.11-4.86,20.06,20.06,0,0,1-2-3.1,5.27,5.27,0,0,1-.5-3.28,6.26,6.26,0,0,1,4-4.73,12.55,12.55,0,0,1,6.39-.58,12.73,12.73,0,0,1,9.22,6.3c2.12,3.53,2.71,7.75,1.75,12.63s-4,9.73-9.22,14.53-13.05,8.78-23.61,12q-14.74,4.48-19.92,11.64t-3.55,14.44A20.47,20.47,0,0,0,118.74,330q6.93,5,17.9,4.81a45.37,45.37,0,0,0,17.81-4.31,28.83,28.83,0,0,0,12.68-11.06,29,29,0,0,0,.27,3.41,10.26,10.26,0,0,0,5.71,7.92,17,17,0,0,0,8,1.53h38.49A12.13,12.13,0,0,1,212.36,326.36Zm-62.66-7.84c-7.34-4.41-11.41-14.66-4.35-22.35a16.13,16.13,0,0,1,3.74-3,8.08,8.08,0,0,0-2.21-1.33.34.34,0,0,1,.12-.66,26.58,26.58,0,0,1,4.32.17l-.44-2.08a.35.35,0,0,1,.49-.39l3.19,1.54.36-2a.35.35,0,0,1,.63-.14l1.21,1.8a4.57,4.57,0,0,1,2.88-2.74.35.35,0,0,1,.43.48,7.5,7.5,0,0,0-.69,2.29c6-.38,11.64,1.59,13,6.46C177.54,314.78,157,322.93,149.7,318.52Z"></path><path class="cls-1" d="M287.26,103.68s-12.5-30,33.42-42.29C320.68,61.39,324.3,102.3,287.26,103.68Z"></path><path class="cls-2" d="M48.07,49a12.08,12.08,0,0,1-2.72-1.82V73A12.14,12.14,0,0,0,47,79a7.75,7.75,0,0,0,4.68,3.81H.61A7.75,7.75,0,0,0,5.29,79a12.14,12.14,0,0,0,1.62-6V9.82a24.85,24.85,0,0,0-.35-4.13A9.21,9.21,0,0,0,5.21,2.11,5.18,5.18,0,0,0,2.23,0H52.69A33.26,33.26,0,0,1,67.21,2.92,27.12,27.12,0,0,1,77,10.54a26,26,0,0,1,5,10.28,25.21,25.21,0,0,1,.14,11,22.67,22.67,0,0,1-4.82,9.88,23.35,23.35,0,0,1-9.82,6.78,34.42,34.42,0,0,1-14.87,1.74A12.89,12.89,0,0,1,48.07,49Zm-2.2-8a9.35,9.35,0,0,0,1.39,4.21,2.53,2.53,0,0,0,2,1c1.62,0,2.86-2,3.73-5.74a69.19,69.19,0,0,0,1.47-13.55,69.27,69.27,0,0,0-.29-7.3,41.17,41.17,0,0,0-1.3-7.37,15.45,15.45,0,0,0-2.77-5.71,5.75,5.75,0,0,0-4.71-2.26V31.13A68.46,68.46,0,0,0,45.87,41Z"></path><path class="cls-2" d="M178.75,13q3,6.82-1.55,14.91-4.2,6.42-10.19,8a15.35,15.35,0,0,1-11.38-1.31A13.3,13.3,0,0,1,150.52,30a26.45,26.45,0,0,1-2.5-5.08,16.82,16.82,0,0,0-1.59-3.37,5.13,5.13,0,0,0-2.37-2q-4.29-1.26-6.51,2.14a22.47,22.47,0,0,0-3.05,8.85,68,68,0,0,0-.83,10.18V69.11a16.67,16.67,0,0,0,2.22,8.25,10.66,10.66,0,0,0,6.34,5.23H87.36a10.68,10.68,0,0,0,6.35-5.23,16.78,16.78,0,0,0,2.22-8.25V23.36a16.55,16.55,0,0,0-2.22-8.21A10.72,10.72,0,0,0,87.36,10h1.83q5,.07,13.56-.2A134.2,134.2,0,0,0,119.87,8.1q8.56-1.39,13.8-4.64V19.71a43.6,43.6,0,0,1,9.08-10.66A29.83,29.83,0,0,1,155,2.7a25.21,25.21,0,0,1,14.55,1A16.58,16.58,0,0,1,178.75,13Z"></path><path class="cls-2" d="M252.33,8.81a43.74,43.74,0,0,1,16.14,14.31,35,35,0,0,1,6,19.9,35,35,0,0,1-6,19.91,43.74,43.74,0,0,1-16.14,14.31,49.82,49.82,0,0,1-44.92,0,43.63,43.63,0,0,1-16.18-14.31,35,35,0,0,1-6-19.91,35,35,0,0,1,6-19.9A43.63,43.63,0,0,1,207.41,8.81a49.82,49.82,0,0,1,44.92,0Zm-27.12,8.32A148.63,148.63,0,0,0,223.27,43a148.47,148.47,0,0,0,1.94,25.89q1.95,10.75,4.64,10.75t4.72-10.75A148.47,148.47,0,0,0,236.51,43a148.63,148.63,0,0,0-1.94-25.89q-1.95-10.74-4.72-10.74T225.21,17.13Z"></path></g></g></svg>