<svg xmlns="http://www.w3.org/2000/svg" viewBox="0 0 321.1 321.09"><defs><style>.cls-1,.cls-2,.cls-3{fill:#e23b3b;}.cls-2,.cls-3{font-size:34.45px;}.cls-2{font-family:Author-Medium, Author;font-weight:500;}.cls-3{font-family:Author-Semibold, Author;font-weight:600;}</style></defs><g id="Capa_2" data-name="Capa 2"><g id="Capa_1-2" data-name="Capa 1"><path class="cls-1" d="M151.28,127.64c4.38-10.89,11.78-18.54,22.81-22.31a34.51,34.51,0,0,1,20.3-.68c-1.31,2.38-2.51,4.57-3.72,6.75q-14.05,25.35-28.08,50.69c-.81,1.47-1.49,1.68-3,.84-6.79-3.82-13.62-7.55-20.46-11.27-4.39-2.39-9.26-1-11.49,3.16-2.14,4-.51,8.85,3.75,11.21q17.43,9.66,34.83,19.37c1.24.7,1.78.54,2.44-.65q17.77-32,35.6-64c1.5-2.7,2.94-5.44,4.71-8.73a66.85,66.85,0,0,1,5.48,6.32c9,13.34,9.17,27,1.16,40.83-4.66,8.06-9.16,16.2-13.72,24.31L179.4,223.56c-.2.35-.45.67-1.06,1.57a26.35,26.35,0,0,0-2.81-2.07q-32.65-18.26-65.34-36.46C96.59,179,89.38,162,93.47,146.94c3.79-14,12.82-23,26.88-26.37,10.57-2.56,20.44-.24,29.35,6Z"></path><text class="cls-2" transform="translate(107.9 71.82) rotate(-25.01)">A</text><text class="cls-2" transform="matrix(0.98, -0.21, 0.21, 0.98, 126.04, 63.03)">M</text><text class="cls-2" transform="matrix(1, -0.01, 0.01, 1, 151.2, 57.98)">E</text><text class="cls-2" transform="translate(167.67 57.68) rotate(9.21)">R</text><text class="cls-2" transform="translate(186.42 61.12) rotate(16.78)">I</text><text class="cls-2" transform="matrix(0.91, 0.41, -0.41, 0.91, 194.21, 63.07)">C</text><text class="cls-2" transform="translate(211.98 71.13) rotate(35.48)">A</text><text class="cls-2" transform="translate(228.46 82.8) rotate(47.05)">N</text><text class="cls-2" transform="translate(242.85 99.04) rotate(55.15)"> </text><text class="cls-2" transform="matrix(0.45, 0.89, -0.89, 0.45, 247.38, 104.68)">H</text><text class="cls-2" transform="matrix(0.29, 0.96, -0.96, 0.29, 256.76, 124.01)">E</text><text class="cls-2" transform="matrix(0.11, 0.99, -0.99, 0.11, 261.59, 139.76)">A</text><text class="cls-2" transform="translate(263.66 159.89) rotate(94.86)">R</text><text class="cls-2" transform="translate(262.1 178.04) rotate(104.66)">T</text><text class="cls-2" transform="translate(257.28 195.1) rotate(111.62)"> </text><text class="cls-2" transform="translate(255.01 201.99) rotate(119.31)">A</text><text class="cls-2" transform="matrix(-0.64, 0.77, -0.77, -0.64, 244.93, 219.6)">S</text><text class="cls-2" transform="matrix(-0.75, 0.66, -0.66, -0.75, 234.31, 232.44)">S</text><text class="cls-2" transform="translate(221.98 243.63) rotate(149.99)">O</text><text class="cls-2" transform="translate(201.89 255.01) rotate(161.82)">C</text><text class="cls-2" transform="matrix(-0.98, 0.18, -0.18, -0.98, 183, 260.78)">I</text><text class="cls-2" transform="translate(175.21 262.65) rotate(177.4)">A</text><text class="cls-2" transform="translate(157.42 263.54) rotate(-173.4)">T</text><text class="cls-2" transform="translate(139.86 261.18) rotate(-166.18)">I</text><text class="cls-2" transform="translate(132 259.82) rotate(-157.49)">O</text><text class="cls-2" transform="translate(110.7 250.9) rotate(-145.18)">N</text><text class="cls-2" transform="matrix(-0.73, -0.68, 0.68, -0.73, 93.19, 238.08)"> </text><text class="cls-2" transform="matrix(-0.68, -0.73, 0.73, -0.68, 87.69, 232.94)">.</text><text class="cls-2" transform="matrix(-0.63, -0.78, 0.78, -0.63, 82.53, 227.37)"> </text><text class="cls-3" transform="translate(77.7 221.95) rotate(-121.14)">C</text><text class="cls-3" transform="matrix(-0.36, -0.93, 0.93, -0.36, 67.78, 205.28)">E</text><text class="cls-3" transform="translate(61.65 189.6) rotate(-101.09)">R</text><text class="cls-3" transform="matrix(-0.02, -1, 1, -0.02, 58.05, 170.95)">T</text><text class="cls-3" transform="translate(58.06 153.2) rotate(-83.53)">I</text><text class="cls-3" transform="translate(58.82 144.43) rotate(-76.36)">F</text><text class="cls-3" transform="translate(63.07 128.11) rotate(-69.2)">I</text><text class="cls-3" transform="matrix(0.47, -0.88, 0.88, 0.47, 65.99, 119.77)">E</text><text class="cls-3" transform="matrix(0.62, -0.78, 0.78, 0.62, 73.67, 104.85)">D</text><text class="cls-3" transform="matrix(0.73, -0.69, 0.69, 0.73, 87.6, 88.22)"> </text><text class="cls-3" transform="matrix(0.78, -0.63, 0.63, 0.78, 93.06, 83.07)">.</text><text class="cls-3" transform="matrix(0.83, -0.56, 0.56, 0.83, 99.74, 77.75)"> </text></g></g></svg>