<svg xmlns="http://www.w3.org/2000/svg" viewBox="0 0 300.36 221.4"><defs><style>.cls-1{fill:#d5d2db;}.cls-2{fill:#270360;}</style></defs><g id="Capa_2" data-name="Capa 2"><g id="Capa_1-2" data-name="Capa 1"><path class="cls-1" d="M300.34,146.75a12.27,12.27,0,0,0-.17-3,39.52,39.52,0,0,0-1.67-4.8,2.17,2.17,0,0,1,.51-2.22c2.16-2.75.87-5.19-2.44-5.87a2,2,0,0,1-1.21-.64c-1.31-1.5-3.72-2.07-3.9-4.57,0-.2-.41-.4-.66-.54a4.24,4.24,0,0,1-1.93-2.46,2.58,2.58,0,0,0-2.44-1.84,12.92,12.92,0,0,1-5.95-2,2.42,2.42,0,0,0-2.53-.28c-2.95,1.56-5.48-.27-8.06-1a12.67,12.67,0,0,0-4.67-.48c-.69.07-1.71.21-1.77,1.18-.2,3.1-3.73,2.07-4.89,4-.21.36-.83-.22-1.23-.44l-.23-.26,0,0-5.32,0a1.61,1.61,0,0,1-2.3.47,1.42,1.42,0,0,1-.45-2.27c.71-1.1.09-1.73-.74-2.42s-2.06-2.17-1.66-3.15c.82-2,1-4.15,1.68-6.17a1.87,1.87,0,0,1,.17-.31c1.2-2.15,1.06-2.8-1.39-3a3,3,0,0,1-2.75-2.2c-.51-1.2-1.29-2.44-1.3-3.66,0-2.38-.69-3.67-2.94-4.2a3,3,0,0,1-1.26-.6c-1.53-1.21-2.84-2.67-4.49-3.76-.55-.37-1.56-1.46.28-2.21a5.32,5.32,0,0,0,3-3.54c.16-1.61,1.06-2.19,1.85-3.11.21-.25.59-.45.36-.89a2.5,2.5,0,0,0-2.35.34c-1.51.84-2-.09-2.27-1.18s-.65-1.69-1.75-1.75c-.47,0-1.05.08-1.15-.55a1.44,1.44,0,0,1,.6-1.49c.27-.19.8-.25.75-.82-.22-2.16-.17-2.18,2.07-1.82a1.53,1.53,0,0,0,1.49-.34c.53-.59-.06-.92-.25-1.38-.72-1.81-2.23-2.11-3.88-2-.59,0-1.33.08-1.12-.55.58-1.7-.3-3.62,1-5.23.51-.61.77-1.68-.74-2.33-.82-.35-2.47-1-2-2.84.11-.37-.3-1.07-.68-1.36-1.12-.84-2.27-2-3.55-2.22-2.19-.43-2.16-2.85-3.82-3.61-.08,0-.11-.39,0-.49.95-1.3.27-2.45-.35-3.56a6,6,0,0,1-.53-4.36c.67-2.17,0-4-.53-5.86-1-3.19-.54-5,2.37-6.47.26-.13.54-.22.79-.37.74-.45,1.07-1.08.25-1.66A3.32,3.32,0,0,1,223,26c-.07-.56,0-1.05-.82-1.1s-.85-.62-1-1.13c-.21-.93-.86-1.29-1.65-1.65-2.25-1-4.76-1.5-6.18-4a2.73,2.73,0,0,1-.11-2.94c.41-.76.31-1-.31-1.7-1.43-1.58-3.24-2.91-3.37-5.5,0-.86.4-2-.25-2.77-1.22-1.4-1.44-3.35-2.91-4.68-.85-.76-1-.65-1.44.11a2.63,2.63,0,0,1-3.54,1.42c-.79-.28-1.34-.09-1.64.54-.7,1.48-1.89,1.27-2.81.61-1.49-1.07-2.51-.61-3.71.44s-3,1.73-4.06.82c-1.72-1.5-3.94-.64-5.58-1.82-.13-.09-.43.06-.65.1.86,1-.54,2.11.28,3.34A78.31,78.31,0,0,1,188.53,15c1.16,2.35,2.51,4.55,1.8,7.35-.2.8.42,1.22,1.18,1.48a5.08,5.08,0,0,1,3.64,4.27c.17,1.57.59,2.6,2,3,1.16.33,1.23.81.8,1.8s.12,4.31.8,4.66c1.68.85,2.14,2,1.58,3.86-.29.94-.55,2.12.72,2.82a1.21,1.21,0,0,1,.46,1.26c-.19,2.77.46,3.74,2.9,5.06.94.51,2.43.5,2.65,1.93a2.78,2.78,0,0,0,1.52,2.08c1.33.74,1.2,2,1.26,3.2s-.91,1.34-1.7,1.64A23.74,23.74,0,0,0,206,60.56,19.82,19.82,0,0,1,199.91,63a2.84,2.84,0,0,0-2.51,2.64c0,1-.38,2-.35,3a1.58,1.58,0,0,1-1.6,1.72,12.81,12.81,0,0,0-3.44,1.1c-1.36.46-1.31,1.07-.87,2s.39,1.62-.66,2c-1.62.59-1.55,3.39-3.93,3-.05,0-.14.42-.26.62s-.44.67-.82.47c-.91-.48-1.62.1-2.33.42a8.09,8.09,0,0,1-3.93.82c-1.69-.11-3.36-.22-4.82,1-.8.7-1.57.38-2-.71A4.69,4.69,0,0,0,169,78.05c-1.42-.29-2.25.28-2,1.69a1.47,1.47,0,0,1-.42,1.58c-1.9,1.36-3.75,2.78-5.54,4.29a1.09,1.09,0,0,1-.85.1c-1.62-.56-1.48.13-1.22,1.38.38,1.81-.41,2.47-2,1.88-1.32-.15-2.63-.36-3.95-.42-.69,0-.87-.42-1.07-.9-.79-.53-.67-1.4-.67-2.13,0-1.29-1.28-2.92-2.48-3-3.74-.22-5.09-1.42-5.91-5.2a1.09,1.09,0,0,0-.49-.68c-1.57-.64-2.63-1.44-1.27-3.23.05-.06,0-.24,0-.34-.81-1.42,0-2.15,1.18-2.71.32-.16.39-.45.54-.78a5.44,5.44,0,0,0,.22-3.87c-.63-2.35.17-3.61,2.4-4.28a.8.8,0,0,0,.51-.39c.11-.38-.24-.51-.52-.53a3.83,3.83,0,0,0-1.74.15,3.56,3.56,0,0,1-2.75-.14,6.44,6.44,0,0,0-8.28,3.16c-1.45,3.14-3.37,4-6.76,3a2.93,2.93,0,0,0-.67-.08c-2.83-.12-5.65.34-8.5,0a7.68,7.68,0,0,1-4.4-2.2,1.72,1.72,0,0,1,0-2.62,3.79,3.79,0,0,0,1-1.63,10.22,10.22,0,0,0,.4-4,3.34,3.34,0,0,0-.83-2.26A12.06,12.06,0,0,1,110,50.58c-.39-.7-1.23-1.44-2.21-.27-.72.86-1.89.81-2.93.95-.46.06-1.07-.23-1.34.23-.72,1.23-1.34.43-1.91-.06-1.12-1-2.16-1.56-3.19.1-.16.26-.47.72-.81.42s-1-.4-.71-1.05c.13-.33.37-.64-.16-.91-1.44.88-2.32,2.5-3.89,3.22-2.09,1-3.26,3-5.17,4.23-1.25.8-.9,2,.37,2.73A2.87,2.87,0,0,1,89.44,63c-.1,1.18-1.1,1.48-2.24,1.46A3.87,3.87,0,0,0,84,66c-.78,1-1.58,2-2.34,3-1,1.27-1.68,2.59-1,4.28.38.92-.19,1.71-.61,2.48-.23.4-.81.72-.82,1.09,0,2.31-1.57,1.72-2.85,1.53a13.92,13.92,0,0,0-2.95-.52c-.32,0-.87,0-.61-.55.83-1.6-.78-1.84-1.44-2.5-.48-.49-1.17-.77-1.39-1.51a12.3,12.3,0,0,1-.81-5.08,1.16,1.16,0,0,0-.47-1.2c-1.64-1-1.18-2.91-1.88-4.3-.33-.64-1.07-1.47-.89-1.91,1.14-2.7-.51-3.93-2.4-5.16-.82-.53-1.47-1.64-2.54-1.4-3.7.83-4.82-2.29-6.65-4.25a8.38,8.38,0,0,1-1.41-2c-.49-1-1.76,0-2.68.31-1.38.43-2.78.69-4-.3a11.8,11.8,0,0,1-2.86-2.56c-.71-1.15-1.37-1-2.31-.64-3.43,1.31-3.91,0-5.93-2.17-.53-.56-.46-1,.3-1.08a7.32,7.32,0,0,0,4.84-3.1c.81-1.07,1.54-1.74,3-1.55s1.7-1.1,1.36-2a6.92,6.92,0,0,1-.46-3.83c.13-.77-.72-1.66.4-2.32s.85-1.6,0-2.24a2.83,2.83,0,0,1-1.31-1.84,2,2,0,0,0-1.7-2A1.14,1.14,0,0,1,40.8,21,1.84,1.84,0,0,0,40.39,19c-.39-.52-.92-1-.54-1.9.21-.45-.27-1.08-.56-1.19-2-.79-1.25-2.46-1.37-3.88s.92-3.2-1.06-4.19a8.18,8.18,0,0,0-1.83-1,1.75,1.75,0,0,1-1.3-1.11A2.46,2.46,0,0,0,31.9,4c-.43-.15-.9-.45-.9-.76,0-1.33-1.07-1.32-1.87-1.59-1-.33-2-.55-3.05-.81a1.85,1.85,0,0,0-2.34.88A2.43,2.43,0,0,1,21,3.06c-.69-.11-2-.28-2.4.56C17.46,6,15.35,7.48,13.75,9.41,10,13.89,5.82,17.9,2,22.24-.48,25-.6,24.87,1.37,27.75c.06.09.09.22.16.31,1.23,1.49,2.26,3.24,3.74,4.41,2.59,2.07,4.4,4.35,4.91,7.79.34,2.36.22,4.9,1.84,7a2.41,2.41,0,0,1,.54,1.56l-.9,1.77c-.37.34-.88,1.11-.75,1.3,1,1.58.38,3.77,1.53,5.1,2.24,2.59,2.89,6.05,5.27,8.59A60.23,60.23,0,0,1,23,72.82a30.83,30.83,0,0,1,3.88,6.48c.78,2.09.27,3.36-1.76,4.29-1.12.51-1.36,1.07-.4,1.91,2.5,2.19,4.42,5,7.2,6.89a2.1,2.1,0,0,1,1,1.76,11.36,11.36,0,0,0,4.18,8.72l3.15,2.84c.72.66.57,1.81,1.37,2.43,2.43,1.88,4.64,4,7.35,5.53,3.71,2.06,6.55,5.29,10.07,7.61.68.44,1.8.9,1.84,2,.07,1.81,1.13,2.95,2.38,4,2.37,2.09,5,3.79,7.27,6.08.81.84,1.25,2,2.27,2.65,1.67,1.15,3.13,2.5,3.48,4.69a2.48,2.48,0,0,0,.92,1.46c1.56,1.13,1.9,2.7,1.91,4.46,0,.69-.21,1.43.26,2.07,1.75,2.33,3.48,4.67,5.25,7,.83,1.06,1.64,2.31,1.1,3.5s-.71,3.25-2.66,3.64c-1.65.33-1.81.61-.79,2a8.32,8.32,0,0,0,2.08,1.83c3,2,6.16,3.75,8.66,6.4a13.42,13.42,0,0,0,1.9,1.87c4.19,2.92,6.36,7.1,7.51,11.92a2.75,2.75,0,0,1-.15,2.4,2.84,2.84,0,0,0-.08,2.86,4.71,4.71,0,0,1-.94,5.24c-1.25,1.28-1,2.49-.34,3.83a20.37,20.37,0,0,0,2.33,3.21c2.19,2.82,4.16,5.82,6.55,8.44a10.24,10.24,0,0,1,3.08,7.19c0,1.44.51,1.67,1.88,1.19,3-1.07,3.26-4,4.32-6.33a4.47,4.47,0,0,0,0-4.12,4.62,4.62,0,0,1-.27-2.86c.18-2.23,1.71-4,2.25-6.08a4.84,4.84,0,0,1,1.28-1.56c2.63-2.61,6.19-2.46,9.33-3.55a14.64,14.64,0,0,0,5.44-2.74c1-.89,1.68-2.52,3.54-1.76.09,0,.31-.42.5-.45,1.24-.18,1.41-1.73,2.33-2,2.95-.89,6-2,9-2.12a10.31,10.31,0,0,0,5.57-2c2.94-2,3.37-3.66,1.76-6.87-.88-1.75-1.21-3.22,0-5a30.19,30.19,0,0,1,2.95-3.1,16,16,0,0,0,2.78-5.53c.3-.92,1.29-1.25,1.33-2.31a44.76,44.76,0,0,0,0-5,2.3,2.3,0,0,1,1-2.22c1.29-1,2.39-2.31,1.64-4.24a1.51,1.51,0,0,1,.52-1.87c1.84-.87,2.52-2.89,4.43-3.85,1.76-.89,3.74-2.14,4.5-4.35.14-.42.51-.59.91-.77a59.09,59.09,0,0,1,7.31-2.66c1-.28,2.42-.47,2.3-1.73-.25-2.62,1.21-4.75,1.88-7.06.4-1.4.54-3,1.52-4.33.36-.48,1.2-1.26.42-2.15,0,0,.18-.34.22-.33,1.4.35,3.32-1.38,4.23,1,.08.21.54.33.92.38a4.35,4.35,0,0,0,3.65-.58c.53-.41,1.3-.08,1.8.19.85.45,1.55,1.37,2.57.36,2.14,1.28,4-.67,6-.61,1,0,1.87-1.1,3-.84a4,4,0,0,0,3.5-.95,5.66,5.66,0,0,1,1.14-.48c.38.84.2,2.11,1.27,2.22,2,.2,1.48,1.39,1.13,2.5-.27.81-1.37,1.49-.2,2.43.71.56.5,2.06,2,1.86.43-.06.49.64.44.81-.58,1.93.71,2.13,2.06,2.51s2.21,1.71,3,2.88-.53,1.64-1,2.39c-.35.59-1,1.14-.53,1.87a2,2,0,0,0,2,1c1.46-.11,2.74.17,3,2.16a2.31,2.31,0,0,0,2.32,2,1.69,1.69,0,0,1,1.76,1.77,4.21,4.21,0,0,0,1.55,3.21,23,23,0,0,1,2.31,3.59c.8,1.25.23,2.61,1,3.66a4.91,4.91,0,0,1,.94,3.33,2.09,2.09,0,0,0,1.78,2.31c1.79.27,1.82,1.39,1.77,2.71a3.33,3.33,0,0,0,2.23,3.6A8.36,8.36,0,0,1,251.1,171c1.46,1.18,2.78,3.22,5.17,2a8.66,8.66,0,0,0,4.12-4.09c1.07-2.31,1.66-2.58,4-1.7,1.67.62,3.6,1.45,5.25.68,2-1,4.37-1.79,5.6-4,.27-.49.66-.16.92-.11,2,.39,3-.58,3.79-2.31,1.07-2.34,2.52-2.8,5.12-2,.32.09.84.19,1,0,1-.94,2.46-1.07,3.52-1.85.74-.54,1.23-.81,1.55.22.23.77.73.74,1.22.53s.93-.29.73-1.13.15-1.51,1.32-1.11c.58.2,3.76-1.94,3.84-2.51C298.65,151.29,300.57,149.38,300.34,146.75ZM71.57,131.46a1.59,1.59,0,0,1-1.61-2l2.42,1.86A1.3,1.3,0,0,1,71.57,131.46Z"></path><path class="cls-2" d="M45.62,101.56a20.87,20.87,0,0,0-3.56.76,4.37,4.37,0,0,0-1.88,1.07,2.9,2.9,0,0,0-.74,1.61,17.82,17.82,0,0,0-.14,2.4v22.8c.86.16,1.69.31,2.5.43a15.25,15.25,0,0,0,2.44.19,18.79,18.79,0,0,0,4.9-.57,12.34,12.34,0,0,0,3.75-1.71A14.46,14.46,0,0,0,56,125.67a38,38,0,0,0,2.83-4.06h.71l-3.65,10.64c-1.15-.07-2.29-.11-3.45-.14s-2.3-.05-3.44-.05H35c-.79,0-1.59,0-2.38.05s-1.58.07-2.37.14v-.57a10.76,10.76,0,0,0,2.49-.48,4.07,4.07,0,0,0,1.45-.83,2.34,2.34,0,0,0,.69-1.21A7.44,7.44,0,0,0,35,127.5V108.68q0-2-.12-3.3a5,5,0,0,0-.6-2.11,2.75,2.75,0,0,0-1.42-1.19,9.57,9.57,0,0,0-2.66-.52V101c1.23.06,2.46.11,3.68.14s2.45.05,3.68.05,2.67,0,4-.05,2.68-.08,4-.14Z"></path><path class="cls-2" d="M61.82,118.18a6.33,6.33,0,0,1,1.07-2.35,4.76,4.76,0,0,1,1.59-1.33,5.91,5.91,0,0,1,2-.57,23.25,23.25,0,0,1,2.43-.12,11.13,11.13,0,0,1,2.44.27,6.61,6.61,0,0,1,2.19.87,4.84,4.84,0,0,1,1.57,1.64,5,5,0,0,1,.59,2.5v8.79a2.72,2.72,0,0,0,.48,1.59,1.65,1.65,0,0,0,1.47.69,2.76,2.76,0,0,0,1.69-.55c.49-.36,1-.72,1.4-1.07l.47.52-1.11,1.12c-.43.43-.88.84-1.36,1.24a9.33,9.33,0,0,1-1.45,1,3,3,0,0,1-1.45.41,2,2,0,0,1-1-.31,7.58,7.58,0,0,1-1-.74,8.7,8.7,0,0,1-.92-.9c-.29-.32-.54-.59-.76-.81a22.19,22.19,0,0,1-3.42,1.9,9,9,0,0,1-3.71.86,5.7,5.7,0,0,1-1.92-.33,5.23,5.23,0,0,1-1.64-1,4.7,4.7,0,0,1-1.14-1.48,4.24,4.24,0,0,1-.43-1.95A4.37,4.37,0,0,1,61,125a7.07,7.07,0,0,1,2.83-1.78,16.5,16.5,0,0,1,3.94-.83c1.48-.14,3-.23,4.45-.26v-3.61a3.4,3.4,0,0,0-1.1-2.71,4.05,4.05,0,0,0-2.75-1,2.16,2.16,0,0,0-1.95,1.23,5.49,5.49,0,0,0-.71,2.81ZM72.13,124a12.25,12.25,0,0,0-3.18-.43,7.47,7.47,0,0,0-1.81.22,4.76,4.76,0,0,0-1.61.69,3.76,3.76,0,0,0-1.17,1.21,3.34,3.34,0,0,0-.45,1.78,2.48,2.48,0,0,0,1.12,2.3,4.62,4.62,0,0,0,2.49.69,6.1,6.1,0,0,0,2.78-.62,12.59,12.59,0,0,0,1.83-1Z"></path><path class="cls-2" d="M110.28,101.56a20.87,20.87,0,0,0-3.56.76,4.37,4.37,0,0,0-1.88,1.07,2.9,2.9,0,0,0-.74,1.61,17.82,17.82,0,0,0-.14,2.4v22.8c.86.16,1.69.31,2.5.43a15.25,15.25,0,0,0,2.44.19,18.79,18.79,0,0,0,4.9-.57,12.34,12.34,0,0,0,3.75-1.71,14.46,14.46,0,0,0,3.06-2.87,38,38,0,0,0,2.83-4.06h.71l-3.65,10.64c-1.14-.07-2.29-.11-3.45-.14s-2.3-.05-3.44-.05h-14c-.79,0-1.59,0-2.38.05s-1.58.07-2.37.14v-.57a10.76,10.76,0,0,0,2.49-.48,4.07,4.07,0,0,0,1.45-.83,2.34,2.34,0,0,0,.69-1.21,7.44,7.44,0,0,0,.17-1.66V108.68q0-2-.12-3.3a5,5,0,0,0-.6-2.11,2.75,2.75,0,0,0-1.42-1.19,9.57,9.57,0,0,0-2.66-.52V101c1.23.06,2.46.11,3.68.14s2.45.05,3.68.05,2.67,0,4-.05,2.68-.08,4-.14Z"></path><path class="cls-2" d="M127.76,120.23c0-.76,0-1.43-.07-2a3.31,3.31,0,0,0-.42-1.47,2.76,2.76,0,0,0-1.07-1,5.59,5.59,0,0,0-2-.52v-.67l7.22-.47v14a7.16,7.16,0,0,0,.19,1.87,2,2,0,0,0,.64,1.05,2.73,2.73,0,0,0,1.17.5,12.3,12.3,0,0,0,1.75.19v.57c-1.11-.07-2.22-.11-3.35-.14s-2.24-.05-3.35-.05c-.72,0-1.44,0-2.13.05s-1.41.07-2.14.14v-.57a10.64,10.64,0,0,0,1.61-.19,2.54,2.54,0,0,0,1.1-.5,2,2,0,0,0,.61-1.05,7.16,7.16,0,0,0,.19-1.87Zm1.38-20.1a2.35,2.35,0,0,1,1.78.78,2.62,2.62,0,0,1,.74,1.83,2.59,2.59,0,0,1-.74,1.83,2.4,2.4,0,0,1-3.56,0,2.59,2.59,0,0,1-.74-1.83,2.62,2.62,0,0,1,.74-1.83A2.37,2.37,0,0,1,129.14,100.13Z"></path><path class="cls-2" d="M136.17,99.13l7.41-.9c-.06,3-.1,5.92-.11,8.84s-.06,5.86-.12,8.83a11.26,11.26,0,0,1,2.82-1.52,9.78,9.78,0,0,1,3.4-.57,11,11,0,0,1,3.87.67,9.52,9.52,0,0,1,3.09,1.83,8.17,8.17,0,0,1,2,2.8,8.67,8.67,0,0,1,.74,3.59,11,11,0,0,1-.81,4.39,9.2,9.2,0,0,1-2.18,3.16,8.91,8.91,0,0,1-3.28,1.93,12.76,12.76,0,0,1-4,.64,13.45,13.45,0,0,1-3.09-.36,21.53,21.53,0,0,1-2.8-.85,17.3,17.3,0,0,1-2.16-1,5.48,5.48,0,0,1-1.17-.79V102.6a2.57,2.57,0,0,0-.9-2.28,4.82,4.82,0,0,0-2.71-.62Zm19,24.19a11.32,11.32,0,0,0-.43-3.23,8,8,0,0,0-1.21-2.55,5.86,5.86,0,0,0-1.9-1.68,5.08,5.08,0,0,0-2.49-.62,8.49,8.49,0,0,0-2.66.38,3.91,3.91,0,0,0-1.88,1.31,6.47,6.47,0,0,0-1.12,2.49,17.07,17.07,0,0,0-.38,3.9,16.73,16.73,0,0,0,.38,3.87,6.51,6.51,0,0,0,1.12,2.47,4.09,4.09,0,0,0,1.88,1.33,7.92,7.92,0,0,0,2.66.4,5.07,5.07,0,0,0,2.49-.61,6,6,0,0,0,1.9-1.69,8,8,0,0,0,1.21-2.54A11.37,11.37,0,0,0,155.13,123.32Z"></path><path class="cls-2" d="M166.67,122.08a11.13,11.13,0,0,0,.65,4.09,7.16,7.16,0,0,0,1.61,2.56,5.48,5.48,0,0,0,2.09,1.33,6.24,6.24,0,0,0,2.07.38,9.67,9.67,0,0,0,3.61-.64,8.94,8.94,0,0,0,3-2l.81.76a15.57,15.57,0,0,1-4,3.19,10.34,10.34,0,0,1-4.9,1.09A8,8,0,0,1,168,132a8.69,8.69,0,0,1-2.76-2.14,9.14,9.14,0,0,1-1.73-3,10.6,10.6,0,0,1,0-7,9.24,9.24,0,0,1,1.73-3,8.69,8.69,0,0,1,2.76-2.14,8,8,0,0,1,3.65-.81,8.72,8.72,0,0,1,6,2,9.62,9.62,0,0,1,2.8,6.22Zm9.27-1.42a20.62,20.62,0,0,0-.38-2.31,4.48,4.48,0,0,0-.76-1.71,3.21,3.21,0,0,0-1.38-1,5.69,5.69,0,0,0-2.19-.36,3.48,3.48,0,0,0-1.82.5A5,5,0,0,0,168,117a5.53,5.53,0,0,0-.9,1.76,6.06,6.06,0,0,0-.31,1.88Z"></path><path class="cls-2" d="M183.25,131.68a7.45,7.45,0,0,0,2.47-.79,2.19,2.19,0,0,0,.86-2.06v-11c0-1-.33-1.53-1-1.75a7.07,7.07,0,0,0-2.26-.34v-.57l6.94-1v2.71c.38-.26.81-.59,1.3-1s1-.82,1.57-1.21a11.5,11.5,0,0,1,1.69-1,3.63,3.63,0,0,1,1.66-.43,3.58,3.58,0,0,1,2.78,1,4.38,4.38,0,0,1,1,2.83l-3.8,2c.06-.22.13-.45.19-.69a3.79,3.79,0,0,0,.09-.92,1.94,1.94,0,0,0-.47-1.26,1.56,1.56,0,0,0-1.28-.6,3,3,0,0,0-1.33.34,6.89,6.89,0,0,0-1.29.83,11.76,11.76,0,0,0-1.16,1.07l-1,1v10.07a2.14,2.14,0,0,0,.9,2.06,8.32,8.32,0,0,0,2.71.79v.57c-1.08-.07-2.15-.11-3.21-.14s-2.13-.05-3.21-.05c-.73,0-1.43,0-2.11.05s-1.39.07-2.12.14Z"></path><path class="cls-2" d="M201.07,116.05v-.76a5,5,0,0,0,2.61-.76,7.41,7.41,0,0,0,1.9-1.81,11.38,11.38,0,0,0,1.36-2.42c.36-.89.69-1.74,1-2.57h.67v6.89h6.51v1.43h-6.51v11.07a9.71,9.71,0,0,0,.07,1.21,3.91,3.91,0,0,0,.28,1.07,1.69,1.69,0,0,0,1.74,1,4.18,4.18,0,0,0,2.37-.62,11.44,11.44,0,0,0,1.9-1.56l.43.47c-.54.48-1.06,1-1.57,1.45a13.19,13.19,0,0,1-1.59,1.33,7.56,7.56,0,0,1-1.8,1,6.09,6.09,0,0,1-2.12.36,2.9,2.9,0,0,1-2.71-1.21,5.64,5.64,0,0,1-.71-2.88V116.05Z"></path><path class="cls-2" d="M218.84,118.18a6.33,6.33,0,0,1,1.07-2.35,4.76,4.76,0,0,1,1.59-1.33,5.91,5.91,0,0,1,2-.57,23.2,23.2,0,0,1,2.42-.12,11.22,11.22,0,0,1,2.45.27,6.61,6.61,0,0,1,2.19.87,4.71,4.71,0,0,1,1.56,1.64,4.9,4.9,0,0,1,.6,2.5v8.79a2.78,2.78,0,0,0,.47,1.59,1.68,1.68,0,0,0,1.48.69,2.71,2.71,0,0,0,1.68-.55c.49-.36,1-.72,1.4-1.07l.48.52-1.12,1.12c-.42.43-.88.84-1.35,1.24a9.82,9.82,0,0,1-1.45,1,3,3,0,0,1-1.45.41,2,2,0,0,1-1-.31,6.93,6.93,0,0,1-1-.74,8.7,8.7,0,0,1-.92-.9c-.29-.32-.54-.59-.76-.81a21.85,21.85,0,0,1-3.43,1.9,9,9,0,0,1-3.7.86,5.71,5.71,0,0,1-1.93-.33,5.29,5.29,0,0,1-1.63-1,4.7,4.7,0,0,1-1.14-1.48,4.24,4.24,0,0,1-.43-1.95A4.37,4.37,0,0,1,218,125a7.07,7.07,0,0,1,2.83-1.78,16.39,16.39,0,0,1,3.94-.83c1.47-.14,2.95-.23,4.44-.26v-3.61a3.39,3.39,0,0,0-1.09-2.71,4.08,4.08,0,0,0-2.76-1,2.16,2.16,0,0,0-1.94,1.23,5.49,5.49,0,0,0-.72,2.81Zm10.31,5.8a12.32,12.32,0,0,0-3.19-.43,7.39,7.39,0,0,0-1.8.22,4.9,4.9,0,0,0-1.62.69,3.83,3.83,0,0,0-1.16,1.21,3.34,3.34,0,0,0-.45,1.78,2.49,2.49,0,0,0,1.11,2.3,4.68,4.68,0,0,0,2.5.69,6.13,6.13,0,0,0,2.78-.62,12.59,12.59,0,0,0,1.83-1Z"></path><path class="cls-2" d="M258.79,127.26a11.5,11.5,0,0,0,.15,2,2.59,2.59,0,0,0,.57,1.31,2.26,2.26,0,0,0,1.21.69,9.43,9.43,0,0,0,2.06.19v.57c-1.26,0-2.52,0-3.77.05s-2.54.07-3.87.14v-1.76a9.43,9.43,0,0,1-3.07,1.64,12.76,12.76,0,0,1-4.25.69,8.34,8.34,0,0,1-3.54-.74,8.18,8.18,0,0,1-2.71-2,9.23,9.23,0,0,1-1.73-2.93,9.86,9.86,0,0,1-.62-3.46,10,10,0,0,1,.76-4,9.55,9.55,0,0,1,2.11-3.13,9.65,9.65,0,0,1,3.19-2.07,10.53,10.53,0,0,1,4-.74,8.33,8.33,0,0,1,3,.57,17.44,17.44,0,0,1,2.81,1.38v-12.3a8.54,8.54,0,0,0-.17-1.86,2.15,2.15,0,0,0-.64-1.14,2.86,2.86,0,0,0-1.26-.61,12.08,12.08,0,0,0-2-.29V99l7.74-.76Zm-3.7-8.31a3.48,3.48,0,0,0-.69-1.31A6.27,6.27,0,0,0,253,116.4a7.92,7.92,0,0,0-1.82-.9,6.22,6.22,0,0,0-2.07-.36,4.91,4.91,0,0,0-2.73.72,5.64,5.64,0,0,0-1.83,1.87,8.57,8.57,0,0,0-1.05,2.62,12.84,12.84,0,0,0-.33,2.87,13,13,0,0,0,.33,2.88,8.61,8.61,0,0,0,1.05,2.61,5.64,5.64,0,0,0,1.83,1.87,4.91,4.91,0,0,0,2.73.72,6.36,6.36,0,0,0,2.09-.34,8,8,0,0,0,1.8-.83,6.93,6.93,0,0,0,1.36-1.07,3.08,3.08,0,0,0,.69-1Z"></path></g></g></svg>