<svg xmlns="http://www.w3.org/2000/svg" viewBox="0 0 238.66 121.81"><defs><style>.cls-1{fill:#d5d2db;}.cls-2{fill:#270360;}</style></defs><g id="Capa_2" data-name="Capa 2"><g id="Capa_1-2" data-name="Capa 1"><path class="cls-1" d="M181.18,62.89c-.39-.54-.69-1.18-1.48-1.27a2.77,2.77,0,0,1-.62-.19.73.73,0,0,1-.5-1.09c.11-.31.42-.48.53-.77a17.84,17.84,0,0,0,.9-2.83c.18-.88.85-1.67.53-2.66-.07-.22.14-.53.23-.8s.14-.26.06-.38a1.72,1.72,0,0,1,0-1.75c.06-.15.1-.39-.08-.45-.37-.14-.48-.49-.68-.76-.83-1.12-.84-1.51,0-2.61a.75.75,0,0,0,.13-.79c-.64-1.61-1.45-3-3.25-3.67a2.21,2.21,0,0,1-1.56-1.29,1.54,1.54,0,0,0-1-1,15.78,15.78,0,0,0-3-.85,2.48,2.48,0,0,0-1.94.34c-.62.38-1.05,1-1.67,1.35s-.64.49-1.23.22c-.19-.08-.38-.2-.55,0a1.17,1.17,0,0,1-1,.29l-1.89-.1a.62.62,0,0,1-.59-.45,5.72,5.72,0,0,1-.38-2.59,1.35,1.35,0,0,0-.54-1.31A3.19,3.19,0,0,1,160.28,35a1.35,1.35,0,0,0-.09-.33.87.87,0,0,1,0-.77,1.35,1.35,0,0,0,0-1.25.94.94,0,0,1,.08-.9,4.77,4.77,0,0,1,.56-.7,1.79,1.79,0,0,0,.16-1.94c-.22-.29-.39-.29-.52.06a1.8,1.8,0,0,1-.94,1.11,2.93,2.93,0,0,0-1.27,1.24,1.28,1.28,0,0,1-.94.72,1.32,1.32,0,0,0-1,.64,1.28,1.28,0,0,1-1,.68,6.08,6.08,0,0,1-2.43-.42,3.18,3.18,0,0,0-1.39-.29,2.2,2.2,0,0,1-1.62-1.58,2,2,0,0,1,.09-.33c.06-.33.35-.63.25-1a1.66,1.66,0,0,1,.26-1.27,6.88,6.88,0,0,1,1.11-2.15,1,1,0,0,0,.15-.42,9.8,9.8,0,0,1,.37-1.44c.32-.83,0-1.31-.65-1.8a5.41,5.41,0,0,1-1.64-1.66c-.09-.18-.25-.18-.43-.18h-1.24a.63.63,0,0,1-.58-.34c-.1-.25.1-.41.24-.57a3.43,3.43,0,0,1,.47-.36,13.21,13.21,0,0,0,1.2-.88c.45-.4.34-.78-.21-1a.91.91,0,0,1-.43-.24,7.4,7.4,0,0,0-2-1.55,5,5,0,0,1-1.07-1,.59.59,0,0,0-.88-.07A3.94,3.94,0,0,0,144,16c-.53.69-1,.7-1.46-.06a27.65,27.65,0,0,1-2-3.16,5.54,5.54,0,0,1-.73-1.93,6.1,6.1,0,0,0-.59-2.1,3.77,3.77,0,0,1-.1-3.1,4.53,4.53,0,0,1,.3-.46c.4-.69.28-1.08-.48-1.37a2,2,0,0,1-1-.75,7.1,7.1,0,0,1-.67-1.28A5.22,5.22,0,0,0,136.33.18c-.19-.2-.45-.33-.49.13a.61.61,0,0,1-.37.49c-.81.5-1.45,1.3-2.49,1.4a4.35,4.35,0,0,1-1.28,1.1,2.79,2.79,0,0,0-.79,1.36,17.66,17.66,0,0,0-.57,3.89c0,.39-.15.54-.53.5a3.55,3.55,0,0,0-1.48.17A3.31,3.31,0,0,1,125.86,9a5.78,5.78,0,0,0-1.42-.59,4.53,4.53,0,0,1-2.17-.92c-.29-.24-.47-.16-.55.21a5.23,5.23,0,0,0-.06,1.89,5.61,5.61,0,0,1-.54,3.59,6.11,6.11,0,0,0-.79,3.52,2,2,0,0,0,.41,1.33.77.77,0,0,1,.1.83,1.16,1.16,0,0,1-1,.9c-.48.08-.93.26-1.4.37-.29.06-.36.18-.31.48a4.34,4.34,0,0,1-.59,3.16,2,2,0,0,0-.28,1,6.93,6.93,0,0,0,1,3.43.85.85,0,0,0,.45.36c.91.41,1.8.85,2.71,1.25.4.17.37.37.14.64-.39.45-.78.91-1.18,1.35a19.57,19.57,0,0,1-3.85,3.59,2.24,2.24,0,0,0-1.1,1.76c0,.46-.17.53-.56.26a1.16,1.16,0,0,0-1-.22,11.92,11.92,0,0,1-3.31.3c-.55,0-1.1,0-1.65,0a.61.61,0,0,0-.59.29,3.6,3.6,0,0,1-2,1.33c-1,.28-2,.24-3,.55a33.13,33.13,0,0,0-6.44,2.8,4.68,4.68,0,0,0-2.29,2.27,7.84,7.84,0,0,1-1,1.88q-1.41,1.86-2.73,3.79c-2.53,3.69-5.1,7.36-7.64,11l-8.27,12L69.57,81.1c-.18.25-.29.44.08.62,1.18.58,2.35,1.18,3.52,1.76L86.25,90c5.31,2.67,10.59,5.39,15.81,8.23,2.46,1.33,5,2.57,7.31,4.1,1.8,1.19,3.64,2.33,5.49,3.45A44.47,44.47,0,0,1,122,111a62.5,62.5,0,0,0,4.92,4.13,7.14,7.14,0,0,1,2.73,3.27,2.61,2.61,0,0,0,.71,1.07,3.91,3.91,0,0,1,1.08,1.71c.06.15.11.31.18.47s.22.28.38,0,.4-.62.59-.93c.68-1,1.2-2.24,2.39-2.88a1.12,1.12,0,0,0,.41-.66,12.58,12.58,0,0,0,.36-2.36.74.74,0,0,1,.79-.72,1.63,1.63,0,0,0,1.26-.61,1.4,1.4,0,0,1,1.07-.43,8.11,8.11,0,0,1,2.45.4.88.88,0,0,0,1-.31c.57-.64,1.18-1.26,1.77-1.9a.85.85,0,0,1,.59-.3,1.75,1.75,0,0,0,1.22-.49c.18-.2.24-.39-.05-.51a3.17,3.17,0,0,1-1.13-.88,2.78,2.78,0,0,0-2.54-.79.92.92,0,0,1-1-.36,8.12,8.12,0,0,0-1-1.14.75.75,0,0,1-.23-.71,6.22,6.22,0,0,0,.24-2.15,1.14,1.14,0,0,1,.34-1.19.69.69,0,0,0,.15-.46c.06-.36.12-.72.21-1.08s.1-.6.33-.7c.6-.24.55-.72.56-1.2a4.4,4.4,0,0,1,.16-.88,7.28,7.28,0,0,1,1.06-2.34c.38-.55.31-.63-.34-.63-.34,0-.47-.1-.42-.48.09-.54.1-1.09.15-1.63a1.31,1.31,0,0,1,.53-1,7.87,7.87,0,0,1,1.5-.77c.28-.13.75-.17.73-.57s-.46-.38-.74-.51a1.74,1.74,0,0,1-.57-2.14,3.57,3.57,0,0,0,.43-.79c.26-.62.53-.71,1.11-.37a5.09,5.09,0,0,1,.45.31,1.58,1.58,0,0,0,1.45.32,6.51,6.51,0,0,1,4,.22,5.76,5.76,0,0,0,1.34.35c1.89.14,3.79.22,5.68.34a.91.91,0,0,0,.83-.34c.46-.55.94-1.08,1.41-1.62a1.62,1.62,0,0,1,1-.58,7.64,7.64,0,0,0,2.76-1,1.58,1.58,0,0,1,1.22-.3c.23,0,.53.17.78,0a2,2,0,0,1,1.2-.21.74.74,0,0,0,.52-.14,2.34,2.34,0,0,1,1.09-.46c.27,0,.37-.17.38-.43a2.41,2.41,0,0,0-.14-.83,8.71,8.71,0,0,0-.83-1.64c-.53-.82-.39-1.29.37-1.88a2.15,2.15,0,0,1,1.57-.31c.15,0,.32.08.41-.07.35-.56,1-.85,1.35-1.38a1.49,1.49,0,0,1,1.57-.78c.54.07.66-.12.4-.61a1.68,1.68,0,0,1-.14-1.37c.26-.82.44-1.67.64-2.51a.72.72,0,0,1,.25-.42,10.13,10.13,0,0,0,1.05-1.32,2.55,2.55,0,0,1,1.63-1.19c.19,0,.35-.19.26-.35a1.61,1.61,0,0,1,.11-1.69c0-.06,0-.16,0-.25a1.21,1.21,0,0,1,.93-1.15.5.5,0,0,0,.37-.29,7.4,7.4,0,0,0,.44-1,1.22,1.22,0,0,1,.62-.79,5.6,5.6,0,0,0,.62-.42C181.23,63.28,181.33,63.1,181.18,62.89Zm-43.45,1.2h0Zm10.42.45h0Z"></path><path class="cls-2" d="M14.69,37.06a20.56,20.56,0,0,0-3.4.73,4.12,4.12,0,0,0-1.79,1,2.79,2.79,0,0,0-.71,1.54,16.38,16.38,0,0,0-.13,2.29V64.4c.81.15,1.61.28,2.38.4a15.15,15.15,0,0,0,2.33.19A17.92,17.92,0,0,0,18,64.44a11.81,11.81,0,0,0,3.58-1.63,14.2,14.2,0,0,0,2.93-2.74,36.62,36.62,0,0,0,2.69-3.88h.68L24.43,66.35c-1.08-.07-2.18-.11-3.28-.14s-2.2,0-3.29,0H4.53c-.75,0-1.51,0-2.26,0s-1.51.07-2.27.14V65.8a10,10,0,0,0,2.38-.45,3.78,3.78,0,0,0,1.38-.8,2.3,2.3,0,0,0,.66-1.15,6.78,6.78,0,0,0,.16-1.59v-18c0-1.27,0-2.32-.11-3.15a5,5,0,0,0-.57-2,2.68,2.68,0,0,0-1.36-1.13A9.21,9.21,0,0,0,0,37.06v-.54c1.18.06,2.35.1,3.51.13s2.34.05,3.52.05,2.54,0,3.83-.05,2.56-.07,3.83-.13Z"></path><path class="cls-2" d="M30.14,52.93a6.36,6.36,0,0,1,1-2.25,4.55,4.55,0,0,1,1.52-1.27,6,6,0,0,1,2-.54c.73-.07,1.5-.11,2.31-.11a10.82,10.82,0,0,1,2.34.25,6.26,6.26,0,0,1,2.08.83,4.43,4.43,0,0,1,2.07,3.95v8.38a2.6,2.6,0,0,0,.45,1.52,1.58,1.58,0,0,0,1.4.66,2.59,2.59,0,0,0,1.61-.52c.47-.35.92-.69,1.34-1l.45.5-1.06,1.06c-.41.41-.84.8-1.29,1.18a8.38,8.38,0,0,1-1.39,1,2.78,2.78,0,0,1-1.38.39,1.85,1.85,0,0,1-1-.3,6.24,6.24,0,0,1-1-.7,9.08,9.08,0,0,1-.89-.86c-.27-.3-.51-.56-.72-.77a21.07,21.07,0,0,1-3.27,1.81,8.47,8.47,0,0,1-3.53.82,5.44,5.44,0,0,1-1.84-.32,4.83,4.83,0,0,1-1.56-.9,4.53,4.53,0,0,1-1.09-1.41,4.11,4.11,0,0,1-.41-1.86,4.18,4.18,0,0,1,1-3,6.86,6.86,0,0,1,2.7-1.7,16.08,16.08,0,0,1,3.76-.79c1.41-.14,2.82-.22,4.24-.25V53.24a3.27,3.27,0,0,0-1-2.58,3.89,3.89,0,0,0-2.63-.91,2.08,2.08,0,0,0-1.86,1.18,5.31,5.31,0,0,0-.68,2.68ZM40,58.46a11.6,11.6,0,0,0-3-.41,7.83,7.83,0,0,0-1.72.2,4.85,4.85,0,0,0-1.54.66,3.73,3.73,0,0,0-1.11,1.16,3.16,3.16,0,0,0-.43,1.7A2.39,2.39,0,0,0,33.2,64a4.53,4.53,0,0,0,2.38.65A5.9,5.9,0,0,0,38.24,64,11.49,11.49,0,0,0,40,63Z"></path><path class="cls-2" d="M55.85,63.08a2.09,2.09,0,0,0,.81,2A7.26,7.26,0,0,0,59,65.8v.55c-.87-.07-1.8-.11-2.78-.14s-2,0-3,0c-.69,0-1.37,0-2,0s-1.37.07-2.13.14V65.8a7.63,7.63,0,0,0,2.47-.75,2.06,2.06,0,0,0,.84-2V53.83a7.21,7.21,0,0,0-.16-1.72,1.88,1.88,0,0,0-.52-1,2,2,0,0,0-1-.48,8.66,8.66,0,0,0-1.45-.18v-.54L55.85,49V51.3a22.69,22.69,0,0,1,2.88-1.8,7.17,7.17,0,0,1,3.33-.74,5.9,5.9,0,0,1,2.78.63A7.08,7.08,0,0,1,67,51.25c.4-.27.83-.55,1.32-.84s1-.56,1.49-.81A8.87,8.87,0,0,1,71.44,49,5.91,5.91,0,0,1,73,48.76,5.59,5.59,0,0,1,79.15,55v8.07a2.06,2.06,0,0,0,.84,2,7.55,7.55,0,0,0,2.47.75v.55c-1-.07-1.95-.11-2.95-.14s-2,0-3,0c-.69,0-1.36,0-2,0s-1.23.07-1.77.14V65.8a6.7,6.7,0,0,0,2.11-.75,2.1,2.1,0,0,0,.79-2V55.47a4.55,4.55,0,0,0-1.11-3.34A3.51,3.51,0,0,0,71.94,51a6.57,6.57,0,0,0-4.44,1.45V63.08a2.09,2.09,0,0,0,.81,2,7.26,7.26,0,0,0,2.31.75v.55c-.87-.07-1.8-.11-2.78-.14s-2,0-3,0c-.69,0-1.36,0-2,0s-1.23.07-1.77.14V65.8a6.7,6.7,0,0,0,2.11-.75,2.1,2.1,0,0,0,.79-2V55.47A7.36,7.36,0,0,0,63.28,52c-.45-.83-1.45-1.25-3-1.25a6.06,6.06,0,0,0-1.2.11,4,4,0,0,0-1,.39,6.2,6.2,0,0,0-1,.7c-.35.29-.75.65-1.2,1.07Z"></path><path class="cls-2" d="M83.91,34.75,91,33.89q-.09,4.26-.12,8.43t-.11,8.43a11,11,0,0,1,2.7-1.45,9.33,9.33,0,0,1,3.24-.54,10.51,10.51,0,0,1,3.69.63,9.31,9.31,0,0,1,3,1.75,7.88,7.88,0,0,1,2,2.67,8.24,8.24,0,0,1,.7,3.42,10.64,10.64,0,0,1-.77,4.2,8.8,8.8,0,0,1-2.08,3A8.53,8.53,0,0,1,100,66.28a11.94,11.94,0,0,1-3.85.61,12.72,12.72,0,0,1-3-.34,20.15,20.15,0,0,1-2.68-.82,15,15,0,0,1-2.06-1A5.9,5.9,0,0,1,87.35,64v-26a2.48,2.48,0,0,0-.86-2.18,4.62,4.62,0,0,0-2.58-.59ZM102,57.82a10.77,10.77,0,0,0-.41-3.08,7.54,7.54,0,0,0-1.15-2.42,5.56,5.56,0,0,0-1.81-1.61,4.8,4.8,0,0,0-2.38-.59,8.06,8.06,0,0,0-2.54.36,3.73,3.73,0,0,0-1.79,1.25,6,6,0,0,0-1.07,2.38,16.09,16.09,0,0,0-.36,3.71,15.94,15.94,0,0,0,.36,3.7,6,6,0,0,0,1.07,2.35,3.83,3.83,0,0,0,1.79,1.27,7.49,7.49,0,0,0,2.54.39,4.91,4.91,0,0,0,2.38-.59,5.56,5.56,0,0,0,1.81-1.61,7.65,7.65,0,0,0,1.15-2.42A10.8,10.8,0,0,0,102,57.82Z"></path><path class="cls-2" d="M110.74,52.93a6,6,0,0,1,1-2.25,4.46,4.46,0,0,1,1.52-1.27,5.83,5.83,0,0,1,2-.54c.72-.07,1.49-.11,2.31-.11a10.73,10.73,0,0,1,2.33.25,6.23,6.23,0,0,1,2.09.83,4.6,4.6,0,0,1,1.5,1.57,4.73,4.73,0,0,1,.56,2.38v8.38a2.53,2.53,0,0,0,.46,1.52,1.58,1.58,0,0,0,1.4.66,2.61,2.61,0,0,0,1.61-.52l1.34-1,.45.5-1.06,1.06c-.41.41-.84.8-1.3,1.18a7.92,7.92,0,0,1-1.38,1,2.84,2.84,0,0,1-1.38.39,1.85,1.85,0,0,1-1-.3,6.31,6.31,0,0,1-1-.7,9,9,0,0,1-.88-.86c-.27-.3-.52-.56-.73-.77a20.5,20.5,0,0,1-3.26,1.81,8.51,8.51,0,0,1-3.54.82,5.42,5.42,0,0,1-1.83-.32,5,5,0,0,1-1.57-.9,4.65,4.65,0,0,1-1.08-1.41,4,4,0,0,1-.41-1.86,4.18,4.18,0,0,1,1-3,6.72,6.72,0,0,1,2.7-1.7,16,16,0,0,1,3.76-.79c1.4-.14,2.82-.22,4.24-.25V53.24a3.27,3.27,0,0,0-1-2.58,3.91,3.91,0,0,0-2.63-.91,2.08,2.08,0,0,0-1.86,1.18,5.21,5.21,0,0,0-.68,2.68Zm9.84,5.53a11.6,11.6,0,0,0-3-.41,7.76,7.76,0,0,0-1.72.2,4.75,4.75,0,0,0-1.54.66,3.52,3.52,0,0,0-1.11,1.16,3.16,3.16,0,0,0-.43,1.7A2.39,2.39,0,0,0,113.8,64a4.5,4.5,0,0,0,2.38.65,5.83,5.83,0,0,0,2.65-.59,12.25,12.25,0,0,0,1.75-1Z"></path><path class="cls-2" d="M128.15,49.3c.9.09,1.74.14,2.51.16s1.63,0,2.56,0,1.83,0,2.77,0,1.86-.07,2.76-.16v.54a5.06,5.06,0,0,0-1.9.59,1.75,1.75,0,0,0-.91,1.64,7.23,7.23,0,0,0,.59,2.42c.4,1,.86,2.1,1.39,3.26s1.07,2.35,1.63,3.56a31.62,31.62,0,0,1,1.34,3.36c.15-.3.38-.8.7-1.5l1.09-2.38c.4-.89.81-1.82,1.22-2.79s.79-1.87,1.13-2.72.64-1.58.86-2.22a4.65,4.65,0,0,0,.34-1.27,1.33,1.33,0,0,0-.25-.86,2.06,2.06,0,0,0-.61-.52,3.59,3.59,0,0,0-.86-.32,8.78,8.78,0,0,1-.95-.25V49.3a20.8,20.8,0,0,0,2.08.16c.7,0,1.41,0,2.14,0s1.37,0,2,0,1.34-.07,2-.16v.54a4.23,4.23,0,0,0-2.48,1.57,20,20,0,0,0-2.22,3.15c-.68,1.18-1.27,2.33-1.79,3.47s-.9,2-1.18,2.51q-1.89,3.95-3.44,6.76T138,72a24.53,24.53,0,0,1-2.26,3,10.12,10.12,0,0,1-1.95,1.65,5.39,5.39,0,0,1-1.82.73,10.93,10.93,0,0,1-1.83.16,5.85,5.85,0,0,1-1.61-.23,4.24,4.24,0,0,1-1.41-.7,3.59,3.59,0,0,1-1.38-2.93,2.36,2.36,0,0,1,.66-1.63,2.05,2.05,0,0,1,1.56-.72,2.54,2.54,0,0,1,1.68.52,2,2,0,0,1,.63,1.61,2.23,2.23,0,0,1-.36,1.29,1.69,1.69,0,0,0-.36.75c0,.18.22.29.65.34s.87.06,1.3.06a4.15,4.15,0,0,0,2.67-1.11,13.73,13.73,0,0,0,2.34-2.53,19.77,19.77,0,0,0,1.65-2.72,5.65,5.65,0,0,0,.63-1.66,4.62,4.62,0,0,0-.31-.93c-.21-.53-.5-1.21-.86-2s-.77-1.76-1.23-2.79-.9-2-1.36-3.06-.9-2-1.36-2.94-.84-1.76-1.18-2.43-.56-1.25-.77-1.67a3,3,0,0,0-.77-1,3.3,3.3,0,0,0-1.09-.62c-.42-.15-1-.31-1.67-.5Z"></path><path class="cls-2" d="M156.66,56.64a10.57,10.57,0,0,0,.61,3.9A6.91,6.91,0,0,0,158.81,63a5.25,5.25,0,0,0,2,1.27,6.15,6.15,0,0,0,2,.36,9.17,9.17,0,0,0,3.44-.61,8.46,8.46,0,0,0,2.86-1.93l.77.73a15,15,0,0,1-3.81,3,9.82,9.82,0,0,1-4.67,1,7.75,7.75,0,0,1-3.49-.77,8.5,8.5,0,0,1-2.63-2,9,9,0,0,1-1.65-2.9,10.16,10.16,0,0,1,0-6.71,8.93,8.93,0,0,1,1.65-2.9,8.36,8.36,0,0,1,2.63-2,7.62,7.62,0,0,1,3.49-.77,8.3,8.3,0,0,1,5.76,2,9.23,9.23,0,0,1,2.68,5.93Zm8.84-1.36a19.25,19.25,0,0,0-.36-2.19,4.34,4.34,0,0,0-.73-1.64,3.11,3.11,0,0,0-1.31-1,5.44,5.44,0,0,0-2.09-.34,3.36,3.36,0,0,0-1.74.47,4.7,4.7,0,0,0-1.36,1.23,5.3,5.3,0,0,0-.86,1.67,5.84,5.84,0,0,0-.3,1.79Z"></path><path class="cls-2" d="M189.07,49.21H193a4.63,4.63,0,0,0-.95,2,16,16,0,0,0-.13,2.24v19.9a4.63,4.63,0,0,0,.22,1.57,2.12,2.12,0,0,0,.71,1,3,3,0,0,0,1.22.52,14,14,0,0,0,1.79.25v.54c-1-.06-1.93-.1-2.9-.13s-1.94,0-2.9,0c-1.21,0-2.41,0-3.61,0s-2.39.07-3.6.13v-.54c1.18,0,2.12-.09,2.83-.18a5.81,5.81,0,0,0,1.68-.43,1.56,1.56,0,0,0,.82-.84,4.39,4.39,0,0,0,.2-1.45V65.12a11,11,0,0,1-2.72,1.27,9.76,9.76,0,0,1-3,.5,10.79,10.79,0,0,1-4.08-.73,8.92,8.92,0,0,1-3.06-2,8.41,8.41,0,0,1-1.9-2.88,9.62,9.62,0,0,1,.13-7.32,8.39,8.39,0,0,1,2.15-2.85A9.86,9.86,0,0,1,179,49.37a10.88,10.88,0,0,1,3.65-.61,12.6,12.6,0,0,1,5.85,1.45Zm-.68,5.39a4.53,4.53,0,0,0-.66-1.65,5.88,5.88,0,0,0-1.33-1.5,7.36,7.36,0,0,0-1.91-1.08,6.25,6.25,0,0,0-2.35-.43,4.39,4.39,0,0,0-2.43.63,5.2,5.2,0,0,0-1.59,1.61,7,7,0,0,0-.88,2.18,10.56,10.56,0,0,0-.27,2.33A9.89,9.89,0,0,0,178.78,63a6.09,6.09,0,0,0,5.08,2.31q3.3,0,4.53-1.86Z"></path><path class="cls-2" d="M203.48,60.63a4.15,4.15,0,0,0,1,2.95,3.74,3.74,0,0,0,2.88,1,6.49,6.49,0,0,0,2.88-.7,6.83,6.83,0,0,0,2.1-1.47V52.88a6.24,6.24,0,0,0-.09-1.09,1.73,1.73,0,0,0-.45-.88,3,3,0,0,0-1.09-.68,8.91,8.91,0,0,0-1.95-.48v-.49l7.12-.5V62.67a2.52,2.52,0,0,0,.88,2.29,5.12,5.12,0,0,0,2.47.66v.45c-1.14.06-2.3.11-3.46.14s-2.31.07-3.43.14V64A21.84,21.84,0,0,1,209,66a8.46,8.46,0,0,1-3.78.86,5.84,5.84,0,0,1-3.72-1.22A4.52,4.52,0,0,1,200,61.9V52.52a2.07,2.07,0,0,0-.75-1.86,6.53,6.53,0,0,0-2.65-.72v-.59l6.93-.59Z"></path><path class="cls-2" d="M225.47,56.64a10.57,10.57,0,0,0,.61,3.9A6.91,6.91,0,0,0,227.62,63a5.25,5.25,0,0,0,2,1.27,6.15,6.15,0,0,0,2,.36A9.17,9.17,0,0,0,235,64a8.46,8.46,0,0,0,2.86-1.93l.77.73a15,15,0,0,1-3.81,3,9.82,9.82,0,0,1-4.67,1,7.75,7.75,0,0,1-3.49-.77,8.5,8.5,0,0,1-2.63-2,9,9,0,0,1-1.65-2.9,10.16,10.16,0,0,1,0-6.71,8.93,8.93,0,0,1,1.65-2.9,8.36,8.36,0,0,1,2.63-2,7.62,7.62,0,0,1,3.49-.77,8.3,8.3,0,0,1,5.76,2,9.23,9.23,0,0,1,2.68,5.93Zm8.84-1.36a19.25,19.25,0,0,0-.36-2.19,4.34,4.34,0,0,0-.73-1.64,3.11,3.11,0,0,0-1.31-1,5.44,5.44,0,0,0-2.09-.34,3.36,3.36,0,0,0-1.74.47,4.7,4.7,0,0,0-1.36,1.23,5.54,5.54,0,0,0-.87,1.67,6.13,6.13,0,0,0-.29,1.79Z"></path></g></g></svg>