<svg xmlns="http://www.w3.org/2000/svg" viewBox="0 0 462.97 510.7"><defs><style>.cls-1{fill:#8e80aa;}.cls-2{fill:#400080;}.cls-3{fill:#2b0070;}.cls-4{fill:#d2c3dd;}.cls-5{fill:#2b006e;}.cls-6{fill:#1d053d;}.cls-7{fill:#2b0963;}.cls-8{fill:#c2a9d3;}</style></defs><g id="Capa_2" data-name="Capa 2"><g id="Capa_1-2" data-name="Capa 1"><path class="cls-1" d="M407.21,449.55c17.31,14.39-.31,24.37-.31,24.37,3.41,14.15-12.14,15.15-12.14,15.15,2.4,17.95-16.85,9.82-16.85,9.82-10.2-5.06-16.9-21.51-6.5-34.36S399.89,443.46,407.21,449.55Z"></path><path class="cls-2" d="M109.4,90.86c-8.9-28.73-42.23-6-42.23-6-17.25-15.75-33,20.86-33,20.86-14.65,5.31.7,20.56.7,20.56,10.06,4.24,39.61-10.49,52.45-17.29S111.78,98.56,109.4,90.86Z"></path><path class="cls-3" d="M126.81,225.88s7.73-20.08,13.61-39.07c8.52-27.5-9.65-80.17-34.64-93.84-21-11.51-52.86,3.39-61.39,16.43C-2,184.82,48.36,249,48.36,249,55.76,255.23,103.82,255.25,126.81,225.88Z"></path><path class="cls-2" d="M129.22,224.48S109,200.8,90,207s-13.24,27.08-13.24,27.08c-22.47.2-35.52,30.39-30.2,25.67s20.76,2.42,20.76,2.42c-3.41,5.21-2.61,17.65,4,23.47s22.32-6.87,22.32-6.87C105.41,272.16,136.44,256.87,129.22,224.48Z"></path><path class="cls-4" d="M202.88,281.08,228.68,263,270,233.89l9.47-6.66c2.61-1.83.12-6.16-2.51-4.31l-25.79,18.14-41.33,29.06-9.47,6.66c-2.61,1.83-.12,6.15,2.5,4.3Z"></path><path class="cls-5" d="M382.84,89.53s7.43-20.46,19.26-11.22c0,0,7.22-4.21,10.93,4.91,0,0,13.34,3.52,7,12,0,0,14.42,10.9-5.52,21C403.19,122,381.14,110.93,382.84,89.53Z"></path><path class="cls-5" d="M440.22,159.69s29.66,1.69,21.24-12.76c-4.91-8.42-10.37-7.4-10.37-7.4s5.06-7.24-4.17-14.77-14.05-19.59-26.85-6.11C408.08,131.28,421.09,158.18,440.22,159.69Z"></path><path class="cls-1" d="M139.61,26.47S125.17,15.53,129.08,8.41c5.41-9.84,13-10.83,15.35-4.1s9.43-8.73,15.75,2.11c3.51,6,12.34-12,21.26.5,4.71,6.62,7.53-9.22,16.95,1.41,3.7,4.17,11.14-11.33,15.55-1,2.79,6.54,12.74-5.81,15.25,4,1.94,7.64,9.33-.6,9.22,7.53S232.29,30.51,222.76,28Z"></path><path class="cls-6" d="M179.15,321.19S235,306.36,226.8,295s-24.87-17.76-32.29-16.66c0,0,.94-3.59,2-8.83,2.73-13.07,6.38-36.41-1.42-39.92-10.93-4.92-42.43,10.22-47.05,16.14,0,0-17.14-23.88-35.3-24.59,0,0-18.56,12.44-9.44,47.45,0,0-15.85,6-8.63,21.16s26.67,26.39,35.8,22.68c0,0,7.72,13.24,19.66,14.35,0,0,16.44,3.31,30.19-6.31"></path><ellipse class="cls-7" cx="153.84" cy="285.16" rx="25.73" ry="34.84" transform="translate(-170.07 277.17) rotate(-60.24)"></ellipse><path class="cls-8" d="M155.21,191.58c-23.37-4.12-69.41-30.51-48.52-94.3C129.12,28.76,145.63,23,145.63,23l76.43,3.84s22.8,64.1,5.49,114.55C214.39,179.66,175.61,195.18,155.21,191.58Z"></path><path class="cls-2" d="M327.73,233c134.52-34.87,113.57-98.47,113.57-98.47-14.33-19.06-37.51-20.07-37.51-20.07s2.52-28.89-27.87-25.69c-15.81,1.66-64.81,10.49-103.35,91"></path><path class="cls-5" d="M273.67,217.7S277.27,235,305.06,230c0,0,4.41,10.34,6.51,14,0,0,6.22-.4,7.93-3,0,0,6.32,10.84,10.63,9.94,0,0,12.94-2.71-11.33-30.5,0,0,1.51-5.72-10.72-21.17,0,0-9.43-10.63-19.46-11.24,0,0-14.44-30.3-32-21.67,0,0,7.12,3.91,9.93,8.72a30,30,0,0,0-9.94,10.63s5.82,12.75,15.65,10.24C272.27,195.93,266.85,208.77,273.67,217.7Z"></path><path class="cls-8" d="M212.39,256.47s46.74,8.24,30.8-35.7C220.83,193.48,187,240.61,212.39,256.47Z"></path><path class="cls-8" d="M230.88,259.45a11.67,11.67,0,0,0-2.63,15.31c3.87,6.06,10.88,12.32,22.69,9.09,14.84-2.2,26.18-10.42,24.38-19.05C275.32,264.8,260,236,230.88,259.45Z"></path><path class="cls-4" d="M129.81,360.83l19.73-28.75,2.78-4.06c1.82-2.64-2.53-5.08-4.33-2.45l-19.74,28.75-2.78,4.06c-1.82,2.64,2.53,5.08,4.34,2.45Z"></path><path class="cls-4" d="M219,379.68,193.19,366l-41.11-21.86-9.5-5.05c-2.83-1.5-5.29,2.83-2.45,4.34l25.77,13.7L207,379l9.5,5c2.83,1.5,5.29-2.83,2.45-4.34Z"></path><path class="cls-4" d="M152.72,191.58l4.48,40.33.63,5.71c.35,3.16,5.34,3.19,5,0l-4.47-40.33-.64-5.71c-.35-3.16-5.34-3.19-5,0Z"></path><path class="cls-8" d="M233.18,433.25s35.09,79.55,121.36,61.52c0,0,22.15,43.54,22.87-13.33,0,0,20-10,20.47-31.29,0,0,24.18-2.8,18.86-17.45s-19,6.21-19,6.21S353.51,335,265.9,359.33c-8.36,2.33-47.26,26.87-32.72,73.92"></path><path class="cls-1" d="M218.35,377.37s3-11.43,30.8-16.34c0,0,11.54-24.47,16.36-27.28,0,0,8.49,6.12,1.58,24.78a33.58,33.58,0,0,1,4.72,24.78,33.43,33.43,0,0,1-26,13.53s5.41,25.88-18.67,39.92C227.16,436.76,205.5,410.67,218.35,377.37Z"></path><path class="cls-2" d="M91.87,362.39s-5.61-29-32.4-27.89c0,0-12.64,36.4-21.37,46.33,0,0-34.92,20.36-37.93,31.79s35,29.6,35,29.6S56.93,479.54,69.76,485c4.52,2.21,16.36-7.92,18.47-23.67,0,0,45.64.82,55.37-12.92,0,0,9.23-11.83-18.34-42.54,0,0,18.46-23.66,11.54-43.83C136.8,362,119.45,354.37,91.87,362.39Z"></path><path class="cls-6" d="M42.5,410.52s1,34.07,30.38,35.52c29.92,1.48,33.36-28.71,31.81-39.51-1-6.9-13.43-34.11-31.89-29.8S38.59,398.29,42.5,410.52Z"></path></g></g></svg>