<svg xmlns="http://www.w3.org/2000/svg" viewBox="0 0 178.43 218.56"><defs><style>.cls-1{fill:#d5d2db;}.cls-2{font-size:49px;fill:#270360;font-family:Cochin;}</style></defs><g id="Capa_2" data-name="Capa 2"><g id="Capa_1-2" data-name="Capa 1"><path class="cls-1" d="M93.13,15.88a2.84,2.84,0,0,0,.79,2.48c.71.81.62,1.92.81,2.92.06.32-.11.82.56.7,1.1-.22,1.24.63,1.32,1.36a4.46,4.46,0,0,0,1,2.55,1.45,1.45,0,0,1,.1,1.93,1.2,1.2,0,0,0,.09,1.75c.54.52.53,1.27.72,1.94.5,1.81,1.67,3.42,1.55,5.42a1.27,1.27,0,0,0,.77,1.25c2,.75,2.09,2.73,2.67,4.32a21.56,21.56,0,0,1,.68,3.7c.27,1.51.64,2.94-.52,4.38-.77,1-.15,2.16,1.08,2.63a4,4,0,0,1,2.59,2.37c.28.77,1,1.21,1.53,1.79,1.1,1.18,1,2-.31,2.89-.29.19-.57.34-.4.75,1,2.26.94,4.81,2.08,7a1.57,1.57,0,0,1,0,1.09c-.08.42-.14,1,.26,1.15,1.19.5,1,1.11.49,2s.22,1.7,1.1,1.78c2.15.19,2.58,1.37,2.57,3.27a3,3,0,0,0,.76,2.31,1.47,1.47,0,0,1,.34,1.3,2.1,2.1,0,0,0,1.62,2.65c1,.32.77,1.21.56,1.75-.67,1.73.48,2.57,1.26,3.85,1.11,1.82,3.63,2.23,4.1,4.54.11.53.67.31.88,0,.9-1.33,2.68-1,3.73-2,.26-.26.49,0,.71.19A16.59,16.59,0,0,0,131,94.3a.86.86,0,0,1,.39,1c-.42,1-.59,2.17-1,3.19-.22.6-.52.92-.09,1.53a1.34,1.34,0,0,1-.11,1.7c-.89,1-.52,1.92.32,2.67a5.92,5.92,0,0,1,1.77,2.28c.21.56.64,1.2,1.48.95.46-.14.7.15.92.46a12.29,12.29,0,0,1,1.14,1.76,11.44,11.44,0,0,0,3.52,4.45,2.12,2.12,0,0,1,.83,2.57,3.25,3.25,0,0,0,.9,3.47c1.36,1.26,2.45,3.28,4.87,2,1.49.92,3.15-.38,4.85.56,1.35.75,3.17.8,4.72,1.49a16.68,16.68,0,0,1,4.09,2.59c.66.58,1.26.8,1.88,0a1.44,1.44,0,0,1,1.65-.42c.86.18,1.72.4,2.59.53s1.39.59.83,1.5c-.4.65-.28.84.41,1.2a11.56,11.56,0,0,1,2.63,2.06,1.46,1.46,0,0,1,.15,2.23c-.81.79-.65,2.27-2.07,2.66-.4.11-.06.74.23,1.06,1.7,1.81,2.72,4.12,4.38,6,.15.17.36.43.33.6-.43,2.07,1.41,2.81,2.38,4a2.34,2.34,0,0,1,.47,2.46,10.37,10.37,0,0,0,.31,7.4c.67,1.79.88,3.3-.67,4.69a1.6,1.6,0,0,0-.51,1.4,1.25,1.25,0,0,1-.19.92c-1.41,1.32-.78,2.94-.77,4.47,0,1.13,1.18,1.46,1.54,2.4.45,1.18.63,2-.69,2.65-.78.36-.29.75.05,1.05.91.79,1.85,1.56,2.79,2.32s1.59,1.41.42,2.48a.93.93,0,0,0-.19.65c.06,1.13-.56,1.5-1.57,1.4a1.48,1.48,0,0,0-1.72,1.06,3.1,3.1,0,0,1-1.89,1.58c-1.57.66-2,2.07-2.53,3.49-.21.6.17,1.07.48,1.54,1,1.47.73,2.21-.44,3.42-.61.63-1,1.35-2,1.51a.67.67,0,0,0-.37.53,2,2,0,0,1-1.29,2.11,4.79,4.79,0,0,1-3.8.16,7.1,7.1,0,0,1-.86-.46c-.75-.49-1.23-.41-1.61.5s-1.16,1.19-1.87,1.62a1,1,0,0,1-1.59-.54c-.28-.92-.79-1.1-1.66-1a3.5,3.5,0,0,1-1.84-.6c-1.33-.67-2.65-1.38-4-2s-2.33-.14-2.43,1.27c-.12,1.74-1.16,2.77-2.28,3.84a92.13,92.13,0,0,1-9.65,7.63c-.41.3-1,.58-1.13,1-.67,2.09-2,3.84-2.74,5.89a6.24,6.24,0,0,1-.85,2c-1.37,1.7-3.22,1.91-4.53.23-2.33-3-5-5.73-7.16-8.91s-4.43-6.57-7.51-9.13a2.77,2.77,0,0,1-1.15-2.42,4.26,4.26,0,0,0-1-2.56,2.42,2.42,0,0,1-.3-2.75s.06-.09.05-.12c-.85-2.06.09-4.45-1.56-6.45a106.14,106.14,0,0,1-7.53-9.68A13.06,13.06,0,0,1,97,169.85a1.8,1.8,0,0,0-.29-.78c-2.06-2.84-4-5.81-7.1-7.7a2.22,2.22,0,0,1-1.18-2.88,22.14,22.14,0,0,1,1-3.58,3,3,0,0,0-.21-3.09,76.82,76.82,0,0,0-5.1-6.07,24.8,24.8,0,0,0-6.84-4.3c-1.39-.66-2.84-1.18-4.28-1.74-1.86-.73-2.41-1.36-1.88-3.25a3.25,3.25,0,0,0-1.32-3.84,27.38,27.38,0,0,0-3.12-2.35c-1.14-.7-1.17-1.58,0-2.19.89-.49,1.82-.85.57-2-.29-.25,0-.61.12-.91a1,1,0,0,0-.47-1.31c-1.65-1.26-1.75-2.79-.3-4.22a.61.61,0,0,0,.17-.63,3.06,3.06,0,0,1,.48-2,2.09,2.09,0,0,0,.15-1.89,31.29,31.29,0,0,1-2-3.66c-.35-.9-1.44-.6-2.25-.33-1.71.55-1.56.48-2-1.22-.36-1.35-1.11-2.48.33-3.69.58-.49.34-1.33-.13-2-.89-1.35-1.89-2.65-1.77-4.45a2,2,0,0,0-1.13-1.67A18.94,18.94,0,0,1,55.81,96a2.9,2.9,0,0,1-1.36-2.78c.12-1.25-.86-2.49-1.64-3.61-1.65-2.35-4-3.89-6.28-5.5a110.05,110.05,0,0,0-16.68-9.36c-1.12-.53-1.65-1.09-1.17-2.35a4.41,4.41,0,0,0-.13-2.76c-.52-1.75.47-2,1.76-2.35,1.5-.34,2.18-1.19,1.9-2.51A10.63,10.63,0,0,0,31,61.25a22.46,22.46,0,0,1-.89-2.5c-.78-1.52-.75-3.38-2-4.66a1.38,1.38,0,0,1-.35-1.86,2.79,2.79,0,0,0,0-2.56,33.06,33.06,0,0,0-2.44-4.87c-1-1.7-1.54-3.76-3.28-5a.94.94,0,0,1-.28-.62c-.24-2.66-2.36-4.19-3.6-6.25-1.76-2.91-4.44-5-6.22-7.84a1,1,0,0,1,.14-1.47c.5-.49,1-.94,1.5-1.47a2,2,0,0,1,2.88-.6c1.92,1,3.4-.17,3.24-2.34a6.36,6.36,0,0,0-1.28-3.62,1.54,1.54,0,0,1,.08-2.27c2.42-2.15,2.67-4.83,2.22-7.8-.32-2,.31-2.62,2.35-2.35,1.41.18,2.89.1,4,1.28.53.56,1.14.24,1.56-.29.87-1.07,1.55-.75,2.18.24.12.2.25.39.38.59,1.62,2.44.82,4.32-2.16,5a2.44,2.44,0,0,0-1.63,1c-.18.25-.46.56-.73.59-1.81.22-2.09,1.59-2.12,3a3.8,3.8,0,0,1-1.66,3.2,2.43,2.43,0,0,0-1.11,1.39,1.22,1.22,0,0,0,.28,1.3c.41.35.65-.2,1-.25,1.24-.19,2.18-1.22,3.53-1.18.67,0,1.09-.64,1.56-1.09A3.82,3.82,0,0,1,31,16.48a1,1,0,0,1,.92.54c.21.44,0,.71-.39.91s-.58.39-.53.76c.16,1.08-.5,1.56-1.31,2.06-1,.6-.77,2.57.25,3.08.45.22.72,0,.89-.36a1.82,1.82,0,0,1,1.31-1.14c1.41-.38,2,.1,1.73,1.54a1.34,1.34,0,0,1-.13.54c-1.27,1.9-.16,3.62.51,5.3.5,1.25.18,2.49.32,3.72,0,.35-.14.82.3,1s.59-.21.81-.43a2.62,2.62,0,0,1,3.51-.64,1.19,1.19,0,0,0,1.33-.06A4.9,4.9,0,0,1,44,32.43c1.62.13,2.12-.73,1.71-2.27a3.13,3.13,0,0,1,1-3.19c1.53-1.43,2.48-3.4,4.34-4.51.33-.2.5-.67.72-1,.54-.82,1.14-1.5,2.28-1.16a.72.72,0,0,0,.78-.17c1-1.14,2.28-.82,3.51-.47,1.69.49,1.89.13,2.76-1.33a3.83,3.83,0,0,0,.33-3.69,1.09,1.09,0,0,1,.45-1.24A28.77,28.77,0,0,0,68,5.76,2.64,2.64,0,0,1,69.89,4.4c1.55-.35,3.08-1,3.21-3,.06-.8.49-.81,1-.38,1.24,1,2.37,1.08,3.53-.18A3.68,3.68,0,0,1,80,0c.48-.06,1.11,0,1.22.45.37,1.62,2.07,2.65,1.9,4.5a4.24,4.24,0,0,0,.28,1.51c.1.38.38.78.8.54.91-.52,1.25-.17,1.39.72a.76.76,0,0,0,.81.64c1.31-.07,1.47.8,1.6,1.8a4.23,4.23,0,0,0,3.74,3.46C93.39,13.67,93.07,14.81,93.13,15.88Z"></path><text class="cls-2" transform="translate(36.04 115.17)">Lima</text></g></g></svg>