<svg xmlns="http://www.w3.org/2000/svg" viewBox="0 0 193.92 163.17"><defs><style>.cls-1{fill:#fff;}</style></defs><g id="Capa_2" data-name="Capa 2"><g id="Capa_1-2" data-name="Capa 1"><path class="cls-1" d="M181.2,148.22a33.47,33.47,0,0,1-4.45-16.53V79.41q0-21.93-11-39.33a81.25,81.25,0,0,0-30.19-27.89Q116.37,1.71,91.42.12A125,125,0,0,0,55.27,3.93Q36.91,8.54,24,18.63T9.58,43.82q-.48,15.57,8.9,23.75a35.84,35.84,0,0,0,22.25,8.9,35.94,35.94,0,0,0,23-6.2q10.09-6.9,11-21.69.17-7.94-2.3-13A39.46,39.46,0,0,0,67,27a34.66,34.66,0,0,1-3.58-5.48,9.32,9.32,0,0,1-.87-5.8q1.59-6.36,7-8.34a22,22,0,0,1,11.28-1A22.48,22.48,0,0,1,97.06,17.44q5.64,9.38,3.1,22.32T83.87,65.43Q70.13,78.14,42.16,86.56,16.09,94.51,7,107.14T.68,132.65q2.86,13.18,15.1,22t31.62,8.5a80.12,80.12,0,0,0,31.47-7.63q14.77-7,22.4-19.55a51,51,0,0,0,.48,6,18.13,18.13,0,0,0,10.09,14q5,2.7,14.06,2.7h68A21.44,21.44,0,0,1,181.2,148.22ZM70.48,134.37c-13-7.8-20.16-25.91-7.68-39.5a28.26,28.26,0,0,1,6.6-5.23,14.46,14.46,0,0,0-3.91-2.35.61.61,0,0,1,.21-1.17,46.7,46.7,0,0,1,7.64.31l-.78-3.68a.61.61,0,0,1,.86-.68l5.64,2.71.64-3.59A.61.61,0,0,1,80.81,81L83,84.13C83.72,81.41,86.33,80,88,79.3a.6.6,0,0,1,.76.83,13.53,13.53,0,0,0-1.21,4.06c10.63-.69,20.57,2.81,23,11.42C119.67,127.77,83.45,142.16,70.48,134.37Z"/></g></g></svg>