<svg xmlns="http://www.w3.org/2000/svg" viewBox="0 0 226.17 226.52"><defs><style>.cls-1{fill:#e23b3b;}</style></defs><g id="Capa_2" data-name="Capa 2"><g id="Capa_1-2" data-name="Capa 1"><path class="cls-1" d="M66.37,128.08c-5.51-11-.24-23.14,7.16-31.78A65.48,65.48,0,0,1,82,88.12a1.63,1.63,0,0,0-.24-2.53,24.6,24.6,0,0,0-5.16-3.27,12.26,12.26,0,0,0-1.4-.6l.26.33a.6.6,0,0,1-.12.49c-.09.09-.08.1,0,0l.25-.1c.37-.09,1.12-.36,1.65-.5,2.91-.76,6-.83,8.68.75a1.61,1.61,0,0,0,2.39-1.69l-.51-3.4-.36-2.34c0-.23-.06-.45-.1-.67-.07-.4,0,.07-.1.26s-.6.16-.59.25.34.26.41.32l1.8,1.36L91.7,79a1.62,1.62,0,0,0,2.37-.89L96.86,71l.77-1.93A5.8,5.8,0,0,0,98.05,68l0-.08c.11,0-.35.38-.38.39-.26.08-.31,0-.55-.11s-.09-.23-.05-.08a1.34,1.34,0,0,0,.13.23l1,1.69,2.17,3.65c.47.78,1.79,1.29,2.5.44a75.7,75.7,0,0,1,6.46-6.82c.47-.46,1-.9,1.45-1.34.19-.17,1.28-.91,1.29-1.12s-.22,0-.39,0-.19-.24-.29-.4c0-.31,0-.39,0-.25l-.17.37-.32.74a25.79,25.79,0,0,0-1.89,7.06A1.6,1.6,0,0,0,111,73.94c9.67-2.08,20-1.56,29,2.8a38.85,38.85,0,0,1,17.43,17.14,48.79,48.79,0,0,1,5.27,23.9,50.75,50.75,0,0,1-1.9,12.42,22.25,22.25,0,0,1-1.05,2.93c-.14.35.08-.15,0,.1l-.15.32c-.12.24-.24.49-.37.73-.25.46-.5.91-.77,1.36a30,30,0,0,1-1.83,2.67l-.51.66-.25.3c-.15.18.18-.22,0,0l-.17.2c-.38.44-.76.87-1.15,1.29a44.6,44.6,0,0,1-5.45,4.92c-.52.41-1.06.8-1.6,1.19l-.18.13s.2-.15,0,0l-.37.26-.88.58c-1.13.75-2.29,1.45-3.47,2.12a63.46,63.46,0,0,1-7.54,3.59,60.7,60.7,0,0,1-8,2.57,62.68,62.68,0,0,1-8.72,1.55c-1.28.13-2.82.23-4.29.27s-3,0-4.47-.06a49.86,49.86,0,0,1-8.87-1.22,47.36,47.36,0,0,1-17-7.61,54.24,54.24,0,0,1-14.35-15.54c-1.08-1.74-2.08-3.53-3-5.36a1.59,1.59,0,0,0-2.83,1.46,62.16,62.16,0,0,0,14.33,18.83,50.92,50.92,0,0,0,17.72,10.09A55.07,55.07,0,0,0,114.41,161a64.75,64.75,0,0,0,18.18-3.27,63.77,63.77,0,0,0,15.71-7.62,46,46,0,0,0,11.37-10.62c3.53-4.8,5-10.36,5.81-16.22a53.64,53.64,0,0,0-3-25.93A43.21,43.21,0,0,0,146.82,77a44.8,44.8,0,0,0-28.23-7.36,57.79,57.79,0,0,0-8.27,1.18l1.93,1.61a20.58,20.58,0,0,1,1-4.09c.38-1.16,1.07-2.31,1.33-3.49a2.65,2.65,0,0,0-1.69-3c-1.39-.51-2.43.29-3.43,1.16a72.8,72.8,0,0,0-8.66,8.81l2.49.43-2.12-3.57c-.88-1.47-1.68-3.52-3.7-3.44s-2.42,1.87-3,3.34l-2,5L91,77.14l2.36-.89c-1.67-1.26-3.3-2.68-5-3.82a2.68,2.68,0,0,0-4.11,2.69c.12,1,.31,2.09.47,3.13l.53,3.48,2.4-1.7c-3.72-2.21-8.19-2.12-12.21-.81a4.47,4.47,0,0,0-2.72,1.55,2.68,2.68,0,0,0,.66,3.52,8.61,8.61,0,0,0,1.65.78,17.54,17.54,0,0,1,1.87,1,25.55,25.55,0,0,1,3.2,2.25l-.24-2.52a59.48,59.48,0,0,0-14,15.86c-3.13,5.35-5.26,11.54-4.94,17.8a25.38,25.38,0,0,0,2.66,10.1A1.59,1.59,0,0,0,66.37,128.08Z"></path><path class="cls-1" d="M87.92,88.23a15.82,15.82,0,0,0,5.54-.94A27.74,27.74,0,0,0,105.1,79.5c1.05-1.15-.59-2.94-1.65-1.79A25.21,25.21,0,0,1,92.78,85a19.08,19.08,0,0,1-3.58.79c-.06,0-.48,0-.14,0l-.24,0-.44,0H88a1.22,1.22,0,0,0-.1,2.43Z"></path><path class="cls-1" d="M28.65,38.75a10.65,10.65,0,0,0-.83,1.51,2.11,2.11,0,0,0-.2,1A1.39,1.39,0,0,0,28,42a7.7,7.7,0,0,0,.81.8l8.13,7.06c.32-.25.63-.51.93-.76a7,7,0,0,0,.82-.81A8.94,8.94,0,0,0,40,46.39a5.88,5.88,0,0,0,.55-1.87,6.66,6.66,0,0,0-.08-2,17.51,17.51,0,0,0-.57-2.27L40.1,40l2.66,4.6c-.37.39-.75.78-1.11,1.18s-.74.81-1.09,1.22l-4.33,5-.72.86c-.23.29-.46.59-.68.89l-.21-.18a4.79,4.79,0,0,0,.61-1,2,2,0,0,0,.15-.78,1.11,1.11,0,0,0-.22-.62,3.12,3.12,0,0,0-.54-.57l-6.71-5.83a15.44,15.44,0,0,0-1.21-1,2.58,2.58,0,0,0-.94-.45,1.37,1.37,0,0,0-.86.14,4.55,4.55,0,0,0-1,.79l-.2-.18c.41-.42.8-.84,1.19-1.27s.78-.85,1.16-1.29l1.23-1.45c.4-.49.8-1,1.19-1.48Z"></path><path class="cls-1" d="M44.66,34l1.42,4.09.11.32a.6.6,0,0,0,.14.26A1.07,1.07,0,0,0,47,39a2.09,2.09,0,0,0,.75,0,3.06,3.06,0,0,0,.73-.21,5.39,5.39,0,0,0,.57-.26l.17.21c-.37.26-.73.53-1.09.8L47,40.42c-.35.28-.68.57-1,.85s-.66.58-1,.91L44.83,42a3.21,3.21,0,0,0,.59-1.1,3.37,3.37,0,0,0,.11-1.09,6.44,6.44,0,0,0-.2-1.12c-.11-.37-.23-.76-.36-1.15l-3-9.85q0-.16-.09-.3a1,1,0,0,0-.11-.23,1.78,1.78,0,0,0-.28-.21,2.42,2.42,0,0,0-.4-.19,4.91,4.91,0,0,0,.59-.86l.49-.9,11.74,7a3.43,3.43,0,0,0,1.56.52,3,3,0,0,0,1.69-.56l.17.21c-.49.35-.95.71-1.41,1.06l-1.41,1.13-.82.67L53,35.5c-.18.15-.35.31-.51.46l-.51.48-.17-.21a4.23,4.23,0,0,0,.92-1.37,1.14,1.14,0,0,0-.14-1.18,1,1,0,0,0-.29-.23L52,33.27,48.29,31ZM42.5,27.5l1.9,5.8,3.27-2.67Z"></path><path class="cls-1" d="M66.22,26.62a4.82,4.82,0,0,0,1-.79A1.42,1.42,0,0,0,67.6,25a2.25,2.25,0,0,0-.19-1c-.15-.39-.37-.86-.65-1.42l-3.36-6.7c-.28-.57-.53-1-.74-1.37a2.29,2.29,0,0,0-.71-.76,1.38,1.38,0,0,0-.88-.19,4.67,4.67,0,0,0-1.26.35l-.12-.24c.58-.25,1.13-.51,1.66-.76s1.09-.52,1.65-.8l1.31-.68c.44-.23.86-.47,1.28-.71l.12.24a4.2,4.2,0,0,0-1,.77,1.29,1.29,0,0,0-.35.8,2.37,2.37,0,0,0,.19,1c.15.39.37.86.65,1.42l3.36,6.7A15.17,15.17,0,0,0,69.32,23a2.23,2.23,0,0,0,.71.77,1.42,1.42,0,0,0,.88.18,4.63,4.63,0,0,0,1.27-.36l.13.24c-.53.23-1,.46-1.56.7s-1,.49-1.54.75l-1.45.75-1.41.78Z"></path><path class="cls-1" d="M70.55,8.23,72,7.84l1.58-.48c.31-.1.62-.2.91-.31s.6-.23.9-.36c.27.2.7.49,1.29.88l2,1.31c.76.5,1.57,1,2.44,1.58l2.53,1.64,2.25,1.49c.69.46,1.24.85,1.65,1.16h0c-.14-.43-.27-.86-.4-1.28s-.26-.85-.39-1.28L86.05,9.7c-.29-.91-.58-1.69-.86-2.35a6.1,6.1,0,0,0-.93-1.58A2.47,2.47,0,0,0,83.12,5,2.9,2.9,0,0,0,81.6,5l-.08-.25q.77-.2,1.53-.42c.51-.14,1-.3,1.51-.46s.92-.3,1.39-.46.92-.33,1.37-.51l.08.26a2.92,2.92,0,0,0-1.6,1.37,3,3,0,0,0,.09,2L89.5,17.88l-.79.26q-1.77-1.47-3.63-2.78T81.42,12.9c-1.19-.77-2.33-1.47-3.42-2.11L75.07,9.1c.1.38.21.74.31,1.1s.22.73.34,1.1L76.91,15c.4,1.27.75,2.26,1,3a5.11,5.11,0,0,0,.9,1.57,1.57,1.57,0,0,0,1.11.52,7.24,7.24,0,0,0,1.67-.19l.08.26c-.73.2-1.44.4-2.13.61s-1.4.42-2.13.65l-1.21.41c-.4.14-.79.29-1.2.45L75,22.05l1.21-.61a2.43,2.43,0,0,0,.79-.61,1.41,1.41,0,0,0,.33-.81,3.28,3.28,0,0,0-.16-1.23l-2.87-9.9a6.12,6.12,0,0,0-1.78-.4,14.12,14.12,0,0,0-1.84,0Z"></path><path class="cls-1" d="M94.53,16.16a4.31,4.31,0,0,0,1.15-.37,1.94,1.94,0,0,0,.63-.49,1.12,1.12,0,0,0,.25-.53,2.44,2.44,0,0,0,0-.54L95.49,3.92a4.62,4.62,0,0,0-.15-.86A1.27,1.27,0,0,0,95,2.45a1.52,1.52,0,0,0-.72-.35A5.09,5.09,0,0,0,93.06,2l0-.27c.39,0,.78,0,1.16-.05l1.17-.1a24.84,24.84,0,0,0,2.88-.46A24.27,24.27,0,0,1,101,.68a10.12,10.12,0,0,1,3.45.2,8.48,8.48,0,0,1,3,1.31,7.54,7.54,0,0,1,2.15,2.31,7.84,7.84,0,0,1,1,3.23,7,7,0,0,1-.34,3.23,6.12,6.12,0,0,1-1.57,2.33,7.35,7.35,0,0,1-2.42,1.49,12.13,12.13,0,0,1-3,.69l-2.06.2-1.51.15-1.16.11-1,.09c-.5.05-1,.11-1.49.18s-1,.14-1.49.22Zm4.06-2a4.11,4.11,0,0,0,1.74.76,6.7,6.7,0,0,0,1.89.08c2.3-.24,3.91-1,4.83-2.29a7.5,7.5,0,0,0,1-5.28,7.05,7.05,0,0,0-.81-2.66,6.66,6.66,0,0,0-1.68-2,6.59,6.59,0,0,0-2.36-1.24,7.32,7.32,0,0,0-2.86-.25,7.18,7.18,0,0,0-2.9.94c0,.78.06,1.55.13,2.32s.14,1.55.22,2.36Z"></path><path class="cls-1" d="M118,2.44a3,3,0,0,0,0-1,1.2,1.2,0,0,0-.31-.58,1.61,1.61,0,0,0-.58-.35c-.23-.09-.5-.17-.81-.26l0-.27,1.83.25,1.84.2c.45,0,.9.08,1.34.1l1.33.07,0,.27a5.21,5.21,0,0,0-1.21.1,1.78,1.78,0,0,0-.78.38,1.61,1.61,0,0,0-.45.71A4.43,4.43,0,0,0,120,3.2l-.71,7.28a4.16,4.16,0,0,0,.17,1.81,3.21,3.21,0,0,0,.84,1.28,3.94,3.94,0,0,0,1.33.8,6.71,6.71,0,0,0,1.66.38,5.75,5.75,0,0,0,2.39-.2,4.09,4.09,0,0,0,1.55-.9,3.42,3.42,0,0,0,.87-1.24,4.92,4.92,0,0,0,.32-1.22L129,4.93a12.28,12.28,0,0,0,.07-1.51,2.77,2.77,0,0,0-.22-1,1.58,1.58,0,0,0-.6-.66,3.76,3.76,0,0,0-1.07-.39l0-.27,1.37.2,1.37.16,1.14.08c.37,0,.75,0,1.15.05l0,.27a5.81,5.81,0,0,0-.88.09,1.4,1.4,0,0,0-.7.34,2,2,0,0,0-.49.8,6,6,0,0,0-.29,1.47l-.65,6.68a5.11,5.11,0,0,1-.71,2.26A4.65,4.65,0,0,1,127,15a5.78,5.78,0,0,1-2,.77,8.62,8.62,0,0,1-2.39.08,7.75,7.75,0,0,1-2.16-.51,5.86,5.86,0,0,1-1.78-1.1,4.65,4.65,0,0,1-1.16-1.66,4.5,4.5,0,0,1-.28-2.17Z"></path><path class="cls-1" d="M146.8,9.69a8.39,8.39,0,0,0-.35-1.57,5.69,5.69,0,0,0-.69-1.5,5.34,5.34,0,0,0-1-1.22,4,4,0,0,0-1.47-.76,4.35,4.35,0,0,0-2.15-.11,1.8,1.8,0,0,0-1.24,1.41,2.13,2.13,0,0,0,0,1.3,3.63,3.63,0,0,0,.7,1.16,9.44,9.44,0,0,0,1.16,1.09l1.36,1.09c.46.37.91.76,1.34,1.15A6.38,6.38,0,0,1,145.52,13a4.24,4.24,0,0,1,.6,1.52,3.81,3.81,0,0,1-.12,1.81,4,4,0,0,1-.9,1.72,3.65,3.65,0,0,1-1.4,1,4.68,4.68,0,0,1-1.74.31,7.54,7.54,0,0,1-3-.7l-1.06-.54-.92-.5a3.55,3.55,0,0,0-.68-.3,1.51,1.51,0,0,0-.47,0l-.5,0c.1-.86.17-1.7.21-2.53s.09-1.68.13-2.55l.33-.07a15.9,15.9,0,0,0,.5,1.83,10.21,10.21,0,0,0,.82,1.85,7.34,7.34,0,0,0,1.21,1.55,3.92,3.92,0,0,0,1.68,1,5.49,5.49,0,0,0,1.25.19,3.06,3.06,0,0,0,1.15-.15,2.33,2.33,0,0,0,.93-.6,2.59,2.59,0,0,0,.59-1.12,2.5,2.5,0,0,0-.15-1.87,6.55,6.55,0,0,0-1.23-1.62,19.16,19.16,0,0,0-1.76-1.5,16.72,16.72,0,0,1-1.75-1.54A6,6,0,0,1,138,8.44a2.86,2.86,0,0,1-.11-2A3.8,3.8,0,0,1,138.65,5,3.74,3.74,0,0,1,139.86,4a4.05,4.05,0,0,1,1.48-.39,4.77,4.77,0,0,1,1.62.17,9,9,0,0,1,1.4.51c.41.19.8.38,1.18.58l1.16.6A7.61,7.61,0,0,0,148,6c-.18.65-.35,1.28-.5,1.9s-.27,1.25-.37,1.89Z"></path><path class="cls-1" d="M151.51,22.38a4.83,4.83,0,0,0,1.24.3,1.33,1.33,0,0,0,.86-.23,2.13,2.13,0,0,0,.68-.78c.21-.36.44-.82.71-1.39l4.35-9.46a18.94,18.94,0,0,0-1.84-.75,3.22,3.22,0,0,0-1.45-.16,3.18,3.18,0,0,0-1.4.6A10.94,10.94,0,0,0,153,12.05l-.23-.21L154.9,8l1.67.84c.55.27,1.11.54,1.68.8L163,11.83l1.62.72,1.64.68-1.56,4.12-.3,0a11.43,11.43,0,0,0,.09-2.25A2.87,2.87,0,0,0,163,12.6a17.93,17.93,0,0,0-1.8-.94l-4.36,9.46q-.39.86-.6,1.44a2.22,2.22,0,0,0-.15,1,1.36,1.36,0,0,0,.4.81,5.43,5.43,0,0,0,1.08.77l-.11.24-1.52-.77c-.51-.26-1-.5-1.54-.74l-1.5-.66c-.49-.22-1-.42-1.49-.62Z"></path><path class="cls-1" d="M176.21,37.21l-3.32-2.3a38.62,38.62,0,0,1-.34-4.1,26.17,26.17,0,0,1,.2-4c-.12-.09-.27-.21-.44-.36l-.53-.5a6.38,6.38,0,0,1-.52-.52,5.49,5.49,0,0,1-.38-.44l-2,2.87q-.54.78-.84,1.32a2.11,2.11,0,0,0-.33,1A1.37,1.37,0,0,0,168,31a4.75,4.75,0,0,0,.93.94l-.16.22c-.45-.34-.9-.69-1.36-1l-1.39-1c-.45-.31-.91-.62-1.36-.91s-.9-.58-1.36-.87l.15-.22a5,5,0,0,0,1.17.52,1.49,1.49,0,0,0,.89-.07,2.25,2.25,0,0,0,.8-.66c.27-.32.58-.73.94-1.25l4.27-6.16c.36-.51.64-.95.85-1.31a2.4,2.4,0,0,0,.33-1,1.41,1.41,0,0,0-.25-.85,4.35,4.35,0,0,0-.89-.92l.16-.22q.56.45,1.14.87t1.17.84q.25.18.66.42l.87.51.92.54.81.52a8.36,8.36,0,0,1,1.48,1.33,5.76,5.76,0,0,1,1,1.68,4.48,4.48,0,0,1,.3,1.88,3.62,3.62,0,0,1-.7,1.92,3.26,3.26,0,0,1-2.24,1.42,4,4,0,0,1-1.34,0,6.29,6.29,0,0,1-1.34-.41c0,.41-.06.88-.08,1.41s0,1.09,0,1.67.07,1.18.14,1.78a9.8,9.8,0,0,0,.33,1.73,8,8,0,0,0,.59,1.53,3.75,3.75,0,0,0,.91,1.16Zm-4.9-12.9a5.94,5.94,0,0,0,1.5,1.5,4.12,4.12,0,0,0,2.69.89,3.24,3.24,0,0,0,2.29-1.61,3.07,3.07,0,0,0,.53-1.26,3.12,3.12,0,0,0,0-1.29,3.59,3.59,0,0,0-.54-1.2,3.81,3.81,0,0,0-1-.95c-.3-.21-.61-.41-.93-.59a5.07,5.07,0,0,0-1-.44l-1.29,1.75c-.43.6-.89,1.24-1.38,1.95Z"></path><path class="cls-1" d="M178,39a4.33,4.33,0,0,0,1.09.67,1.34,1.34,0,0,0,.88.06,2.26,2.26,0,0,0,.9-.53c.3-.27.67-.64,1.1-1.1l5.12-5.48c.43-.45.77-.85,1-1.17a2.27,2.27,0,0,0,.47-.93,1.34,1.34,0,0,0-.13-.89,4.54,4.54,0,0,0-.77-1.06l.19-.2c.44.46.87.89,1.29,1.3s.86.84,1.32,1.27.73.67,1.1,1,.74.65,1.11.95l-.19.2a4,4,0,0,0-1.07-.66,1.32,1.32,0,0,0-.87-.06,2.62,2.62,0,0,0-.89.54c-.31.28-.68.65-1.1,1.1l-5.12,5.48c-.43.46-.77.85-1,1.18a2.27,2.27,0,0,0-.47.93,1.35,1.35,0,0,0,.14.89,4.77,4.77,0,0,0,.78,1.07l-.19.2c-.39-.41-.79-.82-1.2-1.22s-.81-.79-1.23-1.18-.8-.74-1.21-1.1-.81-.71-1.22-1.06Z"></path><path class="cls-1" d="M193.08,45.24,189,46.63l-.33.11a.71.71,0,0,0-.26.13,1.07,1.07,0,0,0-.39.62,1.9,1.9,0,0,0,0,.75,3.41,3.41,0,0,0,.2.73,4.82,4.82,0,0,0,.26.58l-.21.16c-.26-.36-.52-.73-.79-1.09s-.55-.72-.84-1.08l-.84-1c-.28-.32-.58-.66-.91-1l.21-.17a3.25,3.25,0,0,0,1.1.6,3.12,3.12,0,0,0,1.09.11,4.78,4.78,0,0,0,1.11-.19c.38-.1.77-.21,1.17-.34l9.86-3,.31-.08a.57.57,0,0,0,.22-.12,1,1,0,0,0,.22-.27,1.81,1.81,0,0,0,.19-.4,5,5,0,0,0,.86.6c.28.15.57.31.89.5L195,54.49a3.34,3.34,0,0,0-.53,1.54,3,3,0,0,0,.55,1.7l-.21.17-1.06-1.42c-.35-.46-.72-.93-1.11-1.42l-.66-.82c-.19-.23-.36-.44-.52-.62s-.31-.36-.45-.52l-.48-.52.21-.17a3.88,3.88,0,0,0,1.37.93,1.08,1.08,0,0,0,1.17-.13.94.94,0,0,0,.24-.28,2.84,2.84,0,0,1,.18-.31l2.3-3.73Zm6.49-2.11L193.75,45l2.64,3.29Z"></path><path class="cls-1" d="M200.38,66.43a3.76,3.76,0,0,0,.69,1,2,2,0,0,0,.65.46,1.09,1.09,0,0,0,.58.08,2.24,2.24,0,0,0,.52-.16l9.52-4.1a6,6,0,0,0,.77-.4,1.3,1.3,0,0,0,.48-.51,1.46,1.46,0,0,0,.12-.78,5.09,5.09,0,0,0-.27-1.21l.25-.1c.12.37.26.73.4,1.1s.29.72.44,1.08a24.41,24.41,0,0,0,1.3,2.61A26.06,26.06,0,0,1,217.07,68a10.23,10.23,0,0,1,.83,3.35,8.51,8.51,0,0,1-.36,3.2A7.67,7.67,0,0,1,216,77.25a7.8,7.8,0,0,1-2.78,2,7,7,0,0,1-3.18.64,6.16,6.16,0,0,1-2.69-.8,7.42,7.42,0,0,1-2.14-1.87,12.4,12.4,0,0,1-1.55-2.62c-.32-.75-.59-1.38-.81-1.92s-.42-1-.59-1.39l-.45-1.08-.38-.91c-.2-.47-.41-.92-.62-1.37s-.42-.9-.65-1.35Zm3.08,3.29a4,4,0,0,0-.22,1.89,7.08,7.08,0,0,0,.5,1.83q1.37,3.16,3.62,3.92a7.49,7.49,0,0,0,5.35-.58A7,7,0,0,0,215,75.21,6.7,6.7,0,0,0,216.46,73a6.79,6.79,0,0,0,.48-2.63,7.6,7.6,0,0,0-2.38-5.29c-.74.25-1.47.52-2.18.82s-1.44.59-2.18.91Z"></path><path class="cls-1" d="M209.59,89.36c0,.14,0,.31,0,.5s0,.41,0,.64,0,.45.07.69.07.46.11.67a12.55,12.55,0,0,0,.74,2.31,7,7,0,0,0,1.12,1.75,7.81,7.81,0,0,0,1.59,1.36,15.6,15.6,0,0,0,2.14,1.16l-.14.29-4.85-1c0-.25-.06-.51-.1-.78s-.09-.52-.15-.77l-1.81-8.24-.3-1.27c-.11-.42-.23-.84-.35-1.26l.26-.06a4.28,4.28,0,0,0,.52,1.18,1.34,1.34,0,0,0,.69.54,2.42,2.42,0,0,0,1,.06c.41-.06.93-.15,1.54-.29l7.32-1.61c.61-.13,1.12-.26,1.51-.38a2.48,2.48,0,0,0,.92-.49,1.36,1.36,0,0,0,.4-.8,5.46,5.46,0,0,0,0-1.31l.26,0c.1.5.19,1,.27,1.42s.18.91.27,1.39.21,1,.32,1.51.26,1.14.4,1.81c.23,1,.46,2,.7,3.07s.49,2,.75,3.09l-.49.08c-.16,0-.32.06-.46.09l-.88.19c-.32.07-.64.16-1,.26L221,95.4l-.15-.26A5.42,5.42,0,0,0,222.39,94a3.53,3.53,0,0,0,.8-1.32,4.09,4.09,0,0,0,.21-1.48,9.41,9.41,0,0,0-.22-1.61c-.22-1-.49-2-.81-3l-5.48,1.21.21.84c.08.26.15.54.21.83a4.3,4.3,0,0,0,1.13,2.27,3,3,0,0,0,2.44.6l.06.27-1.58.32-1.56.32-1.58.37-1.57.37-.06-.26a6.72,6.72,0,0,0,1.4-.82,2.35,2.35,0,0,0,.73-.9,2.65,2.65,0,0,0,.18-1.16,10.32,10.32,0,0,0-.22-1.54l-.31-1.4Z"></path><path class="cls-1" d="M225.9,108.63a10,10,0,0,0-.44-1.67,2.12,2.12,0,0,0-.54-.86,1.47,1.47,0,0,0-.78-.31,8.4,8.4,0,0,0-1.14,0l-10.76.51c-.06.41-.1.81-.15,1.19a7.46,7.46,0,0,0,0,1.16,8.83,8.83,0,0,0,.38,2.3,6,6,0,0,0,.89,1.73,7,7,0,0,0,1.43,1.38,17.11,17.11,0,0,0,2,1.24v.34l-5.1-1.49c0-.54,0-1.08,0-1.63s0-1.09-.06-1.62l-.31-6.6c0-.37-.05-.74-.08-1.12s-.07-.74-.12-1.11l.27,0a5,5,0,0,0,.28,1.17,1.76,1.76,0,0,0,.43.66,1.08,1.08,0,0,0,.58.3,3.29,3.29,0,0,0,.79,0l8.88-.42c.63,0,1.14-.07,1.56-.13a2.51,2.51,0,0,0,1-.33,1.31,1.31,0,0,0,.53-.7,4.71,4.71,0,0,0,.18-1.26l.27,0c0,.59,0,1.17,0,1.74s0,1.16.06,1.74.07,1.26.11,1.9.1,1.26.16,1.89Z"></path><path class="cls-1" d="M216.56,131.22,212.87,129l-.28-.18a.65.65,0,0,0-.28-.12,1.1,1.1,0,0,0-.72.09,2.08,2.08,0,0,0-.59.47,3.32,3.32,0,0,0-.44.62,5.39,5.39,0,0,0-.27.56l-.27-.05c.12-.43.24-.87.34-1.31s.2-.88.29-1.33.17-.87.24-1.29.14-.87.21-1.35l.26.05a3,3,0,0,0,.85,2.15,5.61,5.61,0,0,0,.86.73c.32.23.65.45,1,.68l8.57,5.7.26.18a.64.64,0,0,0,.23.1,1.06,1.06,0,0,0,.35,0,1.93,1.93,0,0,0,.43-.1,5.55,5.55,0,0,0,.09,1q.09.45.18,1l-13.51,2a3.3,3.3,0,0,0-1.52.59,2.92,2.92,0,0,0-1,1.5l-.27-.06q.23-.87.42-1.71c.13-.56.26-1.15.38-1.77l.21-1c.06-.29.11-.56.15-.79s.08-.47.11-.68.06-.45.09-.7l.27,0a3.94,3.94,0,0,0,.16,1.65,1.11,1.11,0,0,0,.85.82.87.87,0,0,0,.36,0l.36-.06,4.34-.6Zm5.76,3.64-5.15-3.29-.84,4.14Z"></path><path class="cls-1" d="M201.4,157.66l1.5-3.75a40.37,40.37,0,0,1,3.92-1.25,25.57,25.57,0,0,1,4-.71,3.88,3.88,0,0,1,.25-.51l.36-.63c.13-.22.26-.42.4-.62s.25-.36.34-.48l-3.25-1.3c-.58-.23-1.07-.41-1.47-.53a2.4,2.4,0,0,0-1-.1,1.48,1.48,0,0,0-.79.45,5.33,5.33,0,0,0-.71,1.12l-.25-.1c.24-.52.47-1,.7-1.56s.44-1.05.65-1.57.4-1,.59-1.53.36-1,.54-1.53l.25.1a4.52,4.52,0,0,0-.24,1.26,1.36,1.36,0,0,0,.27.84,2.13,2.13,0,0,0,.82.64c.36.19.84.4,1.42.64l7,2.78c.59.23,1.08.41,1.47.53a2.29,2.29,0,0,0,1,.1,1.39,1.39,0,0,0,.77-.43,4.2,4.2,0,0,0,.7-1.07l.25.09c-.21.44-.41.88-.6,1.31s-.37.88-.55,1.33a7.51,7.51,0,0,0-.26.74q-.15.45-.3,1c-.1.33-.21.68-.32,1s-.22.64-.33.9a8.61,8.61,0,0,1-1,1.75,5.63,5.63,0,0,1-1.41,1.39,4.32,4.32,0,0,1-1.76.72,3.66,3.66,0,0,1-2-.25,3.12,3.12,0,0,1-1.18-.78,3.23,3.23,0,0,1-.7-1.09,3.68,3.68,0,0,1-.28-1.3,6,6,0,0,1,.1-1.4c-.41.06-.88.14-1.4.24s-1.06.22-1.62.37-1.13.33-1.7.53a11.84,11.84,0,0,0-1.62.71,7.81,7.81,0,0,0-1.35.92,3.64,3.64,0,0,0-.94,1.15ZM212.88,150a6,6,0,0,0-1.13,1.79,4.14,4.14,0,0,0-.26,2.82,3.31,3.31,0,0,0,2.08,1.88,3.1,3.1,0,0,0,1.35.23,3.14,3.14,0,0,0,1.24-.34,3.26,3.26,0,0,0,1.05-.8,3.89,3.89,0,0,0,.71-1.15,10.78,10.78,0,0,0,.37-1,5.28,5.28,0,0,0,.21-1c-.66-.3-1.33-.59-2-.87l-2.2-.91Z"></path><path class="cls-1" d="M203.64,166.43,201,163l-.2-.27a.67.67,0,0,0-.21-.2,1.1,1.1,0,0,0-.72-.17,1.85,1.85,0,0,0-.71.23,3.46,3.46,0,0,0-.63.42c-.19.17-.34.31-.45.43l-.23-.14c.26-.36.52-.73.77-1.1s.5-.76.75-1.15.47-.76.68-1.12.44-.77.67-1.19l.23.14a3.2,3.2,0,0,0-.21,1.24,3.26,3.26,0,0,0,.24,1.07,6,6,0,0,0,.54,1c.23.32.46.65.71,1l6,8.37.18.26a.62.62,0,0,0,.18.18,1,1,0,0,0,.32.11,2.54,2.54,0,0,0,.45.06,4.55,4.55,0,0,0-.29,1c-.05.31-.11.64-.18,1l-13.35-2.89a3.35,3.35,0,0,0-1.64,0,3,3,0,0,0-1.43,1.06l-.22-.14c.34-.49.67-1,1-1.45s.65-1,1-1.52c.22-.34.41-.64.56-.89l.43-.69.33-.6.34-.62.23.14a4.15,4.15,0,0,0-.44,1.6,1.12,1.12,0,0,0,.51,1.07.92.92,0,0,0,.34.12l.36.08,4.27,1Zm4.1,5.45-3.65-4.9-2.25,3.57Zm3.79,4.47c.1.37.18.68.22.93a.86.86,0,0,1-.09.64c-.33.52-.7.65-1.1.39a.89.89,0,0,1-.35-.44,1.6,1.6,0,0,1-.14-.63l-.15-3.81.52-.83Z"></path><path class="cls-1" d="M201.88,183.89c-.38.36-.73.71-1.06,1.05s-.72.73-1.15,1.19c-.22.24-.44.48-.64.72s-.41.49-.61.75c-.33,0-.85-.09-1.55-.13l-2.42-.16-2.91-.18-3-.19-2.69-.21c-.83-.06-1.5-.13-2-.2l0,0c.33.3.65.61,1,.92l1,.92,1.91,1.77c.69.66,1.33,1.2,1.89,1.64a6,6,0,0,0,1.58.92,2.5,2.5,0,0,0,1.39.13,2.89,2.89,0,0,0,1.32-.75l.19.18-1.13,1.11-1.1,1.14-1,1.08c-.32.38-.64.75-.94,1.12l-.2-.19a2.91,2.91,0,0,0,.73-2,3,3,0,0,0-1.08-1.73l-8.69-8.12.57-.61c1.5.28,3,.49,4.53.65s3,.27,4.39.36,2.75.14,4,.16l3.39,0-.81-.8c-.27-.27-.55-.53-.83-.79L193,181.06c-1-.91-1.76-1.6-2.36-2.09a4.8,4.8,0,0,0-1.56-.93,1.56,1.56,0,0,0-1.22.08,7.5,7.5,0,0,0-1.36,1l-.2-.19c.55-.53,1.07-1.06,1.57-1.57l1.53-1.61c.3-.32.59-.64.86-1s.55-.65.82-1l.2.18c-.29.42-.54.8-.75,1.12a2.41,2.41,0,0,0-.4.92,1.39,1.39,0,0,0,.11.87,3.32,3.32,0,0,0,.74,1l7.35,7.23a5.56,5.56,0,0,0,1.74-.52,14.9,14.9,0,0,0,1.61-.89Z"></path><path class="cls-1" d="M177.08,188.73a4,4,0,0,0-.82.88,2.1,2.1,0,0,0-.31.73,1,1,0,0,0,.05.58,1.82,1.82,0,0,0,.25.48l6,8.46a6,6,0,0,0,.55.67,1.24,1.24,0,0,0,.6.36,1.45,1.45,0,0,0,.79,0,5.06,5.06,0,0,0,1.12-.52l.16.22c-.34.2-.67.41-1,.62s-.65.43-1,.66a25.1,25.1,0,0,0-2.29,1.82,25.08,25.08,0,0,1-2.16,1.72,10.26,10.26,0,0,1-3.1,1.52,8.65,8.65,0,0,1-3.21.31,7.61,7.61,0,0,1-5.5-3.27,6.93,6.93,0,0,1-1.29-3,6.25,6.25,0,0,1,.22-2.8,7.37,7.37,0,0,1,1.39-2.48,11.6,11.6,0,0,1,2.24-2.06l1.7-1.19,1.24-.87,1-.67c.29-.19.56-.38.81-.56.42-.29.82-.59,1.22-.89s.79-.6,1.18-.92Zm-2.58,3.7a4,4,0,0,0-1.89.18,6.38,6.38,0,0,0-1.68.87q-2.82,2-3.09,4.36a7.54,7.54,0,0,0,1.69,5.11,6.88,6.88,0,0,0,2,1.91,6.71,6.71,0,0,0,5.13.89,7.33,7.33,0,0,0,2.61-1.2,7,7,0,0,0,2.07-2.24c-.4-.66-.82-1.32-1.25-1.95s-.88-1.29-1.35-2Z"></path><path class="cls-1" d="M159.15,207.52l-.33-4.31c0-.13,0-.24,0-.34a.77.77,0,0,0-.07-.29,1.08,1.08,0,0,0-.5-.53,2.06,2.06,0,0,0-.72-.21,3.85,3.85,0,0,0-.76,0,5.12,5.12,0,0,0-.62.11l-.11-.25c.42-.15.84-.32,1.26-.49l1.25-.54c.41-.19.81-.37,1.19-.56l1.21-.62.11.24a3.1,3.1,0,0,0-1.24,1.94,5.94,5.94,0,0,0-.1,1.13c0,.39,0,.79,0,1.21l.38,10.29c0,.11,0,.22,0,.32a.62.62,0,0,0,0,.25,1.16,1.16,0,0,0,.21.27,1.81,1.81,0,0,0,.34.29,5.76,5.76,0,0,0-.8.68l-.7.74-9.54-9.78a3.3,3.3,0,0,0-1.36-.9,3,3,0,0,0-1.78.1l-.11-.24c.56-.22,1.1-.44,1.63-.67l1.66-.72,1-.43.73-.35c.22-.1.42-.21.61-.31l.63-.33.11.24a4.14,4.14,0,0,0-1.25,1.1,1.13,1.13,0,0,0-.17,1.17.77.77,0,0,0,.22.29,2.94,2.94,0,0,1,.25.26l3,3.16Zm.41,6.81-.34-6.1L155.37,210Z"></path><path class="cls-1" d="M148,221.12l-1.46.28c-.47.09-1,.21-1.61.36-.32.07-.64.16-.94.24l-.92.29c-.25-.21-.66-.54-1.22-1l-1.93-1.47-2.32-1.76-2.39-1.82c-.78-.59-1.49-1.15-2.14-1.66s-1.17-.94-1.56-1.28h0c.1.44.2.87.29,1.3l.3,1.31.6,2.53c.22.93.45,1.73.68,2.41a6.26,6.26,0,0,0,.8,1.64,2.53,2.53,0,0,0,1.09.88,3,3,0,0,0,1.51.1l.06.26-1.55.3-1.55.34-1.41.36-1.41.41-.06-.27a2.91,2.91,0,0,0,1.7-1.24,3.06,3.06,0,0,0,.06-2l-2.75-11.57.81-.19c1.1,1.06,2.24,2.08,3.41,3s2.33,1.88,3.46,2.73,2.22,1.64,3.26,2.36,2,1.35,2.8,1.9l-.24-1.12c-.07-.36-.16-.74-.25-1.11l-.91-3.83c-.3-1.29-.57-2.31-.8-3a5,5,0,0,0-.78-1.63,1.53,1.53,0,0,0-1.07-.6,7.16,7.16,0,0,0-1.68.06l-.06-.26,2.18-.45c.7-.15,1.42-.31,2.16-.49.43-.1.84-.21,1.24-.32l1.23-.36.07.26-1.25.52a2.45,2.45,0,0,0-.84.55,1.38,1.38,0,0,0-.39.78,3.22,3.22,0,0,0,.07,1.24l2.12,10.09a6.16,6.16,0,0,0,1.74.53,15.93,15.93,0,0,0,1.83.14Z"></path><path class="cls-1" d="M124.75,218.53a7.66,7.66,0,0,1-.56,3.27,7.47,7.47,0,0,1-1.71,2.49,7.92,7.92,0,0,1-2.6,1.61,9.63,9.63,0,0,1-3.2.62,9.82,9.82,0,0,1-3.23-.43,7.85,7.85,0,0,1-2.69-1.45,7.41,7.41,0,0,1-1.85-2.38,8.36,8.36,0,0,1-.2-6.51,7.42,7.42,0,0,1,1.71-2.48,7.76,7.76,0,0,1,2.6-1.61,9.63,9.63,0,0,1,3.2-.62,9.79,9.79,0,0,1,3.23.43,7.68,7.68,0,0,1,2.69,1.45A7.41,7.41,0,0,1,124,215.3,7.72,7.72,0,0,1,124.75,218.53Zm-2.38.07a8.15,8.15,0,0,0-.48-2.61,7,7,0,0,0-1.23-2.18,6.14,6.14,0,0,0-1.91-1.47,5.4,5.4,0,0,0-2.51-.49,5.27,5.27,0,0,0-2.47.64,5.89,5.89,0,0,0-1.82,1.58,6.94,6.94,0,0,0-1.1,2.25,8.58,8.58,0,0,0-.32,2.64,8.44,8.44,0,0,0,.48,2.61,6.7,6.7,0,0,0,1.23,2.17,5.86,5.86,0,0,0,1.91,1.47,5.28,5.28,0,0,0,2.51.5,5.39,5.39,0,0,0,2.47-.64,5.92,5.92,0,0,0,1.82-1.59,6.89,6.89,0,0,0,1.1-2.24A8.58,8.58,0,0,0,122.37,218.6Z"></path><path class="cls-1" d="M81.71,216.57a8.53,8.53,0,0,0,.32,2,6,6,0,0,0,.76,1.71A4.72,4.72,0,0,0,84,221.58a4.94,4.94,0,0,0,1.8.8,4.86,4.86,0,0,0,2.42,0,4.55,4.55,0,0,0,1.88-1,6.27,6.27,0,0,0,1.38-1.86,11.74,11.74,0,0,0,.88-2.42,9.13,9.13,0,0,0,.26-2.58,6.52,6.52,0,0,0-.53-2.33,5.08,5.08,0,0,0-1.38-1.85,5.19,5.19,0,0,0-2.25-1.12,6.09,6.09,0,0,0-3.75.18,10,10,0,0,0-3.29,2.15L81,211a21.3,21.3,0,0,1,2-1.6,8.68,8.68,0,0,1,2-1,6.91,6.91,0,0,1,2.11-.44,8.56,8.56,0,0,1,2.39.26,7.31,7.31,0,0,1,2.63,1.23A7.37,7.37,0,0,1,95,214.25a8.5,8.5,0,0,1-1.48,6.08,7.65,7.65,0,0,1-2.14,2,7.31,7.31,0,0,1-2.66,1,7.16,7.16,0,0,1-2.91-.12,10.73,10.73,0,0,1-1.48-.47c-.45-.18-.88-.35-1.29-.53l-1.19-.52a8.49,8.49,0,0,0-1.16-.42c.08-.31.15-.67.23-1.08s.15-.84.21-1.28.12-.87.18-1.29.1-.8.13-1.12Z"></path><path class="cls-1" d="M73.52,210.26l3-3.12.24-.24a.74.74,0,0,0,.17-.24,1,1,0,0,0,.06-.73,1.75,1.75,0,0,0-.33-.67,3,3,0,0,0-.51-.56,4.11,4.11,0,0,0-.49-.39l.11-.25,1.2.61c.41.19.82.39,1.25.57s.81.36,1.21.51.81.33,1.26.49l-.1.25a3.38,3.38,0,0,0-1.26,0,3.24,3.24,0,0,0-1,.4,5.6,5.6,0,0,0-.9.68c-.29.26-.58.54-.88.84l-7.41,7.14-.23.22a.65.65,0,0,0-.15.2,1,1,0,0,0-.07.34,2.22,2.22,0,0,0,0,.45,4.6,4.6,0,0,0-1-.14l-1,0,.94-13.62a3.47,3.47,0,0,0-.24-1.62,3,3,0,0,0-1.26-1.26l.11-.25c.53.28,1.06.53,1.58.78s1.07.5,1.64.75l1,.43.74.32.64.24.66.25-.1.25a4.16,4.16,0,0,0-1.65-.21,1.14,1.14,0,0,0-1,.66,1,1,0,0,0-.07.36c0,.13,0,.25,0,.36l-.34,4.36Zm-4.8,4.84L73,210.78l-3.86-1.71Z"></path><path class="cls-1" d="M45,203.28l-1.27-1c-.43-.33-.86-.65-1.3-1s-.78-.56-1.17-.82L40,199.72l.15-.22a3.72,3.72,0,0,0,1.58.47,1.62,1.62,0,0,0,1.34-.83,14.74,14.74,0,0,0,.93-1.58c.41-.75.83-1.58,1.28-2.5s.89-1.83,1.32-2.75.79-1.72,1.07-2.39a6.47,6.47,0,0,0,.26-.78,1.84,1.84,0,0,0,0-.7,1.94,1.94,0,0,0-.32-.76,6,6,0,0,0-.81-.9l.16-.22c.46.38.93.74,1.4,1.1s.95.71,1.44,1.06l1.37,1c.45.31.91.61,1.39.92l-.15.22c-.29-.15-.56-.28-.83-.39a2.6,2.6,0,0,0-.79-.19,1.34,1.34,0,0,0-.73.15,2.06,2.06,0,0,0-.69.65c-.11.15-.24.35-.4.6a8.09,8.09,0,0,0-.5.91l-4,8.25,0,0c1-.63,2-1.23,2.94-1.82l3-1.77c1-.6,2-1.22,2.95-1.85s1.94-1.3,2.88-2l0,0q-1.16,3.45-1.94,6.86c-.52,2.27-1,4.58-1.42,6.93l0,0q.87-.9,1.89-2c.68-.75,1.34-1.47,2-2.19s1.2-1.37,1.71-2,.88-1.06,1.1-1.38a6.24,6.24,0,0,0,.67-1.1,1.89,1.89,0,0,0,.21-1,1.84,1.84,0,0,0-.33-.91,5.18,5.18,0,0,0-.94-.95l.16-.21,1.45,1.13,1.48,1.09c.38.27.76.54,1.14.79s.76.51,1.16.75l-.16.22a5.18,5.18,0,0,0-.86-.4,3.62,3.62,0,0,0-.9-.19,2.65,2.65,0,0,0-.85.08,1.66,1.66,0,0,0-.72.44c-.38.37-.76.77-1.16,1.19s-.79.85-1.19,1.26l-5.54,5.86a3.78,3.78,0,0,0,.54,1.16,6.29,6.29,0,0,0,.85,1.05l-.16.22c-.51-.4-1-.79-1.52-1.17l-1.54-1.15q-.57-.41-1.14-.78c-.37-.26-.76-.51-1.15-.76l.15-.22a2.3,2.3,0,0,0,.86.16,1,1,0,0,0,.77-.45,2.2,2.2,0,0,0,.33-.67c.07-.25.14-.5.21-.77l2-8.15q-2.32,1.26-4.56,2.6t-4.39,2.87a1.85,1.85,0,0,0,.2.73,4.21,4.21,0,0,0,.39.64Z"></path><path class="cls-1" d="M35.72,190.53c-.47.42-.84.78-1.12,1.08a2.31,2.31,0,0,0-.56.88,1.44,1.44,0,0,0,0,.89,4.45,4.45,0,0,0,.66,1.1l-.2.18c-.29-.37-.58-.72-.87-1.07s-.58-.69-.89-1a15.34,15.34,0,0,0-1.27-1.28q-.66-.61-1.35-1.38A10.58,10.58,0,0,1,29,188.29a6.38,6.38,0,0,1-.77-1.89,4.28,4.28,0,0,1,0-2,3.35,3.35,0,0,1,1.11-1.78,2.88,2.88,0,0,1,1.79-.74,3.25,3.25,0,0,1,1.9.42l0,0a5,5,0,0,1-.48-2.81A4,4,0,0,1,34,177.06a3.2,3.2,0,0,1,1.58-.81,3.42,3.42,0,0,1,1.61.16,5.49,5.49,0,0,1,1.56.86,11.76,11.76,0,0,1,1.41,1.33c.69.77,1.33,1.55,1.94,2.34s1.26,1.57,2,2.34c.23.26.46.52.71.77s.49.49.74.73l-.2.18a4.62,4.62,0,0,0-1-.76,1.33,1.33,0,0,0-.87-.12,2.33,2.33,0,0,0-.93.45c-.33.25-.73.58-1.2,1Zm.76-3.39a4.47,4.47,0,0,0-.5-1.21,8.36,8.36,0,0,0-.77-1A3.63,3.63,0,0,0,33,183.65a2.83,2.83,0,0,0-2.35.83,2.93,2.93,0,0,0-.81,1.14,3.53,3.53,0,0,0-.23,1.32,4,4,0,0,0,.3,1.34,4.37,4.37,0,0,0,.78,1.22c.24.27.48.52.73.76a4.61,4.61,0,0,0,.86.62Zm5.22-4.67a.75.75,0,0,0,0-.52,6.26,6.26,0,0,0-.33-.73,8.77,8.77,0,0,0-.51-.79,6.38,6.38,0,0,0-.59-.74,4,4,0,0,0-2.6-1.49,3.63,3.63,0,0,0-2.75,1.09,3,3,0,0,0-.94,1.66,5.79,5.79,0,0,0-.08,1.94l.84.69a7.16,7.16,0,0,1,.79.77,11.54,11.54,0,0,1,.87,1.09,5.76,5.76,0,0,1,.66,1.22Z"></path><path class="cls-1" d="M34,171.74a4.71,4.71,0,0,0-.91-.9,1.33,1.33,0,0,0-.85-.24,2.24,2.24,0,0,0-1,.32q-.54.3-1.32.84L23.73,176a14.86,14.86,0,0,0-1.25.94,2.25,2.25,0,0,0-.66.8,1.38,1.38,0,0,0-.06.9,4.76,4.76,0,0,0,.52,1.2l-.22.15c-.33-.54-.66-1.05-1-1.55l-1-1.52-.86-1.2c-.29-.4-.59-.79-.89-1.16l.23-.16a4.27,4.27,0,0,0,.9.88,1.32,1.32,0,0,0,.84.24,2.6,2.6,0,0,0,1-.34,14.88,14.88,0,0,0,1.31-.84l6.18-4.25c.51-.36.93-.67,1.25-.93a2.32,2.32,0,0,0,.65-.81,1.31,1.31,0,0,0,.07-.9,4.77,4.77,0,0,0-.54-1.21l.22-.16c.3.49.61,1,.91,1.45s.63,1,1,1.41.63.91.95,1.34.64.87,1,1.29Z"></path><path class="cls-1" d="M20.64,162.37l4.3-.48.34,0a.72.72,0,0,0,.28-.07,1.07,1.07,0,0,0,.52-.53,1.78,1.78,0,0,0,.18-.72,3.84,3.84,0,0,0,0-.76,4.5,4.5,0,0,0-.13-.61l.25-.12c.17.41.35.83.53,1.23s.38.83.59,1.24l.6,1.17c.2.37.43.77.67,1.19l-.25.12a3,3,0,0,0-2-1.18,6,6,0,0,0-1.13,0c-.39,0-.79,0-1.21.08l-10.27.75-.32,0a.84.84,0,0,0-.24.06,1.07,1.07,0,0,0-.27.22,2.26,2.26,0,0,0-.28.35,5.51,5.51,0,0,0-.71-.78l-.76-.67,9.44-9.88a3.37,3.37,0,0,0,.85-1.4,3,3,0,0,0-.16-1.77l.24-.12c.24.55.48,1.09.72,1.61s.5,1.07.78,1.63c.18.36.33.68.47.95s.25.51.37.72.22.41.33.59l.35.62-.24.12a4.15,4.15,0,0,0-1.13-1.21,1.14,1.14,0,0,0-1.18-.13,1.05,1.05,0,0,0-.29.23,2.05,2.05,0,0,1-.24.26l-3.06,3.14Zm-6.79.65,6.09-.56-1.87-3.78Z"></path><path class="cls-1" d="M4.25,144.07c-.08-.52-.16-1-.25-1.53s-.18-1-.28-1.52-.26-1.22-.4-1.8-.27-1.17-.42-1.75l.26-.05c.07.2.15.41.24.64a3,3,0,0,0,.35.61,1.43,1.43,0,0,0,.49.43,1,1,0,0,0,.7.06,8.13,8.13,0,0,0,1.85-1L14.43,133l-7.34-1.47a11.94,11.94,0,0,0-3.85-.35,1.09,1.09,0,0,0-.56.27,1.16,1.16,0,0,0-.3.5,2.44,2.44,0,0,0-.1.63c0,.22,0,.44,0,.67l-.26.05c-.07-.5-.15-1-.24-1.49s-.18-1-.28-1.47-.17-.81-.27-1.2-.2-.79-.31-1.18l.27,0A2.5,2.5,0,0,0,2,129.05a4,4,0,0,0,1.19.69,8.14,8.14,0,0,0,1.41.39c.49.09,1,.18,1.39.28l11.21,2.46.09.49L6.27,141a5.36,5.36,0,0,0-1.37,1.3A2.46,2.46,0,0,0,4.51,144Z"></path><path class="cls-1" d="M15.16,122.5a4.15,4.15,0,0,0-.32-1.24,1.27,1.27,0,0,0-.6-.65,2.24,2.24,0,0,0-1-.24c-.42,0-.94,0-1.56,0l-7.49.45c-.62,0-1.14.09-1.55.15a2.31,2.31,0,0,0-1,.35,1.39,1.39,0,0,0-.52.74A5.17,5.17,0,0,0,1,123.39l-.27,0c0-.63,0-1.24,0-1.83s-.05-1.2-.09-1.83-.06-1-.11-1.47-.09-1-.15-1.46H.57A4.26,4.26,0,0,0,.89,118a1.32,1.32,0,0,0,.6.63,2.25,2.25,0,0,0,1,.22c.42,0,.93,0,1.56,0l7.49-.45c.62,0,1.14-.09,1.55-.15a2.45,2.45,0,0,0,1-.35,1.43,1.43,0,0,0,.52-.74,5,5,0,0,0,.16-1.32H15c0,.57,0,1.13,0,1.7s0,1.14.08,1.71.07,1.09.12,1.63.1,1.07.16,1.61Z"></path><path class="cls-1" d="M14.43,112.13a4,4,0,0,0-.13-1.19,2,2,0,0,0-.35-.71,1,1,0,0,0-.47-.35,1.69,1.69,0,0,0-.53-.12l-10.32-1a5.33,5.33,0,0,0-.87,0,1.24,1.24,0,0,0-.66.22,1.4,1.4,0,0,0-.49.63,5,5,0,0,0-.34,1.18l-.27,0c.07-.39.13-.77.18-1.16s.1-.77.14-1.16a24.93,24.93,0,0,0,.12-2.92,23.5,23.5,0,0,1,.11-2.76,10.11,10.11,0,0,1,.89-3.34A8.46,8.46,0,0,1,3.3,96.77,7.46,7.46,0,0,1,6,95.13a7.63,7.63,0,0,1,3.37-.38,6.92,6.92,0,0,1,3.1,1,6.23,6.23,0,0,1,2,2,7.36,7.36,0,0,1,1,2.68,11.84,11.84,0,0,1,.09,3c-.08.81-.15,1.49-.21,2.07s-.12,1.07-.16,1.5-.08.82-.12,1.16-.08.67-.11,1c-.05.5-.09,1-.12,1.49s-.06,1-.08,1.51Zm-1.11-4.37a4,4,0,0,0,1.1-1.55,6.61,6.61,0,0,0,.45-1.84q.33-3.44-1.28-5.18a7.44,7.44,0,0,0-5-2.07,6.88,6.88,0,0,0-2.76.26,6.75,6.75,0,0,0-2.34,1.24,6.49,6.49,0,0,0-1.69,2.07,7.48,7.48,0,0,0-.47,5.78c.77.13,1.54.25,2.3.34l2.36.25Z"></path><path class="cls-1" d="M12,86.26l3.48,2.57c.1.08.19.14.26.21a.84.84,0,0,0,.27.13,1,1,0,0,0,.73,0,2,2,0,0,0,.63-.41,3.86,3.86,0,0,0,.49-.58c.14-.21.24-.39.32-.53l.26.07c-.16.42-.31.85-.45,1.27s-.28.87-.41,1.31-.24.85-.35,1.27-.22.85-.32,1.32l-.26-.08a3.1,3.1,0,0,0-.14-1.25,3.19,3.19,0,0,0-.52-1,6.67,6.67,0,0,0-.79-.81L14.21,89l-8-6.43-.24-.2a.69.69,0,0,0-.22-.12,1.13,1.13,0,0,0-.35,0,2,2,0,0,0-.44.07,5.41,5.41,0,0,0,0-1.06c0-.3-.07-.64-.1-1l13.63-.83A3.22,3.22,0,0,0,20,79a3,3,0,0,0,1.08-1.41l.26.08c-.2.57-.39,1.12-.56,1.67s-.36,1.12-.54,1.73c-.11.38-.21.72-.3,1s-.16.54-.22.78-.11.45-.16.66l-.16.69-.26-.07a4,4,0,0,0,0-1.66,1.12,1.12,0,0,0-.78-.9.86.86,0,0,0-.36,0l-.36,0-4.37.23ZM6.53,82.12l4.84,3.73,1.2-4Z"></path><path class="cls-1" d="M17.46,61.6a8,8,0,0,0-1.61,0,6.39,6.39,0,0,0-1.59.4,5.28,5.28,0,0,0-1.39.83,3.74,3.74,0,0,0-1,1.3,4.16,4.16,0,0,0-.5,2.09,1.78,1.78,0,0,0,1.16,1.48A2.07,2.07,0,0,0,13.8,68a3.75,3.75,0,0,0,1.27-.48,9.15,9.15,0,0,0,1.28-.93l1.32-1.15q.66-.59,1.38-1.11a6.62,6.62,0,0,1,1.48-.84,4.38,4.38,0,0,1,1.6-.31,3.91,3.91,0,0,1,1.76.44,4,4,0,0,1,1.52,1.2,3.71,3.71,0,0,1,.71,1.55,4.59,4.59,0,0,1,0,1.77A6.87,6.87,0,0,1,25.47,70a6.16,6.16,0,0,1-.6,1c-.24.34-.48.65-.72,1l-.66.82a3.8,3.8,0,0,0-.41.61,1.47,1.47,0,0,0-.14.45c0,.16,0,.33-.05.5-.83-.25-1.64-.47-2.45-.67L18,73l0-.33a14.75,14.75,0,0,0,1.9-.16,9.36,9.36,0,0,0,2-.48,7.1,7.1,0,0,0,1.75-.91,3.94,3.94,0,0,0,1.24-1.47,5.35,5.35,0,0,0,.42-1.2,3.05,3.05,0,0,0,.05-1.16,2.28,2.28,0,0,0-.41-1,2.64,2.64,0,0,0-1-.79A2.51,2.51,0,0,0,22,65.32a6.2,6.2,0,0,0-1.81.92,19.06,19.06,0,0,0-1.8,1.45,15.91,15.91,0,0,1-1.83,1.45,6.06,6.06,0,0,1-1.89.87,2.86,2.86,0,0,1-2-.26,3.69,3.69,0,0,1-2-2.35,3.91,3.91,0,0,1-.12-1.53A4.75,4.75,0,0,1,11,64.31,8.46,8.46,0,0,1,11.75,63c.26-.37.52-.72.79-1.05l.79-1a6.86,6.86,0,0,0,.7-1.16c.61.3,1.2.58,1.78.83s1.18.5,1.79.71Z"></path></g></g></svg>