<svg xmlns="http://www.w3.org/2000/svg" viewBox="0 0 842.92 760.35"><defs><style>.cls-1{fill:#0f0226;}.cls-2{fill:#bb4c4c;}.cls-3{fill:#df8e8e;}.cls-4{fill:#d34c4c;}.cls-5{fill:#ce3333;}.cls-6{fill:#1a191e;}.cls-7{fill:#539800;}.cls-8{fill:#2a6b00;}.cls-9{fill:#71a200;}.cls-10{fill:#f85858;}.cls-11{fill:#1c053d;}.cls-12{fill:#ecb3b3;}.cls-13{fill:#da7373;}.cls-14{fill:#d33838;}.cls-15{fill:#d04646;}.cls-16{fill:#ce3b23;}.cls-17{fill:#fff;}.cls-18{fill:#400093;}.cls-19{fill:#89b500;}.cls-20{fill:#ac90c3;}.cls-21{fill:#c2a9d3;}.cls-22{fill:#270360;}.cls-23{fill:#6d378c;}.cls-24{fill:#130233;}.cls-25{fill:#c27373;}.cls-26{fill:#79081c;}</style></defs><g id="Capa_2" data-name="Capa 2"><g id="Capa_1-2" data-name="Capa 1"><path class="cls-1" d="M369.61,377.16c62.14-33.59,123.14-141.1,50.39-161.23-39.47-10.91-79.78,69.7-79.78,69.7-16.12-6.51-33.27-11-49.13-14.75-6.93-1.65-13.6-3.17-19.84-4.69l-21.66,55.08,26.79,12.47Z"></path><path class="cls-2" d="M271.25,266.19s-24.7-2-36-13.13-12.69-13.57-19.81-17.3c-5.56-2.92-10.58-4.76-13.62-7.37a2.09,2.09,0,0,0-3.4.92c-1.27,4.09-2.1,11.05,4.57,15.7,10,6.94,10.49,11.2,9.78,14.05-.67,2.69-18.29,3.95-33.12-18a4.83,4.83,0,0,0-6.79-1.28L171,241.09a4.82,4.82,0,0,0-1.32,6.49c3.7,6,12.08,17,25.53,20.91,0,0-17.38,1.22-32.8-16.39a4.83,4.83,0,0,0-7.43.19l-.25.32a4.78,4.78,0,0,0-.45,5.27c3.42,6.23,13.58,20.47,35.59,22,0,0-10.31,3.59-26.06-5.33a4.82,4.82,0,0,0-7,3.21h0a4.82,4.82,0,0,0,2.17,5.11,90.13,90.13,0,0,0,35.93,12.31c24.19,3,54.75,26.1,54.75,26.1"></path><path class="cls-3" d="M359.63,36.33S383.3-13.61,439.69,3.61s49.5,66.72,49.5,66.72S426.34,81.19,359.63,36.33Z"></path><path class="cls-4" d="M389.6,204.15s29.81,21.34,48.24,2.58.84-42.14.84-42.14l-11.31-36.21-35.93,12.16Z"></path><path class="cls-5" d="M170.55,434.05c-9.56,15.36-4,73.61,5.37,134.57h99l2.6-37.88s237.41,71.54,235.84-52.67S192.56,398.67,170.55,434.05Z"></path><path class="cls-6" d="M206.71,732s-42.45-15.73-70,26.73l125,1.57,13.13-191.68h-99C188.11,648,206.71,732,206.71,732Z"></path><path class="cls-7" d="M102.56,731.46c10.3-9.52,26.07-16.46,40.17-13.66A37.11,37.11,0,0,1,161.17,728l-.21-1.6c-7.8,11.16-22.87,18.68-36.82,15.44-8.21-1.9-15.37-6.68-21.58-12.22-1.27-1.13-3.15.73-1.87,1.87,10.09,9,22.89,15.81,36.76,13.26,8.47-1.56,16.1-6.42,22-12.55a38.5,38.5,0,0,0,3.78-4.47,1.33,1.33,0,0,0-.21-1.6c-8.95-8.64-20.46-13-32.86-11.07-9,1.36-17.47,5.52-24.77,10.8a50.19,50.19,0,0,0-4.72,3.76C99.43,730.75,101.31,732.62,102.56,731.46Z"></path><path class="cls-7" d="M161.31,725.81l-51.41,2.91-7.27.41c-1.7.09-1.71,2.74,0,2.64l51.4-2.9,7.28-.41c1.69-.09,1.7-2.74,0-2.65Z"></path><path class="cls-7" d="M106.31,730.85l4.06,7.11.57,1a1.32,1.32,0,0,0,2.28-1.34l-4-7.12-.58-1a1.32,1.32,0,1,0-2.28,1.34Z"></path><path class="cls-7" d="M111.38,731.2l5.24,9.12.74,1.28a1.32,1.32,0,0,0,2.28-1.33l-5.24-9.13-.73-1.28a1.33,1.33,0,0,0-2.29,1.34Z"></path><path class="cls-7" d="M115.76,730.56l6.4,11.13.9,1.57a1.32,1.32,0,0,0,2.28-1.33L119,730.79l-.9-1.57a1.33,1.33,0,0,0-2.29,1.34Z"></path><path class="cls-7" d="M120.55,730.34l7,12.12,1,1.71a1.33,1.33,0,0,0,2.29-1.34l-7-12.11-1-1.71a1.32,1.32,0,0,0-2.29,1.33Z"></path><path class="cls-7" d="M125.11,729.92l7.28,12.68,1,1.79a1.32,1.32,0,0,0,2.28-1.34l-7.28-12.68-1-1.78a1.32,1.32,0,0,0-2.29,1.33Z"></path><path class="cls-7" d="M129.63,729.64l6.8,11.84,1,1.67a1.33,1.33,0,0,0,2.29-1.34L132.87,730l-1-1.67a1.33,1.33,0,0,0-2.29,1.34Z"></path><path class="cls-7" d="M134.19,729.33l6.87,11.26,1,1.62c.89,1.45,3.18.12,2.29-1.34l-6.87-11.26-1-1.61c-.88-1.46-3.18-.13-2.29,1.33Z"></path><path class="cls-7" d="M138.89,729.24l5.24,9.12.74,1.29a1.33,1.33,0,0,0,2.29-1.34l-5.24-9.12-.74-1.29a1.33,1.33,0,0,0-2.29,1.34Z"></path><path class="cls-7" d="M143.39,729l5,8.62.7,1.21a1.32,1.32,0,0,0,2.29-1.33l-5-8.63-.7-1.21a1.33,1.33,0,0,0-2.29,1.34Z"></path><path class="cls-7" d="M148.05,728.94l3.92,6.83a1.32,1.32,0,1,0,2.29-1.33l-3.92-6.84a1.33,1.33,0,1,0-2.29,1.34Z"></path><path class="cls-7" d="M152.43,728.3l2.62,4.56a1.32,1.32,0,1,0,2.28-1.34L154.72,727a1.32,1.32,0,1,0-2.29,1.33Z"></path><path class="cls-7" d="M108.67,730.86l2.58-6.07a1.39,1.39,0,0,0,.13-1,1.31,1.31,0,0,0-.61-.79,1.33,1.33,0,0,0-1.81.48l-2.58,6.06a1.45,1.45,0,0,0-.13,1,1.36,1.36,0,0,0,.61.8,1.34,1.34,0,0,0,1.81-.48Z"></path><path class="cls-7" d="M113.67,729.93l3.53-8.23a1.36,1.36,0,0,0-.48-1.81,1.33,1.33,0,0,0-1.81.47l-3.53,8.23a1.37,1.37,0,0,0,.47,1.81,1.35,1.35,0,0,0,1.82-.47Z"></path><path class="cls-7" d="M118.09,730.05l4.3-10a1.38,1.38,0,0,0-.48-1.82,1.34,1.34,0,0,0-1.81.48l-4.29,10a1.36,1.36,0,0,0,.47,1.81,1.33,1.33,0,0,0,1.81-.47Z"></path><path class="cls-7" d="M122.88,729.71l5-11.6a1.36,1.36,0,0,0-.47-1.81,1.33,1.33,0,0,0-1.81.47l-5,11.6a1.38,1.38,0,0,0,.47,1.82,1.35,1.35,0,0,0,1.82-.48Z"></path><path class="cls-7" d="M127.45,729.6l5.31-12.36a1.37,1.37,0,0,0-.48-1.81,1.33,1.33,0,0,0-1.81.47l-5.31,12.36a1.37,1.37,0,0,0,.48,1.81,1.33,1.33,0,0,0,1.81-.47Z"></path><path class="cls-7" d="M132,729.36l5.51-12.82a1.37,1.37,0,0,0-.48-1.81,1.33,1.33,0,0,0-1.81.47L129.69,728a1.36,1.36,0,0,0,.47,1.81,1.34,1.34,0,0,0,1.81-.48Z"></path><path class="cls-7" d="M136.54,729.13l5.54-12a1.36,1.36,0,0,0-.48-1.81,1.33,1.33,0,0,0-1.81.48l-5.53,12a1.36,1.36,0,0,0,.47,1.81,1.33,1.33,0,0,0,1.81-.48Z"></path><path class="cls-7" d="M141.22,728.68l4.15-9.67.59-1.36a1.37,1.37,0,0,0-.48-1.81,1.34,1.34,0,0,0-1.81.48L139.52,726l-.58,1.37a1.36,1.36,0,0,0,.47,1.81,1.34,1.34,0,0,0,1.81-.48Z"></path><path class="cls-7" d="M145.72,728.4l4-9.29a1.36,1.36,0,0,0-.47-1.81,1.33,1.33,0,0,0-1.81.47l-4,9.29a1.37,1.37,0,0,0,.47,1.81,1.34,1.34,0,0,0,1.82-.47Z"></path><path class="cls-7" d="M150.35,727.92l3.11-7.24a1.36,1.36,0,0,0-.48-1.81,1.34,1.34,0,0,0-1.81.47l-3.11,7.25a1.36,1.36,0,0,0,.48,1.81,1.34,1.34,0,0,0,1.81-.48Z"></path><path class="cls-7" d="M154.78,728.05l2.07-4.83a1.4,1.4,0,0,0,.13-1,1.34,1.34,0,0,0-1.63-.93,1.28,1.28,0,0,0-.79.61l-2.07,4.83a1.4,1.4,0,0,0-.13,1,1.33,1.33,0,0,0,.6.79,1.35,1.35,0,0,0,1,.14,1.3,1.3,0,0,0,.8-.61Z"></path><path class="cls-7" d="M130.75,683.05c11.47-8.29,27.91-13.3,41.71-8.84,6.92,2.23,12.61,6.82,17.15,12.41v-1.88c-9.41,10.51-25,15.9-38.52,11.08-8-2.85-14.55-8.58-20.07-14.85-1.13-1.28-3,.6-1.87,1.88,8.82,10,20.73,18.33,34.64,17.45,8.68-.55,16.77-4.41,23.47-9.81a36,36,0,0,0,4.22-3.87,1.39,1.39,0,0,0,0-1.88C183.64,675.1,172.54,669.43,160,670c-9,.37-17.74,3.41-25.56,7.72a46.68,46.68,0,0,0-5,3.1C128.05,681.76,129.37,684.06,130.75,683.05Z"></path><path class="cls-7" d="M189.74,684.36l-51.39-3.27-7.26-.46c-1.71-.11-1.7,2.54,0,2.65l51.38,3.27,7.27.46c1.7.11,1.7-2.54,0-2.65Z"></path><path class="cls-7" d="M134.63,682.61l3.17,7.55.46,1.07a1.37,1.37,0,0,0,1.63.93,1.33,1.33,0,0,0,.92-1.63L137.64,683l-.46-1.07a1.37,1.37,0,0,0-1.62-.93,1.33,1.33,0,0,0-.93,1.63Z"></path><path class="cls-7" d="M139.76,683.88l4.1,9.67.59,1.38a1.34,1.34,0,0,0,1.81.48,1.37,1.37,0,0,0,.48-1.82l-4.11-9.66-.58-1.38a1.34,1.34,0,0,0-1.82-.48,1.36,1.36,0,0,0-.47,1.81Z"></path><path class="cls-7" d="M144.18,683.78l5,11.8.71,1.68a1.34,1.34,0,0,0,1.81.48,1.37,1.37,0,0,0,.48-1.82l-5-11.8-.72-1.68a1.33,1.33,0,0,0-1.81-.47,1.36,1.36,0,0,0-.48,1.81Z"></path><path class="cls-7" d="M149,684.14,154.42,697l.78,1.83a1.33,1.33,0,0,0,1.81.48,1.36,1.36,0,0,0,.48-1.81L152,684.63l-.78-1.83a1.34,1.34,0,0,0-1.81-.48,1.37,1.37,0,0,0-.47,1.82Z"></path><path class="cls-7" d="M153.54,684.26l5.71,13.44.81,1.92a1.33,1.33,0,0,0,1.81.47,1.36,1.36,0,0,0,.48-1.81l-5.71-13.44-.81-1.91a1.33,1.33,0,0,0-1.81-.48,1.35,1.35,0,0,0-.48,1.81Z"></path><path class="cls-7" d="M158.06,684.52l5.33,12.55.76,1.79a1.34,1.34,0,0,0,1.82.48,1.36,1.36,0,0,0,.47-1.81L161.11,685l-.76-1.79a1.33,1.33,0,0,0-1.81-.47,1.36,1.36,0,0,0-.48,1.81Z"></path><path class="cls-7" d="M162.63,684.76l5.48,12,.78,1.72a1.33,1.33,0,0,0,1.81.47,1.35,1.35,0,0,0,.48-1.81l-5.48-12-.78-1.71a1.34,1.34,0,0,0-1.81-.48,1.36,1.36,0,0,0-.48,1.81Z"></path><path class="cls-7" d="M167.31,685.23l4.11,9.67.58,1.38a1.34,1.34,0,0,0,1.81.48,1.36,1.36,0,0,0,.48-1.82l-4.11-9.66-.58-1.38a1.33,1.33,0,0,0-1.81-.48,1.35,1.35,0,0,0-.48,1.81Z"></path><path class="cls-7" d="M171.8,685.54l3.88,9.14.56,1.3a1.33,1.33,0,0,0,1.81.47,1.36,1.36,0,0,0,.47-1.81l-3.88-9.14-.55-1.3a1.33,1.33,0,0,0-1.81-.47,1.36,1.36,0,0,0-.48,1.81Z"></path><path class="cls-7" d="M176.43,686l3.09,7.25a1.33,1.33,0,0,0,1.81.48,1.37,1.37,0,0,0,.47-1.81l-3.08-7.26a1.33,1.33,0,0,0-1.81-.48,1.37,1.37,0,0,0-.48,1.82Z"></path><path class="cls-7" d="M180.86,685.92l2,4.84a1.37,1.37,0,0,0,.8.61,1.31,1.31,0,0,0,1-.14,1.34,1.34,0,0,0,.61-.79,1.58,1.58,0,0,0-.14-1l-2-4.84a1.29,1.29,0,0,0-.79-.6,1.34,1.34,0,0,0-1,.13,1.27,1.27,0,0,0-.61.79,1.51,1.51,0,0,0,.13,1Z"></path><path class="cls-7" d="M137.12,683l3.29-5.71a1.32,1.32,0,1,0-2.28-1.34l-3.29,5.72a1.32,1.32,0,1,0,2.28,1.33Z"></path><path class="cls-7" d="M142.2,682.62l4.49-7.74a1.33,1.33,0,1,0-2.29-1.34l-4.49,7.75a1.33,1.33,0,0,0,.48,1.81,1.35,1.35,0,0,0,1.81-.48Z"></path><path class="cls-7" d="M146.58,683.27l5.46-9.41a1.37,1.37,0,0,0-.48-1.82,1.34,1.34,0,0,0-1.81.48l-5.46,9.42a1.32,1.32,0,0,0,2.29,1.33Z"></path><path class="cls-7" d="M151.37,683.51l6.33-10.92a1.33,1.33,0,0,0-2.29-1.34l-6.33,10.92a1.33,1.33,0,0,0,2.29,1.34Z"></path><path class="cls-7" d="M155.92,684l6.75-11.64a1.32,1.32,0,0,0-2.29-1.33l-6.74,11.63a1.32,1.32,0,0,0,2.28,1.34Z"></path><path class="cls-7" d="M160.44,684.25l7-12.07a1.33,1.33,0,0,0-2.29-1.34l-7,12.08a1.32,1.32,0,0,0,2.29,1.33Z"></path><path class="cls-7" d="M165,684.57l6.93-11.26c.89-1.45-1.4-2.79-2.29-1.34l-6.93,11.27c-.9,1.45,1.39,2.79,2.29,1.33Z"></path><path class="cls-7" d="M169.71,684.68,175,675.6l.75-1.3a1.32,1.32,0,0,0-2.28-1.34l-5.27,9.09-.75,1.3a1.32,1.32,0,0,0,2.29,1.33Z"></path><path class="cls-7" d="M174.2,684.94l5.07-8.75a1.32,1.32,0,1,0-2.29-1.33l-5.07,8.74a1.33,1.33,0,0,0,2.29,1.34Z"></path><path class="cls-7" d="M183.24,685.67l2.63-4.54a1.32,1.32,0,0,0-2.28-1.34L181,684.34a1.34,1.34,0,0,0,.47,1.81,1.36,1.36,0,0,0,1.82-.48Z"></path><path class="cls-7" d="M152,636.22c10-7.24,24.36-11.63,36.4-7.74,6.05,1.95,11,6,15,10.83v-1.87c-8.17,9.13-21.7,13.84-33.46,9.7-7-2.47-12.79-7.5-17.64-13-1.13-1.28-3,.6-1.87,1.87,7.77,8.8,18.25,16.12,30.5,15.34,7.61-.49,14.7-3.86,20.58-8.59a30.7,30.7,0,0,0,3.76-3.45,1.35,1.35,0,0,0,0-1.87c-6.87-8.43-16.57-13.43-27.54-13-7.89.3-15.6,3-22.48,6.72a43.44,43.44,0,0,0-4.56,2.79C149.28,634.92,150.6,637.22,152,636.22Z"></path><path class="cls-7" d="M203.58,637.06l-45-2.87-6.37-.4c-1.7-.11-1.69,2.54,0,2.65l45,2.86,6.36.41c1.71.11,1.7-2.54,0-2.65Z"></path><path class="cls-7" d="M155.14,635.73l2.78,6.61.4.95a1.36,1.36,0,0,0,1.63.92,1.34,1.34,0,0,0,.92-1.63L158.09,636l-.4-.94a1.34,1.34,0,0,0-1.62-.92,1.32,1.32,0,0,0-.93,1.62Z"></path><path class="cls-7" d="M159.65,636.89l3.6,8.47.51,1.21a1.33,1.33,0,0,0,1.81.47,1.36,1.36,0,0,0,.48-1.81l-3.6-8.47-.51-1.21a1.35,1.35,0,0,0-1.82-.48,1.37,1.37,0,0,0-.47,1.82Z"></path><path class="cls-7" d="M163.53,636.79l4.39,10.34.62,1.48a1.34,1.34,0,0,0,1.82.47,1.36,1.36,0,0,0,.47-1.81l-4.39-10.34-.62-1.47A1.34,1.34,0,0,0,164,635a1.36,1.36,0,0,0-.47,1.81Z"></path><path class="cls-7" d="M167.72,637.11l4.78,11.25.68,1.61a1.33,1.33,0,0,0,1.81.47,1.36,1.36,0,0,0,.48-1.81l-4.78-11.25-.69-1.61a1.32,1.32,0,0,0-1.81-.47,1.36,1.36,0,0,0-.47,1.81Z"></path><path class="cls-7" d="M171.73,637.22l5,11.77.71,1.68a1.33,1.33,0,0,0,1.81.48,1.37,1.37,0,0,0,.48-1.82l-5-11.77-.72-1.68a1.33,1.33,0,0,0-1.81-.47,1.36,1.36,0,0,0-.47,1.81Z"></path><path class="cls-7" d="M175.69,637.44l4.67,11L181,650a1.34,1.34,0,0,0,1.81.48,1.37,1.37,0,0,0,.47-1.82l-4.67-11-.66-1.56a1.34,1.34,0,0,0-1.82-.48,1.36,1.36,0,0,0-.47,1.81Z"></path><path class="cls-7" d="M179.69,637.66l4.8,10.52.68,1.5a1.32,1.32,0,1,0,2.29-1.33l-4.79-10.52-.69-1.51a1.33,1.33,0,0,0-1.81-.47,1.35,1.35,0,0,0-.48,1.81Z"></path><path class="cls-7" d="M183.79,638.07l3.6,8.47.51,1.21a1.33,1.33,0,0,0,1.81.47,1.36,1.36,0,0,0,.48-1.81l-3.6-8.47-.51-1.21a1.33,1.33,0,0,0-1.81-.47,1.35,1.35,0,0,0-.48,1.81Z"></path><path class="cls-7" d="M187.73,638.34l3.4,8,.48,1.15a1.33,1.33,0,0,0,1.81.47,1.36,1.36,0,0,0,.48-1.81l-3.4-8L190,637a1.34,1.34,0,0,0-1.81-.48,1.36,1.36,0,0,0-.47,1.82Z"></path><path class="cls-7" d="M191.78,638.76l2.7,6.36a1.34,1.34,0,0,0,1.82.48,1.37,1.37,0,0,0,.47-1.81l-2.7-6.36a1.33,1.33,0,0,0-1.81-.48,1.36,1.36,0,0,0-.48,1.81Z"></path><path class="cls-7" d="M195.66,638.67l1.8,4.24a1.33,1.33,0,0,0,1.81.48,1.32,1.32,0,0,0,.61-.8,1.51,1.51,0,0,0-.13-1l-1.8-4.23a1.27,1.27,0,0,0-.79-.61,1.34,1.34,0,0,0-1,.13,1.31,1.31,0,0,0-.61.79,1.5,1.5,0,0,0,.13,1Z"></path><path class="cls-7" d="M157.62,636.07l2.89-5a1.32,1.32,0,1,0-2.29-1.33l-2.88,5a1.32,1.32,0,1,0,2.28,1.34Z"></path><path class="cls-7" d="M162.07,635.78,166,629a1.32,1.32,0,1,0-2.29-1.33l-3.94,6.79a1.32,1.32,0,0,0,2.29,1.33Z"></path><path class="cls-7" d="M165.91,636.35l4.78-8.25a1.33,1.33,0,0,0-2.29-1.34L163.62,635a1.33,1.33,0,0,0,.48,1.81,1.35,1.35,0,0,0,1.81-.48Z"></path><path class="cls-7" d="M170.1,636.56l5.55-9.57a1.33,1.33,0,0,0-2.29-1.34l-5.54,9.57a1.32,1.32,0,1,0,2.28,1.34Z"></path><path class="cls-7" d="M174.1,636.94l5.9-10.19a1.32,1.32,0,0,0-2.28-1.34l-5.91,10.2a1.32,1.32,0,0,0,2.29,1.33Z"></path><path class="cls-7" d="M178.05,637.21l6.14-10.58a1.32,1.32,0,0,0-2.29-1.33l-6.13,10.57a1.32,1.32,0,0,0,2.28,1.34Z"></path><path class="cls-7" d="M182.05,637.49l6.08-9.87a1.32,1.32,0,1,0-2.29-1.33l-6.07,9.86a1.32,1.32,0,1,0,2.28,1.34Z"></path><path class="cls-7" d="M186.17,637.59l4.62-8,.66-1.14a1.33,1.33,0,0,0-2.29-1.34l-4.61,8-.66,1.14a1.32,1.32,0,0,0,2.28,1.34Z"></path><path class="cls-7" d="M190.11,637.81l4.44-7.66a1.34,1.34,0,0,0-.47-1.81,1.35,1.35,0,0,0-1.82.47l-4.44,7.66a1.33,1.33,0,1,0,2.29,1.34Z"></path><path class="cls-7" d="M194.19,637.89l3.46-6a1.32,1.32,0,0,0-2.28-1.34l-3.47,6a1.33,1.33,0,0,0,2.29,1.34Z"></path><path class="cls-7" d="M198,638.46l2.31-4a1.33,1.33,0,0,0-2.29-1.34l-2.31,4a1.33,1.33,0,0,0,2.29,1.34Z"></path><path class="cls-7" d="M122.76,694.51c-13.27-4.61-26.85-15.35-31-29.17a37.11,37.11,0,0,1,.36-20.91l-1.28,1c-.52-.06.57.09.89.15,1,.18,2,.4,2.94.65a46,46,0,0,1,9.32,3.48c8.65,4.37,15.32,11.66,17.82,21.14,2.14,8.07,1.27,16.6-.69,24.62-.4,1.65,2.15,2.36,2.56.7,3.2-13.14,3.14-27.69-5.68-38.7-5.39-6.73-13.27-11.16-21.49-13.48a36.44,36.44,0,0,0-5.67-1.21,1.34,1.34,0,0,0-1.27,1c-3.44,12-1.76,24.31,5.83,34.32,5.45,7.17,13,12.65,21,16.59a50,50,0,0,0,5.63,2.43C123.67,697.63,124.37,695.07,122.76,694.51Z"></path><path class="cls-7" d="M90.18,645.4l26.76,44,3.79,6.22a1.33,1.33,0,0,0,2.29-1.34l-26.77-44-3.78-6.22c-.89-1.46-3.18-.13-2.29,1.33Z"></path><path class="cls-7" d="M120.5,691.48l4.38-6.93.61-1a1.34,1.34,0,0,0-.48-1.81,1.35,1.35,0,0,0-1.81.48l-4.37,6.93-.61,1a1.33,1.33,0,0,0,.47,1.81,1.35,1.35,0,0,0,1.81-.48Z"></path><path class="cls-7" d="M118.42,686.84l5.58-8.91.79-1.26c.91-1.45-1.38-2.78-2.29-1.34l-5.57,8.91-.79,1.27c-.91,1.45,1.38,2.78,2.28,1.33Z"></path><path class="cls-7" d="M115.8,683.28l6.81-10.88,1-1.54c.91-1.45-1.38-2.78-2.29-1.34l-6.8,10.88-1,1.54c-.9,1.45,1.39,2.78,2.29,1.34Z"></path><path class="cls-7" d="M113.35,679.15l7.41-11.84,1-1.68c.91-1.45-1.38-2.78-2.28-1.33l-7.41,11.84-1.05,1.68c-.91,1.44,1.38,2.78,2.28,1.33Z"></path><path class="cls-7" d="M110.84,675.33,118.59,663l1.1-1.76c.9-1.45-1.39-2.78-2.29-1.34l-7.75,12.39-1.1,1.75c-.91,1.45,1.38,2.78,2.29,1.34Z"></path><path class="cls-7" d="M108.46,671.48l7.23-11.57,1-1.64c.91-1.45-1.38-2.78-2.29-1.34l-7.24,11.57-1,1.64c-.91,1.45,1.38,2.78,2.29,1.34Z"></path><path class="cls-7" d="M106,667.59l6.71-11.38,1-1.61a1.33,1.33,0,0,0-2.29-1.34l-6.71,11.38-1,1.61a1.33,1.33,0,0,0,2.29,1.34Z"></path><path class="cls-7" d="M103.74,663.49l5.58-8.91.79-1.27c.91-1.44-1.38-2.78-2.29-1.33l-5.57,8.91-.79,1.26c-.91,1.45,1.38,2.78,2.28,1.34Z"></path><path class="cls-7" d="M101.42,659.63l5.27-8.42.75-1.19a1.33,1.33,0,1,0-2.29-1.34l-5.27,8.42-.75,1.2a1.32,1.32,0,0,0,2.29,1.33Z"></path><path class="cls-7" d="M99.17,655.56l4.18-6.69a1.34,1.34,0,0,0-.48-1.81,1.35,1.35,0,0,0-1.81.48l-4.18,6.68a1.33,1.33,0,0,0,.47,1.81,1.36,1.36,0,0,0,1.82-.47Z"></path><path class="cls-7" d="M96.54,652l2.79-4.46a1.33,1.33,0,0,0-.47-1.81,1.37,1.37,0,0,0-1.82.48l-2.78,4.45A1.32,1.32,0,1,0,96.54,652Z"></path><path class="cls-7" d="M119.34,689.42l-6.57.58a1.33,1.33,0,1,0,0,2.65l6.57-.58a1.35,1.35,0,0,0,1.32-1.33,1.33,1.33,0,0,0-1.32-1.32Z"></path><path class="cls-7" d="M116.16,685.45l-8.92.76a1.33,1.33,0,1,0,0,2.65l8.92-.76a1.37,1.37,0,0,0,1.33-1.33,1.33,1.33,0,0,0-1.33-1.32Z"></path><path class="cls-7" d="M114.18,681.49l-10.84.92a1.33,1.33,0,1,0,0,2.65l10.84-.93a1.35,1.35,0,0,0,1.33-1.32,1.33,1.33,0,0,0-1.33-1.32Z"></path><path class="cls-7" d="M111.63,677.43,99.05,678.5a1.35,1.35,0,0,0-1.32,1.32,1.33,1.33,0,0,0,1.32,1.32l12.58-1.07a1.35,1.35,0,0,0,1.33-1.32,1.33,1.33,0,0,0-1.33-1.32Z"></path><path class="cls-7" d="M109.38,673.44,96,674.58a1.36,1.36,0,0,0-1.32,1.33A1.33,1.33,0,0,0,96,677.23l13.4-1.14a1.37,1.37,0,0,0,1.33-1.32,1.34,1.34,0,0,0-1.33-1.33Z"></path><path class="cls-7" d="M107,669.56l-13.9,1.18a1.37,1.37,0,0,0-1.32,1.33,1.33,1.33,0,0,0,1.32,1.32l13.9-1.18a1.33,1.33,0,1,0,0-2.65Z"></path><path class="cls-7" d="M104.69,665.64l-13.2.77c-1.7.1-1.71,2.75,0,2.65l13.2-.77c1.69-.1,1.71-2.75,0-2.65Z"></path><path class="cls-7" d="M102.09,661.72l-10.46.89-1.5.13a1.36,1.36,0,0,0-1.33,1.32,1.34,1.34,0,0,0,1.33,1.33l10.45-.89,1.51-.13a1.33,1.33,0,0,0,0-2.65Z"></path><path class="cls-7" d="M99.72,657.89l-10.07.86a1.36,1.36,0,0,0-1.33,1.32,1.34,1.34,0,0,0,1.33,1.33l10.07-.86a1.35,1.35,0,0,0,1.32-1.32,1.33,1.33,0,0,0-1.32-1.33Z"></path><path class="cls-7" d="M97.12,654l-7.85.67A1.35,1.35,0,0,0,87.94,656a1.33,1.33,0,0,0,1.33,1.32l7.85-.66a1.36,1.36,0,0,0,1.33-1.33A1.33,1.33,0,0,0,97.12,654Z"></path><path class="cls-7" d="M95.15,650.07l-5.24.44a1.36,1.36,0,0,0-1.33,1.33,1.35,1.35,0,0,0,1.33,1.32l5.24-.45a1.35,1.35,0,0,0,1.32-1.32,1.33,1.33,0,0,0-1.32-1.32Z"></path><path class="cls-7" d="M141.41,638.87c-13.27-4.61-26.85-15.35-31-29.18a37.11,37.11,0,0,1,.36-20.91l-1.28,1c-.52-.07.57.09.89.15,1,.17,2,.4,2.94.64a46,46,0,0,1,9.32,3.48c8.65,4.37,15.32,11.66,17.82,21.14,2.14,8.08,1.27,16.6-.69,24.62-.4,1.66,2.15,2.36,2.56.71,3.2-13.14,3.14-27.7-5.68-38.71-5.39-6.73-13.27-11.15-21.49-13.48a36.41,36.41,0,0,0-5.67-1.2,1.31,1.31,0,0,0-1.27,1c-3.44,12-1.77,24.31,5.83,34.32,5.45,7.17,13,12.66,21,16.59a50,50,0,0,0,5.63,2.43C142.32,642,143,639.42,141.41,638.87Z"></path><path class="cls-7" d="M108.83,589.75l26.76,44,3.79,6.22a1.32,1.32,0,0,0,2.29-1.33l-26.77-44-3.78-6.22c-.89-1.46-3.18-.13-2.29,1.33Z"></path><path class="cls-7" d="M139.15,635.84l4.38-6.94.61-1a1.33,1.33,0,1,0-2.29-1.34l-4.37,6.94-.61,1a1.33,1.33,0,0,0,.47,1.81,1.35,1.35,0,0,0,1.81-.47Z"></path><path class="cls-7" d="M137.07,631.2l5.58-8.91.79-1.27c.91-1.45-1.38-2.78-2.29-1.34l-5.57,8.92-.79,1.26c-.91,1.45,1.38,2.78,2.28,1.34Z"></path><path class="cls-7" d="M134.45,627.63l6.81-10.88,1-1.54c.91-1.45-1.38-2.78-2.29-1.34l-6.8,10.88-1,1.54c-.9,1.45,1.39,2.78,2.29,1.34Z"></path><path class="cls-7" d="M132,623.51l7.41-11.84,1.05-1.68c.91-1.45-1.38-2.78-2.29-1.34l-7.4,11.84-1.05,1.68c-.91,1.45,1.38,2.78,2.28,1.34Z"></path><path class="cls-7" d="M129.49,619.68l7.75-12.38,1.09-1.76c.91-1.45-1.38-2.78-2.28-1.33l-7.75,12.38-1.1,1.76c-.91,1.44,1.38,2.78,2.29,1.33Z"></path><path class="cls-7" d="M127.1,615.83l7.24-11.57,1-1.64c.91-1.45-1.38-2.78-2.29-1.34l-7.24,11.57-1,1.64c-.91,1.45,1.38,2.78,2.28,1.34Z"></path><path class="cls-7" d="M124.69,611.94l6.71-11.38.95-1.61a1.32,1.32,0,0,0-2.29-1.33L123.35,609l-.95,1.61a1.32,1.32,0,0,0,2.29,1.33Z"></path><path class="cls-7" d="M122.39,607.84l5.58-8.91.79-1.26c.91-1.45-1.39-2.78-2.29-1.34l-5.57,8.91-.79,1.26c-.91,1.45,1.38,2.79,2.28,1.34Z"></path><path class="cls-7" d="M120.07,604l5.27-8.43.75-1.19A1.33,1.33,0,0,0,123.8,593l-5.27,8.43-.75,1.19a1.33,1.33,0,0,0,2.29,1.34Z"></path><path class="cls-7" d="M117.82,599.91l4.18-6.68a1.33,1.33,0,1,0-2.29-1.34l-4.18,6.68a1.34,1.34,0,0,0,.47,1.82,1.37,1.37,0,0,0,1.82-.48Z"></path><path class="cls-7" d="M115.19,596.34l2.79-4.45a1.34,1.34,0,0,0-.47-1.81,1.35,1.35,0,0,0-1.82.47L112.91,595a1.33,1.33,0,0,0,.47,1.81,1.35,1.35,0,0,0,1.81-.48Z"></path><path class="cls-7" d="M138,633.77l-6.57.58a1.33,1.33,0,1,0,0,2.65l6.57-.58a1.35,1.35,0,0,0,1.32-1.33,1.33,1.33,0,0,0-1.32-1.32Z"></path><path class="cls-7" d="M134.81,629.8l-8.92.76a1.33,1.33,0,1,0,0,2.65l8.92-.76a1.36,1.36,0,0,0,1.32-1.33,1.33,1.33,0,0,0-1.32-1.32Z"></path><path class="cls-7" d="M132.83,625.84l-10.84.92a1.36,1.36,0,0,0-1.33,1.33,1.33,1.33,0,0,0,1.33,1.32l10.84-.92a1.36,1.36,0,0,0,1.33-1.33,1.33,1.33,0,0,0-1.33-1.32Z"></path><path class="cls-7" d="M130.28,621.78l-12.58,1.07a1.33,1.33,0,0,0,0,2.65l12.58-1.07a1.36,1.36,0,0,0,1.33-1.33,1.33,1.33,0,0,0-1.33-1.32Z"></path><path class="cls-7" d="M128,617.79l-13.4,1.14a1.36,1.36,0,0,0-1.32,1.33,1.33,1.33,0,0,0,1.32,1.32l13.4-1.14a1.36,1.36,0,0,0,1.33-1.32,1.34,1.34,0,0,0-1.33-1.33Z"></path><path class="cls-7" d="M125.69,613.92l-13.9,1.18a1.35,1.35,0,0,0-1.32,1.32,1.33,1.33,0,0,0,1.32,1.33l13.9-1.19a1.35,1.35,0,0,0,1.33-1.32,1.33,1.33,0,0,0-1.33-1.32Z"></path><path class="cls-7" d="M123.34,610l-13.2.77c-1.7.1-1.71,2.75,0,2.65l13.2-.77c1.69-.1,1.71-2.75,0-2.65Z"></path><path class="cls-7" d="M120.74,606.07l-10.46.89-1.5.13a1.37,1.37,0,0,0-1.33,1.33,1.33,1.33,0,0,0,1.33,1.32l10.45-.89,1.51-.13a1.33,1.33,0,0,0,0-2.65Z"></path><path class="cls-7" d="M118.37,602.25l-10.07.85a1.36,1.36,0,0,0-1.33,1.33,1.33,1.33,0,0,0,1.33,1.32l10.07-.85a1.37,1.37,0,0,0,1.32-1.33,1.33,1.33,0,0,0-1.32-1.32Z"></path><path class="cls-7" d="M115.77,598.38l-7.85.67a1.33,1.33,0,1,0,0,2.65l7.85-.67a1.36,1.36,0,0,0,1.33-1.33,1.35,1.35,0,0,0-1.33-1.32Z"></path><path class="cls-7" d="M113.8,594.42l-5.24.44a1.36,1.36,0,0,0-1.33,1.33,1.33,1.33,0,0,0,1.33,1.32l5.24-.44a1.36,1.36,0,0,0,1.32-1.33,1.35,1.35,0,0,0-1.32-1.32Z"></path><path class="cls-7" d="M101.07,726.44a66.65,66.65,0,0,1-17-.89c-11.13-1.88-22.15-6.39-29.73-15-5.49-6.27-8.44-14.17-9.63-22.34l-.93,1.63c15.62-4.94,34.43-1,45,11.9,6.14,7.51,9.29,17,11.06,26.42.32,1.67,2.87,1,2.56-.71-2.86-15.22-9.94-30.57-24.46-37.73-8.85-4.36-19-5.21-28.65-3.76a41,41,0,0,0-6.2,1.32,1.37,1.37,0,0,0-.92,1.63c2.06,14.12,9.75,26.2,22.4,33,9.09,4.89,19.57,7,29.83,7.33a58,58,0,0,0,6.72-.12C102.75,728.94,102.77,726.28,101.07,726.44Z"></path><path class="cls-7" d="M43.53,690.13,92.4,723.48l7,4.79c1.41,1,2.74-1.33,1.34-2.28L51.89,692.64l-7-4.8c-1.41-1-2.74,1.33-1.33,2.29Z"></path><path class="cls-7" d="M96.78,724.35,98.07,715l.18-1.33a1.37,1.37,0,0,0-.92-1.63,1.33,1.33,0,0,0-1.63.93l-1.29,9.34-.18,1.32a1.36,1.36,0,0,0,.92,1.63,1.33,1.33,0,0,0,1.63-.92Z"></path><path class="cls-7" d="M92.39,720.47l1.62-12,.23-1.71a1.38,1.38,0,0,0-.93-1.63,1.33,1.33,0,0,0-1.63.93l-1.61,12-.23,1.71a1.38,1.38,0,0,0,.93,1.63,1.34,1.34,0,0,0,1.62-.93Z"></path><path class="cls-7" d="M88,718l2-14.63.28-2.08a1.38,1.38,0,0,0-.93-1.63,1.33,1.33,0,0,0-1.63.92l-2,14.64-.28,2.08a1.38,1.38,0,0,0,.93,1.63A1.33,1.33,0,0,0,88,718Z"></path><path class="cls-7" d="M83.42,714.81l2.14-15.93.31-2.27a1.37,1.37,0,0,0-.93-1.63,1.34,1.34,0,0,0-1.63.93l-2.14,15.94-.3,2.26a1.37,1.37,0,0,0,.92,1.63,1.34,1.34,0,0,0,1.63-.93Z"></path><path class="cls-7" d="M79,712l2.24-16.67.32-2.37a1.39,1.39,0,0,0-.93-1.63,1.34,1.34,0,0,0-1.63.93l-2.24,16.67-.32,2.36a1.37,1.37,0,0,0,.93,1.63A1.33,1.33,0,0,0,79,712Z"></path><path class="cls-7" d="M74.64,709.09l2.09-15.57.3-2.22a1.38,1.38,0,0,0-.93-1.63,1.34,1.34,0,0,0-1.63.93l-2.09,15.58-.3,2.21A1.38,1.38,0,0,0,73,710a1.34,1.34,0,0,0,1.63-.93Z"></path><path class="cls-7" d="M70.3,705.81l1.63-15.1.23-2.17a1.33,1.33,0,0,0-1.32-1.32,1.36,1.36,0,0,0-1.33,1.32l-1.62,15.1-.24,2.17a1.33,1.33,0,1,0,2.65,0Z"></path><path class="cls-7" d="M65.9,703l1.61-12,.23-1.71a1.38,1.38,0,0,0-.93-1.63,1.34,1.34,0,0,0-1.63.93l-1.61,12-.23,1.71a1.38,1.38,0,0,0,.93,1.63A1.34,1.34,0,0,0,65.9,703Z"></path><path class="cls-7" d="M61.63,700l1.52-11.34.22-1.61a1.38,1.38,0,0,0-.93-1.63,1.35,1.35,0,0,0-1.63.93L59.29,697.7l-.22,1.61a1.38,1.38,0,0,0,.93,1.63,1.34,1.34,0,0,0,1.63-.93Z"></path><path class="cls-7" d="M57.33,696.81l1.2-9a1.36,1.36,0,0,0-.92-1.63,1.33,1.33,0,0,0-1.63.92l-1.21,9a1.38,1.38,0,0,0,.93,1.63,1.34,1.34,0,0,0,1.63-.92Z"></path><path class="cls-7" d="M52.88,694.31l.81-6a1.45,1.45,0,0,0-.14-1,1.38,1.38,0,0,0-.79-.61,1.34,1.34,0,0,0-1.63.93l-.8,6a1.45,1.45,0,0,0,.13,1,1.38,1.38,0,0,0,.79.61,1.34,1.34,0,0,0,1.63-.93Z"></path><path class="cls-7" d="M94.78,722.79l-6.62,3.73a1.32,1.32,0,1,0,1.34,2.28l6.62-3.73a1.32,1.32,0,0,0-1.34-2.28Z"></path><path class="cls-7" d="M89.56,720.13l-9,5a1.33,1.33,0,1,0,1.34,2.29l9-5a1.33,1.33,0,0,0-1.34-2.29Z"></path><path class="cls-7" d="M85.6,716.92,74.66,723c-1.48.83-.15,3.12,1.34,2.29l10.94-6.13c1.49-.83.15-3.12-1.34-2.28Z"></path><path class="cls-7" d="M81,713.87,68.31,721c-1.49.83-.15,3.12,1.34,2.29l12.68-7.1A1.32,1.32,0,0,0,81,713.87Z"></path><path class="cls-7" d="M76.74,710.76l-13.51,7.56a1.32,1.32,0,0,0,1.33,2.29l13.52-7.56c1.49-.83.15-3.12-1.34-2.29Z"></path><path class="cls-7" d="M72.45,707.8l-14,7.85c-1.48.83-.15,3.12,1.34,2.29l14-7.85a1.32,1.32,0,0,0-1.33-2.29Z"></path><path class="cls-7" d="M68.11,704.8l-13.48,7.09c-1.51.8-.17,3.08,1.34,2.29l13.48-7.09c1.51-.79.17-3.08-1.34-2.29Z"></path><path class="cls-7" d="M63.52,701.94,53,707.84l-1.51.85c-1.49.83-.15,3.12,1.34,2.28l10.55-5.9,1.51-.85c1.49-.83.15-3.12-1.34-2.28Z"></path><path class="cls-7" d="M59.22,699l-10.16,5.69c-1.49.83-.15,3.12,1.34,2.29l10.16-5.69c1.48-.83.15-3.12-1.34-2.29Z"></path><path class="cls-7" d="M54.66,696.22l-7.93,4.44A1.33,1.33,0,0,0,48.07,703L56,698.51a1.34,1.34,0,0,0,.48-1.81,1.36,1.36,0,0,0-1.81-.48Z"></path><path class="cls-7" d="M50.7,693l-5.28,3a1.35,1.35,0,0,0-.48,1.82,1.36,1.36,0,0,0,1.82.47l5.28-3A1.33,1.33,0,0,0,50.7,693Z"></path><path class="cls-7" d="M172.57,605.23a66.86,66.86,0,0,1-10.64-12.9c-6.15-9.41-10.3-20.51-9.17-31.89.83-8.33,4.62-16,9.85-22.38l-1.6.2c14.22,8.22,24.1,25,21.49,41.51-1.5,9.51-6.29,18.11-12,25.73-1,1.36,1.27,2.68,2.28,1.34,9.29-12.38,15.8-27.88,11.35-43.42-2.68-9.38-8.87-17.5-16.38-23.59a43.3,43.3,0,0,0-5.39-3.85,1.34,1.34,0,0,0-1.61.2c-9,11.08-12.92,24.69-9.51,38.71,2.46,10.13,8,19.38,14.77,27.24a55.11,55.11,0,0,0,4.69,5C172,608.25,173.83,606.38,172.57,605.23Z"></path><path class="cls-7" d="M160.6,538.38,169,597l1.2,8.43c.24,1.68,2.79,1,2.55-.71l-8.37-58.58-1.2-8.42c-.24-1.68-2.79-1-2.55.71Z"></path><path class="cls-7" d="M171.33,600.66l7.75-5.35,1.11-.76a1.36,1.36,0,0,0,.48-1.81,1.34,1.34,0,0,0-1.82-.48l-7.75,5.35-1.11.76a1.37,1.37,0,0,0-.47,1.82,1.33,1.33,0,0,0,1.81.47Z"></path><path class="cls-7" d="M171.23,594.81l9.93-6.9,1.42-1a1.32,1.32,0,1,0-1.34-2.28l-9.93,6.89-1.42,1a1.36,1.36,0,0,0-.47,1.81,1.34,1.34,0,0,0,1.81.48Z"></path><path class="cls-7" d="M170.07,589.84l12.12-8.42,1.74-1.2a1.36,1.36,0,0,0,.47-1.81,1.34,1.34,0,0,0-1.81-.48l-12.12,8.42-1.74,1.2a1.37,1.37,0,0,0-.47,1.82,1.33,1.33,0,0,0,1.81.47Z"></path><path class="cls-7" d="M169.35,584.37l13.19-9.17,1.89-1.31a1.36,1.36,0,0,0,.48-1.81,1.34,1.34,0,0,0-1.81-.48l-13.2,9.17L168,582.08a1.36,1.36,0,0,0-.47,1.81,1.34,1.34,0,0,0,1.81.48Z"></path><path class="cls-7" d="M168.42,579.18l13.8-9.59,2-1.37c1.39-1,.06-3.26-1.34-2.28l-13.8,9.58-2,1.37c-1.39,1-.06,3.26,1.34,2.29Z"></path><path class="cls-7" d="M167.64,574l12.9-8.95,1.85-1.29a1.36,1.36,0,0,0,.47-1.81,1.33,1.33,0,0,0-1.81-.47l-12.9,9-1.84,1.28a1.37,1.37,0,0,0-.48,1.82,1.33,1.33,0,0,0,1.81.47Z"></path><path class="cls-7" d="M166.85,568.81l12.28-9,1.72-1.27a1.37,1.37,0,0,0,.48-1.81,1.34,1.34,0,0,0-1.82-.47l-12.28,9-1.72,1.26a1.38,1.38,0,0,0-.47,1.82,1.33,1.33,0,0,0,1.81.47Z"></path><path class="cls-7" d="M166.28,563.43l9.93-6.9,1.42-1a1.32,1.32,0,1,0-1.34-2.28l-9.93,6.89-1.42,1a1.36,1.36,0,0,0-.47,1.81,1.34,1.34,0,0,0,1.81.48Z"></path><path class="cls-7" d="M165.57,558.29l9.38-6.51,1.35-.94a1.36,1.36,0,0,0,.47-1.81,1.34,1.34,0,0,0-1.81-.48l-9.39,6.52-1.34.94a1.32,1.32,0,1,0,1.34,2.28Z"></path><path class="cls-7" d="M165,553l7.46-5.18A1.36,1.36,0,0,0,173,546a1.34,1.34,0,0,0-1.81-.48l-7.46,5.18a1.35,1.35,0,0,0-.47,1.81A1.34,1.34,0,0,0,165,553Z"></path><path class="cls-7" d="M163.87,548l5-3.45a1.32,1.32,0,0,0-1.33-2.29l-5,3.45a1.37,1.37,0,0,0-.47,1.82,1.34,1.34,0,0,0,1.81.47Z"></path><path class="cls-7" d="M171,598.15l-7.22-2.36a1.34,1.34,0,0,0-1.63.92,1.36,1.36,0,0,0,.93,1.63l7.22,2.37a1.34,1.34,0,0,0,1.63-.93,1.36,1.36,0,0,0-.93-1.63Z"></path><path class="cls-7" d="M169.46,592.51l-9.79-3.24a1.32,1.32,0,1,0-.71,2.55l9.79,3.24a1.32,1.32,0,0,0,.71-2.55Z"></path><path class="cls-7" d="M169.16,587.42l-11.9-3.94a1.32,1.32,0,1,0-.7,2.55l11.9,3.94a1.34,1.34,0,0,0,1.63-.92,1.35,1.35,0,0,0-.93-1.63Z"></path><path class="cls-7" d="M168.3,582l-13.8-4.58c-1.62-.53-2.32,2-.7,2.56l13.8,4.57c1.62.54,2.32-2,.7-2.55Z"></path><path class="cls-7" d="M167.73,576.73,153,571.86c-1.62-.54-2.31,2-.7,2.55l14.7,4.87c1.62.54,2.32-2,.71-2.55Z"></path><path class="cls-7" d="M167,571.56l-15.25-5c-1.63-.54-2.32,2-.71,2.55l15.26,5.05c1.62.54,2.31-2,.7-2.55Z"></path><path class="cls-7" d="M166.3,566.34,152,561.17a1.33,1.33,0,0,0-.7,2.56l14.32,5.16a1.33,1.33,0,0,0,1.63-.92,1.35,1.35,0,0,0-.92-1.63Z"></path><path class="cls-7" d="M165.32,561l-11.49-3.8-1.63-.54c-1.62-.54-2.32,2-.71,2.55L163,563l1.62.54c1.63.54,2.32-2,.71-2.56Z"></path><path class="cls-7" d="M164.55,555.89l-11.05-3.66a1.32,1.32,0,1,0-.71,2.55l11.05,3.66a1.32,1.32,0,0,0,.71-2.55Z"></path><path class="cls-7" d="M163.55,550.62l-8.62-2.86a1.33,1.33,0,0,0-1.63.93,1.36,1.36,0,0,0,.93,1.63l8.62,2.85a1.34,1.34,0,0,0,1.63-.92,1.36,1.36,0,0,0-.93-1.63Z"></path><path class="cls-7" d="M163.26,545.53l-5.75-1.91a1.33,1.33,0,0,0-.7,2.56l5.74,1.9a1.33,1.33,0,0,0,1.63-.92,1.35,1.35,0,0,0-.92-1.63Z"></path><path class="cls-8" d="M100.37,748.34s-.44-20.88,2-27.2c3.12-8.21,17.11-19.9,21.37-27.54,3-5.43,1.72-6.29,4.65-24.69s13.38-28.72,13.38-28.72,23.4-25.84,26.8-34.9l3.75,1.75c-3.4,9.05-26.8,34.89-26.8,34.89S135,652.26,132.11,670.66s-1.61,19.25-4.65,24.68c-4.26,7.64-18.25,19.33-21.37,27.54-2.41,6.33-2,27.2-2,27.2Z"></path><path class="cls-9" d="M242.88,759.51H88.79S79.36,677,143,678.54s47.17,55.82,47.17,55.82,22-28.31,37-14.16-5.5,29.88-5.5,29.88S239,743.79,242.88,759.51Z"></path><path class="cls-10" d="M568.28,624.66s22-226-79.46-211.87-75.77,93.55-75.77,93.55,30.4,254,108.56,254c26.85,0,67.42-10.38,109.11-24V624.66Z"></path><path class="cls-6" d="M833.15,758.18l9.77-133.52H630.72V736.34c79.64-26,163.35-63.92,163.35-63.92S788.64,748.41,833.15,758.18Z"></path><path class="cls-11" d="M539.06,311.12c-16.86-115-100.38-146.53-100.38-146.53-12.45,41.76-49.08,39.56-49.08,39.56s-53.81,72.93-32.69,119.51c4.36,9.62,13,17.09,24.07,22.89C388.29,428,407.18,506,407.18,506c96,5.86,155.32-30.77,155.32-30.77S555.91,426.14,539.06,311.12Z"></path><path class="cls-12" d="M282.9,42.11C292.07,9.22,554.06,66.74,550,118.65S269.74,89.26,282.9,42.11Z"></path><path class="cls-13" d="M364.65,169.47c2.64,6.51,46.23-3.85,55.88-8.95S442,135,442,135s29.4-15,19.47-31.77S418.17,49,386.54,61.18,355.79,110.93,356.7,116,358.55,154.41,364.65,169.47Z"></path><path class="cls-14" d="M350.6,135.58c-.74,2.27,10.21,1.28,14,.19,0,0-1.66-11.52-7.9-19.78C356.7,116,353.39,127.08,350.6,135.58Z"></path><path class="cls-15" d="M383,144c13.7.84,16.64-27.2,0-26.32S366.21,143,383,144Z"></path><path class="cls-6" d="M371.55,104.81a4.92,4.92,0,0,1,.41-.7c.08-.13.18-.26.26-.38.26-.37-.29.34,0,0s.59-.68.91-1a12,12,0,0,1,6.08-3.15,10.15,10.15,0,0,1,7.56,2.88,9.78,9.78,0,0,1,.72.72,2,2,0,0,0,2.81-2.81,14.72,14.72,0,0,0-7.61-4.56c-4.56-1-9.53,1.12-12.69,4.43a10.15,10.15,0,0,0-1.91,2.6,2,2,0,0,0,.71,2.71,2,2,0,0,0,2.72-.71Z"></path><path class="cls-6" d="M378,105.9a22.51,22.51,0,0,1,14.69,1.15l-5.6,4.31Z"></path><path class="cls-16" d="M361.23,151.13a22.54,22.54,0,0,0,10.45-4.52,1.34,1.34,0,0,0,0-1.88,1.35,1.35,0,0,0-1.87,0c-.05,0-.14.11.08,0s0,0,0,0-.37.27-.56.4a22.94,22.94,0,0,1-2,1.21,19.62,19.62,0,0,1-2.84,1.28,21.07,21.07,0,0,1-3.92,1,1.33,1.33,0,0,0-.92,1.63,1.36,1.36,0,0,0,1.63.92Z"></path><path class="cls-17" d="M369.48,113.85a18.51,18.51,0,0,0,17.62-2.48,1.77,1.77,0,0,0,0-2.88,12,12,0,0,0-9.1-2.4c-4.93.91-7.9,5.18-8.88,6.84A.62.62,0,0,0,369.48,113.85Z"></path><ellipse class="cls-6" cx="375.95" cy="111.01" rx="3.43" ry="3.92" transform="translate(-15.77 96.24) rotate(-14.29)"></ellipse><path class="cls-6" d="M369.72,113.27a14.61,14.61,0,0,1,7.95-6.53,20.57,20.57,0,0,1,9.83-.47,23.83,23.83,0,0,1,3.13.77c.29.09.57.19.85.3l.27.1c.78.34,1.45-.8.67-1.14-8-3.55-19.34-1.93-23.85,6.3-.41.75.74,1.42,1.15.67Z"></path><path class="cls-9" d="M123.54,320.77c1.31-13.19,2.54-26.39,3.86-39.59.33-3.39-5-3.36-5.3,0-1.32,13.2-2.55,26.4-3.86,39.59-.33,3.39,5,3.37,5.3,0Z"></path><path class="cls-9" d="M116.47,360.93l-.69,9.9-1.89,26.92-2.78,39.83L107.72,486,104,539.15l-3.76,53.7-3.5,50.07-2.95,42.16-2.14,30.45c-.33,4.8-.84,9.62-1,14.43,0,.21,0,.42,0,.62-.24,3.4,5.06,3.39,5.3,0l.69-9.89,1.89-26.93,2.78-39.83,3.39-48.37,3.72-53.2,3.76-53.7,3.5-50.07,3-42.15L120.71,376c.34-4.8.85-9.62,1-14.43,0-.21,0-.41,0-.62.24-3.4-5.06-3.39-5.3,0Z"></path><path class="cls-18" d="M119.47,327.74c-3.67,5-9.86,7.75-15.58,5.87a16.06,16.06,0,0,1-9.36-8.06c-2.75-5.3-1.58-11.36,1.92-15.86a18.9,18.9,0,0,0,2.28-2,14.38,14.38,0,0,1,9.75-2.8c10.84.74,12.64,11.27,12.75,11.55.15,5.07-.25,8.69-1.76,11.29"></path><path class="cls-11" d="M109,366.89c-.57,9.26,8.88,10.86,8.88,10.86-1.27,4,1.41,5.93,1.41,5.93,2,.63,3.92-3.36,3.92-3.36.56,2.24,3.88,3.52,3.88,3.52,1.71-.82,2.2-3.87,2.2-3.87.4.53,2.91.09,2.91.09,1.15-3.05-1.33-5.73-1.33-5.73,5.91-2.73,5-11.05,5-11.05-1.21-10.78-13-10.54-16.91-9.11S109.34,362.17,109,366.89Z"></path><path class="cls-19" d="M100.4,263.45A22.59,22.59,0,0,0,91,268.12,17.11,17.11,0,0,0,86,275c-.5,1.28-1.16,2.7-.43,4,3.13,5.39,10.46,7.43,16.24,7.17,8.36-.38,16.27-4.28,23.27-8.59,1.45-.89.12-3.18-1.34-2.28-9.21,5.66-25.59,13.58-34.89,3.6a6,6,0,0,1-1.21-1.59l.13,1c1.43-6.36,7.08-11,13.35-12.31,1.67-.36,1-2.91-.7-2.56Z"></path><path class="cls-19" d="M87.42,279,119,270.17l4.52-1.27a1.33,1.33,0,0,0-.71-2.56l-31.59,8.88-4.51,1.27a1.32,1.32,0,0,0,.7,2.55Z"></path><path class="cls-19" d="M93.82,275.5l-.5,6.91-.07,1a1.33,1.33,0,0,0,1.32,1.33,1.35,1.35,0,0,0,1.32-1.33l.51-6.91.07-1a1.33,1.33,0,0,0-1.32-1.33,1.36,1.36,0,0,0-1.33,1.33Z"></path><path class="cls-19" d="M97.34,274.93l-.67,8.53-.09,1.23A1.33,1.33,0,0,0,97.9,286a1.36,1.36,0,0,0,1.33-1.32l.66-8.53.1-1.23a1.33,1.33,0,0,0-1.32-1.33,1.36,1.36,0,0,0-1.33,1.33Z"></path><path class="cls-19" d="M101,274.38l-.67,8.53-.1,1.22a1.33,1.33,0,1,0,2.65,0l.67-8.53.1-1.22a1.33,1.33,0,1,0-2.65,0Z"></path><path class="cls-19" d="M104.43,273.32l-.47,9.32L103.9,284a1.32,1.32,0,0,0,2.64,0l.47-9.32.07-1.34a1.33,1.33,0,0,0-1.32-1.32,1.35,1.35,0,0,0-1.33,1.32Z"></path><path class="cls-19" d="M107.78,272.19l-.46,9.6-.07,1.38a1.33,1.33,0,1,0,2.65,0l.47-9.59.06-1.39a1.33,1.33,0,0,0-1.32-1.32,1.35,1.35,0,0,0-1.33,1.32Z"></path><path class="cls-19" d="M111.05,271.17l-.47,9.56-.07,1.37a1.33,1.33,0,1,0,2.65,0l.47-9.55.07-1.38a1.33,1.33,0,0,0-1.32-1.33,1.36,1.36,0,0,0-1.33,1.33Z"></path><path class="cls-19" d="M114.53,270.78l-.67,8.53-.1,1.23a1.33,1.33,0,0,0,2.65,0l.67-8.53.1-1.23a1.33,1.33,0,0,0-2.65,0Z"></path><path class="cls-19" d="M117.56,269.47l-.67,8.53-.1,1.23a1.33,1.33,0,1,0,2.65,0l.67-8.53.1-1.23a1.33,1.33,0,0,0-2.65,0Z"></path><path class="cls-19" d="M121.06,268.09l-.67,8.53-.09,1.22a1.33,1.33,0,0,0,1.32,1.33,1.35,1.35,0,0,0,1.32-1.33l.67-8.53.1-1.22a1.34,1.34,0,0,0-1.33-1.33,1.35,1.35,0,0,0-1.32,1.33Z"></path><path class="cls-19" d="M95.91,274.81l-3.44-5.55a1.33,1.33,0,0,0-2.29,1.34l3.44,5.54a1.32,1.32,0,1,0,2.29-1.33Z"></path><path class="cls-19" d="M99.29,273.67l-3.94-6.25a1.32,1.32,0,1,0-2.28,1.33L97,275a1.33,1.33,0,0,0,2.29-1.34Z"></path><path class="cls-19" d="M102.79,272.46l-4.29-6.83A1.33,1.33,0,0,0,96.21,267l4.3,6.82a1.32,1.32,0,1,0,2.28-1.33Z"></path><path class="cls-19" d="M106.31,271.8,102,264.57a1.32,1.32,0,0,0-2.28,1.34l4.27,7.23a1.32,1.32,0,1,0,2.28-1.34Z"></path><path class="cls-19" d="M109.81,271.24l-2.73-4.63a1.32,1.32,0,1,0-2.28,1.33l2.72,4.64a1.33,1.33,0,0,0,1.81.47,1.35,1.35,0,0,0,.48-1.81Z"></path><path class="cls-19" d="M113.18,270.63l-2.52-4.28a1.33,1.33,0,0,0-2.29,1.34l2.52,4.28a1.33,1.33,0,0,0,2.29-1.34Z"></path><path class="cls-19" d="M116.43,269.36,114,265.47a1.32,1.32,0,1,0-2.29,1.33l2.45,3.89a1.32,1.32,0,1,0,2.28-1.33Z"></path><path class="cls-19" d="M119.25,268.35,116.52,264a1.33,1.33,0,1,0-2.29,1.34l2.73,4.34a1.33,1.33,0,1,0,2.29-1.34Z"></path><path class="cls-19" d="M122.48,267.13l-4.22-6.71a1.33,1.33,0,0,0-2.29,1.34l4.22,6.71a1.33,1.33,0,1,0,2.29-1.34Z"></path><path class="cls-19" d="M144.68,228.2a50.48,50.48,0,0,1,7.61-8.83c4.3-4,10.33-8.18,16.47-6.12l-.79-.61c.09.17.17.34.25.52-.15-.34.1.25.14.37.1.27.19.54.28.81a21.35,21.35,0,0,1,1,5.43c.34,6.9-2.23,13.47-5.94,19.18-.93,1.44,1.36,2.76,2.28,1.34,3.64-5.6,6.21-12,6.33-18.76a22.07,22.07,0,0,0-1.8-9.79c-.64-1.33-2.28-1.47-3.64-1.63a14.38,14.38,0,0,0-6.86,1c-4.54,1.78-8.41,5-11.73,8.53a54.61,54.61,0,0,0-5.85,7.2c-.95,1.42,1.34,2.75,2.29,1.34Z"></path><path class="cls-19" d="M167.58,211.44,150.3,235.3l-2.46,3.39c-1,1.38,1.3,2.71,2.29,1.34l17.28-23.87,2.46-3.38c1-1.39-1.3-2.71-2.29-1.34Z"></path><path class="cls-19" d="M158.83,238.19l-7.76-2.51.8.61-5.45-9.45-.78-1.34a1.32,1.32,0,0,0-2.28,1.34l4.52,7.85c.56,1,1.07,2,1.69,2.93a2.59,2.59,0,0,0,1.56.86l2.4.78,4.6,1.48c1.62.53,2.32-2,.7-2.55Z"></path><path class="cls-19" d="M166.09,236.86l-12.56-4.57.79.61-6.56-10.09c-.93-1.43-3.22-.1-2.29,1.34l6.07,9.32a3,3,0,0,0,1.29,1.38c.42.18.87.31,1.3.47l6.31,2.3,4.94,1.79c1.61.59,2.3-2,.71-2.55Z"></path><path class="cls-19" d="M167.94,233.46l-11.88-4.67.8.61-6.69-9.31c-1-1.37-3.29-.05-2.29,1.33l6.22,8.67a3.21,3.21,0,0,0,1.27,1.26c.4.18.83.33,1.25.49l6,2.37,4.58,1.8c1.59.62,2.27-1.94.7-2.55Z"></path><path class="cls-19" d="M169.65,229.5l-9-3.71c-.53-.23-1.07-.48-1.62-.68s.41.22.42.26c0-.14-.25-.31-.33-.42l-3.41-4.29-2.9-3.66a1.34,1.34,0,0,0-1.88,0,1.35,1.35,0,0,0,0,1.87l6.11,7.7a3,3,0,0,0,1.14,1c.36.16.73.3,1.1.45l5.45,2.26,4.18,1.73a1.32,1.32,0,0,0,1.63-.92,1.36,1.36,0,0,0-.92-1.63Z"></path><path class="cls-19" d="M170.89,226.23,161.38,222l.47.48-5.63-7.81a1.36,1.36,0,0,0-1.81-.48,1.33,1.33,0,0,0-.48,1.81l5.14,7.13a4.22,4.22,0,0,0,1,1.16c.28.16.61.27.9.4l4.89,2.16,3.72,1.64a1.37,1.37,0,0,0,1.81-.47,1.33,1.33,0,0,0-.47-1.81Z"></path><path class="cls-19" d="M171.52,222.19l-7.82-3.37.48.47L160,212.38a1.33,1.33,0,0,0-2.29,1.34L161.5,220a3.53,3.53,0,0,0,.73,1,3.71,3.71,0,0,0,.85.41l4,1.74,3.1,1.33A1.38,1.38,0,0,0,172,224a1.34,1.34,0,0,0-.48-1.82Z"></path><path d="M102,310.65l-.07,3.29a.46.46,0,0,1-.24.41L98.94,316a.5.5,0,0,0,.31.92l3.83-.45a.5.5,0,0,1,.55.51l-.08,2.34a.5.5,0,0,0,1,.19l1.37-3.73a.49.49,0,0,1,.56-.32l2.21.45A.5.5,0,0,0,109,315l-2.56-1.38a.5.5,0,0,1-.15-.75l1.27-1.55a.5.5,0,0,0-.61-.76l-2.3,1.17a.49.49,0,0,1-.6-.12l-1.15-1.3A.5.5,0,0,0,102,310.65Z"></path><path class="cls-18" d="M146,263.87s18.57,14.9.36,26.45c-17.05,10.81-28.91-14.95-18-21.85"></path><path class="cls-11" d="M151.13,241.71s14.85-7.61,21.75,3.94c0,0,4,1.27,4.2-2.57,0,0,3.62,4-1.08,8.35,0,0,6.38,2.42,6.41,4.41s-4.16,5.21-4.16,5.21,4.36-.19,3.9,4.84c0,0-4-1.26-4.53-2.18,0,0-2.78,19.35-22.86,11.29,0,0-22.73-12.89-19.29-22.56s15.66-10.73,15.66-10.73"></path><path class="cls-18" d="M143.63,234.8s4-15.13-12.15-18.35c0,0-.51-6-1.14-5.81a3.73,3.73,0,0,0-2.33,3.47s-3.08-2.47-4.14-2.32c0,0-1.31.68-2.2,3.2,0,0-3.75-3.12-6.09-.31,0,0-.36,2.78,1.25,4.21,0,0-16.4,10.15-1.69,21.85"></path><path class="cls-11" d="M117.15,262.41c-8.46,10-23.31,2.37-20.45-11s14-13.95,14-13.95c7.56.73,11.94,5.22,12.36,10.91S117.15,262.41,117.15,262.41Z"></path><path class="cls-18" d="M153.81,332s10.27,1.51,11,9.44-2.08,12.46-2.08,12.46,2.74,2.15,2.51,4.67c0,0-3.14,2.42-4.75,1a8.06,8.06,0,0,1,.32,4.09s-2.49,1.09-3.71-.48c0,0-.6,4-3.24,4.68,0,0-1-4.75-1.52-5s-10.42,10.65-20.3-4.22c-5.28-7.95-8.92-18.32,1.32-28.81S153.81,332,153.81,332"></path><path class="cls-20" d="M121.58,335.5S97.33,332,99.22,354.59c1.37,16.34,24,14.88,29.23,9.52,5.06-5.2,8-11.88,2.5-20.8"></path><path class="cls-11" d="M146.88,308.3s7.17-17.55,20.59-12.71,10.14,15.74,10.14,15.74,3.72,1.14,1.76,3.15c0,0,2.68,2.61-.48,3.71,0,0,1.94,6.19-2.32,4.79,0,0-4,17.65-15.17,12.38C152,330.92,139.56,326.23,146.88,308.3Z"></path><path class="cls-19" d="M174.39,329.3a49.49,49.49,0,0,1,6.12,4c3.32,2.5,6.82,5.61,8.49,9.51a9.38,9.38,0,0,1,.76,4.22c0,.13-.21.29-.28.39.23-.35-.37.43-.51.58a13.42,13.42,0,0,1-6.52,3.6c-5.93,1.5-12.25-.08-17.83-2.16-1.6-.6-2.29,2-.7,2.55,8.24,3.08,19.43,5,26.51-1.71A9.29,9.29,0,0,0,192,348.5c.7-1.17.47-3,.23-4.29-.89-4.66-4.61-8.5-8.12-11.43a50.39,50.39,0,0,0-8.35-5.76c-1.5-.81-2.83,1.47-1.33,2.28Z"></path><path class="cls-19" d="M191.33,346.38,167,336.06l-3.47-1.47c-1.56-.66-2.91,1.62-1.34,2.29l24.33,10.32,3.47,1.47c1.56.66,2.91-1.62,1.34-2.29Z"></path><path class="cls-19" d="M167.33,338.49l11.25-5.6,1.59-.8a1.32,1.32,0,1,0-1.33-2.28l-11.26,5.6-1.59.79a1.33,1.33,0,0,0,1.34,2.29Z"></path><path class="cls-19" d="M171.28,340.4l11.53-5.74a1.34,1.34,0,0,0,.48-1.81,1.36,1.36,0,0,0-1.82-.48l-11.53,5.74a1.33,1.33,0,0,0,1.34,2.29Z"></path><path class="cls-19" d="M176.12,342.74l10.55-5.25a1.33,1.33,0,0,0,.47-1.81,1.35,1.35,0,0,0-1.81-.48l-10.54,5.25a1.32,1.32,0,0,0,1.33,2.29Z"></path><path class="cls-19" d="M180.79,345l8.38-4.17a1.33,1.33,0,0,0,.48-1.81,1.36,1.36,0,0,0-1.82-.48l-8.38,4.18a1.32,1.32,0,1,0,1.34,2.28Z"></path><path class="cls-19" d="M165.38,337.7,168,350l.37,1.75c.36,1.66,2.91,1,2.56-.71l-2.6-12.29-.37-1.75c-.36-1.66-2.91-1-2.56.71Z"></path><path class="cls-19" d="M169.34,339.61l2.6,12.29.37,1.75c.35,1.66,2.9,1,2.55-.71l-2.6-12.28-.37-1.76c-.35-1.66-2.91-1-2.55.71Z"></path><path class="cls-19" d="M174.18,342l2.41,11.39a1.32,1.32,0,0,0,2.55-.71l-2.41-11.39a1.32,1.32,0,1,0-2.55.71Z"></path><path class="cls-19" d="M178.84,344.2l1.77,8.35a1.34,1.34,0,0,0,1.63.93,1.36,1.36,0,0,0,.93-1.63l-1.77-8.35a1.34,1.34,0,0,0-1.63-.93,1.37,1.37,0,0,0-.93,1.63Z"></path><path class="cls-21" d="M131.49,231.73c-7.55-.7-24.23,8.66-16.59,25.49,9,19.83,30.45,8.07,32.87,4.71C152.25,255.72,157.94,234.15,131.49,231.73Z"></path><path d="M129,244.24a34,34,0,0,1,6.16,1.43.92.92,0,0,1,.53,1.14c-.35,1-1,2.92-1.69,4.62a.92.92,0,0,0,1.48,1,14.9,14.9,0,0,0,3.94-6.43.93.93,0,0,1,.86-.66h0a.92.92,0,0,0,.38-1.74l-1.77-.85a.92.92,0,0,1-.51-.94l.51-3.91a.91.91,0,0,0-1.68-.6c-.52.82-1.07,1.65-1.6,2.36a.91.91,0,0,1-1.58-.19,7.79,7.79,0,0,0-1.61-2.48.92.92,0,0,0-1.56.83l.53,2.45a.92.92,0,0,1-.45,1l-2.27,1.25A.92.92,0,0,0,129,244.24Z"></path><path class="cls-11" d="M143.75,274.74l-.06,3.29a.51.51,0,0,1-.25.41l-2.78,1.68a.5.5,0,0,0,.31.93l3.83-.45a.5.5,0,0,1,.55.51l-.08,2.34a.5.5,0,0,0,1,.19l1.37-3.73a.49.49,0,0,1,.56-.32l2.21.45a.5.5,0,0,0,.34-.93l-2.56-1.38A.51.51,0,0,1,148,277l1.27-1.54a.5.5,0,0,0-.61-.76l-2.3,1.17a.49.49,0,0,1-.6-.12l-1.14-1.3A.51.51,0,0,0,143.75,274.74Z"></path><path class="cls-21" d="M137.05,305.53s-16.71-3.48-17.42,22.46c-.31,16.27,24.37,21.62,31.48,9.62S159.19,309.33,137.05,305.53Z"></path><path d="M148.49,325.61l-.59.65a.63.63,0,0,1-.78.12L144.6,325a.63.63,0,0,0-.84.9c.82,1.27,1.5,2.77,1.08,3.87-.35.91-1.45,1.21-2.64,1.24a.64.64,0,0,0-.25,1.21l2.26,1.09a.7.7,0,0,1,.19.15l2.66,2.95a.64.64,0,0,0,1.11-.47l-.36-5.53a.65.65,0,0,1,.34-.6l2.37-1.23a.64.64,0,0,0-.36-1.2h0a.64.64,0,0,1-.68-.81l.09-.33A.63.63,0,0,0,148.49,325.61Z"></path><path class="cls-11" d="M108.49,348.47a29,29,0,0,0-.46,3.92.94.94,0,0,0,1.71.61l2.17-3a.94.94,0,0,1,1.28-.24,10,10,0,0,0,5.88,1.7,1,1,0,0,0,.49-1.74l-2.91-1.9a.94.94,0,0,1-.13-1.48l2-1.91a1,1,0,0,0-.9-1.61l-1.11.31a.94.94,0,0,1-1.17-.67l-.87-3.43a1,1,0,0,0-1.82-.06,8,8,0,0,0-.37,4,.94.94,0,0,1-1.16,1.12,13,13,0,0,1-3.12-1.31,1,1,0,0,0-1.34,1.21l1.73,3.84A1,1,0,0,1,108.49,348.47Z"></path><path class="cls-9" d="M72.05,539.29c-2.28-13.06-4.49-26.13-6.79-39.19-.58-3.35-5.69-1.93-5.1,1.41,2.29,13.06,4.5,26.13,6.79,39.19.58,3.35,5.69,1.93,5.1-1.41Z"></path><path class="cls-9" d="M71.7,580.62,81.29,630l15.2,78.18L100,726.23c.65,3.34,5.75,1.92,5.1-1.41l-9.59-49.35-15.2-78.18-3.51-18.08c-.65-3.34-5.76-1.93-5.11,1.41Z"></path><path class="cls-18" d="M71.44,546.85c4,4.71,10.41,7,16,4.69a16.15,16.15,0,0,0,8.74-8.73c2.34-5.49.73-11.45-3.1-15.68a19.83,19.83,0,0,1-2.42-1.81,14.37,14.37,0,0,0-9.93-2.07c-10.76,1.54-11.77,12.18-11.86,12.47.23,5.06.9,8.64,2.6,11.13"></path><path class="cls-11" d="M84.74,585.11c1.27,9.19-8,11.49-8,11.49,1.56,3.88-1,6-1,6-1.94.78-4.16-3.06-4.16-3.06-.39,2.27-3.61,3.8-3.61,3.8-1.77-.69-2.48-3.7-2.48-3.7-.37.56-2.9.31-2.9.31-1.37-3,.91-5.82.91-5.82-6.11-2.27-5.82-10.64-5.82-10.64.41-10.84,12.19-11.48,16.19-10.34S84.1,580.43,84.74,585.11Z"></path><path class="cls-19" d="M85.07,483.89c6.32.86,12.39,5,14.29,11.22l.13-1C96.36,501,86.68,502.14,80,501a58.75,58.75,0,0,1-16.61-6.06c-1.51-.78-2.85,1.5-1.34,2.28,9.8,5.07,23.61,10.47,34.1,4.07a15.88,15.88,0,0,0,5.22-5.06,2.66,2.66,0,0,0,.55-1.78c-.27-2.83-2.87-6-4.9-7.81a21.9,21.9,0,0,0-11.24-5.26c-1.67-.23-2.39,2.33-.7,2.55Z"></path><path class="cls-19" d="M100.38,493.32,68.2,486.81l-4.58-.92c-1.66-.34-2.38,2.21-.7,2.55L95.09,495l4.59.92c1.66.34,2.37-2.21.7-2.55Z"></path><path class="cls-19" d="M90.53,493.29l1,6.87.14,1a1.33,1.33,0,0,0,1.63.93,1.38,1.38,0,0,0,.93-1.63l-1-6.87-.15-1a1.32,1.32,0,0,0-1.63-.92,1.36,1.36,0,0,0-.92,1.63Z"></path><path class="cls-19" d="M87,493l1.3,8.47.19,1.21a1.33,1.33,0,0,0,1.62.92A1.36,1.36,0,0,0,91,502l-1.3-8.47-.19-1.2a1.34,1.34,0,0,0-1.63-.93A1.36,1.36,0,0,0,87,493Z"></path><path class="cls-19" d="M83.28,492.71l1.3,8.47.19,1.2a1.32,1.32,0,0,0,1.63.92,1.36,1.36,0,0,0,.92-1.63L86,493.2l-.19-1.2a1.32,1.32,0,0,0-1.63-.92,1.36,1.36,0,0,0-.92,1.63Z"></path><path class="cls-19" d="M79.74,491.56l1.16,9.27.17,1.31a1.37,1.37,0,0,0,1.32,1.33,1.34,1.34,0,0,0,1.33-1.33l-1.17-9.27-.16-1.31a1.38,1.38,0,0,0-1.33-1.33,1.33,1.33,0,0,0-1.32,1.33Z"></path><path class="cls-19" d="M76.31,490.68l1.18,9.55.17,1.36a1.33,1.33,0,0,0,2.65,0L79.13,492,79,490.68a1.33,1.33,0,0,0-2.65,0Z"></path><path class="cls-19" d="M73,489.9l1.18,9.51.17,1.36a1.37,1.37,0,0,0,1.32,1.32A1.33,1.33,0,0,0,77,500.77l-1.19-9.52-.17-1.35a1.35,1.35,0,0,0-1.32-1.32A1.33,1.33,0,0,0,73,489.9Z"></path><path class="cls-19" d="M69.53,490.13l1.3,8.47.19,1.2a1.33,1.33,0,0,0,1.63.92,1.36,1.36,0,0,0,.92-1.63l-1.3-8.47-.19-1.2a1.31,1.31,0,0,0-1.62-.92,1.35,1.35,0,0,0-.93,1.63Z"></path><path class="cls-19" d="M66.41,489.05l1.3,8.47.19,1.2a1.34,1.34,0,0,0,1.63.93,1.36,1.36,0,0,0,.92-1.63l-1.3-8.47L69,488.34a1.32,1.32,0,0,0-1.62-.92,1.36,1.36,0,0,0-.93,1.63Z"></path><path class="cls-19" d="M62.82,487.92l1.3,8.47.18,1.21a1.33,1.33,0,0,0,1.63.92,1.36,1.36,0,0,0,.93-1.63l-1.31-8.47-.18-1.2a1.32,1.32,0,1,0-2.55.7Z"></path><path class="cls-19" d="M93.33,493.55l3-5.78a1.35,1.35,0,0,0-.47-1.81,1.36,1.36,0,0,0-1.82.47l-3,5.79a1.32,1.32,0,0,0,2.29,1.33Z"></path><path class="cls-19" d="M89.87,492.67l3.46-6.53A1.32,1.32,0,1,0,91,484.81l-3.45,6.53a1.32,1.32,0,1,0,2.28,1.33Z"></path><path class="cls-19" d="M86.29,491.72l3.77-7.12a1.33,1.33,0,0,0-2.29-1.34L84,490.38a1.36,1.36,0,0,0,.48,1.82,1.34,1.34,0,0,0,1.81-.48Z"></path><path class="cls-19" d="M82.73,491.33l3.72-7.53a1.32,1.32,0,1,0-2.29-1.33L80.44,490a1.33,1.33,0,0,0,2.29,1.34Z"></path><path class="cls-19" d="M79.21,491l2.37-4.82a1.36,1.36,0,0,0-.48-1.81,1.34,1.34,0,0,0-1.81.47l-2.37,4.82A1.33,1.33,0,1,0,79.21,491Z"></path><path class="cls-19" d="M75.8,490.67,78,486.22a1.44,1.44,0,0,0,.14-1,1.38,1.38,0,0,0-.61-.79,1.34,1.34,0,0,0-1.82.48l-2.19,4.44a1.42,1.42,0,0,0-.13,1,1.32,1.32,0,0,0,2.42.31Z"></path><path class="cls-19" d="M72.46,489.65l2.15-4.07a1.32,1.32,0,1,0-2.29-1.33l-2.15,4.06a1.33,1.33,0,0,0,2.29,1.34Z"></path><path class="cls-19" d="M69.57,488.85l2.4-4.53A1.32,1.32,0,0,0,69.69,483l-2.41,4.54a1.32,1.32,0,0,0,2.29,1.33Z"></path><path class="cls-19" d="M66.26,487.88l3.71-7a1.32,1.32,0,1,0-2.29-1.33l-3.71,7a1.33,1.33,0,0,0,2.29,1.34Z"></path><path class="cls-19" d="M40.92,447.76c-4.37-5.6-10.27-11-16.91-13.62a16,16,0,0,0-7.09-1.27c-1.58.12-4.22.36-4.93,2A19.81,19.81,0,0,0,10.77,443c.19,7.35,3.37,14.23,7.76,20,1,1.34,3.32,0,2.29-1.34-4.11-5.4-7.23-11.77-7.4-18.67a21.5,21.5,0,0,1,.5-5.37c.12-.53.27-1.07.44-1.58.07-.19.37-.9.1-.3l-.79.61c6-2.53,12.38,1.14,17,4.87a52.36,52.36,0,0,1,8.37,8.4c1.05,1.35,2.91-.54,1.87-1.87Z"></path><path class="cls-19" d="M12.78,436.13l19,22.5,2.7,3.21c1.1,1.3,3-.58,1.88-1.88l-19-22.5-2.71-3.2c-1.1-1.31-3,.57-1.88,1.87Z"></path><path class="cls-19" d="M26.32,463c2.52-1,5-2,7.55-3.07.65-.27.8-.64,1.07-1.19l.93-1.92,2.52-5.25,1.67-3.48a1.36,1.36,0,0,0-.47-1.81,1.33,1.33,0,0,0-1.81.48l-4.73,9.81L32.37,458l.8-.61-7.55,3.08a1.38,1.38,0,0,0-.93,1.63,1.34,1.34,0,0,0,1.63.92Z"></path><path class="cls-19" d="M19.3,462.07l10.28-4.63c1-.46,2-.72,2.61-1.74l3-5.42,2.59-4.72c.83-1.5-1.46-2.84-2.28-1.34l-5.31,9.66a6.8,6.8,0,0,0-.38.7c-.21.5.09-.26.33-.27a5.48,5.48,0,0,0-1.4.63L22.6,457.7,18,459.79a1.33,1.33,0,0,0-.47,1.81,1.36,1.36,0,0,0,1.81.47Z"></path><path class="cls-19" d="M17.2,458.82l9.7-4.67a5,5,0,0,0,2.5-1.71l3-5L35.15,443c.89-1.46-1.4-2.79-2.29-1.34l-5.45,8.94a6.68,6.68,0,0,0-.41.67c-.24.48.12-.25.33-.28a6,6,0,0,0-1.37.66l-5.75,2.77-4.35,2.09c-1.53.74-.19,3,1.34,2.29Z"></path><path class="cls-19" d="M15.21,455,24,450.54c.48-.24,1-.46,1.46-.73a2.92,2.92,0,0,0,.84-.94l3-4.48,2.69-4c1-1.41-1.33-2.74-2.28-1.33l-6,8.86.48-.47-10.37,5.23c-1.52.77-.18,3.05,1.34,2.29Z"></path><path class="cls-19" d="M14,451.67l7.88-4.21a4.38,4.38,0,0,0,2-1.53l2.59-4.22,2.22-3.63c.9-1.45-1.39-2.78-2.28-1.33l-5,8.21.47-.48-9.17,4.9c-1.5.81-.16,3.09,1.34,2.29Z"></path><path class="cls-19" d="M13.1,447.69l6.49-3.39c.34-.18.69-.34,1-.53a1.82,1.82,0,0,0,.71-.87l1.86-3.68,1.6-3.15a1.36,1.36,0,0,0-.48-1.81,1.33,1.33,0,0,0-1.81.47l-3.65,7.2.48-.47-7.55,4c-1.51.79-.17,3.07,1.34,2.28Z"></path><path d="M87.55,528.51l.32,3.27a.45.45,0,0,0,.27.39l2.9,1.47a.5.5,0,0,1-.24,1L87,534.43a.49.49,0,0,0-.52.55l.25,2.32a.49.49,0,0,1-.94.26l-1.65-3.62a.49.49,0,0,0-.58-.27l-2.17.61a.5.5,0,0,1-.41-.9l2.45-1.57a.49.49,0,0,0,.09-.76l-1.38-1.44a.5.5,0,0,1,.56-.81l2.38,1a.51.51,0,0,0,.59-.16l1-1.39A.5.5,0,0,1,87.55,528.51Z"></path><path class="cls-18" d="M40.22,485.12s-17.41,16.24,1.61,26.41C59.64,521,69.54,494.47,58.18,488.4"></path><path class="cls-11" d="M33.46,463.41S18.09,456.92,12.07,469c0,0-3.88,1.56-4.38-2.25,0,0-3.31,4.31,1.7,8.25,0,0-6.19,2.89-6.07,4.87s4.54,4.89,4.54,4.89-4.36.14-3.53,5.12c0,0,3.88-1.56,4.35-2.52,0,0,4.21,19.09,23.64,9.56,0,0,21.71-14.54,17.56-23.93s-16.42-9.53-16.42-9.53"></path><path class="cls-18" d="M40.43,456s-5.14-14.79,10.75-19.21c0,0,.07-6,.71-5.87a3.73,3.73,0,0,1,2.58,3.29s2.89-2.7,4-2.63c0,0,1.36.58,2.44,3,0,0,3.5-3.39,6-.76,0,0,.56,2.74-.93,4.29,0,0,17.1,8.9,3.3,21.67"></path><path class="cls-11" d="M68.89,481.52c9.18,9.38,23.42.63,19.57-12.52s-15-12.87-15-12.87C66,457.41,62,462.22,62,467.92S68.89,481.52,68.89,481.52Z"></path><path class="cls-18" d="M37.51,553.67S27.38,555.94,27.2,563.9s3,12.27,3,12.27S27.63,578.52,28,581c0,0,3.32,2.18,4.81.63a8.07,8.07,0,0,0,0,4.11s2.57.91,3.66-.75c0,0,.9,3.92,3.58,4.42,0,0,.64-4.81,1.15-5.11s11.18,9.85,19.93-5.72c4.67-8.32,7.53-18.93-3.46-28.62s-20.19,3.7-20.19,3.7"></path><path class="cls-20" d="M69.91,554.74s23.92-5.3,23.71,17.37c-.15,16.4-22.83,16.63-28.44,11.67-5.43-4.8-8.9-11.25-4-20.56"></path><path class="cls-11" d="M42.66,529.5s-8.46-17-21.48-11.15-8.94,16.45-8.94,16.45-3.62,1.41-1.52,3.27c0,0-2.48,2.8.75,3.67,0,0-1.47,6.31,2.67,4.6,0,0,5.35,17.3,16.05,11.22C39.19,552.44,51.29,546.83,42.66,529.5Z"></path><path class="cls-19" d="M15.37,550.25a51.16,51.16,0,0,0-6.66,5.17c-3.45,3.11-7,7-8.23,11.54-.45,1.63-.83,4.18,0,5.74A6.4,6.4,0,0,0,1.69,574a15.78,15.78,0,0,0,8,3.86c6.69,1.22,13.45-.87,19.48-3.65,1.55-.72.2-3-1.34-2.29-7,3.21-17.25,6-23.72.66a7.14,7.14,0,0,1-1.35-1.34c-.15-.21.11.31.08.11,0,.19,0-.43,0-.49a8.75,8.75,0,0,1,.14-2.7c.92-4.1,4.07-7.53,7.05-10.32a47.92,47.92,0,0,1,6.74-5.32c1.43-.92.11-3.21-1.33-2.29Z"></path><path class="cls-19" d="M2.58,573l23.55-12.13,3.3-1.69c1.52-.79.18-3.07-1.34-2.29L4.54,569l-3.3,1.7c-1.51.78-.18,3.06,1.34,2.28Z"></path><path class="cls-19" d="M25.44,558.65l-11.62-4.74-1.66-.68a1.34,1.34,0,0,0-1.63.93,1.36,1.36,0,0,0,.92,1.63l11.63,4.74,1.66.68a1.33,1.33,0,0,0,1.63-.93,1.36,1.36,0,0,0-.93-1.63Z"></path><path class="cls-19" d="M21.64,560.85,9.72,556a1.33,1.33,0,0,0-1.63.92A1.36,1.36,0,0,0,9,558.54l11.93,4.87a1.34,1.34,0,0,0,1.63-.93,1.36,1.36,0,0,0-.93-1.63Z"></path><path class="cls-19" d="M17,563.55,6.08,559.1a1.34,1.34,0,0,0-1.63.92,1.36,1.36,0,0,0,.93,1.63l10.9,4.45a1.33,1.33,0,0,0,1.63-.92,1.36,1.36,0,0,0-.92-1.63Z"></path><path class="cls-19" d="M12.5,566.14,3.83,562.6a1.34,1.34,0,0,0-1.63.93,1.37,1.37,0,0,0,.93,1.63l8.67,3.54a1.34,1.34,0,0,0,1.63-.93,1.37,1.37,0,0,0-.93-1.63Z"></path><path class="cls-19" d="M23.81,559.58,22.13,572l-.24,1.77a1.38,1.38,0,0,0,.93,1.63,1.33,1.33,0,0,0,1.63-.93l1.68-12.45.24-1.77a1.38,1.38,0,0,0-.93-1.63,1.35,1.35,0,0,0-1.63.93Z"></path><path class="cls-19" d="M20,561.78l-1.68,12.45L18.09,576a1.38,1.38,0,0,0,.93,1.63,1.33,1.33,0,0,0,1.63-.93l1.68-12.45.24-1.77a1.38,1.38,0,0,0-.93-1.63,1.34,1.34,0,0,0-1.63.93Z"></path><path class="cls-19" d="M15.36,564.47,13.8,576a1.38,1.38,0,0,0,.93,1.63,1.34,1.34,0,0,0,1.63-.93l1.55-11.53a1.36,1.36,0,0,0-.92-1.63,1.33,1.33,0,0,0-1.63.92Z"></path><path class="cls-19" d="M10.87,567.07l-1.14,8.45a1.36,1.36,0,0,0,.93,1.63,1.33,1.33,0,0,0,1.63-.92l1.14-8.46a1.38,1.38,0,0,0-.93-1.63,1.34,1.34,0,0,0-1.63.93Z"></path><path class="cls-21" d="M52.31,452c7.48-1.25,24.8,6.83,18.44,24.18-7.5,20.46-29.76,10.32-32.43,7.15C33.39,477.46,26.11,456.37,52.31,452Z"></path><path d="M55.73,464.28a34,34,0,0,0-6,1.89.91.91,0,0,0-.44,1.18c.42,1,1.21,2.83,2,4.47a.92.92,0,0,1-1.4,1.12,14.86,14.86,0,0,1-4.41-6.12.92.92,0,0,0-.9-.59h0a.92.92,0,0,1-.51-1.71l1.7-1a.9.9,0,0,0,.43-1l-.79-3.86A.91.91,0,0,1,47,458c.58.78,1.19,1.57,1.77,2.24a.91.91,0,0,0,1.56-.31,7.81,7.81,0,0,1,1.43-2.59.91.91,0,0,1,1.61.71L53,460.51a.93.93,0,0,0,.53,1l2.35,1.09A.91.91,0,0,1,55.73,464.28Z"></path><path class="cls-11" d="M43.28,495.8l.31,3.27a.52.52,0,0,0,.27.4l2.91,1.47a.5.5,0,0,1-.25.94l-3.85-.16a.49.49,0,0,0-.51.55l.25,2.33a.5.5,0,0,1-.95.26l-1.64-3.63a.5.5,0,0,0-.59-.27l-2.17.61a.5.5,0,0,1-.4-.9l2.44-1.57a.49.49,0,0,0,.09-.76l-1.37-1.44a.5.5,0,0,1,.55-.81l2.38,1a.51.51,0,0,0,.59-.16l1-1.39A.5.5,0,0,1,43.28,495.8Z"></path><path class="cls-21" d="M52.25,526s16.41-4.71,19,21.1C72.81,563.31,48.6,570.48,40.62,559S30.45,531.44,52.25,526Z"></path><path d="M42.34,546.88l.63.6a.66.66,0,0,0,.8.07l2.4-1.6a.64.64,0,0,1,.91.84c-.73,1.32-1.3,2.87-.8,3.93.42.89,1.54,1.1,2.73,1a.63.63,0,0,1,.33,1.18l-2.16,1.26a.58.58,0,0,0-.19.16l-2.43,3.14a.64.64,0,0,1-1.14-.38l-.05-5.54A.64.64,0,0,0,43,551l-2.45-1a.64.64,0,0,1,.27-1.23h0a.63.63,0,0,0,.62-.85l-.12-.32A.64.64,0,0,1,42.34,546.88Z"></path><path class="cls-11" d="M83.92,566.7a28.13,28.13,0,0,1,.76,3.88,1,1,0,0,1-1.67.73l-2.38-2.82a.94.94,0,0,0-1.3-.15,10,10,0,0,1-5.73,2.14,1,1,0,0,1-.62-1.7l2.76-2.11a.94.94,0,0,0,0-1.49l-2.18-1.75a1,1,0,0,1,.78-1.67l1.13.23a1,1,0,0,0,1.12-.77l.61-3.47a1,1,0,0,1,1.81-.2,7.85,7.85,0,0,1,.67,4,.94.94,0,0,0,1.25,1,13,13,0,0,0,3-1.52.94.94,0,0,1,1.42,1.1l-1.44,4A1.07,1.07,0,0,0,83.92,566.7Z"></path><path class="cls-9" d="M110.27,539.6c.21-.51-.29.67-.12.27s.28-.65.41-1l1.44-3.37q2.49-5.82,5-11.64c4.7-10.77,9.5-21.51,14.54-32.13,4-8.41,7.88-17.21,13.2-24.88.09-.14.66-1.05.3-.44a2.08,2.08,0,0,1,.45-.53c-.8.59-.25.18.07.07,1.18-.4,2.33-1,3.47-1.5l13.09-5.67,24.28-10.53c3.12-1.35.43-5.92-2.67-4.57l-21.08,9.13L148.43,459c-2,.87-5.07,1.56-6.66,3.14-2.41,2.4-4.08,5.92-5.69,8.85-2.55,4.63-4.9,9.37-7.2,14.12C123.64,496,118.7,507,113.86,518q-4.42,10.07-8.7,20.19c-.56,1.33.6,2.9,1.85,3.26a2.72,2.72,0,0,0,3.26-1.85Z"></path><path class="cls-19" d="M126.63,499.08l30.62-13.22a1.31,1.31,0,0,0,.61-1.49C154.5,473,168.48,464,178.23,463.73c7.89-.17,16.17,2.08,23.43,5.1l-.79-1.95c-4.11,6.88-9,14-15.26,19.12A22.42,22.42,0,0,1,171,490.67c-5.1-.05-11-1.55-13.31-6.62-.69-1.55-3-.21-2.29,1.34,3.73,8.35,15.48,9,23.14,7,8.89-2.26,14.81-10,19.89-17.11,1.65-2.3,3.24-4.65,4.69-7.08a1.36,1.36,0,0,0-.79-2,70.16,70.16,0,0,0-19.3-5c-9.76-1-19.64,2.42-25.3,10.82a15.52,15.52,0,0,0-2.46,12.95l.61-1.49L125.29,496.8c-1.56.67-.22,2.95,1.34,2.28Z"></path><path class="cls-19" d="M164.05,456l7.26-51.81,1-7.37c.23-1.67-2.32-2.39-2.56-.7l-7.26,51.81-1,7.37c-.23,1.67,2.32,2.39,2.56.7Z"></path><path class="cls-19" d="M124.74,450.6a140,140,0,0,1,3.43,38.51c-.1,1.7,2.55,1.7,2.65,0a142.35,142.35,0,0,0-3.53-39.21c-.37-1.67-2.93-1-2.55.7Z"></path><path class="cls-19" d="M164.7,444.74c4.89-.27,8.2-4.32,10.36-8.34a39.88,39.88,0,0,0,4.59-15.92c.35-5.33-1.53-10.8-3.43-15.7a87.63,87.63,0,0,0-4-9,1.34,1.34,0,0,0-2.08-.27,104,104,0,0,0-12.41,15.2c-2.4,3.62-4.77,7.62-5.69,11.92a24.23,24.23,0,0,0,1.5,14.63,12.13,12.13,0,0,0,11.17,7.45,1.33,1.33,0,0,0,0-2.65c-5.84,0-9.06-4.79-10.07-10.07-1.11-5.83.16-11,3-16.08A89,89,0,0,1,172,397.41l-2.08-.26c3.36,6.44,6.77,14.06,7.09,21.4.21,4.83-1.29,10.05-3.23,14.43-1.65,3.71-4.49,8.85-9.09,9.11C163,442.19,163,444.83,164.7,444.74Z"></path><path class="cls-18" d="M139.12,424.63s5.29-15.07-6.17-21.37-28.64,4.62-26.18,15,6,10.52,6,10.52-12.49-3-18.57,12.6,11.64,24.08,18,22.13,11.15-5.7,12-12.77"></path><path class="cls-22" d="M142.58,430.46c20.57,4.55,10.54,23.28,2.62,29.11s-17.78-2.32-17.78-2.32c-6.73-7.11-5.1-31.72,15.2-27"></path><path class="cls-19" d="M156.94,486,196.74,471l5.63-2.12c1.58-.6.89-3.16-.71-2.56l-39.8,15.05-5.63,2.12c-1.58.6-.89,3.16.71,2.56Z"></path><path class="cls-19" d="M160.32,484.54,170.73,492l1.5,1.08a1.33,1.33,0,0,0,1.81-.48,1.35,1.35,0,0,0-.47-1.81l-10.42-7.48-1.49-1.07a1.35,1.35,0,0,0-1.82.47,1.37,1.37,0,0,0,.48,1.82Z"></path><path class="cls-19" d="M166.54,482.13l11.55,8.29,1.66,1.19a1.32,1.32,0,1,0,1.33-2.28L169.54,481l-1.66-1.19a1.33,1.33,0,0,0-1.34,2.29Z"></path><path class="cls-19" d="M172.77,479.73l10.85,7.79,1.56,1.12a1.32,1.32,0,1,0,1.34-2.28l-10.86-7.8-1.56-1.12a1.34,1.34,0,0,0-1.81.47,1.36,1.36,0,0,0,.48,1.82Z"></path><path class="cls-19" d="M179,477.32l9.08,6.52,1.31.94a1.33,1.33,0,0,0,1.81-.48,1.35,1.35,0,0,0-.48-1.81L181.63,476l-1.3-.93a1.32,1.32,0,0,0-1.81.47,1.35,1.35,0,0,0,.47,1.81Z"></path><path class="cls-19" d="M185.21,474.92l6.86,4.92,1,.71a1.32,1.32,0,0,0,1.81-.48,1.36,1.36,0,0,0-.48-1.81l-6.85-4.92-1-.71a1.33,1.33,0,0,0-1.81.48,1.36,1.36,0,0,0,.47,1.81Z"></path><path class="cls-19" d="M191,472.65l4.59,3.3.66.47A1.32,1.32,0,0,0,198,476a1.36,1.36,0,0,0-.47-1.82L193,470.84l-.66-.48a1.34,1.34,0,0,0-1.82.48,1.36,1.36,0,0,0,.48,1.81Z"></path><path class="cls-19" d="M165.9,439.89l8.21-3.79,1.16-.53a1.32,1.32,0,1,0-1.33-2.29l-8.22,3.79-1.16.53a1.34,1.34,0,0,0-.47,1.82,1.36,1.36,0,0,0,1.81.47Z"></path><path class="cls-19" d="M166.88,433.29l9.59-4.36,1.38-.62a1.33,1.33,0,0,0,.47-1.81,1.36,1.36,0,0,0-1.81-.48l-9.6,4.36-1.37.62a1.33,1.33,0,1,0,1.34,2.29Z"></path><path class="cls-19" d="M167.85,426.69l9.75-4.43,1.39-.64a1.34,1.34,0,0,0,.48-1.81,1.36,1.36,0,0,0-1.81-.48l-9.75,4.44-1.39.63a1.32,1.32,0,1,0,1.33,2.29Z"></path><path class="cls-19" d="M168.83,420.09l8.46-3.9,1.19-.55a1.35,1.35,0,0,0,.48-1.82,1.37,1.37,0,0,0-1.82-.47l-8.45,3.9-1.2.55a1.34,1.34,0,0,0-.47,1.82,1.36,1.36,0,0,0,1.81.47Z"></path><path class="cls-19" d="M169.81,413.49l6.31-2.91.9-.42a1.33,1.33,0,0,0,.47-1.81,1.36,1.36,0,0,0-1.81-.47l-6.32,2.91-.89.41A1.35,1.35,0,0,0,168,413a1.37,1.37,0,0,0,1.82.47Z"></path><path class="cls-19" d="M170.57,407.93l3.93-1.81.55-.26a1.31,1.31,0,0,0,.61-.79,1.34,1.34,0,0,0-.13-1,1.4,1.4,0,0,0-.8-.61,1.57,1.57,0,0,0-1,.13l-3.92,1.81-.55.26a1.31,1.31,0,0,0-.61.79,1.34,1.34,0,0,0,.13,1,1.38,1.38,0,0,0,.79.61,1.56,1.56,0,0,0,1-.13Z"></path><path class="cls-19" d="M166.17,437.81l-10.8-9.63-1.52-1.35c-1.26-1.13-3.14.73-1.87,1.87l10.81,9.64,1.51,1.35c1.27,1.13,3.15-.74,1.87-1.88Z"></path><path class="cls-19" d="M167.16,431.21l-10.92-9.62-1.55-1.36a1.35,1.35,0,0,0-1.87,0,1.33,1.33,0,0,0,0,1.87l10.92,9.63,1.55,1.36a1.33,1.33,0,0,0,1.87-1.88Z"></path><path class="cls-19" d="M168.15,424.62l-9.68-8.54-1.35-1.19a1.34,1.34,0,0,0-1.87,0,1.32,1.32,0,0,0,0,1.87l9.67,8.53,1.36,1.2a1.35,1.35,0,0,0,1.87,0,1.33,1.33,0,0,0,0-1.87Z"></path><path class="cls-19" d="M169.14,418l-7.9-7-1.11-1a1.36,1.36,0,0,0-1.87,0,1.34,1.34,0,0,0,0,1.88l7.9,7,1.11,1a1.32,1.32,0,0,0,1.87-1.87Z"></path><path class="cls-19" d="M170.13,411.42l-5.88-5.24-.82-.73a1.32,1.32,0,0,0-1.87,1.87l5.87,5.24.83.73a1.32,1.32,0,0,0,1.87-1.87Z"></path><path class="cls-19" d="M171,405.87l-4.05-3.6-.56-.51a1.33,1.33,0,0,0-1.88,1.87l4.05,3.61.56.51a1.33,1.33,0,0,0,1.88-1.88Z"></path><path class="cls-19" d="M162.22,483l3.06-13.62.43-1.94c.38-1.66-2.18-2.37-2.55-.7l-3.06,13.62-.44,1.94c-.37,1.66,2.18,2.37,2.56.7Z"></path><path class="cls-19" d="M168.47,480.67l3.23-14.39.46-2c.37-1.67-2.18-2.37-2.55-.71l-3.24,14.39-.46,2.05c-.37,1.66,2.18,2.37,2.56.7Z"></path><path class="cls-19" d="M174.72,478.33l2.93-13.05.42-1.86c.37-1.66-2.18-2.37-2.56-.71l-2.93,13.06-.42,1.86c-.37,1.66,2.18,2.37,2.56.7Z"></path><path class="cls-19" d="M181,476l2.46-10.92.35-1.55c.37-1.66-2.18-2.37-2.56-.71l-2.45,10.92-.35,1.56c-.37,1.66,2.18,2.37,2.55.7Z"></path><path class="cls-19" d="M187.21,473.65l1.85-8.24.27-1.18a1.33,1.33,0,0,0-2.56-.7l-1.85,8.24-.26,1.18a1.32,1.32,0,1,0,2.55.7Z"></path><path class="cls-19" d="M193,471.54l1.24-5.53.18-.78a1.32,1.32,0,1,0-2.55-.71L190.63,470l-.18.79a1.32,1.32,0,0,0,2.55.71Z"></path><path class="cls-23" d="M117.57,422.55c7.7-5.36,23.53-1.17,25,7.91s-5,22-20.68,20.06S109.81,428,117.57,422.55Z"></path><path class="cls-24" d="M118.56,432.5a27,27,0,0,0-.27,3.66.88.88,0,0,0,1.61.49l1.89-2.86a.87.87,0,0,1,1.18-.28,9.28,9.28,0,0,0,5.52,1.34.88.88,0,0,0,.38-1.63l-2.78-1.65a.88.88,0,0,1-.18-1.37l1.82-1.85a.88.88,0,0,0-.9-1.45l-1,.33a.87.87,0,0,1-1.11-.58l-1-3.14a.88.88,0,0,0-1.69,0,7.36,7.36,0,0,0-.18,3.77.87.87,0,0,1-1,1.08,12,12,0,0,1-2.95-1.08.88.88,0,0,0-1.19,1.18l1.76,3.49A.81.81,0,0,1,118.56,432.5Z"></path><path class="cls-23" d="M184.76,444.76c4.06,9.48,17.49,13.15,30.07,4.57s3.67-26.88-11.09-28.69S180.81,435.53,184.76,444.76Z"></path><path class="cls-24" d="M201.14,436.29a40.25,40.25,0,0,1,7.4,1.39,1.08,1.08,0,0,1,.69,1.33c-.36,1.25-1,3.52-1.76,5.58a1.09,1.09,0,0,0,1.81,1.12,17.64,17.64,0,0,0,4.35-7.86,1.1,1.1,0,0,1,1-.83h0a1.09,1.09,0,0,0,.35-2.09l-2.14-.92a1.1,1.1,0,0,1-.66-1.09l.39-4.68a1.09,1.09,0,0,0-2-.63c-.57,1-1.18,2-1.78,2.9a1.09,1.09,0,0,1-1.89-.15,9.14,9.14,0,0,0-2.05-2.87,1.09,1.09,0,0,0-1.81,1.07l.77,2.89a1.1,1.1,0,0,1-.49,1.21l-2.63,1.62A1.09,1.09,0,0,0,201.14,436.29Z"></path><path class="cls-6" d="M527.13,124.55c-22,5.19-37.19-11.15-41-28.14-.51-2.28-1.17-5-2-8a296.11,296.11,0,0,0-40.9-19.92c-33.22-13.4-57.44-15.12-70.4-14.68-9,10.52-14.19,22.39-23.63,20.38-15.1-3.22-2.91-15.94-6.71-26s-21.27-5.61-24.22,2.24C313.43,63.36,325,94.62,353.23,88s33.63-19,40.42-15.22-9.26,49.92,18,50.13,31.17-26.17,42.65-16.19C466,117,452,129.51,437.4,135.86c0,0-18.77,64.3,36.3,77.81,36.46,9,55.73-19.56,57.29-33.67,0,0,22.16-3,26.51-21.52S549.13,119.35,527.13,124.55Z"></path><path class="cls-18" d="M377.2,429.88c18.56,3.06,50.45-20.29,77.24-51.66,37.34-43.72,64.77-103,32.37-128.21-34.29-26.67-80.94,14.73-111.72,50.45a437.65,437.65,0,0,0-32.18,42.3c-15-14-36.87-24.17-58.2-33.27-8.59-3.67-17.1-7.16-25-10.66l-24.77,45c6.84,4.81,14.55,10.37,22.81,16.3C297.1,388.45,348.84,425.22,377.2,429.88Z"></path><path class="cls-25" d="M232.2,289.84c-1.46-6.46-10.28-16.15-20.26-21.44-5-2.64-9.39-7.62-12.55-11.95-5.4,3.21-8.34-2.56-8.34-2.56.61-3.56,1.53-4.4,2.79-5.44-1.4.13-5.51,1.1-6,7.91-.59,8.22,22,20.56,8.52,23.4-10.09,2.13-19.7-16.1-23.92-25.44a5.32,5.32,0,0,0-6.47-2.87c4.08,7.73,2.05,11.79-.86,12.37A121.76,121.76,0,0,0,178.74,284c-4.91-.79-11.93-9.73-16-15.56a4.91,4.91,0,0,0-6-1.65c.8,1.33,1.78,3,2.74,4.91,1.9,3.69-.56,5.55-3.32,5.18,5.44,8.77,16.49,18.58,16.49,18.58-2.47-1.14-7.39-6.58-10.57-10.28a4.23,4.23,0,0,0-5.49-.83c4.22,5.32,2.25,8,.4,8.74l-.41-.49c7.47,12.1,22.83,19.89,22.83,19.89,21.74,9.11,55.56,31.39,55.56,31.39l24.77-45Z"></path><path class="cls-26" d="M166,251.45a7,7,0,0,0-.94.4,5.31,5.31,0,0,0-2.41,6.59c.73,1.8,1.57,3.61,2.49,5.38C168,263.24,170.06,259.18,166,251.45Z"></path><path class="cls-26" d="M159.4,271.67c-1-1.87-1.94-3.58-2.74-4.91a4.77,4.77,0,0,0-1.54,1.09,4.92,4.92,0,0,0-1,5.34,27.69,27.69,0,0,0,1.93,3.66C158.84,277.22,161.3,275.36,159.4,271.67Z"></path><path class="cls-26" d="M156.51,284.32a4,4,0,0,0-.73.58,4.28,4.28,0,0,0-.81,4.89c.46.95,1,1.87,1.53,2.78l.41.49C158.76,292.33,160.73,289.64,156.51,284.32Z"></path><path class="cls-26" d="M191.05,253.89s2.94,5.77,8.34,2.56a71.12,71.12,0,0,1-5.08-8,3.29,3.29,0,0,0-.47,0C192.58,249.49,191.66,250.33,191.05,253.89Z"></path></g></g></svg>