<svg xmlns="http://www.w3.org/2000/svg" viewBox="0 0 175.37 101.75"><defs><style>.cls-1{fill:#f85858;}.cls-2{fill:#79081c;}.cls-3{fill:#d34747;}.cls-4{fill:#eaeaea;}</style></defs><g id="Capa_2" data-name="Capa 2"><g id="Capa_1-2" data-name="Capa 1"><path class="cls-1" d="M137.84,32.32h21c9.15,0,16.57-6.94,16.57-15.51h0c0-7.89-6.34-14.54-14.73-15.4-36.57-3.78-89.92.82-124.83,4.81A40.38,40.38,0,0,0,0,45.77H0A40.36,40.36,0,0,0,36.84,86.53l44,3.87L86,91.53l17.3-54.16,34.55-5"></path><path class="cls-1" d="M106,39l25.31.8A8,8,0,0,1,139,47.1l.44,5.37a8.34,8.34,0,0,1-7.65,9L95.28,64.33a6.11,6.11,0,0,1-6.59-6.09h0S89.9,47.07,94.6,41.85,106,39,106,39Z"></path><path class="cls-1" d="M46.54,14.17s56.61-7,81.25-3.06a13.84,13.84,0,0,1,11.58,15.21l-.07.64a13.06,13.06,0,0,1-14.18,11.57s-14.75-1.21-19-1.29L99.77,48.19A22.92,22.92,0,0,1,78.21,59.53L54,57.69Z"></path><path class="cls-2" d="M103.75,43.48c4.55,1,9.41,3.43,9,8.92-.82,10.13-22.87,8.09-22.87,8.09l-.29-2.79,5.91-3.62,4.59-5.22Z"></path><path class="cls-1" d="M124.65,82.55l-23.57-1.27-18.5-2.34-.13.71L81,89.45a10.7,10.7,0,0,0,10.37,12.24c7.9.18,16.29,0,22.28-.3a11.07,11.07,0,0,0,10.55-9.85,74.46,74.46,0,0,0,.44-9"></path><path class="cls-2" d="M81.34,93.27s15.76,2.36,16.2-4.75c.41-6.67-14.35-7.86-14.35-7.86A26.58,26.58,0,0,0,81.34,93.27Z"></path><path class="cls-2" d="M136.53,34.37s-24.41.66-22.7-11.12S138,17.84,138,17.84l1.64,3-.13,6.88-1.62,4.6Z"></path><path class="cls-3" d="M133.56,61a5.45,5.45,0,0,1,4.25,6.25L136.33,76a7.92,7.92,0,0,1-8.13,6.6c-10.65-.43-31.27-1.46-45.8-3.44a9,9,0,0,1-7.76-8.91h0a9,9,0,0,1,8.92-9l5.74,0Z"></path><path class="cls-2" d="M77.34,63.81l-2.16,3.37-.43,2.88,1.28,5,1.31.84s17.71,2.45,17.71-5.8-17.71-6.28-17.71-6.28"></path><path class="cls-4" d="M54.47,56.69l21.14,1.6,3,.23a22.46,22.46,0,0,0,8.62-1,21.94,21.94,0,0,0,8.65-5.3,25.3,25.3,0,0,0,4-5.34l5.9-10.14a1,1,0,0,1,1.73,1l-5.4,9.3A36.43,36.43,0,0,1,99,51.8a23.61,23.61,0,0,1-8.23,6.47A24.22,24.22,0,0,1,80.5,60.6c-1.18,0-2.36-.11-3.53-.2l-12.45-.94-10-.76c-1.28-.1-1.3-2.11,0-2Z"></path><path class="cls-4" d="M91.34,36.84a37.85,37.85,0,0,1,7.36-.7c3.34-.07,6.69,0,10,.17,3.6.17,7.19.41,10.78.69,1.73.14,3.45.28,5.18.44a15.42,15.42,0,0,0,4.6-.1,12.13,12.13,0,0,0,7.36-4.78A13.44,13.44,0,0,0,139,24.44,13,13,0,0,0,127.9,12.06,104.86,104.86,0,0,0,114,11c-5.51-.14-11-.05-16.53.14-10.91.38-21.79,1.17-32.65,2.18q-5.87.54-11.71,1.17c-1.91.21-3.83.5-5.75.65l-.26,0c-1.28.16-1.27-1.85,0-2,5-.62,10.08-1.13,15.13-1.61,11-1.05,21.92-1.89,32.9-2.34,10.62-.43,21.45-.72,32,.72a16.42,16.42,0,0,1,8.18,3.16,15.08,15.08,0,0,1-.37,24,14,14,0,0,1-9,2.51c-3.59-.26-7.17-.63-10.76-.87A134.12,134.12,0,0,0,95,38.34a23.28,23.28,0,0,0-3.11.44c-1.26.28-1.8-1.66-.53-1.94Z"></path><path class="cls-4" d="M80.28,60.84c2.5-.91,5.45-.6,8.06-.62h1a1,1,0,0,1,0,2c-1.9,0-3.79,0-5.68.05a8,8,0,0,0-4.14,14.81,12.83,12.83,0,0,0,5.31,1.38c2,.26,4.06.48,6.09.69,8.62.87,17.27,1.45,25.92,1.91q5.25.28,10.52.49a8.06,8.06,0,0,0,4.88-1,7,7,0,0,0,3-4.13c.59-2.26.82-4.66,1.21-7,.13-.81.31-1.63.41-2.46a4.51,4.51,0,0,0-3.55-5,.85.85,0,0,1-.7-.72l.36,0a3.13,3.13,0,0,0,2.18-.79,6.58,6.58,0,0,1,3.41,3.76,7.76,7.76,0,0,1,.11,4l-1.25,7.42a9.2,9.2,0,0,1-5.81,7.37,13.65,13.65,0,0,1-5.47.46l-5.56-.26c-9.24-.45-18.49-1-27.71-1.91-2.32-.22-4.64-.46-6.95-.74a22.25,22.25,0,0,1-6.23-1.19,10,10,0,0,1,.61-18.58Z"></path></g></g></svg>