<svg xmlns="http://www.w3.org/2000/svg" viewBox="0 0 240.85 240.48"><defs><style>.cls-1{fill:#ccabd6;}</style></defs><g id="Capa_2" data-name="Capa 2"><g id="Capa_1-2" data-name="Capa 1"><path class="cls-1" d="M151.26,19.3l.46.25.59.3.66.3c.23.1.45.19.65.26a12,12,0,0,0,2.45.57,7.06,7.06,0,0,0,2.16-.06,8.19,8.19,0,0,0,2.06-.69A16.76,16.76,0,0,0,162.47,19l.17.28L159.14,23c-.24-.11-.49-.22-.75-.32s-.51-.2-.76-.28l-8.31-2.78c-.43-.15-.86-.28-1.29-.41s-.87-.25-1.3-.36l.09-.27a4.37,4.37,0,0,0,1.31.17,1.32,1.32,0,0,0,.85-.33,2.4,2.4,0,0,0,.61-.89c.17-.39.36-.9.57-1.51l2.47-7.38c.2-.62.36-1.14.46-1.56a2.66,2.66,0,0,0,0-1.07,1.39,1.39,0,0,0-.5-.79,4.94,4.94,0,0,0-1.18-.66l.09-.27,1.41.53c.44.16.9.33,1.38.49l1.52.53,1.82.61,3.11,1c1,.33,2.08.66,3.16,1a4.89,4.89,0,0,0-.2.48c-.06.16-.12.31-.17.46l-.29.88c-.11.33-.21.66-.29,1s-.17.72-.28,1.12h-.31a6.06,6.06,0,0,0-.18-2A3.8,3.8,0,0,0,161.47,9a4.11,4.11,0,0,0-1.21-1,9.52,9.52,0,0,0-1.55-.67c-1-.34-2.07-.64-3.13-.9l-1.85,5.52.86.27c.27.07.56.16.85.26a4.46,4.46,0,0,0,2.63.2,3.12,3.12,0,0,0,1.83-1.85l.27.08c-.18.53-.36,1.06-.56,1.59s-.37,1-.54,1.56-.35,1.06-.51,1.6l-.51,1.6-.27-.09a6.81,6.81,0,0,0,0-1.68,2.43,2.43,0,0,0-.42-1.13,2.5,2.5,0,0,0-.93-.78A8.59,8.59,0,0,0,155,13l-1.41-.48Z"></path><path class="cls-1" d="M170.39,11l1.33.81c.42.25.91.54,1.48.85.3.17.6.32.89.47l.91.42c0,.35.13.88.26,1.6l.45,2.48c.17.92.35,1.91.55,3s.39,2.07.56,3.07.34,1.91.48,2.76.24,1.55.3,2.08l0,0,.68-1.21c.23-.39.46-.8.69-1.2l1.31-2.37c.48-.87.87-1.64,1.17-2.32a6.68,6.68,0,0,0,.53-1.82,2.57,2.57,0,0,0-.22-1.43A3,3,0,0,0,180.71,17l.14-.24,1.4.86c.47.28.95.55,1.42.81s.88.48,1.34.72.91.46,1.36.67l-.14.25a3,3,0,0,0-2.17-.24,3.14,3.14,0,0,0-1.47,1.52l-6,10.8-.76-.42c-.1-1.58-.26-3.16-.48-4.72s-.47-3.07-.75-4.52-.55-2.81-.85-4.08S173.2,16,173,15c-.2.35-.41.69-.6,1s-.39.68-.59,1l-2,3.56c-.67,1.21-1.18,2.18-1.51,2.9a4.88,4.88,0,0,0-.55,1.8,1.61,1.61,0,0,0,.4,1.21,7.23,7.23,0,0,0,1.33,1.13l-.14.24c-.67-.41-1.34-.8-2-1.18l-2-1.14c-.4-.22-.79-.43-1.18-.62L163,24.36l.13-.24,1.32.48a2.67,2.67,0,0,0,1,.17,1.58,1.58,0,0,0,.85-.33,3.7,3.7,0,0,0,.81-1l5.43-9.22a6.36,6.36,0,0,0-1-1.63,15.61,15.61,0,0,0-1.31-1.39Z"></path><path class="cls-1" d="M192.62,44.78c-.4-.43-.81-.85-1.22-1.26l-1.26-1.23-1.26-1.16c-.42-.38-.87-.76-1.33-1.16l.2-.2a5,5,0,0,0,1.16.75,1.41,1.41,0,0,0,.94.09,2.48,2.48,0,0,0,.94-.54c.32-.29.7-.66,1.15-1.14l5.36-5.64c.45-.48.8-.88,1.07-1.22a2.43,2.43,0,0,0,.49-1,1.46,1.46,0,0,0-.13-.93,4.93,4.93,0,0,0-.79-1.1l.19-.2L199.2,30l1.1,1.07A18.7,18.7,0,0,0,202,32.49a20.49,20.49,0,0,1,1.68,1.43,5.74,5.74,0,0,1,1.09,1.47,6.22,6.22,0,0,1,.64,1.86,4.88,4.88,0,0,1-.06,1.94,3.69,3.69,0,0,1-1,1.73,3.22,3.22,0,0,1-1.67,1,4.16,4.16,0,0,1-1.79,0,5.63,5.63,0,0,1-1.74-.7,8.58,8.58,0,0,1-1.49-1.13,14.42,14.42,0,0,1-1-1.05,6.3,6.3,0,0,1-.81-1.24l-2.41,2.53c-.45.48-.8.88-1.07,1.22a2.43,2.43,0,0,0-.49,1,1.46,1.46,0,0,0,.13.93,4.93,4.93,0,0,0,.79,1.1Zm3.82-7.55a4,4,0,0,0,.56,1.09,7.57,7.57,0,0,0,.8.9A4.26,4.26,0,0,0,199,40a3.48,3.48,0,0,0,1.27.34,2.93,2.93,0,0,0,1.26-.2,3.12,3.12,0,0,0,1.16-.79,4.43,4.43,0,0,0,.93-1.41,3.5,3.5,0,0,0-.06-2.88,4.31,4.31,0,0,0-.94-1.27c-.2-.19-.45-.4-.75-.64a4.11,4.11,0,0,0-1-.55Z"></path><path class="cls-1" d="M202.86,54.45c.06.13.14.28.24.46s.2.37.32.58l.37.62a4.52,4.52,0,0,0,.4.58,11.92,11.92,0,0,0,1.7,1.85,6.88,6.88,0,0,0,1.82,1.17,8.2,8.2,0,0,0,2.08.59,16.32,16.32,0,0,0,2.53.16l0,.33-5,1.15c-.13-.23-.28-.46-.43-.69s-.32-.46-.48-.67l-5.3-7c-.27-.36-.55-.72-.83-1.07s-.58-.69-.88-1l.23-.17a4.68,4.68,0,0,0,1,.89,1.36,1.36,0,0,0,.89.2,2.58,2.58,0,0,0,1-.4,15.63,15.63,0,0,0,1.32-.93l6.2-4.71a15.53,15.53,0,0,0,1.25-1,2.41,2.41,0,0,0,.65-.86,1.34,1.34,0,0,0,0-.93,5.15,5.15,0,0,0-.6-1.21l.22-.17.88,1.23c.27.38.56.78.86,1.18s.62.84,1,1.29l1.16,1.53c.66.87,1.32,1.73,2,2.59s1.36,1.72,2.06,2.59l-.43.28-.4.29-.74.56c-.27.21-.54.43-.8.67l-.86.77L216,55a5.49,5.49,0,0,0,1-1.74,3.75,3.75,0,0,0,.18-1.6,4.37,4.37,0,0,0-.45-1.48,9.77,9.77,0,0,0-.91-1.43c-.65-.86-1.35-1.7-2.08-2.51L209,49.76l.56.7c.19.22.38.45.56.7a4.5,4.5,0,0,0,2.06,1.64,3.11,3.11,0,0,0,2.56-.5l.17.22-1.35,1c-.46.33-.9.65-1.33,1s-.89.69-1.32,1l-1.33,1-.17-.22a7.22,7.22,0,0,0,1-1.38,2.52,2.52,0,0,0,.29-1.17,2.74,2.74,0,0,0-.33-1.17,10.84,10.84,0,0,0-.88-1.35l-.9-1.19Z"></path><path class="cls-1" d="M217.43,80.22l-1.92-3.72a40.72,40.72,0,0,1,1.68-3.93A26.5,26.5,0,0,1,219.35,69a5.43,5.43,0,0,1-.23-.55c-.08-.23-.17-.47-.25-.71s-.15-.49-.22-.73a5.61,5.61,0,0,1-.13-.6L215.29,68c-.58.3-1,.56-1.42.79a2.35,2.35,0,0,0-.78.75,1.41,1.41,0,0,0-.18.92,5.2,5.2,0,0,0,.39,1.31l-.25.13c-.24-.54-.49-1.07-.75-1.6s-.52-1.06-.79-1.59-.53-1-.8-1.5-.54-1-.83-1.46l.25-.13a4.55,4.55,0,0,0,.83,1,1.38,1.38,0,0,0,.84.36,2.2,2.2,0,0,0,1.06-.21c.4-.16.88-.39,1.46-.69l6.92-3.56c.58-.3,1-.57,1.41-.8a2.33,2.33,0,0,0,.78-.74,1.46,1.46,0,0,0,.2-.9,4.86,4.86,0,0,0-.37-1.28l.25-.13c.2.46.4.91.62,1.36s.43.89.66,1.34c.1.19.23.43.4.71s.36.57.55.88.39.62.58,1,.36.61.49.87a8.45,8.45,0,0,1,.72,1.94,6.23,6.23,0,0,1,.14,2,4.63,4.63,0,0,1-.64,1.87,3.76,3.76,0,0,1-1.57,1.42,3.43,3.43,0,0,1-1.42.4,3.49,3.49,0,0,1-1.33-.19,4.13,4.13,0,0,1-1.21-.67,5.58,5.58,0,0,1-1-1c-.23.36-.49.78-.77,1.26s-.55,1-.81,1.53-.51,1.11-.74,1.69a12.09,12.09,0,0,0-.54,1.75,8.45,8.45,0,0,0-.2,1.69,3.8,3.8,0,0,0,.27,1.52ZM219.22,66a6.29,6.29,0,0,0,.64,2.11,4.34,4.34,0,0,0,2,2.12,3.41,3.41,0,0,0,2.88-.36,3.29,3.29,0,0,0,1.1-.9,3.19,3.19,0,0,0,.58-1.2,3.71,3.71,0,0,0,.09-1.37,4,4,0,0,0-.42-1.34c-.18-.35-.37-.68-.57-1a5.28,5.28,0,0,0-.69-.87c-.67.31-1.35.63-2,1s-1.42.71-2.2,1.11Z"></path><path class="cls-1" d="M231.19,80.67a3.11,3.11,0,0,0,.94-.41,1.38,1.38,0,0,0,.44-.53,1.57,1.57,0,0,0,.1-.69c0-.26,0-.55-.06-.88l.27-.08q.23.94.48,1.86c.16.61.34,1.23.52,1.85q.21.67.42,1.32c.15.44.3.87.47,1.31l-.27.08a6.06,6.06,0,0,0-.58-1.12,1.77,1.77,0,0,0-.66-.6,1.86,1.86,0,0,0-.87-.16,5.61,5.61,0,0,0-1.16.23L224,85a4.31,4.31,0,0,0-1.68.88,3.32,3.32,0,0,0-.9,1.3,4.15,4.15,0,0,0-.25,1.59,6.81,6.81,0,0,0,.29,1.75,6.06,6.06,0,0,0,1.12,2.22A4.37,4.37,0,0,0,224,93.9a3.4,3.4,0,0,0,1.53.34,4.8,4.8,0,0,0,1.3-.16l6.25-1.87a12.35,12.35,0,0,0,1.49-.53,2.63,2.63,0,0,0,.91-.61,1.57,1.57,0,0,0,.39-.83,4,4,0,0,0,0-1.18l.27-.08c.1.47.22.93.34,1.39s.25.92.38,1.38.24.76.37,1.13.26.74.4,1.12l-.26.08a7.56,7.56,0,0,0-.44-.81,1.42,1.42,0,0,0-.6-.54,2.05,2.05,0,0,0-1-.16,6.13,6.13,0,0,0-1.53.3l-6.67,2a5.31,5.31,0,0,1-2.46.21,4.85,4.85,0,0,1-2-.82,5.81,5.81,0,0,1-1.54-1.65,9,9,0,0,1-1-2.26,8.58,8.58,0,0,1-.35-2.28,6.28,6.28,0,0,1,.36-2.14,5,5,0,0,1,1.14-1.76,4.57,4.57,0,0,1,2-1.12Zm8.27,5.8a8.5,8.5,0,0,1,.88.46.85.85,0,0,1,.43.51c.19.61,0,1-.44,1.13a1,1,0,0,1-.58,0,1.77,1.77,0,0,1-.59-.32l-3.08-2.49-.29-1Z"></path><path class="cls-1" d="M235.93,119.87a8.9,8.9,0,0,0,1.44-.85,6.62,6.62,0,0,0,1.25-1.17,5.26,5.26,0,0,0,.85-1.44,4,4,0,0,0,.27-1.69,4.3,4.3,0,0,0-.59-2.15,1.82,1.82,0,0,0-1.78-.77,2.22,2.22,0,0,0-1.28.44,3.87,3.87,0,0,0-.92,1.07,9.82,9.82,0,0,0-.69,1.49c-.21.56-.42,1.12-.63,1.7s-.45,1.15-.71,1.7a6.31,6.31,0,0,1-.93,1.5,4.53,4.53,0,0,1-1.3,1.09,4,4,0,0,1-1.82.47,4.33,4.33,0,0,1-2-.32,3.94,3.94,0,0,1-1.41-1.07,4.71,4.71,0,0,1-.87-1.61,7.54,7.54,0,0,1-.35-2,7.24,7.24,0,0,1,.05-1.22c0-.42.11-.83.18-1.22s.14-.75.19-1.07A4.16,4.16,0,0,0,225,112a1.66,1.66,0,0,0-.11-.49l-.2-.48c.88-.18,1.73-.38,2.56-.61l2.56-.7.18.29a16.87,16.87,0,0,0-1.65,1.1,9.84,9.84,0,0,0-1.54,1.41,7,7,0,0,0-1.14,1.7,4,4,0,0,0-.4,2,5.44,5.44,0,0,0,.22,1.3,3,3,0,0,0,.53,1.08,2.3,2.3,0,0,0,.88.72,2.76,2.76,0,0,0,1.3.22,2.61,2.61,0,0,0,1.79-.76,6.39,6.39,0,0,0,1.2-1.74,17.41,17.41,0,0,0,.91-2.22,16.78,16.78,0,0,1,.94-2.23,6.6,6.6,0,0,1,1.3-1.74,3,3,0,0,1,2-.77,3.82,3.82,0,0,1,1.67.27,4,4,0,0,1,1.31.88,4.36,4.36,0,0,1,.87,1.34,4.72,4.72,0,0,1,.35,1.65,8.6,8.6,0,0,1,0,1.55c-.06.47-.12.92-.19,1.35s-.14.9-.21,1.34a8.06,8.06,0,0,0-.06,1.41c-.7,0-1.38.07-2,.13s-1.32.13-2,.24Z"></path><path class="cls-1" d="M225.13,125.76a4.63,4.63,0,0,0,.15,1.33,1.35,1.35,0,0,0,.52.75,2.23,2.23,0,0,0,1,.39c.43.07,1,.14,1.61.19l7.76.64c.65.05,1.19.08,1.62.08a2.49,2.49,0,0,0,1.06-.22,1.46,1.46,0,0,0,.64-.68,5,5,0,0,0,.36-1.31l.28,0c-.08.64-.16,1.27-.22,1.88s-.13,1.24-.18,1.89-.08,1-.11,1.54,0,1-.05,1.51l-.28,0a4.5,4.5,0,0,0-.15-1.3,1.34,1.34,0,0,0-.52-.74,2.54,2.54,0,0,0-1-.38c-.43-.07-1-.14-1.61-.19l-7.76-.64c-.65,0-1.19-.08-1.62-.07a2.28,2.28,0,0,0-1.05.21,1.35,1.35,0,0,0-.64.69,4.51,4.51,0,0,0-.37,1.32l-.28,0c.08-.59.15-1.17.22-1.76s.11-1.18.16-1.76.09-1.14.12-1.7.05-1.12.07-1.68Z"></path><path class="cls-1" d="M224,141.05c-.06.13-.13.29-.2.48s-.16.4-.24.62l-.24.68c-.07.24-.13.47-.18.68a11.8,11.8,0,0,0-.32,2.49,7.1,7.1,0,0,0,.28,2.14,8,8,0,0,0,.9,2,14.42,14.42,0,0,0,1.5,2l-.26.21-4.11-3.09c.09-.26.17-.51.25-.78s.14-.54.2-.8l1.91-8.54c.1-.44.19-.88.28-1.33s.16-.89.22-1.33l.28.06a4.74,4.74,0,0,0,0,1.33,1.33,1.33,0,0,0,.42.81,2.45,2.45,0,0,0,.94.51c.41.13.94.27,1.57.41l7.6,1.7q.94.21,1.59.3a2.61,2.61,0,0,0,1.07-.06,1.33,1.33,0,0,0,.73-.58,5.11,5.11,0,0,0,.54-1.24l.27.06c-.13.52-.25,1-.37,1.46s-.24.93-.35,1.42l-.37,1.57c-.12.55-.26,1.18-.42,1.88q-.36,1.59-.69,3.18c-.22,1.07-.44,2.15-.65,3.25l-.5-.15-.47-.12-.91-.2q-.5-.11-1-.18l-1.15-.16,0-.32a5.78,5.78,0,0,0,2-.38,3.72,3.72,0,0,0,1.33-.9,4,4,0,0,0,.84-1.3,9.48,9.48,0,0,0,.51-1.61c.23-1.06.43-2.13.57-3.21l-5.68-1.27c-.07.3-.13.59-.17.88s-.11.57-.18.88a4.51,4.51,0,0,0,.07,2.63,3.14,3.14,0,0,0,2,1.63l-.06.28-1.63-.39-1.61-.39-1.64-.34-1.64-.34.06-.28a6.75,6.75,0,0,0,1.67-.15,2.44,2.44,0,0,0,1.08-.53,2.68,2.68,0,0,0,.68-1,9.18,9.18,0,0,0,.47-1.54l.32-1.46Z"></path><path class="cls-1" d="M228.63,172.09c-.26.5-.51,1-.75,1.51s-.48,1-.71,1.52-.39.91-.58,1.36-.36.91-.54,1.38l-.26-.12a3.77,3.77,0,0,0,.15-1.69,1.69,1.69,0,0,0-1.12-1.2,19,19,0,0,0-1.81-.61c-.85-.25-1.78-.51-2.81-.77l-3.07-.77c-1-.24-1.92-.44-2.65-.58a5.87,5.87,0,0,0-.85-.1,2,2,0,0,0-.73.11,1.91,1.91,0,0,0-.7.48,5,5,0,0,0-.74,1l-.26-.12c.28-.55.55-1.11.82-1.66l.78-1.68c.24-.54.47-1.07.69-1.6s.43-1.06.64-1.61l.25.11c-.09.32-.16.63-.22.93a3,3,0,0,0,0,.84,1.46,1.46,0,0,0,.31.71,2.09,2.09,0,0,0,.81.56l.69.29a9.3,9.3,0,0,0,1,.31l9.23,2.36,0,0c-.84-.85-1.67-1.72-2.47-2.61s-1.61-1.77-2.43-2.64-1.65-1.75-2.5-2.61-1.73-1.7-2.66-2.51v0q3.77.45,7.39.53c2.41,0,4.86,0,7.34,0l0,0c-.73-.46-1.54-1-2.44-1.5s-1.78-1.06-2.64-1.55-1.65-.94-2.37-1.33-1.26-.67-1.63-.83a7.42,7.42,0,0,0-1.25-.45,2.08,2.08,0,0,0-1,0,1.9,1.9,0,0,0-.85.53,5.3,5.3,0,0,0-.77,1.15l-.25-.11.84-1.72c.27-.56.54-1.14.8-1.73q.3-.66.57-1.32c.18-.44.35-.89.52-1.34l.25.11a5.34,5.34,0,0,0-.22,1,3.44,3.44,0,0,0,0,1,2.5,2.5,0,0,0,.26.84,1.6,1.6,0,0,0,.6.64c.46.31.94.62,1.46.93l1.53.94,7.11,4.41a4.19,4.19,0,0,0,1.08-.8,7.5,7.5,0,0,0,.89-1.08l.25.12c-.3.59-.59,1.19-.87,1.79s-.57,1.2-.84,1.8c-.19.44-.38.88-.56,1.32s-.36.89-.52,1.34l-.26-.11a2.53,2.53,0,0,0,0-.91,1,1,0,0,0-.62-.68,2.2,2.2,0,0,0-.75-.2l-.83,0-8.7-.29c1.18,1.39,2.38,2.76,3.6,4.08s2.5,2.62,3.85,3.87a2.07,2.07,0,0,0,.69-.36,4.11,4.11,0,0,0,.57-.53Z"></path><path class="cls-1" d="M205.57,181.09c.37-.47.72-.94,1.07-1.4s.69-.95,1-1.43.66-.94,1-1.41l1-1.48.22.16a5.42,5.42,0,0,0-.57,1.26,1.46,1.46,0,0,0,0,1,2.52,2.52,0,0,0,.68.84,15.64,15.64,0,0,0,1.29,1l6.36,4.48c.53.38,1,.67,1.36.89a2.43,2.43,0,0,0,1,.35,1.4,1.4,0,0,0,.9-.27,4.78,4.78,0,0,0,1-.93l.23.16c-.32.4-.63.8-.94,1.21s-.61.83-.91,1.25q-.63.92-1.17,1.86a19.39,19.39,0,0,1-1.17,1.87,5.72,5.72,0,0,1-1.3,1.3,6,6,0,0,1-1.74.89,4.83,4.83,0,0,1-1.92.23,3.74,3.74,0,0,1-1.87-.7,3.34,3.34,0,0,1-1.24-1.51,4,4,0,0,1-.28-1.77,5.64,5.64,0,0,1,.44-1.81,8.41,8.41,0,0,1,.9-1.65,13.09,13.09,0,0,1,.9-1.13,5.79,5.79,0,0,1,1.11-1l-2.86-2c-.53-.38-1-.67-1.36-.89a2.43,2.43,0,0,0-1-.35,1.4,1.4,0,0,0-.9.27,4.87,4.87,0,0,0-1,.94Zm8,2.68a3.84,3.84,0,0,0-1,.71,6.22,6.22,0,0,0-.78.92,4.61,4.61,0,0,0-.62,1.26,3.73,3.73,0,0,0-.15,1.31,3,3,0,0,0,.38,1.22,3.22,3.22,0,0,0,1,1,4.28,4.28,0,0,0,1.52.71,3.6,3.6,0,0,0,1.49.07,3.43,3.43,0,0,0,1.35-.54,4.07,4.07,0,0,0,1.12-1.11,9,9,0,0,0,.53-.84,3.72,3.72,0,0,0,.39-1.07Z"></path><path class="cls-1" d="M188.52,200.4l2.95-3a42.13,42.13,0,0,1,4.26.39,26.71,26.71,0,0,1,4.1.94,5.27,5.27,0,0,1,.45-.39l.6-.46c.21-.16.42-.3.63-.43l.52-.32-2.58-2.55c-.47-.46-.86-.83-1.19-1.1a2.51,2.51,0,0,0-.95-.52,1.48,1.48,0,0,0-.94.12,5,5,0,0,0-1.13.78l-.2-.2,1.3-1.21c.42-.41.85-.82,1.26-1.24s.8-.82,1.18-1.23.76-.82,1.13-1.24l.2.2a4.7,4.7,0,0,0-.74,1.11,1.37,1.37,0,0,0-.08.91,2.44,2.44,0,0,0,.52.95c.28.32.65.72,1.11,1.18l5.54,5.47c.46.46.86.82,1.19,1.1a2.34,2.34,0,0,0,.95.51,1.38,1.38,0,0,0,.91-.1,4.68,4.68,0,0,0,1.1-.74l.2.19-1.1,1c-.36.35-.71.69-1.06,1.05a7.13,7.13,0,0,0-.55.6c-.22.25-.44.52-.67.8l-.72.84-.68.74a8.79,8.79,0,0,1-1.63,1.28,5.92,5.92,0,0,1-1.9.76,4.56,4.56,0,0,1-2,0,3.82,3.82,0,0,1-1.84-1.06,3.46,3.46,0,0,1-.82-1.22,3.62,3.62,0,0,1-.23-1.33,4.16,4.16,0,0,1,.27-1.36,5.49,5.49,0,0,1,.66-1.3c-.42-.1-.9-.22-1.44-.33s-1.11-.22-1.71-.3-1.21-.14-1.83-.18a11.11,11.11,0,0,0-1.83,0,7.84,7.84,0,0,0-1.67.33,3.85,3.85,0,0,0-1.36.72Zm14.07-2.7a6.09,6.09,0,0,0-1.8,1.26,4.33,4.33,0,0,0-1.39,2.6,3.4,3.4,0,0,0,1.23,2.63,3.25,3.25,0,0,0,1.2.76,3.31,3.31,0,0,0,1.32.19,3.7,3.7,0,0,0,1.33-.35,4,4,0,0,0,1.15-.81c.27-.28.53-.56.77-.85a5.29,5.29,0,0,0,.62-.92c-.51-.55-1-1.1-1.56-1.64s-1.11-1.13-1.74-1.76Z"></path><path class="cls-1" d="M183.56,205.11c-.13,0-.29.13-.47.22l-.59.3-.63.35c-.22.13-.41.25-.59.38a12.39,12.39,0,0,0-1.91,1.64,7.19,7.19,0,0,0-1.22,1.79,8,8,0,0,0-.65,2.07,15.39,15.39,0,0,0-.24,2.51l-.34,0-1-5c.23-.12.46-.26.7-.41s.46-.3.68-.46l7.14-5.08c.36-.26.73-.52,1.08-.8s.72-.55,1.06-.84l.17.23a4.65,4.65,0,0,0-.92,1,1.38,1.38,0,0,0-.23.88,2.62,2.62,0,0,0,.36,1q.33.55.9,1.35l4.51,6.34q.57.8,1,1.29a2.36,2.36,0,0,0,.83.67,1.34,1.34,0,0,0,.93.06,5.25,5.25,0,0,0,1.23-.56l.16.23-1.25.83-1.22.82-1.31.92-1.57,1.12-2.64,1.91c-.88.64-1.76,1.3-2.66,2a5.08,5.08,0,0,0-.27-.43c-.09-.15-.18-.28-.27-.41l-.54-.76c-.2-.28-.41-.55-.64-.82l-.75-.88.2-.25a5.83,5.83,0,0,0,1.71,1,3.94,3.94,0,0,0,1.6.23,4.2,4.2,0,0,0,1.49-.41,9.52,9.52,0,0,0,1.45-.86c.89-.63,1.74-1.3,2.58-2l-3.38-4.75-.72.54q-.33.27-.72.54a4.45,4.45,0,0,0-1.7,2,3.12,3.12,0,0,0,.41,2.58l-.22.16q-.5-.69-1-1.38c-.31-.47-.62-.92-.94-1.36s-.65-.91-1-1.36-.67-.9-1-1.35l.23-.16a7.1,7.1,0,0,0,1.34,1A2.42,2.42,0,0,0,184,213a2.8,2.8,0,0,0,1.17-.29,9.64,9.64,0,0,0,1.38-.84l1.21-.87Z"></path><path class="cls-1" d="M159.15,229.42a9.22,9.22,0,0,0,1.28,1.08,6.84,6.84,0,0,0,1.51.8,5.76,5.76,0,0,0,1.64.33,4.23,4.23,0,0,0,1.69-.3,4.32,4.32,0,0,0,1.83-1.27,1.84,1.84,0,0,0,.14-1.94,2.23,2.23,0,0,0-.84-1.06,3.74,3.74,0,0,0-1.31-.51,9.18,9.18,0,0,0-1.64-.17l-1.81,0c-.62,0-1.23,0-1.84-.1a7,7,0,0,1-1.72-.39,4.6,4.6,0,0,1-1.46-.87,4.1,4.1,0,0,1-1-1.56,4.42,4.42,0,0,1-.35-2,4.05,4.05,0,0,1,.54-1.69A4.79,4.79,0,0,1,157,218.4a7.11,7.11,0,0,1,1.78-1,6,6,0,0,1,1.16-.35c.42-.09.82-.17,1.22-.23l1.07-.18a3.47,3.47,0,0,0,.74-.18,1.29,1.29,0,0,0,.42-.26c.13-.1.26-.22.39-.34.46.77.94,1.51,1.42,2.22s1,1.44,1.51,2.18l-.22.26c-.46-.39-1-.79-1.57-1.19a9.7,9.7,0,0,0-1.85-1,7.24,7.24,0,0,0-2-.52,4,4,0,0,0-2,.27,5.89,5.89,0,0,0-1.16.63,3.46,3.46,0,0,0-.85.86,2.33,2.33,0,0,0-.38,1.07A2.76,2.76,0,0,0,157,222a2.59,2.59,0,0,0,1.31,1.44,6.39,6.39,0,0,0,2,.56,20.45,20.45,0,0,0,2.4.13,14.35,14.35,0,0,1,2.41.16,6.35,6.35,0,0,1,2.07.64,3,3,0,0,1,1.38,1.61,3.84,3.84,0,0,1-.11,3.19,4.38,4.38,0,0,1-1,1.26,5,5,0,0,1-1.44.88,10,10,0,0,1-1.48.47c-.46.1-.9.18-1.34.26l-1.33.25a6.64,6.64,0,0,0-1.35.4c-.26-.65-.52-1.28-.79-1.88s-.56-1.2-.89-1.79Z"></path><path class="cls-1" d="M147.71,228.6l.58-4.45c0-.14,0-.25.05-.35a.82.82,0,0,0,0-.31,1.12,1.12,0,0,0-.39-.65,2.27,2.27,0,0,0-.69-.36,3.58,3.58,0,0,0-.78-.15,5.08,5.08,0,0,0-.65,0l-.06-.27,1.38-.24c.46-.09.92-.18,1.39-.29s.9-.21,1.33-.32l1.36-.37.06.27a3.15,3.15,0,0,0-1.67,1.71,5.6,5.6,0,0,0-.33,1.12c-.08.4-.15.82-.21,1.24l-1.78,10.55-.06.32a.57.57,0,0,0,0,.26,1.19,1.19,0,0,0,.16.33,1.72,1.72,0,0,0,.28.36,5.55,5.55,0,0,0-.95.53l-.87.6-7.64-12A3.52,3.52,0,0,0,137,225a3,3,0,0,0-1.83-.27l-.06-.28c.62-.1,1.21-.21,1.8-.33s1.2-.24,1.84-.38l1.06-.24c.31-.07.58-.13.82-.2l.69-.18.7-.21.06.27a4.35,4.35,0,0,0-1.49.85,1.17,1.17,0,0,0-.42,1.16,1,1,0,0,0,.16.34,2.36,2.36,0,0,1,.2.32l2.42,3.85Zm-1,7,.94-6.27-4.27.95Z"></path><path class="cls-1" d="M130.75,236.32c0,.65.08,1.19.14,1.62a2.5,2.5,0,0,0,.35,1,1.47,1.47,0,0,0,.74.54,4.35,4.35,0,0,0,1.32.19V240h-1.42l-1.42.05a16.51,16.51,0,0,0-1.86.19c-.62.09-1.28.15-2,.19a10.58,10.58,0,0,1-2.07-.11,6.42,6.42,0,0,1-2-.61,4.5,4.5,0,0,1-1.58-1.26,3.5,3.5,0,0,1-.71-2.06,2.93,2.93,0,0,1,.57-1.93,3.4,3.4,0,0,1,1.58-1.26v0a5.32,5.32,0,0,1-2.58-1.44,4.24,4.24,0,0,1-1-2.76,3.22,3.22,0,0,1,.38-1.81,3.47,3.47,0,0,1,1.18-1.2,5.57,5.57,0,0,1,1.71-.69,11,11,0,0,1,2-.27c1.07-.06,2.13-.07,3.16,0s2.09,0,3.16,0c.36,0,.72,0,1.08-.07l1.08-.13,0,.28a4.84,4.84,0,0,0-1.27.32,1.36,1.36,0,0,0-.67.62,2.54,2.54,0,0,0-.24,1.05c0,.43,0,1,0,1.62Zm-2.6-10.09a.8.8,0,0,0-.45-.3,6.13,6.13,0,0,0-.8-.21,9.46,9.46,0,0,0-1-.11,8.07,8.07,0,0,0-1,0,4.11,4.11,0,0,0-2.89,1.14,3.74,3.74,0,0,0-.92,2.92,3.15,3.15,0,0,0,.72,1.84,6,6,0,0,0,1.52,1.34l1.1-.23a8.66,8.66,0,0,1,1.14-.14,14,14,0,0,1,1.45,0,5.67,5.67,0,0,1,1.41.27Zm.36,7.26a4.46,4.46,0,0,0-1.3-.37,7.48,7.48,0,0,0-1.34-.06,3.74,3.74,0,0,0-2.43.95,3.36,3.36,0,0,0-.48,3.84,3.54,3.54,0,0,0,.92,1,3.76,3.76,0,0,0,1.28.64,4.62,4.62,0,0,0,1.49.17c.37,0,.73,0,1.09-.1a4.65,4.65,0,0,0,1.06-.29Z"></path><path class="cls-1" d="M110.25,225.72l-.5-.15-.64-.17-.71-.17a6.15,6.15,0,0,0-.69-.11,12.72,12.72,0,0,0-2.51-.07,7.18,7.18,0,0,0-2.1.51,8,8,0,0,0-1.88,1.09,17.46,17.46,0,0,0-1.87,1.7l-.23-.24,2.66-4.4.8.17.81.12,8.7,1,1.34.13,1.35.09,0,.28a4.62,4.62,0,0,0-1.33.1,1.38,1.38,0,0,0-.76.5,2.53,2.53,0,0,0-.41,1c-.09.42-.17.95-.25,1.6l-.91,7.73c-.08.65-.12,1.19-.14,1.62a2.56,2.56,0,0,0,.17,1.06,1.38,1.38,0,0,0,.65.66,5,5,0,0,0,1.29.41l0,.28-1.49-.22-1.45-.21-1.6-.2-1.91-.23-3.24-.36-3.29-.31.09-.51c0-.17,0-.33.07-.48l.11-.93c0-.34.07-.68.08-1s0-.73,0-1.15l.31-.06a5.82,5.82,0,0,0,.58,1.91,4,4,0,0,0,1,1.24,4.28,4.28,0,0,0,1.38.7,9.45,9.45,0,0,0,1.65.34c1.08.13,2.17.21,3.26.24l.68-5.78c-.31,0-.6-.07-.89-.08l-.89-.09a4.52,4.52,0,0,0-2.61.34,3.1,3.1,0,0,0-1.42,2.19l-.28,0c.06-.56.14-1.11.22-1.67s.15-1.1.22-1.64.12-1.11.17-1.67.11-1.11.18-1.66l.27,0a7.55,7.55,0,0,0,.32,1.64,2.47,2.47,0,0,0,.65,1,2.69,2.69,0,0,0,1.06.57,10.43,10.43,0,0,0,1.59.31l1.48.17Z"></path><path class="cls-1" d="M79.84,233.56,78.27,233l-1.59-.55L75.27,232c-.47-.14-1-.27-1.43-.39l.09-.27a3.69,3.69,0,0,0,1.7,0,1.66,1.66,0,0,0,1.07-1.24,15.88,15.88,0,0,0,.43-1.86c.16-.87.32-1.83.48-2.87s.3-2.09.45-3.14.24-2,.31-2.7a8.21,8.21,0,0,0,0-.85,1.92,1.92,0,0,0-.19-.71,2,2,0,0,0-.54-.65,5.92,5.92,0,0,0-1.09-.64l.08-.26c.58.22,1.16.44,1.74.64s1.16.41,1.75.6,1.12.36,1.66.52,1.1.33,1.67.48l-.09.27c-.32-.06-.63-.1-.94-.13a2.57,2.57,0,0,0-.84.06,1.39,1.39,0,0,0-.67.37,2,2,0,0,0-.48.86q-.09.27-.21.72a7.63,7.63,0,0,0-.21,1.06l-1.4,9.42,0,0c.76-.93,1.55-1.84,2.34-2.73s1.6-1.78,2.38-2.68S85,224,85.72,223.1s1.52-1.91,2.23-2.91h0c0,2.52,0,5,.23,7.4s.45,4.84.77,7.3l0,0c.39-.77.8-1.64,1.25-2.59s.86-1.87,1.27-2.78.76-1.73,1.08-2.49.53-1.32.66-1.71a7.2,7.2,0,0,0,.31-1.29,2.07,2.07,0,0,0-.09-1,1.84,1.84,0,0,0-.61-.79,4.79,4.79,0,0,0-1.23-.65l.09-.27c.61.24,1.21.46,1.79.67l1.81.62c.46.15.91.29,1.37.42s.91.26,1.38.38l-.09.27a5.15,5.15,0,0,0-1-.13,3.3,3.3,0,0,0-1,.1,2.36,2.36,0,0,0-.81.34,1.78,1.78,0,0,0-.58.66c-.26.49-.52,1-.78,1.55s-.52,1.08-.77,1.62l-3.66,7.53a4.33,4.33,0,0,0,.9,1,8.5,8.5,0,0,0,1.17.78l-.09.26c-.62-.24-1.25-.47-1.87-.69l-1.88-.64c-.46-.15-.92-.3-1.37-.43L85,235.25l.08-.27a2.28,2.28,0,0,0,.9-.11,1,1,0,0,0,.62-.69,2.48,2.48,0,0,0,.12-.77c0-.26,0-.53,0-.82l-.6-8.68q-1.91,2-3.69,4t-3.46,4.23a2,2,0,0,0,.43.65,4.07,4.07,0,0,0,.59.51Z"></path><path class="cls-1" d="M70.51,221.62a8,8,0,0,1-2.31,2.56,7.62,7.62,0,0,1-2.88,1.23,8.07,8.07,0,0,1-3.17,0A9.76,9.76,0,0,1,59,224.16,10.09,10.09,0,0,1,56.4,222a8,8,0,0,1-1.56-2.75,7.74,7.74,0,0,1-.3-3.12A8.57,8.57,0,0,1,58,210.29a7.62,7.62,0,0,1,2.88-1.23,8.2,8.2,0,0,1,3.16,0,10.17,10.17,0,0,1,3.16,1.23,10,10,0,0,1,2.59,2.18,8,8,0,0,1,1.56,2.75,7.56,7.56,0,0,1,.3,3.12A7.94,7.94,0,0,1,70.51,221.62Zm-2.13-1.26a8.82,8.82,0,0,0,1-2.56,7.12,7.12,0,0,0,.12-2.59,5.91,5.91,0,0,0-.86-2.35,6,6,0,0,0-4.45-2.63,6.07,6.07,0,0,0-2.47.38A7.22,7.22,0,0,0,59.54,212a8.91,8.91,0,0,0-1.75,2.14,8.68,8.68,0,0,0-1,2.56,6.91,6.91,0,0,0-.13,2.59,6,6,0,0,0,.86,2.35,5.52,5.52,0,0,0,1.92,1.82,5.61,5.61,0,0,0,2.53.81,6.07,6.07,0,0,0,2.47-.38,7.22,7.22,0,0,0,2.21-1.36A8.68,8.68,0,0,0,68.38,220.36Z"></path><path class="cls-1" d="M41.57,205.32A9.14,9.14,0,0,0,41.2,207a7.53,7.53,0,0,0,0,1.71,5.63,5.63,0,0,0,.47,1.61,4,4,0,0,0,1.05,1.35,4.24,4.24,0,0,0,2,1.05,1.84,1.84,0,0,0,1.78-.78,2.18,2.18,0,0,0,.55-1.23,3.83,3.83,0,0,0-.15-1.4,9.36,9.36,0,0,0-.61-1.53l-.8-1.62c-.27-.56-.53-1.12-.76-1.68a6.76,6.76,0,0,1-.45-1.71,4.57,4.57,0,0,1,.1-1.69,4.1,4.1,0,0,1,.9-1.65,4.25,4.25,0,0,1,1.6-1.22,3.81,3.81,0,0,1,1.75-.3,4.67,4.67,0,0,1,1.77.47,7.68,7.68,0,0,1,1.7,1.12,7.82,7.82,0,0,1,.85.87c.27.32.52.65.76,1l.65.87a4.1,4.1,0,0,0,.5.58,1.56,1.56,0,0,0,.43.25l.48.19c-.46.76-.9,1.52-1.31,2.28l-1.24,2.34-.33-.07a16.45,16.45,0,0,0,.33-2,10.44,10.44,0,0,0,0-2.09,7,7,0,0,0-.46-2,4,4,0,0,0-1.16-1.64,5.19,5.19,0,0,0-1.09-.73,3.14,3.14,0,0,0-1.15-.36,2.44,2.44,0,0,0-1.13.15,2.88,2.88,0,0,0-1,.8,2.57,2.57,0,0,0-.67,1.83,6.36,6.36,0,0,0,.44,2.06,19,19,0,0,0,1,2.19,16.9,16.9,0,0,1,1,2.21,6.31,6.31,0,0,1,.38,2.13,2.93,2.93,0,0,1-.79,2,3.86,3.86,0,0,1-1.34,1,4,4,0,0,1-1.54.35,4.27,4.27,0,0,1-1.56-.29,4.63,4.63,0,0,1-1.45-.87,9.47,9.47,0,0,1-1.1-1.09c-.3-.36-.58-.72-.85-1.07l-.84-1.07a7,7,0,0,0-1-1c.45-.53.88-1.06,1.29-1.58a19,19,0,0,0,1.18-1.61Z"></path><path class="cls-1" d="M39.3,187.94a4.29,4.29,0,0,0-.92-.85,1.82,1.82,0,0,0-.75-.32,1.12,1.12,0,0,0-.61,0,2.62,2.62,0,0,0-.5.26l-8.8,6.2a5.68,5.68,0,0,0-.71.56,1.37,1.37,0,0,0-.37.62,1.6,1.6,0,0,0,0,.83,5.81,5.81,0,0,0,.53,1.16l-.23.16c-.2-.35-.42-.69-.64-1s-.44-.68-.67-1a26,26,0,0,0-1.88-2.38A23.48,23.48,0,0,1,22,189.93a10.58,10.58,0,0,1-1.56-3.23,8.86,8.86,0,0,1-.31-3.33,8,8,0,0,1,1-3.12,8.17,8.17,0,0,1,2.41-2.58,7.13,7.13,0,0,1,3.1-1.32,6.41,6.41,0,0,1,2.9.24A7.59,7.59,0,0,1,32.13,178a12.48,12.48,0,0,1,2.13,2.33l1.23,1.77.89,1.3c.26.37.49.7.69,1l.58.84c.31.43.61.85.92,1.26s.62.83,1,1.24Zm-3.83-2.69a4.2,4.2,0,0,0-.19-2,6.93,6.93,0,0,0-.89-1.76c-1.37-1.95-2.88-3-4.51-3.22A7.76,7.76,0,0,0,24.57,180a7.19,7.19,0,0,0-2,2.08,6.93,6.93,0,0,0-.94,5.33,7.77,7.77,0,0,0,3.54,4.87q1-.62,2-1.29c.66-.45,1.34-.91,2-1.4Z"></path><path class="cls-1" d="M27.54,170a4.56,4.56,0,0,0-.81-1.05,1.41,1.41,0,0,0-.84-.38,2.41,2.41,0,0,0-1.06.18c-.4.16-.89.38-1.48.67l-7,3.45c-.59.29-1.06.55-1.43.77a2.26,2.26,0,0,0-.79.73,1.42,1.42,0,0,0-.2.92,4.79,4.79,0,0,0,.36,1.3l-.25.12c-.26-.59-.52-1.17-.78-1.73s-.53-1.13-.82-1.71-.46-.92-.71-1.37-.48-.89-.73-1.33l.25-.12a4.33,4.33,0,0,0,.8,1,1.34,1.34,0,0,0,.83.37,2.41,2.41,0,0,0,1.06-.19c.4-.16.89-.38,1.48-.67l7-3.45c.59-.29,1.06-.54,1.43-.77a2.26,2.26,0,0,0,.79-.73,1.42,1.42,0,0,0,.2-.92,5.07,5.07,0,0,0-.37-1.32l.25-.13c.24.55.48,1.09.73,1.62s.5,1.07.76,1.6.51,1,.77,1.51.53,1,.81,1.48Z"></path><path class="cls-1" d="M18.42,157a8.94,8.94,0,0,0,1.35-.55,1.61,1.61,0,0,0,.66-.63,1.86,1.86,0,0,0,.17-1c0-.39-.07-.9-.16-1.55l.27-.09c.19.65.38,1.28.57,1.9s.4,1.25.61,1.89.38,1.08.58,1.61.4,1.07.61,1.6l-.26.09a5.42,5.42,0,0,0-.67-1.17,1.43,1.43,0,0,0-.79-.5,2.33,2.33,0,0,0-1.08,0,14.91,14.91,0,0,0-1.56.46l-7.37,2.49a15.55,15.55,0,0,0-1.51.59,2.36,2.36,0,0,0-.88.64,1.49,1.49,0,0,0-.31.88,4.51,4.51,0,0,0,.18,1.33l-.27.09c-.05-.21-.13-.49-.23-.83L8,163.25l-.34-1c-.12-.33-.21-.6-.28-.81l-1.62-4.78c-.25-.75-.49-1.41-.71-2s-.43-1.16-.67-1.79c.32-.07.64-.16.94-.24l.91-.28,1.12-.41c.37-.14.75-.29,1.12-.45l.12.35A5.66,5.66,0,0,0,7,153.4a3.51,3.51,0,0,0-.57,1.67,5.58,5.58,0,0,0,.2,1.86c.18.66.39,1.38.65,2.14.09.25.18.5.28.74s.19.51.29.79l5.47-1.86-.6-1.76a3.56,3.56,0,0,0-1.24-1.87,4,4,0,0,0-2.21-.55l-.09-.27c1-.29,2-.61,3-.95l1.46-.51,1.43-.54.08.26a9.73,9.73,0,0,0-1.19.93,2.72,2.72,0,0,0-.68.88,2.17,2.17,0,0,0-.2,1,5.43,5.43,0,0,0,.18,1.27c0,.13.07.28.11.43s.09.3.14.46l.36,1Z"></path><path class="cls-1" d="M16.3,140.26c0-.14,0-.32,0-.52s0-.42,0-.66,0-.48,0-.72a6.77,6.77,0,0,0-.08-.7,11.58,11.58,0,0,0-.64-2.43,6.89,6.89,0,0,0-1.06-1.88,8.69,8.69,0,0,0-1.57-1.51,16.7,16.7,0,0,0-2.15-1.32l.16-.29,5,1.34c0,.27,0,.54.06.82s.07.54.11.8l1.42,8.65c.07.44.15.89.24,1.33s.18.88.29,1.32l-.28,0a4.59,4.59,0,0,0-.46-1.25,1.34,1.34,0,0,0-.69-.6,2.49,2.49,0,0,0-1.07-.12c-.43,0-1,.1-1.61.21L6.22,144c-.64.11-1.17.21-1.59.32a2.58,2.58,0,0,0-1,.45,1.37,1.37,0,0,0-.46.81,5.17,5.17,0,0,0,0,1.35l-.27.05c-.07-.52-.14-1-.2-1.49s-.13-1-.2-1.46-.16-1-.25-1.58-.2-1.2-.31-1.9c-.18-1.07-.36-2.15-.55-3.22s-.4-2.15-.61-3.25l.51-.05.49-.07.92-.15a9.56,9.56,0,0,0,1-.21l1.13-.28.14.28a6,6,0,0,0-1.68,1.09,3.92,3.92,0,0,0-.9,1.33,4.12,4.12,0,0,0-.29,1.53,8.85,8.85,0,0,0,.13,1.67c.18,1.08.4,2.14.66,3.2l5.75-.94c-.05-.31-.1-.6-.17-.88s-.11-.58-.16-.88a4.56,4.56,0,0,0-1.05-2.42,3.14,3.14,0,0,0-2.5-.76l0-.27c.55-.09,1.1-.18,1.66-.25L8,135.81l1.66-.29c.54-.11,1.1-.21,1.65-.3l0,.28a7.06,7.06,0,0,0-1.49.76,2.62,2.62,0,0,0-.81.9,2.75,2.75,0,0,0-.25,1.19A10.11,10.11,0,0,0,9,140l.24,1.47Z"></path><path class="cls-1" d="M15.46,110.68l0,4.19c-1.08,1-2.19,1.86-3.32,2.69a26.67,26.67,0,0,1-3.59,2.19,5,5,0,0,1,0,.59c0,.25-.08.49-.12.75s-.09.5-.14.74-.11.44-.16.6l3.64,0c.65,0,1.19,0,1.61,0a2.37,2.37,0,0,0,1.05-.29,1.42,1.42,0,0,0,.58-.73,5,5,0,0,0,.27-1.35h.28c0,.59-.06,1.18-.08,1.77s0,1.18,0,1.77,0,1.14,0,1.7,0,1.12.05,1.68h-.28a4.8,4.8,0,0,0-.24-1.31,1.42,1.42,0,0,0-.58-.71,2.28,2.28,0,0,0-1-.31c-.43,0-1-.07-1.62-.08l-7.78-.06c-.66,0-1.2,0-1.62,0a2.42,2.42,0,0,0-1,.3,1.41,1.41,0,0,0-.59.7,4.58,4.58,0,0,0-.27,1.31H.08c0-.49.06-1,.08-1.49s0-1,0-1.49q0-.33,0-.81c0-.33,0-.68-.07-1s0-.74-.07-1.11,0-.71,0-1a9.24,9.24,0,0,1,.27-2A5.94,5.94,0,0,1,1.11,116a4.43,4.43,0,0,1,1.43-1.36,3.71,3.71,0,0,1,2.05-.52,3.32,3.32,0,0,1,1.45.3,3.55,3.55,0,0,1,1.08.79,4,4,0,0,1,.76,1.16,5.74,5.74,0,0,1,.43,1.39c.38-.21.8-.46,1.27-.76s.94-.61,1.43-1,1-.75,1.44-1.16a10.48,10.48,0,0,0,1.29-1.29,8.19,8.19,0,0,0,1-1.4,3.89,3.89,0,0,0,.47-1.47ZM7.25,122.42a6,6,0,0,0,.41-2.16,4.28,4.28,0,0,0-.81-2.83,3.41,3.41,0,0,0-2.72-1,3.29,3.29,0,0,0-1.39.28,3.53,3.53,0,0,0-1.08.8A3.86,3.86,0,0,0,1,118.65,4,4,0,0,0,.7,120c0,.39,0,.77,0,1.15a4.55,4.55,0,0,0,.2,1.09c.74,0,1.5.07,2.25.09l2.47,0Z"></path><path class="cls-1" d="M15.73,103.83c0-.13.12-.29.18-.49s.14-.4.21-.62l.21-.7c.07-.24.12-.47.16-.68a12.83,12.83,0,0,0,.23-2.5,7.31,7.31,0,0,0-.37-2.13,8.45,8.45,0,0,0-1-1.95,16.81,16.81,0,0,0-1.58-2l.25-.21,4.22,2.93c-.08.25-.15.52-.21.79s-.13.54-.17.8l-1.58,8.61c-.09.45-.16.89-.22,1.34s-.13.89-.18,1.34l-.27,0a5.13,5.13,0,0,0,0-1.33,1.45,1.45,0,0,0-.45-.8,2.69,2.69,0,0,0-1-.47c-.42-.11-1-.23-1.59-.35L5,104c-.64-.12-1.18-.2-1.6-.24a2.76,2.76,0,0,0-1.08.1,1.37,1.37,0,0,0-.7.61,4.86,4.86,0,0,0-.49,1.26l-.28,0c.11-.52.22-1,.32-1.47s.2-.94.3-1.44.2-1,.3-1.58S2,100,2.09,99.29c.19-1.07.38-2.14.56-3.21s.36-2.16.53-3.27l.5.13.48.1.91.17c.34.06.68.11,1,.14l1.15.11,0,.32a5.7,5.7,0,0,0-1.94.46,3.75,3.75,0,0,0-1.3,1,4,4,0,0,0-.79,1.33,8.83,8.83,0,0,0-.44,1.63c-.2,1.07-.35,2.14-.45,3.23l5.73,1.05c.05-.3.1-.6.14-.89s.08-.58.13-.88A4.41,4.41,0,0,0,8.2,98a3.1,3.1,0,0,0-2.09-1.55l0-.28c.55.1,1.1.21,1.64.33l1.63.32,1.65.28c.56.08,1.11.18,1.66.28l-.05.27A6.83,6.83,0,0,0,11,97.9a2.4,2.4,0,0,0-1.06.57,2.78,2.78,0,0,0-.64,1,9.14,9.14,0,0,0-.4,1.57l-.27,1.46Z"></path><path class="cls-1" d="M4.77,86.05c.23-.5.43-1,.62-1.42s.4-1,.64-1.59c.12-.32.23-.64.33-1s.2-.63.3-1c.33-.09.84-.25,1.54-.48l2.39-.79,2.86-1,3-1c1-.32,1.85-.6,2.68-.86s1.49-.46,2-.59v0l-1.29-.5-1.29-.51-2.52-1c-.93-.35-1.75-.63-2.47-.83a6.21,6.21,0,0,0-1.88-.27,2.59,2.59,0,0,0-1.38.42,2.93,2.93,0,0,0-1,1.24l-.26-.1c.22-.5.44-1,.65-1.51s.41-1,.61-1.53.35-.94.52-1.42.33-1,.48-1.44l.26.1a3,3,0,0,0,.07,2.19,3.15,3.15,0,0,0,1.71,1.24l11.53,4.41-.31.81c-1.55.32-3.08.7-4.6,1.14s-3,.9-4.37,1.37-2.7,1-3.92,1.42L8.41,83l1.09.46,1.11.43,3.81,1.46c1.29.5,2.32.86,3.08,1.09a4.87,4.87,0,0,0,1.86.29,1.61,1.61,0,0,0,1.14-.56,7.09,7.09,0,0,0,.93-1.48l.26.1c-.31.73-.61,1.44-.89,2.13S20.24,88.28,20,89c-.16.42-.31.83-.45,1.25s-.28.83-.41,1.26l-.26-.1c.12-.52.21-1,.29-1.37a2.62,2.62,0,0,0,0-1,1.53,1.53,0,0,0-.44-.79,3.48,3.48,0,0,0-1.11-.67L7.7,83.48a6.2,6.2,0,0,0-1.47,1.18A15.64,15.64,0,0,0,5,86.15Z"></path><path class="cls-1" d="M25.72,55a8.42,8.42,0,0,0-2.07-.33,6.43,6.43,0,0,0-1.93.2,5.25,5.25,0,0,0-1.7.82,5.65,5.65,0,0,0-1.36,1.53,5,5,0,0,0-.8,2.38,4.62,4.62,0,0,0,.43,2.19,6.37,6.37,0,0,0,1.39,1.95,11.54,11.54,0,0,0,2.11,1.64,9.43,9.43,0,0,0,2.47,1.08,6.61,6.61,0,0,0,2.47.23A5.33,5.33,0,0,0,30.82,64a6.37,6.37,0,0,0,1-3.76,10.37,10.37,0,0,0-1.08-3.93l.7-.25a18.26,18.26,0,0,1,1,2.45,8.69,8.69,0,0,1,.41,2.27A7.35,7.35,0,0,1,32.58,63a8.44,8.44,0,0,1-1,2.27,7.39,7.39,0,0,1-2.06,2.21,7.53,7.53,0,0,1-2.69,1.22,8.13,8.13,0,0,1-3,.09,8.47,8.47,0,0,1-3.09-1.18,8.34,8.34,0,0,1-2.44-2.23A7.6,7.6,0,0,1,17,62.67a7.5,7.5,0,0,1-.13-3,7.58,7.58,0,0,1,1-2.83,10.78,10.78,0,0,1,.94-1.31l.93-1.11.9-1a8.26,8.26,0,0,0,.78-1l1,.57c.39.21.79.41,1.2.61l1.22.59c.41.2.76.36,1.06.49Z"></path><path class="cls-1" d="M37,56.25a4.57,4.57,0,0,0,.63-1.17,1.38,1.38,0,0,0,0-.92,2.36,2.36,0,0,0-.61-.9c-.3-.3-.71-.66-1.21-1.07l-6-5c-.5-.41-.93-.74-1.29-1a2.33,2.33,0,0,0-1-.43,1.37,1.37,0,0,0-.91.2,4.79,4.79,0,0,0-1.05.86l-.21-.18c.44-.48.86-1,1.26-1.42s.81-1,1.23-1.45l1-1.2.91-1.21.21.18a4.33,4.33,0,0,0-.61,1.15,1.3,1.3,0,0,0,0,.91,2.51,2.51,0,0,0,.61.88c.31.3.71.66,1.21,1.08l6,5c.5.42.93.75,1.28,1a2.36,2.36,0,0,0,1,.42,1.39,1.39,0,0,0,.92-.19,5.46,5.46,0,0,0,1.06-.88l.21.18c-.4.43-.79.87-1.18,1.32s-.77.89-1.14,1.35-.72.89-1.07,1.33-.68.88-1,1.33Z"></path><path class="cls-1" d="M42.55,40.27l1.72,4.15c0,.12.09.23.12.32a.92.92,0,0,0,.16.27,1.17,1.17,0,0,0,.67.36,2.05,2.05,0,0,0,.78,0,3.91,3.91,0,0,0,.75-.26q.34-.16.57-.3l.19.21c-.37.29-.72.58-1.08.89s-.71.62-1.06.94-.68.63-1,.94-.65.64-1,1l-.19-.2a3.33,3.33,0,0,0,.54-1.18,3.37,3.37,0,0,0,0-1.14,6.26,6.26,0,0,0-.27-1.14c-.13-.38-.28-.78-.43-1.18l-3.73-10a1.85,1.85,0,0,0-.11-.31.47.47,0,0,0-.13-.23,1.14,1.14,0,0,0-.29-.21A2.94,2.94,0,0,0,38.4,33a6.15,6.15,0,0,0,.57-.93q.2-.43.45-1L52,37.64a3.5,3.5,0,0,0,1.64.45,3.13,3.13,0,0,0,1.72-.68l.19.21c-.48.39-.95.79-1.4,1.18s-.92.81-1.4,1.25l-.81.74-.61.58-.5.5c-.15.17-.32.34-.5.53l-.19-.2A4.34,4.34,0,0,0,51,40.72a1.19,1.19,0,0,0-.21-1.22,1,1,0,0,0-.31-.21l-.34-.18-4-2.13Zm-2.61-6.58,2.31,5.91,3.23-3Z"></path><path class="cls-1" d="M71.36,27.24l-3.54,2.25c-1.4-.38-2.75-.82-4.06-1.32A27.57,27.57,0,0,1,60,26.35l-.52.28-.69.31c-.24.1-.47.2-.7.28a5.49,5.49,0,0,1-.59.19l2,3.07a16.09,16.09,0,0,0,.92,1.33,2.42,2.42,0,0,0,.81.72,1.46,1.46,0,0,0,.93.09,5.09,5.09,0,0,0,1.28-.51l.15.24c-.52.29-1,.59-1.53.89s-1,.62-1.51.93-1,.62-1.42.94l-1.38,1-.15-.24a4.59,4.59,0,0,0,1-.92,1.48,1.48,0,0,0,.28-.87,2.28,2.28,0,0,0-.3-1c-.2-.38-.47-.84-.82-1.39L53.47,25c-.35-.55-.66-1-.92-1.33a2.38,2.38,0,0,0-.82-.71,1.41,1.41,0,0,0-.91-.11,4.49,4.49,0,0,0-1.23.48l-.16-.23c.44-.24.87-.49,1.3-.75s.85-.51,1.27-.78a8,8,0,0,0,.67-.47l.83-.62.89-.66c.3-.22.58-.41.82-.57a8.71,8.71,0,0,1,1.87-.89,5.78,5.78,0,0,1,2-.32,4.52,4.52,0,0,1,1.93.46A3.79,3.79,0,0,1,62.59,20a3.39,3.39,0,0,1,.53,1.37,3.6,3.6,0,0,1-.07,1.35A4.39,4.39,0,0,1,62.49,24a6.67,6.67,0,0,1-.93,1.12c.38.2.82.41,1.32.65s1,.46,1.6.67,1.15.4,1.75.58a11.93,11.93,0,0,0,1.79.38,9,9,0,0,0,1.71.05A4,4,0,0,0,71.21,27ZM57,26.75a6.27,6.27,0,0,0,2-.83A4.3,4.3,0,0,0,61,23.69a3.34,3.34,0,0,0-.61-2.83,3.2,3.2,0,0,0-2.25-1.49,3.72,3.72,0,0,0-1.37,0,4,4,0,0,0-1.3.54c-.33.21-.64.43-.94.66a5.79,5.79,0,0,0-.81.76c.38.65.76,1.29,1.16,1.94s.83,1.35,1.31,2.1Z"></path><path class="cls-1" d="M67.26,12.25l1.46-.51c.46-.16,1-.37,1.6-.61.32-.12.63-.26.93-.39l.9-.44c.29.19.76.46,1.4.81l2.2,1.22,2.65,1.45c.94.51,1.85,1,2.73,1.51s1.7.95,2.45,1.38,1.35.79,1.8,1.08l0,0c-.17-.43-.34-.86-.5-1.29s-.33-.86-.51-1.29l-1-2.52c-.37-.92-.72-1.71-1.06-2.37a6.22,6.22,0,0,0-1.07-1.57A2.65,2.65,0,0,0,80,8a3,3,0,0,0-1.57.13l-.1-.26,1.55-.55,1.54-.58c.46-.19.93-.38,1.4-.59s.93-.41,1.38-.62l.1.26a3.1,3.1,0,0,0-1.56,1.53A3.21,3.21,0,0,0,83,9.38l4.57,11.47-.8.32q-1.94-1.38-4-2.61c-1.35-.81-2.68-1.57-4-2.28s-2.53-1.34-3.7-1.92L72,12.82c.14.38.27.75.41,1.12s.28.73.43,1.11l1.51,3.78c.51,1.29.94,2.29,1.28,3a5,5,0,0,0,1.06,1.57,1.58,1.58,0,0,0,1.18.45,7.33,7.33,0,0,0,1.72-.32l.1.26-2.17.79c-.7.26-1.42.54-2.15.83-.42.17-.83.34-1.23.52l-1.2.55-.11-.26c.46-.26.87-.5,1.21-.71a3,3,0,0,0,.78-.69A1.61,1.61,0,0,0,75.1,24a3.66,3.66,0,0,0-.26-1.26l-3.71-10a6.21,6.21,0,0,0-1.86-.28,15.32,15.32,0,0,0-1.91.13Z"></path><path class="cls-1" d="M91.56,11.38a8,8,0,0,1,.08-3.45A7.57,7.57,0,0,1,93,5.11a8.15,8.15,0,0,1,2.41-2.05A10.54,10.54,0,0,1,102,1.87a8.23,8.23,0,0,1,3,1.07,7.77,7.77,0,0,1,2.27,2.16,8,8,0,0,1,1.28,3.2,8,8,0,0,1-.07,3.45,7.74,7.74,0,0,1-1.38,2.82,7.86,7.86,0,0,1-2.41,2,9.94,9.94,0,0,1-3.19,1.14,10.18,10.18,0,0,1-3.39.06,8.18,8.18,0,0,1-3-1.07,7.68,7.68,0,0,1-2.28-2.16A8.1,8.1,0,0,1,91.56,11.38ZM94,10.94a8.52,8.52,0,0,0,.89,2.6,7.29,7.29,0,0,0,1.6,2.05,6,6,0,0,0,2.19,1.21,5.46,5.46,0,0,0,2.65.12,5.56,5.56,0,0,0,2.44-1,6,6,0,0,0,1.62-1.9,7.21,7.21,0,0,0,.78-2.48,9,9,0,0,0-1-5.36,7.12,7.12,0,0,0-1.6-2,6.07,6.07,0,0,0-2.18-1.21,6,6,0,0,0-5.09.92A6.18,6.18,0,0,0,94.7,5.7a7.21,7.21,0,0,0-.78,2.48A8.85,8.85,0,0,0,94,10.94Z"></path><path class="cls-1" d="M124.11,4.77a8.44,8.44,0,0,0-.78-1.48A7,7,0,0,0,122.21,2a5.38,5.38,0,0,0-1.4-.92,4.1,4.1,0,0,0-1.68-.34,4.5,4.5,0,0,0-2.18.5A1.87,1.87,0,0,0,116.11,3a2.26,2.26,0,0,0,.39,1.29,4,4,0,0,0,1,1A9.18,9.18,0,0,0,119,6l1.67.7c.56.24,1.12.49,1.67.77a7.2,7.2,0,0,1,1.46,1,4.66,4.66,0,0,1,1,1.35,4.13,4.13,0,0,1,.4,1.84,4.44,4.44,0,0,1-.41,2A4,4,0,0,1,123.7,15a4.87,4.87,0,0,1-1.65.8,7.57,7.57,0,0,1-3.23.17c-.42-.07-.82-.15-1.21-.24l-1.07-.23a3.74,3.74,0,0,0-.75-.11,1.58,1.58,0,0,0-.49.09l-.49.18c-.14-.88-.31-1.75-.5-2.59s-.4-1.7-.6-2.58l.3-.16A15.73,15.73,0,0,0,115,12a10.47,10.47,0,0,0,1.35,1.61A7.78,7.78,0,0,0,118,14.83a4.07,4.07,0,0,0,2,.47,5.17,5.17,0,0,0,1.31-.16,3.31,3.31,0,0,0,1.1-.48,2.23,2.23,0,0,0,.75-.86,2.54,2.54,0,0,0,.27-1.29,2.58,2.58,0,0,0-.68-1.82A6.51,6.51,0,0,0,121,9.42a21,21,0,0,0-2.18-1,15.83,15.83,0,0,1-2.19-1A6.37,6.37,0,0,1,115,6a3,3,0,0,1-.69-2,3.91,3.91,0,0,1,.34-1.66,3.82,3.82,0,0,1,.94-1.27A4.18,4.18,0,0,1,117,.29,4.79,4.79,0,0,1,118.61,0a9.1,9.1,0,0,1,1.55.11c.46.07.91.16,1.34.25l1.33.26a7.77,7.77,0,0,0,1.4.12c0,.7,0,1.38,0,2s.08,1.32.16,2Z"></path><path class="cls-1" d="M131.38,13.71a1.31,1.31,0,0,1,.68,2.32,1.28,1.28,0,0,1-1,.27,1.25,1.25,0,0,1-.87-.47,1.22,1.22,0,0,1-.29-1,1.29,1.29,0,0,1,1.44-1.16Z"></path><path class="cls-1" d="M73.3,100.13c3.14-12.35,15.55-18.31,27.23-20a69.25,69.25,0,0,1,12.21-.66,1.68,1.68,0,0,0,1.53-2.14,25.82,25.82,0,0,0-1.82-6.08,14.49,14.49,0,0,0-.69-1.42l0,.44a.6.6,0,0,1-.42.3c-.14,0-.14,0,0,0l.25.1c.36.17,1.14.48,1.65.73,2.79,1.38,5.28,3.45,6.28,6.49a1.68,1.68,0,0,0,3,.3l1.9-3,1.32-2.08.37-.59c.22-.37,0,.08-.25.14s-.59-.29-.64-.21.09.44.11.53l.49,2.29.76,3.59a1.67,1.67,0,0,0,2.46.91l7-3.64,1.91-1a5.92,5.92,0,0,0,1.06-.55l.08,0c0,.11-.54,0-.57,0-.26-.11-.24-.21-.35-.46s.08-.24,0-.1a2.16,2.16,0,0,0-.05.27l-.36,2L137,80.64c-.16.93.53,2.23,1.66,2a81.23,81.23,0,0,1,9.71-1c.68,0,1.36,0,2,0,.27,0,1.63.15,1.78,0s-.19-.12-.27-.3,0-.32,0-.51l.19-.19-.39.18-.76.37a26.68,26.68,0,0,0-6.28,4.24,1.67,1.67,0,0,0,.42,2.59c9,5,16.75,12.4,20.84,22a40.26,40.26,0,0,1,2,25.29,50.66,50.66,0,0,1-12.13,22.33,52.77,52.77,0,0,1-9.94,8.44,24.32,24.32,0,0,1-2.82,1.59c-.35.17.17-.07-.1,0l-.33.14-.79.32q-.76.3-1.53.54a30.48,30.48,0,0,1-3.25.86l-.85.16-.4.07c-.24,0,.29,0,0,0l-.27,0c-.59.08-1.18.16-1.77.22a46.29,46.29,0,0,1-7.63.16c-.68,0-1.37-.09-2-.16l-.23,0s.25,0,0,0l-.46-.05-1.08-.13c-1.4-.19-2.79-.43-4.16-.71A65.66,65.66,0,0,1,94,158.66c-1.09-.76-2.37-1.73-3.54-2.7s-2.36-2-3.47-3.08a53,53,0,0,1-6.13-7,49.35,49.35,0,0,1-8.16-17.55,56.25,56.25,0,0,1-.67-22c.33-2.1.76-4.19,1.28-6.25a1.66,1.66,0,0,0-3.22-.78,64.51,64.51,0,0,0-1.58,24.51,53.14,53.14,0,0,0,7,20,57.15,57.15,0,0,0,13,14.82A67.22,67.22,0,0,0,105,168.46a66.08,66.08,0,0,0,17.51,4.71,47.55,47.55,0,0,0,16.14-.58c6-1.36,11-4.7,15.59-8.77a55.84,55.84,0,0,0,15.32-22.34,44.94,44.94,0,0,0,1.56-26.65,46.46,46.46,0,0,0-17.13-25,59.92,59.92,0,0,0-7.28-4.71l.41,2.58a21.19,21.19,0,0,1,3.53-2.56c1.09-.65,2.41-1.08,3.42-1.83a2.75,2.75,0,0,0,.74-3.53c-.74-1.34-2.1-1.43-3.48-1.43a77.1,77.1,0,0,0-12.78,1l1.66,2,.76-4.25c.32-1.74,1.09-3.89-.55-5.21s-3.17-.18-4.63.57l-5,2.61L127.28,77l2.46.91c-.45-2.13-.77-4.35-1.37-6.44a2.78,2.78,0,0,0-5.05-.68c-.62.9-1.17,1.85-1.76,2.77l-2,3.09,3,.3c-1.4-4.26-5-7.23-9-8.94-1-.42-2.09-1-3.19-.64a2.79,2.79,0,0,0-1.88,3.21,8.62,8.62,0,0,0,.77,1.73,20.2,20.2,0,0,1,.79,2,25.21,25.21,0,0,1,1,3.94l1.53-2.14A61.83,61.83,0,0,0,90.85,79c-6.09,2.07-12,5.46-16,10.59a26.17,26.17,0,0,0-4.78,9.74C69.55,101.41,72.77,102.19,73.3,100.13Z"></path><path class="cls-1" d="M117.3,83.55a16.77,16.77,0,0,0,5,3,28.85,28.85,0,0,0,14.42,1.81c1.61-.19,1.54-2.71-.07-2.53a26.15,26.15,0,0,1-13.31-1.57A19.9,19.9,0,0,1,120,82.47c-.06,0-.42-.29-.13-.08l-.2-.15c-.12-.09-.24-.18-.35-.28a3.47,3.47,0,0,1-.29-.25c-1.18-1.12-2.9.72-1.73,1.84Z"></path><g id="qD8hfe.tif"><path class="cls-1" d="M114.64,94.23l.89,0-.85-.2a8.64,8.64,0,0,1,2.87,2.14c1,.94,1.9,1.88,2.89,2.76a11.21,11.21,0,0,0,6.55,3,13.46,13.46,0,0,0,3.52-.36,2.2,2.2,0,0,1,1.39.07c.13.09,0-.1,0,.12-.2,1.14-1.16,1.88-1,3.13a2.56,2.56,0,0,0,.74,1.46,7,7,0,0,0,.56.53c.43.36.16.29.19-.07l.2-.84-.08.12.58-.61c.29-.19-.28,0-.45,0l-1,.18c-.67.12-1.34.25-2,.43a14.39,14.39,0,0,0-3.4,1.39,11.45,11.45,0,0,0-4.9,5.75c-.94,2.33-1.87,5.11-1,7.59a9.57,9.57,0,0,0,2.19,3.25l3,3.19a4.1,4.1,0,0,0,3.24,1.44,5.22,5.22,0,0,0,2-.66c.31-.15.59-.33.89-.5l.38-.22.26-.14c.37-.16.16-.2-.63-.11l-.61-.57a6.24,6.24,0,0,1,.11,1.81,4.47,4.47,0,0,0,.44,2.11,3.84,3.84,0,0,0,3.51,1.7c.62,0,.76-.22,1.2.18a4.83,4.83,0,0,1,1.05,1.55c.62,1.34.12,2.45-.17,3.8a20.68,20.68,0,0,0-.62,4.82c0,1.61.52,3.14.44,4.77a19.82,19.82,0,0,1-1,4.55c-.21.7-.42,1.41-.61,2.12-.11.38-.21.77-.3,1.15-.05.23-.09.45-.14.67s-.08.45-.05.26l.57-.61.36-.09h-.51l-.85,0a4.92,4.92,0,0,1-1.38,0l.74.4a27.31,27.31,0,0,1-2.1-2.3,19.83,19.83,0,0,0-2.88-2.21,70,70,0,0,0-6.38-3.3,18.66,18.66,0,0,1-8.6-8.33c-1.13-2.25-2.08-4.59-3.23-6.84s-2.31-4.37-3.56-6.51-2.69-4.43-4.12-6.58a25.57,25.57,0,0,0-2-2.73,22.43,22.43,0,0,0-2.55-2.32,5.66,5.66,0,0,1-2.18-3.85,5,5,0,0,1,.23-2.3c.2-.53,1-1.82,1.41-1.78l-.84-.2c.46.25.41.08-.14-.52,0,.21-.08.41-.11.62a3.19,3.19,0,0,0,0,1.11,2.62,2.62,0,0,0,1.25,1.87,8,8,0,0,0,4.34,1.24,3.53,3.53,0,0,0,2.93-2.62c.42-1.2.36-2.42,1.44-3.27,1.23-1,2.88-1.43,4.26-2.17a10.58,10.58,0,0,0,3.14-2.41,7.52,7.52,0,0,0,1.64-3.23,8.06,8.06,0,0,0,.19-1.9c0-.6-.32-1.41,0-1.86a1.68,1.68,0,0,0-.66-2.25,1.71,1.71,0,0,0-2.25.67c-1,1.48-.11,3.17-.54,4.79a5,5,0,0,1-2.28,2.82c-1.62,1-3.55,1.54-5.12,2.64a6.94,6.94,0,0,0-2.79,4.55c-.05.24-.11.77-.32.94s.13,0,0,0a3.5,3.5,0,0,1-1.33-.37c-.18-.07-.37-.18-.55-.23-.7-.21.05.22-.1.24a4.93,4.93,0,0,0,.18-1.16,2.49,2.49,0,0,0-.29-1.26,2.65,2.65,0,0,0-2.62-1.34c-1.51.17-2.89,1.82-3.55,3.1a8,8,0,0,0-.83,4.17,9.44,9.44,0,0,0,3.94,6.94,16.58,16.58,0,0,1,3.51,4.09c1.11,1.7,2.19,3.41,3.24,5.15q3,5.07,5.59,10.4c.81,1.7,1.48,3.47,2.42,5.1a20.49,20.49,0,0,0,2.94,3.92c2.49,2.62,5.62,4.22,8.82,5.78a29.6,29.6,0,0,1,4.76,2.67,13.58,13.58,0,0,1,1.76,1.54,12.78,12.78,0,0,0,1.86,2,4.7,4.7,0,0,0,2.83.36,4.82,4.82,0,0,0,2.66-.45c.85-.57.9-1.59,1.12-2.5s.56-2.08.87-3.11a22.26,22.26,0,0,0,1.05-5.94c0-2-.63-3.85-.36-5.85s1.08-3.88,1-5.86a7.79,7.79,0,0,0-2.32-4.93,4.11,4.11,0,0,0-2.14-1.21c-.74-.14-1.51.2-2.19-.11.32.15.16.32.13-.3s0-1,0-1.47a3.16,3.16,0,0,0-1.19-2.73,2.4,2.4,0,0,0-2.44.07,10,10,0,0,1-2.2,1.15c-.21,0-.35,0-.65-.35-.74-.71-1.4-1.53-2.12-2.28-1.08-1.11-2.48-2.27-2.58-4a11,11,0,0,1,1.28-4.8c1.51-3.18,4.4-4.52,7.72-5.14a6.66,6.66,0,0,0,2.57-.63,2.05,2.05,0,0,0,.56-2.71,3.6,3.6,0,0,0-.67-.88l-.37-.3-.21-.19c-.2-.23-.23-.24-.11,0s.36.63.14.51l.29-.53a6.52,6.52,0,0,0,.61-1.47,3.38,3.38,0,0,0-1.83-4c-1.84-.85-3.54,0-5.42,0-3.59.09-6-3-8.39-5.26a12.6,12.6,0,0,0-2.11-1.74,4.57,4.57,0,0,0-2.81-.72A1.66,1.66,0,0,0,114.64,94.23Z"></path></g></g></g></svg>