<svg xmlns="http://www.w3.org/2000/svg" xmlns:xlink="http://www.w3.org/1999/xlink" id="Capa_1" x="0px" y="0px" viewBox="0 0 599.5 127.8" style="enable-background:new 0 0 599.5 127.8;" xml:space="preserve"><style type="text/css">	.st0{fill:#D5D2DB;}	.st1{fill:#270360;}	.st2{font-family:'CochinLTStd';}	.st3{font-size:28.29px;}</style><g id="Capa_2_1_">	<g id="Capa_1-2">		<path class="st0" d="M147.3,18.3c-0.5-1.2-0.8-2.3-1.3-3.4c-0.2-0.4-0.1-0.6,0.3-0.9c0.8-0.4,1.4-0.9,2.3-1.5   c0.1,0,0.2,0.1,0.3,0.2c0.6,0.7,1.7,0.7,2.4,0.1c0,0,0.1-0.1,0.1-0.1c0.1-0.1,0.4-0.1,0.6,0c0.6,0.2,1.3,0.8,1.9,0.7   c0.5-0.1,1-0.9,1.5-1.3c0.2-0.2,0.4-0.2,0.6-0.3c1,0.1,2.1-0.2,2.8-1c0.2-0.1,0.4-0.3,0.6-0.4c-0.1,0.4-0.1,0.7-0.2,1   c-0.1,0.4-0.1,0.7,0.4,0.9c0.5,0.1,0.9,0.6,0.8,1.1c0,0,0,0.1,0,0.1c0,0.2,0,0.5,0,0.7c-0.1,0.4,0.2,0.8,0.5,0.9   c0.4,0.1,0.6,0.5,0.5,0.9c-0.1,0.5,0.2,0.8,0.7,0.9c0.2,0,0.4,0.1,0.6,0.2c0.5,0.1,0.5,0.4,0.3,0.8c-0.2,0.3-0.3,0.5-0.4,0.9   c0,0.7,0.4,1,1.1,1c0.7,0,1,0.3,0.9,1c0,0.5,0.2,0.6,0.6,0.6c0.5,0,1.2,0.1,1.8,0.1c0.4,0,0.7,0.2,0.8,0.6   c0.4,0.9,0.8,1.8,1.2,2.7c0.1,0.4,0.5,0.8,0.9,0.9c0.7,0.2,1.2,0.8,1.2,1.5c0.1,1.1,0.1,2.3,0.3,3.4c0.1,0.3,0.3,0.7,0.6,0.9   c0.6,0.5,1.4,0.9,1.9,1.6c0.6,0.8,0.8,1.8,0.7,2.7c0,0.3,0,0.6,0.2,0.8c0.9,0.8,1.4,2,1.5,3.2c0,0.3,0.2,0.6,0.4,0.8   c1.5,1.7,2.2,3.8,3.2,5.7c0.1,0.1,0.1,0.3,0.1,0.4c-0.2,0.7,0.1,1.4,0.7,1.8c0.8,0.7,1.4,1.6,1.9,2.5c0.5,1,1.5,1.7,2.6,2   c0.5,0.1,1,0.4,1.3,0.8c0.6,1,1.7,1.6,2.8,1.8c0.5,0.1,1,0.4,1.4,0.7c0.9,0.7,2,1.3,3.1,1.7c2,0.6,3.3,2.3,5,3.4   c-0.5,0.8-1.1,1.6-1.5,2.4c-0.6,1-1.4,1.8-2.4,2.5c-0.6,0.5-1.2,1-1.7,1.6c-0.3,0.4-0.4,0.8-0.4,1.3c-0.1,0.8-0.4,1.6-0.9,2.2   c-0.3,0.4-0.5,0.8-0.6,1.3c-0.5,2.2-1.5,4.2-2.9,6c-0.6,0.9-1.2,1.9-1.8,2.8c-0.2,0.3-0.3,0.6-0.3,1c0,1,0,1.9,0,2.9   c0.1,0.6-0.2,1.1-0.6,1.4c-0.2,0.2-0.4,0.5-0.6,0.8l0.1,0.1l-0.8,0.2c-0.9,0.2-0.9,0.2-0.9,1.2c0,0.8,0.3,1.5,0.9,2   c0.6,0.5,0.9,1.2,0.9,2c0,0.2,0,0.5,0.1,0.6c1.1,1.1,0.8,2.8,1.7,4c0.9,0.9,1.4,2,1.6,3.2c0,0.2,0.4,0.4,0.6,0.5   c0.5,0.2,1.1,0.1,1.4,0.4s0.2,1,0.2,1.4c0.2,1.7,0.3,3.5,0.5,5.2c0,0.3,0,0.6-0.5,0.6c-0.4,0.1-0.8,0.3-1.1,0.6   c-0.4,0.4-0.9,0.7-1.5,0.8c-0.4,0.1-0.8,0.2-1.2,0.4c-0.8,0.4-1.4,0.9-2.2,1.3c-1.1,0.7-2.1,1.6-2.9,2.7c-0.7,0.7-1.4,1.5-2,2.3   c-0.2,0.3-0.3,0.6-0.3,0.9c0,0.4,0.1,0.7,0.2,1.1c0.1,0.4,0,0.9-0.3,1.2c-0.3,0.3-0.3,0.8-0.5,1.3c-1-0.5-2.1-0.2-3.2-0.2   c-1.1,0-2.2,0.5-2.9,1.3c-0.5,0.4-0.7,1.1-0.5,1.8c0.3,0.7,0.4,1.5,0.3,2.3c-0.2,0.7-1,1.1-1.6,1.7c-0.4,0.4-0.9,0.6-1.5,0.4   c-0.7-0.3-1.5-0.2-2.2,0.1c-0.5,0.2-1,0.2-1.4,0c-0.8-0.2-1.7-0.1-2.5,0.3c-0.2,0.1-0.5,0.2-0.7,0.4c0-0.2-0.1-0.4-0.1-0.5   c0.1-0.6-0.2-1.2-0.8-1.5c-0.4-0.2-0.6-0.7-0.4-1.1c0-0.1,0.1-0.2,0.2-0.3c1-0.8,0.9-1.9,0.7-2.9c0-0.2-0.2-0.4-0.4-0.5   c-0.8-0.5-1.7-1-2.5-1.4c-0.2-0.1-0.5-0.1-0.7,0c-0.5,0.2-0.9,0.6-1.3,0.8c-0.7,0.4-1.2,0.2-1.2-0.7c-0.1-1.3,0.2-2.5,0.9-3.6   c0.4-0.7,0.7-1.5,1.1-2.2c0.3-0.4,0.6-0.7,1-1c0.3-0.2,0.4-0.5,0.3-0.8c-0.3-1.1-0.6-2.3-0.9-3.3c-1.2,0.2-2.2,0.4-3.3,0.6   c-0.4,0.1-0.4,0.3-0.4,0.6c0,1,0,1.9,0,2.9c0.1,0.6-0.1,1.1-0.6,1.5c-0.9,0.6-1.1,1.8-0.6,2.7c0.1,0.2,0.1,0.4,0.2,0.6   c0.4,0.9,0.2,1.9-0.4,2.6c-0.1,0.1-0.3,0.1-0.5,0.2h-0.1c-0.6-0.2-1.2-0.6-1.7-0.4c-0.5,0.2-0.7,0.9-1.1,1.3   c-0.4,0.3-0.8,0.6-1.2,0.9c-0.6-0.5-1-1.3-0.8-2.1c0.1-0.6-0.1-1.2-0.6-1.6c-1.4-1.2-2.4-2.7-3-4.4c-0.2-0.4-0.4-0.7-0.7-1   c-0.4-0.4-0.6-0.8-0.2-1.3c0.3-0.5,0.2-0.8-0.3-1c-0.8-0.3-1.5-1-1.7-1.9c-0.1-0.5-0.3-1-0.6-1.4c-0.1-0.3-0.4-0.5-0.7-0.7   c-0.3-0.1-0.6-0.4-0.5-0.8c0-0.5,0-1-0.1-1.5c-0.1-0.3-0.2-0.5-0.4-0.7c-0.8-0.8-1.7-1.5-2.4-2.4c-0.3-0.5-0.6-1.1-0.7-1.6   c-0.3-0.6-0.2-1.3,0.3-1.7c0.1-0.2,0.1-0.3,0.1-0.5c-0.4-1.3-0.9-2.5-1.4-3.8c-0.1-0.3-0.5-0.4-0.8-0.6c-0.8-0.4-0.8-0.4-0.5-1.2   c0.3-1,0.2-2-0.3-2.9c-0.2-0.4-0.2-0.9,0-1.3c0.4-0.8,0.8-1.6,0.4-2.4c-0.1-0.3-0.3-0.5-0.5-0.7c-0.5-0.4-1-0.7-1.5-1   c-0.4-0.2-0.7-0.7-0.7-1.2c-0.1-0.7-0.4-1.3-0.8-1.8c-0.4-0.4-0.7-0.9-1.1-1.3c-0.9-0.8-1.4-2-1.3-3.2c0.1-0.7-0.2-1.5-0.8-2   c-0.2-0.3-0.4-0.6-0.4-1c-0.1-0.9-0.1-1.8-0.1-2.7c0-0.3,0.3-0.6,0.5-0.9c0,0,0-0.1-0.1-0.1c-1-0.3-1-0.3-1.1-1.4   c0-0.5-0.1-1-0.2-1.6s-1.2-1.7-1.6-1.7c-0.5,0.1-0.9,0.3-1.4,0.5c-0.2-0.5-0.4-1.1-0.6-1.7c-0.1-0.3-0.2-0.5-0.4-0.7   c-0.3-0.3-0.3-0.5,0-0.7c1.3-0.9,0.7-2.2,0.8-3.4c0-0.1,0-0.2-0.1-0.2c-0.6-0.3-1.3-0.4-2-0.4c-0.7,0.1-1.2,0.6-1.2,1.3   c0,0.3-0.1,0.5-0.2,0.8l-1.2-1.8l0.8-0.2c0.6-0.1,1-0.8,0.9-1.4c0-0.1,0-0.2-0.1-0.2c-0.2-0.4-0.4-0.8-0.6-1.2   c-0.2-0.8-0.9-1.5-1.8-1.6c-0.2,0-0.4-0.3-0.5-0.5c-0.3-1-0.5-2-0.8-3c-0.1-0.6,0.3-1.3,0.9-1.4c0.4-0.1,1,0,1.2-0.3   c0.5-0.6,0.9-1.3,1.1-2.1c0.3-0.9,0.3-1.9,0-2.8c-0.1-0.3,0-0.6,0.1-0.9c0.1-0.4,0.4-0.7,0.4-1c0.3-1.4,1.5-2.4,2.9-2.5   c1.9-0.3,3.6-1.2,5-2.5c0.7-0.6,1.4-1.2,2.3-1.5c1.1-0.3,2.2-0.5,3.3-0.6c0.1,0,0.2,0,0.3,0c1-0.1,1.9-0.8,2.2-1.8   c0-0.2,0-0.4-0.1-0.5c-0.1-0.4-0.3-0.7-0.5-1.1c-0.1-0.4-0.5-0.9-0.3-1.1c0.3-0.5,0.8-0.9,1.3-1.2c0.5-0.3,0.8-0.5,0.8-1   c0-0.7,0.4-1.3,0.9-1.7c0.3-0.2,0.4-0.6,0.5-0.9c0.1-0.6,0.1-1.3,0.2-2c0-0.3,0.1-0.5,0.3-0.7c0.4-0.5,0.8-1,1-1.7   c0.5-0.9,1.1-1.8,1.8-2.7c0-0.1,0.1-0.1,0.2-0.1c0.9,0.2,1-0.7,1.4-1.1c0.2-0.2,0.5-0.4,0.8-0.5c0.2-0.1,0.5-0.1,0.6-0.2   c0.4-0.5,1-0.9,1.7-0.9C146.5,18.5,146.9,18.4,147.3,18.3z"></path>		<text transform="matrix(1 0 0 1 113.9228 74.5881)" class="st1 st2 st3">Ancash</text>		<g id="_1LuwUp">			<path class="st0" d="M278.8,11.5c1,1.5,1.6,3.2,1.7,4.9c0.1,1.8,1.3,2.4,3.1,1.9c0.7-0.2,1.4-0.4,2-0.5c0.5-0.1,1.1-0.4,1.4,0.2    c0.3,0.5-0.2,0.9-0.5,1.3c-1.3,1.8-2.7,3.6-4,5.4c-0.6,0.8-1.2,1.6-1.8,2.4c-0.6,0.8-0.5,1.9,0.2,2.5c0,0,0,0,0,0    c1.5,1.6,3.8,1.9,5.7,0.8c1.8-1,3.4-2.3,5-3.6c0.7-0.6,1.1-1.4,1.3-2.2c0.7-2.3,2.8-3,5.1-2.2c1.9,0.6,3.6,1.8,5,3.2    c0.9,1,2.3,1.6,3.7,1.5c1.6-0.2,3.1,0.6,3.9,2c2.2,3.5,3.9,2.9,7.3,1.4c2.9-1.3,3.6-1.3,5.8,0.8c1,1.2,2.4,2,3.9,2.3    c1.3,0.2,1.7,1.1,1,2.2c-1,1.6-1,2.9,0.3,4.3c0.2,0.2,0.3,0.4,0.3,0.6c0,2.3,1.6,4.1,2.1,6.3c0.2,0.7,0.8,1.3,1.5,1.6    c1,0.4,1.7,1.2,2,2.2c0.1,0.4,0.4,0.7,0.7,0.9c1.3,0.5,2.3,1.5,2.8,2.8c0.5,1,1.5,1.7,2.6,1.9c0.8,0.1,1,0.6,0.7,1.4    c-0.5,1.3-1,2.5-2.5,3.2c-1.5,0.9-2.9,2.2-3.9,3.6c-0.7,0.6-0.8,1.6-0.4,2.4c0.7,1.4,1.1,2.9,1,4.4c-0.1,0.5,0.1,1,0.6,1.3    c0.7,0.5,1.2,1.3,1.2,2.2c0.3,2.3,0.7,4.6,1,6.9c0.2,1.3-0.5,2-1.8,1.8c-2.5-0.4-3,0.1-2.7,2.7c0,1.7-0.3,3.3-0.8,4.9    c-0.5,1.3-0.4,2.7,0.2,3.9c0.2,0.5,0.4,1,0.4,1.5c0,0.8,0.4,1.6,1,2.2c1.6,1.6,1.4,2.9-0.4,4.2c-0.9,0.7-1.6,1.5-2.4,2.2    c-0.6,0.5-1,0.5-1.5-0.2c-1.2-1.8-3-2.2-5-1.9c-0.6,0.1-1.2,0.2-1.8,0.3c-1.2,0.2-2.4-0.5-2.8-1.6c-0.6-1.6-2-2.7-3.7-2.8    c-2.1-0.3-2.7-1.4-1.7-3.2c0.9-1.1,0.7-2.6-0.4-3.5c0,0,0,0,0,0c-0.3-0.4-0.6-0.9-0.8-1.3c-0.3-0.5-0.5-1.1-1.1-1.2    c-2.1-0.6-2.9-2.2-3.5-4c-0.2-0.8-0.4-1.7-0.6-2.6c-0.1-0.6-0.5-1-1.1-1.2c-0.7-0.2-0.5,0.6-0.8,0.8c-0.9,0.8-1.7,1.8-2.4,2.8    c-0.5,0.6-1.2,0.5-1.8,0.6c-2.6,0.2-3.3,1-2.8,3.7c0.2,0.7,0,1.4-0.3,2c-0.5,1-0.9,2-1.2,3.1c-0.3,0.7-0.2,1.4,0.2,2    c0.9,1.2,0.7,2.9-0.5,3.8c-0.1,0.1-0.2,0.1-0.3,0.2c-0.8,0.6-1.7,1-2.6,1.2c-1.5,0.3-3.1,0.8-4.6,1c-1.7,0.3-3.3,1.3-4.3,2.7    c-3.6,3.8-6.3,8.3-9.4,12.5c-1.5,2.1-3,4.1-4.5,6.2c-0.5,0.7-1,0.9-1.7,0.4c-2.1-1.3-4.3-2.4-6.6-3.1c-0.5-0.1-0.9-0.4-1.2-0.8    c-0.7-1.3-1.8-2.2-3.2-2.6c-0.3-0.1-0.6-0.4-0.8-0.6c-1.9-2.1-4.2-3.6-6.8-4.6c-4.2-1.7-6.9-5.9-6.6-10.4c0.1-1.2,0.4-2.3,1-3.4    c0.1-0.2,0.2-0.4,0.3-0.4c1.1-0.3,2-1.1,2.4-2.2c0.4-0.7,1-0.4,1.4,0.1c0.6,0.7,1.4,1.3,2.2,1.8c2.2,1.3,5,0.5,6.3-1.7    c0.1-0.2,0.2-0.4,0.3-0.6c1.8-3.9,1.1-7.7-0.2-11.5c-0.6-1.6-1.4-3.2-2.2-4.8c-0.4-0.9-0.9-1.8-1.6-2.5c-2.4-2.2-4.2-5-7.4-6.4    c-1.2-0.7-2.1-1.7-2.8-2.9c-0.6-0.8-0.7-2-0.2-2.9c0.4-1.2,0.6-2.5,0.8-3.8c0.2-0.8,0.4-1.2,1.3-1.4c3.7-0.6,3.5-2.3,1.8-4.8    c-0.1-0.2-0.2-0.4-0.4-0.5c-3.8-3-5.9-7.4-9.4-10.6c-0.4-0.4-1-0.8-1.4-1.2c-0.7-0.6-0.9-1.7-0.2-2.5c1.6-2.5,2.5-5.2,1.1-8.1    c-0.4-0.8-0.2-1.7,0.5-2.2c1.4-1.1,2-3.1,1.4-4.8c-0.7-2.2,0.2-4.6,2.1-5.9l3.3-2.4c0.8-0.5,1.5-1.2,2-2.1c0.7-1.6,2.1-2,3.5-2.6    c0.3-0.1,0.6,0,0.8,0.2c0.5,0.4,1,0.8,1.4,1.2c1.5,1.9,4,2.8,6.4,2.3c2.7-0.3,5.4,0.1,7.8,1.3c3.1,1.2,5.7,0.5,7.7-2.2    L278.8,11.5z"></path>		</g>		<text transform="matrix(1 0 0 1 257.5109 68.3819)" class="st1 st2 st3">Piura</text>		<path class="st0" d="M482.6,52.2c0-0.5-0.2-0.9-0.7-1.1c-0.3-0.1-0.3-0.3-0.1-0.6c0.1-0.2,0.3-0.3,0.4-0.4   c0.2-0.1,0.2-0.3,0.2-0.5c-0.1-0.4-0.1-0.7-0.1-1.1c0-0.3-0.1-0.6-0.3-0.8c-0.3-0.4-0.7-0.7-1.1-1c-0.2-0.1-0.3-0.2-0.5-0.1   c-0.2,0.1-0.4,0.1-0.6,0c-0.5-0.3-1.2-0.4-1.8-0.1c-0.1,0-0.1,0.1-0.2,0.1c-0.6,0.1-1,0.5-1.2,1c-0.1,0.2-0.2,0.2-0.3,0.1   c-0.3-0.1-0.5-0.3-0.7-0.5c-0.1-0.1-0.3-0.3-0.5-0.3c-0.4-0.1-0.8-0.3-1.2-0.4c-0.2,0-0.3-0.1-0.4-0.3c0,0,0-0.1-0.1-0.1   c-0.2-0.5-0.6-0.9-1.2-0.8c-0.3,0-0.5-0.2-0.5-0.4c-0.1-0.1-0.1-0.3-0.2-0.4c-0.1-0.2-0.2-0.4-0.1-0.6c0-0.1,0-0.3,0-0.4   c-0.1-0.4-0.2-0.9-0.1-1.4c0-0.1,0-0.2-0.1-0.3c-0.2-0.2-0.2-0.4-0.2-0.7c0-0.5-0.2-0.6-0.7-0.6l0,0c-0.7,0.2-1.1-0.3-1.4-0.8   c-0.1-0.1-0.1-0.2-0.2-0.4c-0.2-0.5-0.6-0.7-1-0.9c-0.1-0.1-0.2-0.1-0.3-0.1c-0.4,0-0.8-0.2-1.2-0.4c-0.5-0.3-1-0.5-1.5-0.8   c0,0-0.1,0-0.1,0c-0.5-0.4-1.1-0.8-1.7-1.1c-0.3-0.3-0.3-0.3-0.1-0.7c0.1-0.1,0.2-0.3,0.2-0.5c0-0.4,0-0.5-0.5-0.6   s-0.4-0.1-0.3-0.4c0.1-0.5-0.3-1-0.8-1.1c0,0-0.1,0-0.1,0c-0.1,0-0.3,0-0.4-0.1c-0.3-0.1-0.6-0.2-0.8-0.2c-0.1,0-0.2,0-0.3-0.1   s0.1-0.2,0.1-0.3c0,0,0,0,0.1-0.1c0.2-0.3,0.2-0.4,0-0.6c-0.2-0.2-0.5-0.4-0.7-0.5c-0.1-0.1-0.2-0.1-0.2-0.1   c-0.1-0.1-0.4-0.1-0.5-0.3s0.2-0.3,0.3-0.5c0.1-0.2,0.2-0.4,0.2-0.6c0-0.2,0.2-0.4,0.4-0.4h0c0.9-0.1,0.9-0.2,1.1-1   c0-0.3,0.1-0.5,0.3-0.8c0.2-0.3,0.2-0.8,0-1.1c-0.2-0.3-0.2-0.8-0.4-1.1c-0.1-0.2,0-0.4,0.1-0.5c0.2-0.2,0.3-0.5,0.2-0.8   c0-0.4,0-0.9-0.1-1.3c-0.1-0.3,0.1-0.6,0.3-0.8c0.1-0.1,0.2-0.2,0.3-0.3c0.1-0.2,0.2-0.3,0.4-0.4c0.4-0.2,0.5-0.4,0.4-0.8   c0-0.5-0.2-0.9-0.5-1.3c-0.2-0.3-0.6-0.5-0.9-0.3c-0.2,0.1-0.4,0.1-0.6,0.2c-0.3,0.1-0.6,0-0.7-0.2c0-0.1-0.1-0.2-0.1-0.3   c0-0.2,0-0.4,0-0.6c0-0.2-0.1-0.5-0.2-0.7c-0.3-0.5-0.7-1-1.2-1.4c-0.3-0.4-0.5-0.8-0.6-1.3c0-0.3-0.2-0.6-0.3-0.9   s0.3-0.6,0.3-0.9c0-0.2,0-0.4-0.1-0.4c-0.5-0.2-0.4-0.6-0.4-1c0.1-0.3,0-0.6-0.2-0.8c-0.1-0.2-0.3-0.4-0.6-0.3s-0.2,0-0.3-0.1   c-0.2-0.2-0.4-0.4-0.6-0.6c-0.1,0-0.1-0.1-0.1-0.1c0-0.4-0.3-0.7-0.3-1.1c0-0.2-0.2-0.5-0.4-0.5c-0.3-0.1-0.5,0.1-0.6,0.3   l-0.2,0.2c-0.4,0.4-0.6,0.4-1.1,0.1c-0.3-0.2-0.6-0.3-0.9-0.3c-0.4-0.1-0.9-0.1-1.1-0.6c-0.1-0.2-0.3-0.2-0.5-0.1   c-0.5,0.1-0.5,0.1-0.8-0.3l0,0c-0.1-0.4-0.6-0.5-0.7-0.8c-0.1-0.4-0.4-0.6-0.7-0.8c-0.1-0.1-0.2-0.2-0.3-0.3   c-0.1-0.3-0.4-0.4-0.7-0.3c-0.4,0.1-0.7,0.1-1.1,0c-0.1,0-0.3,0-0.4,0c-0.7,0.2-1.3,0.4-2,0.7C443,5,442.7,5,442.5,4.8   c-0.5-0.6-0.7-0.4-1.3,0c-0.7,0.6-1.5,1-2.3,1.3c-0.4,0.2-0.8,0.4-1.1,0.7c0,0,0,0.1-0.1,0.1c-0.3,0.4-0.8,0.5-1.2,0.2   c0,0-0.1-0.1-0.1-0.1c-0.1,0-0.1-0.1-0.1-0.2c-0.1-0.3-0.3-0.5-0.5-0.7c-0.2-0.2-0.4-0.3-0.7-0.2c-0.3,0-0.6,0-0.9-0.2   c-0.3-0.3-0.7-0.4-1.1-0.7c-0.1-0.1-0.3-0.2-0.3-0.4c0-0.3-0.2-0.6-0.4-0.9h-0.6c0,0.1-0.1,0.1-0.1,0.2c-0.2,0.5-0.2,0.5-0.7,0.3   c-0.4-0.1-0.5,0-0.6,0.3c-0.1,0.2-0.1,0.3,0,0.5c0.1,0.3,0.1,0.6,0.2,0.9c0.1,0.2,0.2,0.3,0.3,0.4c0.2,0.1,0.4,0.3,0.5,0.6   c0.2,0.3,0.1,0.8-0.2,1c-0.1,0.1-0.3,0.2-0.5,0.2c-0.3,0-0.5,0.1-0.7,0.3c-0.4,0.3-0.7,0.6-1.2,0.9c-0.4,0.2-0.8,0.6-1,1   c-0.2,0.4-0.5,0.7-0.9,1c-0.1,0.1-0.2,0.2-0.3,0.3c-0.3,0.2-0.4,0.7-0.1,1c0,0,0,0,0.1,0.1c0.2,0.3,0.4,0.5,0.7,0.7   c0.5,0.3,0.7,0.9,0.5,1.5c-0.2,0.5-0.1,1.1,0.3,1.4c0.1,0.1,0.2,0.2,0.1,0.4c0,0.3,0,0.6-0.1,0.9c-0.1,0.5-0.1,1.1-0.1,1.6   c0,0.2,0.1,0.4,0.3,0.5c0.2,0.1,0.3,0.3,0.3,0.5c0.1,0.5-0.1,1.1-0.4,1.5c-0.4,0.7-1.1,1.1-1.8,1.3c-0.2,0-0.4,0.1-0.5,0.2   c-0.5,0.4-1.1,0.8-1.6,1.1c-0.2,0.1-0.5,0.3-0.6,0.5c-0.3,0.3-0.8,0.4-1.1,0.2c-0.2-0.1-0.4-0.1-0.6-0.1c-0.3,0.1-0.7,0.1-1,0.1   c-0.5,0-0.9,0.5-0.9,1c0,0.1,0,0.2,0.1,0.3c0.2,0.4,0.3,0.8,0.3,1.2c0,0.4,0.2,0.8,0.5,1.1c0.2,0.2,0.3,0.5,0.1,0.7   c-0.2,0.7-0.2,1.5-0.1,2.2c0,0.3,0,0.5,0,0.8c-0.1,0.6,0.1,1.3,0.4,1.8c0.2,0.4,0.3,0.8,0.3,1.2c0,0.6-0.4,1.1-0.9,1.4l-0.5,0.2   c-0.2,0.1-0.4,0.2-0.6,0.4c-0.3,0.4-0.7,0.5-1.1,0.2c-0.4-0.2-0.8-0.3-1.2-0.4c-0.5-0.1-0.7-0.4-0.5-0.9c0.1-0.2,0.2-0.4,0-0.6   c-0.2-0.3-0.5-0.5-0.8-0.5c-0.3,0-0.6-0.1-0.9-0.2c0,0-0.1,0-0.1,0c-0.6,0-1.3,0-1.9,0.2c-0.4,0.2-0.8,0.4-1.3,0.5   c-0.5,0.1-1,0.3-1.4,0.5c-0.3,0.2-0.7,0.2-1.1,0.1c-0.3-0.1-0.5-0.1-0.8-0.1c-0.3,0-0.6-0.1-0.9-0.2c-0.3-0.2-0.7-0.3-1-0.4   c-0.3-0.1-0.6-0.1-0.9,0c-0.5,0.1-0.9,0.2-1.4,0.3c-0.2,0-0.4,0.1-0.4,0.3c0,0,0,0.1,0,0.1c0,0.7,0.1,1.4,0.3,2   c0.1,0.4,0.1,0.8,0,1.1c-0.1,0.3-0.1,0.6,0,0.9c0.2,0.6,0.3,1.3,0.2,2c0,0.2-0.1,0.3-0.2,0.4c-0.7,0.5-1.2,1.2-1.5,2   c0,0.3-0.3,0.5-0.6,0.5c-0.4,0-0.7,0.3-0.7,0.7c0,0.1,0,0.1,0,0.2c0.1,0.2,0.1,0.5,0.1,0.7c0,0.4-0.1,0.9-0.1,1.3   c-0.2,0.6-0.3,1.2-0.3,1.9c0.1,0.5-0.1,0.9-0.5,1.1c-0.3,0.3-0.4,0.7-0.1,1c0,0,0,0,0,0c0,0.1,0.1,0.1,0.2,0.2   c0.1,0.1,0.1,0.2,0.1,0.3c0,0,0,0-0.1,0.1c0,0-0.1,0.1-0.1,0.1c-0.2,0.7-0.8,1-1.2,1.4c-0.2,0.2-0.3,0.2-0.4,0s-0.5-0.2-0.7-0.3   c-0.3-0.2-0.6-0.5-0.8-0.8c-0.5-0.6-1.3-0.8-2-0.3c-0.2,0.1-0.5,0.3-0.8,0.4c-0.2,0.1-0.5,0.2-0.7,0.2c-0.3,0-0.6,0.1-0.8,0.3   c-0.1,0.1-0.2,0.1-0.2,0.2c-0.2,0-0.4,0.2-0.5,0.4c-0.1,0.3-0.2,0.6-0.2,0.9c0,0.1,0,0.2,0.1,0.3c0.1,0.3,0.1,0.7-0.1,1   c-0.1,0.1-0.2,0.2-0.2,0.4c-0.1,0.6-0.3,1.2-0.6,1.7c-0.1,0.1-0.1,0.3-0.1,0.4c0.1,0.4,0,0.8,0.4,1.2c0.2,0.2,0.1,0.5,0,0.7   c-0.2,0.5-0.2,1.2,0.1,1.7c0.2,0.3,0.2,0.7,0.2,1c0,0.2,0.1,0.4,0.3,0.6c0.2,0.1,0.3,0.4,0.2,0.7c0,0,0,0,0,0   c-0.2,0.4-0.2,0.9,0.1,1.3c0.1,0.1,0.2,0.3,0.1,0.4c-0.1,0.2-0.3,0.2-0.5,0.2c-0.5-0.2-1,0.1-1.4,0.2c-0.2,0-0.4,0.2-0.4,0.4   c0,0.2,0.1,0.3,0.3,0.5c0.1,0.1,0.3,0.2,0.5,0.2c0.4,0.1,0.8,0.3,1.1,0.6c0.1,0.1,0.3,0.1,0.5,0.1l0.4-0.1c0.2,0,0.4,0.1,0.5,0.3   c0,0,0,0,0,0c0.1,0.3,0.3,0.5,0.6,0.7c0.3,0.1,0.5,0.4,0.4,0.7c0,0,0,0,0,0.1l-0.1,0.5c-0.2,0.7,0.2,1.4,0.9,1.6   c0.3,0.1,0.6,0.2,0.9,0.1c0.1-0.1,0.3-0.1,0.4,0c0.3,0.2,0.7,0.2,1.1,0.2c0.3,0,0.7,0.1,0.9,0.3c0.1,0.1,0.2,0.2,0.3,0.3   c0.3,0.3,0.5,0.7,0.3,1.1c0,0.1-0.1,0.2-0.1,0.3c-0.1,0.3,0,0.7,0.3,0.9c0.5,0.4,0.7,1,0.5,1.6c-0.1,0.4-0.1,0.8,0,1.2   c0.1,0.6-0.3,1.2-0.8,1.4l-1.4,0.8c-0.3,0.2-0.6,0.5-0.7,0.8c-0.1,0.4-0.3,0.7-0.4,1.1c-0.1,0.2-0.2,0.4-0.4,0.5   c-0.8,0.6-1.4,1.5-2.2,2.1c-0.4,0.4-0.7,0.8-0.9,1.3c-0.3,0.5-0.7,0.8-1.3,1.1c-0.3,0.1-0.5,0.1-0.8,0.1c-0.6-0.1-1.1,0.2-1.2,0.8   c-0.1,0.2-0.2,0.4-0.5,0.4c-0.2,0.1-0.4,0.3-0.5,0.5c-0.1,0.3-0.3,0.5-0.5,0.6v0.5c0.4,0.1,0.6,0.5,0.9,0.7c0.1,0.1,0.1,0.2,0,0.3   c-0.1,0.2-0.2,0.4-0.2,0.7c-0.1,0.2-0.1,0.4,0,0.6c0,0.2,0.2,0.3,0.3,0.3c0.4,0,0.7,0.1,0.9,0.4c0.2,0.1,0.4,0.2,0.6,0.2   c0.3,0.1,0.6,0.3,0.8,0.6c0.1,0.1,0.1,0.3,0.1,0.5c0,0.3,0,0.7,0.1,1c0,0.2,0.2,0.3,0.4,0.3c0.3,0,0.4,0.2,0.6,0.4   c0.3,0.4,0.7,0.7,1.2,0.8c0.1,0,0.2,0.1,0.3,0.2c0.1,0.2,0.3,0.4,0.3,0.7c0.2,0.4,0.2,0.8,0.1,1.2c0,0.2-0.1,0.3,0,0.5   c0.2,0.4,0.3,0.7,0.4,1.1c0.1,0.2,0.2,0.5,0.3,0.7c0.1,0.1,0.1,0.3,0.1,0.4c0,0.4,0.2,0.7,0.4,1c0.2,0.2,0.3,0.5,0.2,0.8   c0,0.1,0,0.2,0,0.3c0.1,0.3,0.1,0.7-0.1,1c-0.2,0.2-0.2,0.6,0,0.8c0.1,0.1,0.2,0.3,0.2,0.4c0.1,0.2,0.1,0.4-0.1,0.5   c-0.2,0.2-0.1,0.3-0.1,0.6c0.3,0.7,0.5,1.4,0.5,2.1c0,0.1,0,0.2,0,0.3c-0.1,0.3,0,0.5,0.2,0.7c0.3,0.4,0.6,0.9,0.7,1.5   c0,0.2,0,0.3,0,0.5c0,0.1,0,0.2,0,0.4c0,0.1,0.1,0.2,0,0.3c-0.2,0.3-0.3,0.7-0.6,1c-0.3,0.2-0.4,0.5-0.5,0.8   c0,0.1-0.1,0.3-0.2,0.4c-0.3,0.2-0.3,0.5-0.5,0.7s-0.1,0.2-0.1,0.4c0.1,0.3,0,0.6-0.3,0.8c-0.2,0.2-0.3,0.5-0.6,0.8   c-0.1,0.1-0.1,0.4,0,0.5c0,0,0,0,0,0c0.1,0.2,0.3,0.1,0.5,0c0.3-0.2,0.7-0.3,1-0.4c0.3-0.1,0.5-0.3,0.5-0.6s0.1-0.3,0.4-0.2   c0.5,0.2,1,0.4,1.5,0.7c0.9,0.5,1.9,1.1,2.8,1.7c1.3,0.7,2.5,1.5,3.9,2.1c0.7,0.3,1.3,0.7,2,1.1c0.3,0.2,0.4,0.5,0.5,0.7   s0.1,0.6,0.3,0.8c0.4,0.5,0.9,0.9,1.5,1.1c0.3,0.1,0.5,0.2,0.7,0.3h0.1c0.1-0.2,0.3-0.4,0.5-0.5c0.6-0.2,0.7-0.7,0.8-1.2   c0-0.5,0.1-1,0.3-1.4c0-0.2,0.1-0.3,0.2-0.5c0.3-0.4,0.6-0.9,0.6-1.4c0-0.2,0.1-0.3,0.1-0.4c0.1-0.3,0.2-0.4,0.6-0.3h0.2   c0.7,0.1,0.9-0.2,0.9-0.8c0-0.1,0-0.2,0-0.2c0-0.4,0.3-0.7,0.6-0.8c0.1,0,0.2,0,0.4,0.1c0.4,0.2,1,0.1,1.2-0.3   c0.1-0.1,0.2-0.2,0.3-0.2c0.1,0,0.2-0.1,0.3-0.2c0.5-0.5,1.1-0.9,1.6-1.4c0.2-0.2,0.3-0.2,0.5,0c0.2,0.2,0.4,0.2,0.7,0.2   c0.3-0.1,0.7-0.2,1-0.3c0.2-0.1,0.4-0.1,0.5,0c0.3,0.1,0.5,0.2,0.7,0.3c0.6,0.4,1.3,0.4,2,0.2c0.1,0,0.1-0.1,0.2-0.2   c0.1-0.2,0.1-0.4,0.2-0.6c0-0.4,0.1-0.7,0.2-1.1c0-0.1,0-0.2,0-0.3c-0.1-0.2-0.1-0.4,0.1-0.6c0.1-0.2,0.1-0.3,0.1-0.5   c0-0.6,0.1-1.2,0.5-1.8c0.2-0.2,0.2-0.4,0.2-0.7c0-0.1,0-0.2,0.1-0.2c0.2-0.5,0.4-0.9,0.6-1.4c0.1-0.2,0.2-0.5,0.1-0.7   c0-0.2,0.1-0.5,0.3-0.6c0.4-0.3,0.7-0.7,0.9-1.2c0.1-0.1,0.1-0.2,0.2-0.2c0.4-0.3,0.8-0.6,1.2-1c0.4-0.4,0.7-0.8,0.9-1.3   c0.1-0.2,0.2-0.4,0.3-0.5c0.6-0.5,1.1-1,1.5-1.5c0.2-0.2,0.5-0.5,0.7-0.8s0.5-0.6,0.9-0.6c0.1,0,0.1,0,0.2-0.1   c0.3-0.3,0.6-0.5,1-0.7c0.2-0.1,0.2-0.3,0.2-0.5s-0.1-0.3-0.1-0.4c-0.1-0.3,0.1-0.6,0.4-0.8c0.6-0.4,0.7-0.7,0.2-1.3   c-0.3-0.3-0.5-0.7-0.5-1.1c0-0.1,0-0.1,0-0.2c-0.1-1.2,0.4-2.4,1.2-3.3c0.2-0.2,0.5-0.5,0.8-0.6c0.3-0.2,0.5-0.5,0.7-0.8   c0.3-0.4,0.3-0.9,0-1.3c-0.1-0.1-0.1-0.2-0.1-0.2c-0.1-0.3-0.1-0.4,0.3-0.5c0.3,0,0.6-0.3,0.7-0.6c0.2-0.4,0.4-0.9,0.5-1.3   c0-0.1,0-0.2,0.1-0.2c0.3-0.4,0.6-0.9,0.9-1.3c0.3-0.4,0.7-0.6,1.1-0.6c0.2,0,0.5,0,0.7,0c0.3,0,0.6-0.1,0.8-0.2   c0.3-0.1,0.5-0.2,0.8-0.2c0.6,0,1.2,0,1.9,0c0.8,0,1.6-0.4,2.2-1c0.4-0.3,0.7-0.7,1.2-0.9c0.5-0.2,0.9-0.6,1.2-1.1   c0.1-0.3,0.2-0.6,0.2-0.9c0-0.3,0.1-0.6,0.2-0.9c0.2-0.4,0.3-0.8,0.5-1.1c0.1-0.2,0.2-0.5,0.2-0.7c0-0.5,0.3-0.8,0.8-0.9   c0.2,0,0.4-0.1,0.6-0.2c0.3-0.1,0.6-0.2,0.9-0.2c0.6,0,0.6-0.1,0.8-0.7c0.1-0.4,0.1-0.9,0.2-1.3c0.1-0.3,0-0.5-0.1-0.8   c-0.1-0.2-0.2-0.5-0.2-0.8c-0.1-0.4-0.3-0.7-0.6-0.9c-0.3-0.2-0.4-0.5-0.2-0.8c0.2-0.5,0.4-0.9,0.7-1.4c0.2-0.4,0.4-0.8,0.3-1.2   c0-0.2-0.1-0.4-0.3-0.6c-0.2-0.1-0.4-0.2-0.5-0.3s-0.3-0.2-0.1-0.6c0.1-0.2,0.2-0.3,0.3-0.4c0.3-0.2,0.3-0.5,0.2-0.8   c-0.1-0.2-0.1-0.5,0.1-0.7c0.1-0.1,0.1-0.3,0.1-0.4c0-0.3,0.1-0.5,0.3-0.7c0.2-0.2,0.2-0.6,0-0.8c-0.1-0.2-0.2-0.4-0.2-0.7   c-0.1-0.6,0.1-1.2,0.5-1.6c0.1-0.2,0.1-0.4,0.5-0.4s0.3-0.2,0.4-0.3c0.1-0.3,0.4-0.4,0.7-0.4c0.3,0,0.5-0.1,0.6-0.4   c0.3-0.3,0.7-0.6,1.2-0.7c0.3-0.1,0.6-0.3,0.7-0.7c0.1-0.3,0.4-0.6,0.8-0.6c0.1,0,0.3,0,0.4-0.1c0.1-0.1,0.3-0.1,0.4,0   c0.3,0.1,0.6,0.1,0.8,0c0.2,0,0.3-0.2,0.3-0.3c0-0.3,0.2-0.3,0.5-0.4c0.3,0,0.5-0.1,0.7-0.4c0.1-0.1,0.2-0.1,0.3-0.1c0,0,0,0,0,0   c0.7,0.5,1.4,0.2,2.2-0.1c0.1,0.3,0.4,0.6,0.7,0.6c0.1,0,0.2,0.1,0.3,0.2c0,0.1,0.1,0.2,0.2,0.3c0.5,0.2,1,0.6,1.6,0.7   c0.6,0,1.2,0.3,1.6,0.7c0.2,0.2,0.5,0.4,0.8,0.5c0.1,0,0.3,0.1,0.2,0.2s0,0.4-0.3,0.5c-0.2,0.1-0.5,0.2-0.6,0.4   c-0.2,0.1-0.5,0.2-0.7,0.2c-0.2,0-0.4,0-0.6,0c-0.3,0-0.5,0.2-0.6,0.4c-0.1,0.2-0.3,0.4-0.5,0.5c-0.3,0.1-0.4,0.3-0.5,0.6   c-0.1,0.3-0.2,0.5-0.4,0.8c-0.3,0.3-0.4,0.8-0.3,1.3c0.1,0.3,0.1,0.7,0,1.1c0,0.1,0,0.2,0,0.3c0.2,0.5,0.3,1,0.3,1.6   c0,0.4,0.3,0.8,0.7,1c0.5,0.2,1.1,0.3,1.6,0.2c0.3,0,0.5-0.2,0.5-0.5c0.1-0.4,0.1-0.4,0.5-0.4c0.5,0,1-0.3,1.4-0.7   c0.1-0.1,0.2-0.3,0.2-0.4c-0.1-0.3,0-0.6,0.1-0.9c0.3,0.3,0.7,0.5,1,0.5c0.3,0,0.3,0.1,0.3,0.4c-0.1,0.3,0.1,0.6,0.4,0.8   c0.1,0.1,0.3,0,0.4-0.1l0.6-0.4c0.2-0.2,0.4-0.3,0.6-0.3c0.3,0,0.5-0.2,0.6-0.5c0.1-0.2,0.1-0.4,0.2-0.6c0.1-0.5,0.4-0.9,0.9-1   c0.2,0,0.3-0.2,0.3-0.4c0-0.3,0.1-0.6,0-0.9c0-0.7,0.2-1.3,0.3-2c0-0.2,0-0.3,0-0.5c-0.3-0.6-0.1-1.2,0.3-1.6   c0.4-0.4,0.7-0.8,1.1-1.2c0.1,0,0.1-0.1,0.1-0.2c0.1-0.6,0.7-1.1,0.8-1.7c0.1-0.4,0.5-0.7,0.9-0.6h0.1c0.7,0,0.8-0.2,0.8-0.9   c0,0,0,0,0-0.1c0.5-0.2,1-0.4,1.6-0.5v-1.2C482.6,52.3,482.6,52.2,482.6,52.2z M468.5,63.4c-0.1,0.1-0.1,0-0.2,0   c-0.3-0.1-0.7-0.1-1,0c-0.1,0-0.2,0-0.2-0.1c-0.1-0.1,0-0.2,0-0.2c0,0,0,0,0,0c0.1-0.1,0.2-0.2,0.3-0.3c0.2-0.2,0.5-0.3,0.7-0.1   c0.1,0,0.1,0.1,0.1,0.1c0.1,0.1,0.1,0.2,0.2,0.3S468.6,63.3,468.5,63.4z M471.2,56c-0.2,0.2-0.6,0.3-0.9,0.3c-0.1,0-0.2,0-0.3,0.1   c-0.2,0.1-0.5,0-0.7-0.2c0,0,0,0,0,0c-0.1-0.2-0.2-0.3-0.4-0.4c-0.1-0.1-0.2-0.2-0.2-0.3c-0.1-0.3-0.2-0.6-0.3-1   c0-0.2-0.1-0.5-0.3-0.6c-0.2-0.1-0.2-0.4-0.1-0.6c0.1-0.3,0.4-0.6,0.5-0.9c0-0.2,0.2-0.3,0.1-0.4c-0.1-0.5,0.2-0.7,0.6-0.8   c0.2,0,0.3-0.2,0.5-0.1c0,0.8-0.2,1.7,0.6,2.4c-0.1,0.2-0.4,0.3-0.6,0.2c-0.3-0.1-0.7-0.1-1,0c-0.2,0-0.2,0.3-0.2,0.5   c0.1,0.2,0.1,0.5,0,0.7c0,0.2,0.1,0.3,0.2,0.4c0.4,0.3,0.8,0.5,1.3,0.4c0.2,0,0.3-0.2,0.4-0.4c0.2-0.4,0.4-0.4,0.6,0   c0.2,0.2,0.3,0.5,0.5,0.7C471.5,55.8,471.3,55.9,471.2,56z M473.1,56.6c0,0.1-0.1,0-0.2,0s-0.3,0-0.5-0.2   c-0.1-0.1-0.2-0.2-0.3-0.3l0.5,0.1c0.1,0,0.3,0.1,0.4,0.1C473.1,56.4,473.1,56.5,473.1,56.6z"></path>		<text transform="matrix(1 0 0 1 372.1625 64.4319)" class="st1 st2 st3">Moquegua</text>		<path class="st0" d="M71.7,65.2c0,0,0,0.1-0.1,0.1c-1.3,0.8-0.8,2-0.6,3.1c0,0.2,0.4,0.3,0.7,0.3c1,0.1,0.9,0.1,1.1,1   c0.2,0.9-0.1,1.9-0.9,2.5c-0.7,0.6-1.3,1.4-2,2.1c-0.3,0.2-0.4,0.6-0.3,1c0.1,0.7,0.2,1.3,0.3,2c0,0.5,0.2,0.8,0.7,0.8   c1,0.1,1.3,0.7,1.3,1.5c0,0.5,0.2,0.9,0.6,1.1c0.5,0.4,0.5,0.8,0,1.3c-0.2,0.2-0.5,0.3-0.7,0.4L71,83c0.4,0.5,0.7,1,1.1,1.4   c0.4,0.4,0.5,1,0.3,1.5c-0.2,0.4-0.3,0.8,0.1,1.1c0.2,0.1,0.4,0.2,0.6,0.1c0.4-0.1,0.7-0.3,1-0.5c0.6-0.4,1.3-0.6,2.1-0.6   c0.5,0,0.8-0.2,0.8-0.6c0-0.5,0.4-1,0.9-1.1c0.5-0.2,1-0.4,1.4-0.6c0.4-0.2,0.7-0.2,0.9,0.3c0,0.1,0.1,0.2,0.2,0.3   c0.4,1.3,1.2,2.4,2.3,3.2l-1.4,2.1c1,0.7,1.8,1.5,2.8,2.1c0.2,0.2,0.7,0,1.2,0c0.5,0.9,0.5,1.9,0,2.8c-0.3,0.4-0.3,1,0.1,1.3   c0,0,0.1,0.1,0.1,0.1c0.1,0.1,0.1,0.1,0.2,0.2c1.6,1.4,2.8,3.3,3.3,5.3c0.1,0.3,0.1,0.6,0,0.9c-0.2,0.7-0.5,1.3-0.7,1.9   c-0.2,0.7-0.3,1.4-0.4,2.1c0,0.5-0.3,0.9-0.7,1.1c-0.6,0.2-1.1,0.5-1.6,0.8c-0.5,0.3-1,0.7-1.5,1.1c-0.3,0.2-0.6,0.4-0.9,0.6   c-1,0.4-2,0.7-3,1c-0.4,0.1-0.6,0.3-0.6,0.7c0.2,1.4-0.6,2.7-1.9,3.2c-1.5,0.8-2.2,2.3-3.2,3.5c-1.4,1.8-2.7,3.7-4,5.5   c-0.3,0.4-0.5,0.4-0.8,0.2c-1.1-0.7-2.3-1.3-3.5-2c0.3-0.3,0.6-0.5,0.9-0.7c0.4-0.3,0.6-0.6,0.2-1c-0.1-0.1-0.1-0.1-0.1-0.2   c-0.5-1.2-1.5-2-2.8-2.2c-0.1,0-0.2-0.1-0.3-0.1c0-0.1,0-0.2,0.1-0.2c0.9-0.7,0.7-1.8,0.7-2.7c0-0.3-0.2-0.5-0.4-0.7   c-1-0.7-2-1.2-2.9-2c-0.6-0.4-1.3-0.6-2.1-0.5c-1.4,0.2-1.4,0.2-1.9-1.1c-0.8-1.8-1.6-3.7-2.4-5.4c-0.2-0.4-0.5-0.6-0.9-0.8   c-1.1-0.2-1.8-1.3-1.6-2.4c0,0,0,0,0,0c0-0.4-0.2-0.7-0.5-1c-1.6-1.5-3.6-2.2-5.4-3.2c-1.7-0.8-3.3-1.9-4.8-3   c-0.3-0.2-0.8-0.4-1.1-0.6c-0.3-0.2-0.5-0.4-0.8-0.6c-0.7-0.7-1.1-1.6-2.2-1.7c-0.2,0-0.4-0.5-0.7-0.7c-0.8-0.7-1.6-1.3-2.5-1.9   c-0.6-0.3-1-0.9-0.9-1.6c0-0.2,0-0.5,0-0.7c0.1-1.3-0.9-2.1-1.7-2.9s-0.7-0.7-0.1-1.5c0.3-0.2,0.3-0.7,0.1-0.9c0,0,0,0-0.1-0.1   c-0.5-0.6-1-1.1-1.5-1.5c-1-0.6-1.7-1.5-2.2-2.5c-0.2-0.7-0.9-1.1-1.6-1.1c-0.2,0-0.4-0.1-0.5-0.1c-0.7,0-1.3-0.5-1.4-1.2l0.5-0.2   c0.7-0.2,1.1-0.8,1-1.5c0-0.2-0.1-0.3-0.2-0.5c-0.4-0.8-0.7-1.6-1-2.4c-0.1-0.1-0.2-0.3-0.3-0.4C24.5,70,24.4,70,24.3,70   c-1.2-0.3-2.1-1.2-2.5-2.4c-0.2-0.5-0.5-0.8-1-0.9c-0.6-0.2-1.2-0.4-1.9-0.7l-0.2,1.4c-0.9,0-1-0.1-0.9-1c0.1-0.4,0.1-0.8,0-1.2   c-0.2-0.9,0.1-1.8,0.7-2.5c0.3-0.4,0.4-0.9,0.2-1.3c-0.4-0.7-0.5-1.6-0.2-2.4c0-0.2,0-0.4-0.1-0.6c-0.1-0.3-0.3-0.6-0.5-0.9   c-0.4-0.5-0.4-1.1-0.1-1.7c0.1-0.2,0.3-0.5-0.2-0.6s-0.8-0.5-1,0c-0.3,0.7-0.8,0.8-1.4,0.5c-0.7-0.3-1.4-0.2-1.7-0.7   s-0.2-1.2-0.1-1.8c0.1-0.4,0.2-0.7,0.3-1.1c0.1-0.2,0.2-0.3,0.2-0.5c0-0.7,0.4-0.8,1-0.8s1.2-0.2,1.9-0.3   c-0.3,1.4,0.5,2.8,1.8,3.3c0.2-0.8,0.5-1.5,0.7-2.3c0.4-1.6,1.1-3.2,2-4.5c0.2-0.5,0.2-1,0.1-1.5c-0.2-1,0-2,0.4-2.9   c0.7-1.2,0.4-2.4,0.3-3.6c-0.1-2-0.4-4-0.6-6c-0.1-0.5-0.3-0.9-0.6-1.3c-0.2-0.3-0.5-0.6-0.8-0.9c-0.7-0.5-0.4-1.2-0.3-1.8   c0-0.1,0.3-0.3,0.4-0.4c1.1-0.3,2-1.2,2.1-2.3c0.4-1.2,0.8-2.5,1.3-3.6c0.1-0.2,0.2-0.5,0.5-0.6c2.2-1.7,4.5-3.4,6.8-5   c0.7-0.4,1.1-1.1,1.2-1.9c0-0.6,0.5-1.2,1.2-1.3c0.2,0.4,0.5,0.7,0.8,1.1c0.2,0.2,0.4,0.3,0.6,0.3c0.7-0.1,1.4,0.1,2,0.5   c0.2,0.2,0.8,0.1,1.2,0.1s0.7,0.1,0.7,0.6c0,0.3,0,0.6,0.5,0.7c0.5,0,0.8,0,1-0.5c0.2-0.4,0.3-0.8,0.6-1.2   c0.4,0.1,0.8,0.2,1.2,0.3c0.7,0.1,1.4,0,2,0.1c0.3,0,0.6-0.2,0.6-0.5c0,0,0-0.1,0-0.1c0-0.8,0.6-1.5,1.4-1.6   c0.5-0.2,0.8-0.7,1.3-1.1c0.2,0.2,0.4,0.5,0.5,0.8c0.1,0.1,0.1,0.4,0,0.4c-0.6,0.6-1,1.4-1.2,2.3c-0.2,0.8-0.9,1.4-1.7,1.6   c-1.5,0.4-1.5,0.4-1.3,2c0.1,1.2,0.2,2.5,0.4,3.7c0.1,0.3-0.1,0.7-0.4,0.9c-0.6,0.4-1.2,0.9-1.8,1.3c-0.2,0.2-0.3,0.4-0.4,0.6   c0.1,1.1-0.3,2.1-0.9,2.9c-0.3,0.4-0.3,1,0.1,1.3c0.1,0.1,0.1,0.2,0.2,0.3c0.6,1.5,1.9,2.5,3.5,2.8c0.4,0.1,0.8,0.1,1.2-0.1   c0.6-0.3,1.3-0.6,2-0.8c0.4,0,0.8,0.1,1.1,0.3c0.8,0.7,1.8,0.9,2.8,0.6c0.3,0,0.6,0.1,0.8,0.3c0.7,0.7,1.4,1.5,2.1,2.3   c0.1,0.2,0.2,0.4,0.2,0.6c-0.1,1.9-0.3,3.9-0.4,5.8c0,0.4-0.2,0.6-0.5,0.7c-0.8,0-1.4,0.7-1.3,1.5c0,0,0,0,0,0.1   c0,0.2-0.1,0.4-0.1,0.6c-0.1,1-0.4,1.8-1.5,1.9c-0.1,0-0.3,0.4-0.2,0.5c0.2,0.7,0.5,1.4,0.7,2.1c0.2,0.3,0.1,0.8-0.1,1.1   c-0.4,0.5-0.5,1.1-0.4,1.7c0.1,0.5,0.1,1.1,0.1,1.7c0,0.4,0.2,0.7,0.6,0.8c1.1,0.4,2.2,0.6,3.4,0.5c0.4,0,0.8,0.1,1.2,0.3   c0.6,0.2,1.1,0.5,1.6,0.9c1.5,1,3.3,1.5,5.2,1.5c0.6-0.1,1.2,0.4,1.3,1c0.3,0.8,0.6,1.6,1,2.3c0.1,0.3,0.4,0.5,0.7,0.6   c2,0.3,3.8,1.1,5.3,2.5C71.1,64.8,71.4,65,71.7,65.2L71.7,65.2z"></path>		<text transform="matrix(1 0 0 1 23.8389 69.8759)" class="st1 st2 st3">Ica</text>	</g></g></svg>