<svg xmlns="http://www.w3.org/2000/svg" viewBox="0 0 255 255"><defs><style>.cls-1{fill:#c2a9d3;}</style></defs><g id="Capa_2" data-name="Capa 2"><g id="Capa_1-2" data-name="Capa 1"><path class="cls-1" d="M133.5,52.81l.35.1.45.11.5.11c.18,0,.34.06.49.08a8.12,8.12,0,0,0,1.77,0,5,5,0,0,0,1.47-.37,5.93,5.93,0,0,0,1.31-.79,10.92,10.92,0,0,0,1.3-1.21l.17.16-1.83,3.12-.57-.1a5.58,5.58,0,0,0-.57-.08l-6.13-.64c-.31,0-.63-.07-.94-.09l-1,0,0-.19a3.42,3.42,0,0,0,.94-.09,1,1,0,0,0,.53-.35,1.79,1.79,0,0,0,.28-.71c.06-.29.11-.67.16-1.13l.57-5.44c.05-.46.07-.84.08-1.14a1.83,1.83,0,0,0-.13-.75,1,1,0,0,0-.46-.46,3.43,3.43,0,0,0-.91-.27l0-.2,1.05.14,1,.14,1.12.12L136,43l2.28.23,2.32.19-.06.36c0,.12,0,.23,0,.34l-.07.65a5.85,5.85,0,0,0,0,.73c0,.25,0,.52,0,.81l-.22.05a4.06,4.06,0,0,0-.43-1.34,2.59,2.59,0,0,0-.73-.86,2.89,2.89,0,0,0-1-.48,6.93,6.93,0,0,0-1.17-.23c-.76-.08-1.52-.12-2.29-.14l-.43,4.08.63,0c.2,0,.41,0,.63,0a3.15,3.15,0,0,0,1.83-.26,2.22,2.22,0,0,0,1-1.56l.2,0c0,.39-.09.79-.14,1.18s-.1.77-.14,1.15-.08.78-.11,1.18-.06.78-.1,1.17l-.2,0a5,5,0,0,0-.24-1.15,1.86,1.86,0,0,0-.46-.72,2,2,0,0,0-.76-.39,6.9,6.9,0,0,0-1.12-.2l-1-.11Z"></path><path class="cls-1" d="M145.37,44.16l1,.36,1.15.36.68.18.69.16c.08.22.22.58.42,1.05s.44,1,.69,1.63l.83,2c.3.69.58,1.37.86,2l.75,1.83c.22.57.4,1,.52,1.38h0c.09-.31.19-.63.29-.93s.19-.62.28-.94l.54-1.82q.3-1,.45-1.77a4.59,4.59,0,0,0,.09-1.34,1.8,1.8,0,0,0-.37-.94,2.07,2.07,0,0,0-.92-.62l.05-.19,1.1.38,1.1.34,1,.29,1,.26-.05.18a2.11,2.11,0,0,0-1.53.18,2.14,2.14,0,0,0-.78,1.26l-2.47,8.33-.58-.17c-.31-1.07-.66-2.13-1.05-3.17s-.8-2-1.2-3-.81-1.84-1.21-2.67-.76-1.58-1.08-2.23c-.09.27-.18.54-.26.8s-.16.52-.24.8l-.82,2.75c-.27.93-.48,1.67-.6,2.22a3.78,3.78,0,0,0-.1,1.32,1.16,1.16,0,0,0,.46.77,5.77,5.77,0,0,0,1.08.57l0,.19-1.54-.51L144.12,55l-.91-.25-.9-.22.05-.18,1,.12a1.72,1.72,0,0,0,.73,0,1,1,0,0,0,.53-.35,2.53,2.53,0,0,0,.41-.81l2.32-7.16a4,4,0,0,0-.91-1,10.25,10.25,0,0,0-1.1-.76Z"></path><path class="cls-1" d="M165.8,64c-.35-.24-.69-.46-1-.68l-1-.65-1-.61c-.35-.2-.71-.39-1.09-.59l.1-.17a3.79,3.79,0,0,0,.92.34,1.05,1.05,0,0,0,.66-.09,1.62,1.62,0,0,0,.55-.51c.18-.25.39-.56.63-1l2.81-4.69c.24-.4.42-.73.55-1a1.75,1.75,0,0,0,.2-.74,1,1,0,0,0-.24-.61,3.21,3.21,0,0,0-.7-.64l.1-.17c.29.21.6.41.9.6s.61.39.92.57.91.51,1.37.73a13.94,13.94,0,0,1,1.37.73,3.79,3.79,0,0,1,1,.84,4.17,4.17,0,0,1,.71,1.18,3.4,3.4,0,0,1,.26,1.34,2.56,2.56,0,0,1-.39,1.34,2.33,2.33,0,0,1-1,1,2.77,2.77,0,0,1-1.23.28,3.63,3.63,0,0,1-1.29-.21,6,6,0,0,1-1.2-.55q-.42-.26-.84-.57a4.32,4.32,0,0,1-.75-.73l-1.27,2.11c-.24.4-.42.73-.55,1a1.59,1.59,0,0,0-.19.73,1,1,0,0,0,.23.62,3.3,3.3,0,0,0,.71.64Zm1.47-5.77a2.69,2.69,0,0,0,.55.66,4.76,4.76,0,0,0,.68.5,3.17,3.17,0,0,0,.92.37,2.39,2.39,0,0,0,.92,0,2,2,0,0,0,.84-.32,2.4,2.4,0,0,0,.68-.73,3.24,3.24,0,0,0,.42-1.1,2.63,2.63,0,0,0,0-1,2.39,2.39,0,0,0-.45-.92A2.84,2.84,0,0,0,171,55c-.16-.1-.37-.21-.61-.33a2.67,2.67,0,0,0-.78-.22Z"></path><path class="cls-1" d="M174.3,69.09l.24.28.3.35.35.37.36.34a8.92,8.92,0,0,0,1.45,1,5.37,5.37,0,0,0,1.43.52,5.51,5.51,0,0,0,1.53.09,12.72,12.72,0,0,0,1.75-.27l0,.22-3.27,1.56a5.29,5.29,0,0,0-.41-.41,5.22,5.22,0,0,0-.43-.39l-4.7-4c-.24-.21-.49-.41-.74-.6s-.5-.39-.75-.58l.12-.15a3.77,3.77,0,0,0,.82.46,1,1,0,0,0,.64,0,1.73,1.73,0,0,0,.63-.42c.21-.21.47-.5.77-.85L178,62.47c.29-.35.53-.65.7-.9a1.76,1.76,0,0,0,.32-.69,1,1,0,0,0-.13-.64,3.38,3.38,0,0,0-.59-.74l.13-.15.78.71.77.68.86.74,1,.87,1.76,1.48,1.81,1.46-.25.26-.23.26-.42.5a6.41,6.41,0,0,0-.45.58l-.47.66-.21-.09a3.92,3.92,0,0,0,.4-1.35,2.58,2.58,0,0,0-.12-1.12,3.11,3.11,0,0,0-.54-.95,6.66,6.66,0,0,0-.84-.84c-.58-.49-1.18-1-1.81-1.41l-2.65,3.13.49.4.5.39a3.12,3.12,0,0,0,1.66.82,2.21,2.21,0,0,0,1.68-.74l.15.13c-.25.3-.51.6-.77.89l-.77.88-.75.91-.75.91-.15-.13a5,5,0,0,0,.45-1.08,1.68,1.68,0,0,0,0-.86,2,2,0,0,0-.4-.75,7.7,7.7,0,0,0-.81-.79l-.8-.68Z"></path><path class="cls-1" d="M188.24,84.57l-1.89-2.27a28,28,0,0,1,.56-3,17.79,17.79,0,0,1,.93-2.81c-.07-.09-.15-.2-.24-.34s-.19-.3-.28-.45-.18-.32-.26-.47l-.19-.39-2,1.64a9,9,0,0,0-.85.76,1.58,1.58,0,0,0-.43.63,1.07,1.07,0,0,0,0,.66,3.72,3.72,0,0,0,.47.84l-.15.13-.76-1c-.26-.33-.52-.65-.79-1s-.51-.61-.77-.91l-.8-.87.15-.13a3.29,3.29,0,0,0,.73.59,1,1,0,0,0,.63.12,1.67,1.67,0,0,0,.7-.3,10.41,10.41,0,0,0,.9-.7l4.21-3.5c.35-.3.64-.55.85-.76a1.82,1.82,0,0,0,.42-.63,1,1,0,0,0,0-.65A3.86,3.86,0,0,0,189,69l.15-.13q.31.43.63.84l.66.82q.15.18.39.42l.51.53.54.56c.18.19.34.36.47.52a5.89,5.89,0,0,1,.79,1.23,4.13,4.13,0,0,1,.41,1.38,3.28,3.28,0,0,1-.15,1.39,2.69,2.69,0,0,1-.87,1.21,2.26,2.26,0,0,1-.91.49,2.52,2.52,0,0,1-.94.08,3,3,0,0,1-.94-.28,4.06,4.06,0,0,1-.86-.55c-.11.28-.22.61-.34,1s-.22.76-.32,1.18S188,80.54,188,81a7.11,7.11,0,0,0-.1,1.28,6.61,6.61,0,0,0,.11,1.2,2.75,2.75,0,0,0,.42,1Zm-.94-10a4.28,4.28,0,0,0,.76,1.35A3,3,0,0,0,189.79,77a2.35,2.35,0,0,0,1.92-.69,2.28,2.28,0,0,0,.62-.78,2.39,2.39,0,0,0,.06-1.87,2.74,2.74,0,0,0-.49-.86,6.1,6.1,0,0,0-.54-.59,3.19,3.19,0,0,0-.6-.5l-1.26,1c-.42.33-.86.7-1.34,1.1Z"></path><path class="cls-1" d="M197.76,82.78a2.12,2.12,0,0,0,.58-.43.85.85,0,0,0,.22-.43,1,1,0,0,0,0-.49l-.18-.59.17-.1c.2.41.41.82.61,1.21l.65,1.19c.16.28.32.57.49.84s.34.55.52.83l-.18.1a3.83,3.83,0,0,0-.56-.68,1.26,1.26,0,0,0-.55-.32,1.33,1.33,0,0,0-.62,0,3.56,3.56,0,0,0-.76.33l-4.67,2.6a2.82,2.82,0,0,0-1,.86,2.26,2.26,0,0,0-.42,1,2.73,2.73,0,0,0,.07,1.13,4.52,4.52,0,0,0,.46,1.16,4.09,4.09,0,0,0,1.11,1.35,3.13,3.13,0,0,0,1.19.56A2.6,2.6,0,0,0,196,93a3.3,3.3,0,0,0,.86-.31l4-2.24a8.41,8.41,0,0,0,.94-.58,2,2,0,0,0,.53-.56,1.19,1.19,0,0,0,.15-.64,3,3,0,0,0-.21-.8l.17-.1.45.91c.15.29.31.59.48.89l.42.72c.14.23.29.47.45.7l-.17.1a5.33,5.33,0,0,0-.42-.49,1.13,1.13,0,0,0-.5-.28,1.48,1.48,0,0,0-.68,0,4.56,4.56,0,0,0-1,.43l-4.28,2.39a3.81,3.81,0,0,1-1.65.52A3.52,3.52,0,0,1,194,93.4a4,4,0,0,1-1.3-.9,6,6,0,0,1-1.05-1.4,5.68,5.68,0,0,1-.58-1.51,3.93,3.93,0,0,1-.08-1.52,3.24,3.24,0,0,1,1.7-2.46Zm6.57,2.72a6.81,6.81,0,0,1,.67.18.65.65,0,0,1,.37.29c.22.39.18.67-.13.84a.7.7,0,0,1-.4.07,1.36,1.36,0,0,1-.46-.13l-2.49-1.24-.35-.63Z"></path><path class="cls-1" d="M207,109a7.1,7.1,0,0,0,.86-.8,5,5,0,0,0,.68-1,4.09,4.09,0,0,0,.37-1.12,2.78,2.78,0,0,0-.08-1.21,3.11,3.11,0,0,0-.73-1.39,1.3,1.3,0,0,0-1.34-.25,1.54,1.54,0,0,0-.81.5,2.59,2.59,0,0,0-.47.87,7.11,7.11,0,0,0-.25,1.14q-.09.61-.18,1.26c-.06.43-.13.85-.22,1.27a5.15,5.15,0,0,1-.41,1.18,3.35,3.35,0,0,1-.73.94,2.8,2.8,0,0,1-1.18.6,3,3,0,0,1-1.41.08,2.82,2.82,0,0,1-1.14-.51,3.35,3.35,0,0,1-.84-1,5.54,5.54,0,0,1-.54-1.32,4.46,4.46,0,0,1-.16-.84q0-.45-.06-.87c0-.28,0-.54,0-.77a3.12,3.12,0,0,0-.06-.53,1.17,1.17,0,0,0-.15-.32q-.11-.14-.21-.3c.57-.25,1.13-.52,1.67-.81l1.65-.87.16.18a11.61,11.61,0,0,0-1,1,7.06,7.06,0,0,0-.85,1.2,5.24,5.24,0,0,0-.52,1.34,2.85,2.85,0,0,0,0,1.42,4,4,0,0,0,.34.85,2.38,2.38,0,0,0,.53.67,1.67,1.67,0,0,0,.72.35,1.83,1.83,0,0,0,.92,0,1.87,1.87,0,0,0,1.12-.8,4.75,4.75,0,0,0,.56-1.38,13.35,13.35,0,0,0,.28-1.66,11.79,11.79,0,0,1,.31-1.67,4.69,4.69,0,0,1,.62-1.4,2.14,2.14,0,0,1,1.24-.83,2.64,2.64,0,0,1,1.18-.06,2.69,2.69,0,0,1,1,.4,3.16,3.16,0,0,1,.8.79,3.32,3.32,0,0,1,.49,1.08,6.09,6.09,0,0,1,.21,1.07c0,.33.06.65.08,1l.06,1a5.08,5.08,0,0,0,.17,1l-1.38.4c-.44.14-.88.3-1.32.47Z"></path><path class="cls-1" d="M200.47,114.68a3,3,0,0,0,.3.88,1,1,0,0,0,.47.44,1.71,1.71,0,0,0,.76.12c.3,0,.67-.06,1.13-.12l5.42-.74c.46-.06.83-.13,1.13-.2a1.58,1.58,0,0,0,.69-.31,1,1,0,0,0,.34-.56,3.84,3.84,0,0,0,0-1l.19,0c.05.46.09.9.14,1.33s.1.87.16,1.33.11.71.17,1.07.12.7.19,1l-.2,0a3.12,3.12,0,0,0-.3-.87.93.93,0,0,0-.47-.43,1.71,1.71,0,0,0-.75-.1c-.3,0-.68,0-1.14.11l-5.42.74c-.45.07-.83.13-1.12.2a1.68,1.68,0,0,0-.7.31,1,1,0,0,0-.33.57,3.11,3.11,0,0,0-.05,1l-.2,0c0-.42-.07-.83-.12-1.24s-.1-.83-.15-1.24-.11-.79-.18-1.18-.13-.78-.21-1.16Z"></path><path class="cls-1" d="M202,125.36c0,.1-.05.22-.07.36s0,.29-.07.46,0,.33,0,.51a4.15,4.15,0,0,0,0,.49,8.58,8.58,0,0,0,.16,1.76,5.07,5.07,0,0,0,.52,1.43,5.84,5.84,0,0,0,.92,1.22,12.6,12.6,0,0,0,1.34,1.17l-.15.18-3.29-1.5c0-.19,0-.38,0-.57s0-.39,0-.58v-6.16c0-.32,0-.64,0-.95s0-.64-.05-1h.2a3.43,3.43,0,0,0,.17.91,1,1,0,0,0,.41.5,1.66,1.66,0,0,0,.73.2c.3,0,.68,0,1.14,0h5.48c.46,0,.84,0,1.14,0a2,2,0,0,0,.73-.2,1,1,0,0,0,.41-.51,3.33,3.33,0,0,0,.18-.94h.2c0,.38,0,.73,0,1.06s0,.68,0,1,0,.74,0,1.14v1.35c0,.76,0,1.53,0,2.29s0,1.54.05,2.33l-.36,0h-1c-.24,0-.49,0-.73,0l-.81.06-.07-.21a4.17,4.17,0,0,0,1.29-.56,2.88,2.88,0,0,0,.78-.82,3,3,0,0,0,.38-1,7.31,7.31,0,0,0,.1-1.18c0-.76,0-1.53-.1-2.29h-4.09c0,.22,0,.43,0,.63s0,.41,0,.63a3.18,3.18,0,0,0,.44,1.8,2.21,2.21,0,0,0,1.65.81v.2l-1.18,0-1.16,0-1.18,0h-1.18v-.2a4.34,4.34,0,0,0,1.12-.36,1.62,1.62,0,0,0,.66-.53,1.83,1.83,0,0,0,.32-.79,7.4,7.4,0,0,0,.08-1.13v-1Z"></path><path class="cls-1" d="M209.93,146c-.1.38-.19.76-.28,1.14s-.17.77-.25,1.16-.14.68-.2,1-.11.68-.16,1l-.19,0a2.61,2.61,0,0,0-.16-1.19,1.18,1.18,0,0,0-.95-.64,9.94,9.94,0,0,0-1.34-.15c-.62,0-1.3-.08-2-.1l-2.23-.06h-1.91a3.3,3.3,0,0,0-.6.07,1.33,1.33,0,0,0-.48.18,1.26,1.26,0,0,0-.41.44,4,4,0,0,0-.36.81l-.19,0c.11-.42.21-.85.31-1.27s.19-.84.28-1.27.16-.81.23-1.2.13-.8.19-1.21l.2,0c0,.23,0,.46,0,.67a2.06,2.06,0,0,0,.11.58,1,1,0,0,0,.32.44,1.52,1.52,0,0,0,.64.27l.52.09a5.47,5.47,0,0,0,.76,0l6.7.22v0c-.71-.46-1.41-.93-2.09-1.42l-2.07-1.44c-.7-.48-1.4-1-2.12-1.41s-1.45-.91-2.21-1.32v0c1.76-.18,3.48-.43,5.15-.76s3.35-.71,5-1.13v0l-1.91-.66-2-.66c-.66-.21-1.27-.39-1.83-.55s-1-.26-1.24-.32a6.24,6.24,0,0,0-.93-.12,1.54,1.54,0,0,0-.7.15,1.4,1.4,0,0,0-.51.49,3.85,3.85,0,0,0-.35.91l-.19,0c.11-.44.22-.88.32-1.31s.19-.86.28-1.31.13-.66.19-1,.11-.66.15-1l.2,0a3.18,3.18,0,0,0,0,.69,2.28,2.28,0,0,0,.14.66,1.59,1.59,0,0,0,.31.54,1.19,1.19,0,0,0,.5.35l1.15.42,1.19.41,5.56,1.94a3.1,3.1,0,0,0,.62-.71,4.82,4.82,0,0,0,.44-.88l.2,0c-.12.46-.23.91-.33,1.36s-.21.91-.3,1.37-.13.67-.19,1l-.15,1-.19,0a2.1,2.1,0,0,0-.15-.61.68.68,0,0,0-.54-.38,1.68,1.68,0,0,0-.55,0l-.57.09-6,1.13c1,.78,2.06,1.53,3.1,2.25s2.11,1.42,3.23,2.07a1.4,1.4,0,0,0,.42-.35,2.77,2.77,0,0,0,.31-.45Z"></path><path class="cls-1" d="M195.47,155.66c.18-.37.35-.75.52-1.12s.33-.76.49-1.14.31-.75.45-1.12.29-.76.43-1.16l.18.08a3.85,3.85,0,0,0-.2,1,1,1,0,0,0,.17.64,1.67,1.67,0,0,0,.6.48c.26.14.61.3,1,.48l5.06,2.11c.42.17.77.31,1.06.4a1.61,1.61,0,0,0,.76.08,1,1,0,0,0,.58-.32,3.84,3.84,0,0,0,.52-.79l.18.08c-.16.32-.31.65-.46,1s-.29.66-.43,1a13.38,13.38,0,0,0-.52,1.46c-.15.49-.32,1-.52,1.46a4.1,4.1,0,0,1-.7,1.09,4.29,4.29,0,0,1-1.06.88,3.69,3.69,0,0,1-1.28.45,2.7,2.7,0,0,1-1.39-.2,2.33,2.33,0,0,1-1.08-.84,2.73,2.73,0,0,1-.46-1.18,3.85,3.85,0,0,1,0-1.31,5.52,5.52,0,0,1,.37-1.27,8.5,8.5,0,0,1,.44-.92,4.3,4.3,0,0,1,.61-.84l-2.27-.95c-.42-.18-.78-.31-1.06-.4a1.77,1.77,0,0,0-.76-.09,1.06,1.06,0,0,0-.58.32,4,4,0,0,0-.52.8Zm5.92.62a2.69,2.69,0,0,0-.58.64,5.34,5.34,0,0,0-.39.75,3.06,3.06,0,0,0-.23,1,2.31,2.31,0,0,0,.09.92,2,2,0,0,0,.45.78,2.19,2.19,0,0,0,.81.57,3.11,3.11,0,0,0,1.16.25,2.48,2.48,0,0,0,1-.18,2.53,2.53,0,0,0,.85-.58,2.76,2.76,0,0,0,.6-.93c.07-.18.15-.4.23-.66a2.6,2.6,0,0,0,.11-.79Z"></path><path class="cls-1" d="M186.7,171.52l1.57-2.49a28.64,28.64,0,0,1,3-.39,19.65,19.65,0,0,1,3,0,3.12,3.12,0,0,1,.25-.34l.34-.4.36-.39a4,4,0,0,1,.31-.3l-2.16-1.36a9.75,9.75,0,0,0-1-.57,1.6,1.6,0,0,0-.73-.21,1,1,0,0,0-.62.22,3.1,3.1,0,0,0-.66.71l-.17-.11c.24-.34.48-.68.71-1s.46-.69.68-1l.62-1c.2-.33.4-.68.59-1l.16.1a3.4,3.4,0,0,0-.33.88,1,1,0,0,0,.08.64,1.7,1.7,0,0,0,.5.57c.24.18.56.39.94.64l4.64,2.92q.58.36,1,.57a1.86,1.86,0,0,0,.73.21,1,1,0,0,0,.61-.21,3.3,3.3,0,0,0,.64-.68l.17.1q-.31.43-.6.87c-.2.29-.39.58-.58.88-.08.12-.17.29-.28.49l-.34.65c-.12.23-.24.46-.37.69s-.24.44-.35.61a6.42,6.42,0,0,1-.92,1.13,4.19,4.19,0,0,1-1.19.81,3.24,3.24,0,0,1-1.37.29,2.63,2.63,0,0,1-1.42-.45,2.44,2.44,0,0,1-.75-.71,2.48,2.48,0,0,1-.36-.88,2.86,2.86,0,0,1,0-1,4.23,4.23,0,0,1,.25-1l-1,0c-.38,0-.79,0-1.21.06s-.86.09-1.29.16a7.23,7.23,0,0,0-1.26.29,6,6,0,0,0-1.09.48,2.59,2.59,0,0,0-.82.71Zm9.26-4a4.08,4.08,0,0,0-1.05,1.14,3,3,0,0,0-.56,2,2.36,2.36,0,0,0,1.25,1.62,2.26,2.26,0,0,0,.93.35,2.49,2.49,0,0,0,.94-.08,2.6,2.6,0,0,0,.86-.44,2.88,2.88,0,0,0,.66-.73c.15-.23.28-.47.41-.7a3.79,3.79,0,0,0,.28-.73c-.43-.3-.87-.6-1.32-.89s-.93-.61-1.46-.94Z"></path><path class="cls-1" d="M184,175.52l-.29.22-.36.3-.38.34-.35.35a8.38,8.38,0,0,0-1.06,1.41,5.25,5.25,0,0,0-.56,1.41,5.89,5.89,0,0,0-.14,1.53,11,11,0,0,0,.22,1.76l-.23,0-1.45-3.32q.21-.18.42-.39c.14-.14.28-.28.4-.42l4.13-4.57.62-.72c.21-.24.41-.49.6-.74l.15.13a3.34,3.34,0,0,0-.48.8,1,1,0,0,0,0,.64,1.72,1.72,0,0,0,.41.64,10.7,10.7,0,0,0,.82.8l4.06,3.67c.34.3.63.55.88.73a1.64,1.64,0,0,0,.68.33.92.92,0,0,0,.64-.1,3.46,3.46,0,0,0,.76-.57l.15.13-.74.76-.71.75-.76.84-.91,1c-.51.57-1,1.14-1.52,1.72s-1,1.16-1.52,1.76c-.09-.09-.17-.18-.26-.26l-.25-.24-.48-.44c-.18-.16-.37-.31-.57-.46s-.41-.31-.64-.5l.09-.2a3.81,3.81,0,0,0,1.34.44,2.76,2.76,0,0,0,1.12-.08,3.12,3.12,0,0,0,1-.51,6.48,6.48,0,0,0,.86-.81c.52-.57,1-1.16,1.47-1.77l-3.05-2.75-.41.48a5.82,5.82,0,0,1-.41.48,3.26,3.26,0,0,0-.87,1.64,2.21,2.21,0,0,0,.68,1.7l-.13.15-.86-.8c-.29-.27-.57-.54-.86-.79s-.58-.53-.88-.78l-.89-.78.13-.15a4.89,4.89,0,0,0,1.08.49,1.92,1.92,0,0,0,.85.05,2,2,0,0,0,.76-.39,6.38,6.38,0,0,0,.82-.78l.7-.78Z"></path><path class="cls-1" d="M171,195.94a6,6,0,0,0,1,.54,4.36,4.36,0,0,0,1.16.32,3.6,3.6,0,0,0,1.18,0,2.7,2.7,0,0,0,1.11-.47,3,3,0,0,0,1.07-1.15,1.3,1.3,0,0,0-.2-1.35,1.57,1.57,0,0,0-.74-.6,2.56,2.56,0,0,0-1-.15,7,7,0,0,0-1.15.13l-1.25.25c-.42.09-.85.16-1.28.21a4.29,4.29,0,0,1-1.24,0,3.2,3.2,0,0,1-1.13-.37,3,3,0,0,1-1-.92,3.1,3.1,0,0,1-.54-1.31,2.6,2.6,0,0,1,.12-1.24,3.25,3.25,0,0,1,.64-1.12,5.5,5.5,0,0,1,1.07-.95,5.74,5.74,0,0,1,.74-.42c.28-.12.54-.24.8-.34l.72-.28a3.52,3.52,0,0,0,.48-.24,1.14,1.14,0,0,0,.25-.24c.07-.1.14-.19.21-.3.44.46.87.89,1.32,1.31l1.36,1.27-.11.21c-.38-.2-.8-.39-1.26-.58a7.9,7.9,0,0,0-1.42-.4,5.35,5.35,0,0,0-1.44,0,2.84,2.84,0,0,0-1.32.49,4.09,4.09,0,0,0-.7.61,2.36,2.36,0,0,0-.45.71,1.67,1.67,0,0,0-.1.8,2,2,0,0,0,.35.86,1.85,1.85,0,0,0,1.12.79,4.51,4.51,0,0,0,1.48.07,11.88,11.88,0,0,0,1.67-.28,11.58,11.58,0,0,1,1.68-.25,4.72,4.72,0,0,1,1.52.12,2.12,2.12,0,0,1,1.19.9,2.62,2.62,0,0,1,.45,1.1,2.76,2.76,0,0,1,0,1.11,2.93,2.93,0,0,1-.48,1,3.37,3.37,0,0,1-.86.82,6,6,0,0,1-.94.55l-.88.39-.88.37a4.64,4.64,0,0,0-.86.48l-.83-1.17c-.28-.37-.57-.74-.88-1.09Z"></path><path class="cls-1" d="M163,197.12l-.28-3.15a2.18,2.18,0,0,1,0-.25.56.56,0,0,0-.06-.21.76.76,0,0,0-.37-.38,1.34,1.34,0,0,0-.53-.14,2.53,2.53,0,0,0-.55,0,3.4,3.4,0,0,0-.45.08l-.08-.17.91-.38c.3-.13.6-.26.91-.41l.86-.42.88-.46.08.17a2.38,2.38,0,0,0-.61.68,2.12,2.12,0,0,0-.27.75,3.78,3.78,0,0,0-.06.83c0,.28,0,.58,0,.88l.39,7.51c0,.09,0,.17,0,.24a.48.48,0,0,0,0,.18,1,1,0,0,0,.16.2,1.16,1.16,0,0,0,.25.2,3.34,3.34,0,0,0-.58.51l-.5.54-7.07-7a2.49,2.49,0,0,0-1-.64,2.14,2.14,0,0,0-1.3.09l-.08-.18c.41-.16.8-.33,1.19-.5l1.2-.54.7-.33.53-.26.44-.23.45-.25.09.18a2.76,2.76,0,0,0-.9.81.79.79,0,0,0-.11.85.65.65,0,0,0,.16.22,1.53,1.53,0,0,1,.18.18l2.25,2.28Zm.38,5-.32-4.45-2.79,1.31Z"></path><path class="cls-1" d="M152.49,205c.12.44.24.8.34,1.09a1.72,1.72,0,0,0,.4.64,1,1,0,0,0,.59.27,3.62,3.62,0,0,0,.93-.07l.06.19-1,.21-1,.25c-.42.12-.84.26-1.25.41a12.4,12.4,0,0,1-1.34.44,7.72,7.72,0,0,1-1.44.24,4.84,4.84,0,0,1-1.48-.11,3.14,3.14,0,0,1-1.28-.63,2.45,2.45,0,0,1-.8-1.3,2.11,2.11,0,0,1,.1-1.42,2.41,2.41,0,0,1,.89-1.1v0a3.86,3.86,0,0,1-2-.6,3,3,0,0,1-1.13-1.74,2.31,2.31,0,0,1,0-1.3,2.46,2.46,0,0,1,.63-1,3.84,3.84,0,0,1,1.07-.74,8.09,8.09,0,0,1,1.33-.49q1.1-.3,2.16-.51c.72-.14,1.44-.31,2.17-.51l.73-.22.72-.25.05.19a3.24,3.24,0,0,0-.82.42,1,1,0,0,0-.37.52,1.93,1.93,0,0,0,0,.76c.05.3.14.67.26,1.11Zm-3.32-6.54a.68.68,0,0,0-.36-.14,3.63,3.63,0,0,0-.58,0,4.25,4.25,0,0,0-.69.07,4.4,4.4,0,0,0-.67.14,2.9,2.9,0,0,0-1.82,1.22,2.68,2.68,0,0,0-.18,2.15,2.17,2.17,0,0,0,.78,1.15,4.12,4.12,0,0,0,1.24.69l.73-.33a5.65,5.65,0,0,1,.76-.26c.32-.09.65-.16,1-.22a4.27,4.27,0,0,1,1,0Zm1.35,4.94a3.06,3.06,0,0,0-1-.06,4.79,4.79,0,0,0-.92.16,2.62,2.62,0,0,0-1.53,1,2.05,2.05,0,0,0-.23,1.8,2.17,2.17,0,0,0,.49.91,2.46,2.46,0,0,0,.78.57,2.67,2.67,0,0,0,1,.24,2.9,2.9,0,0,0,1.05-.11l.73-.23a3.24,3.24,0,0,0,.69-.36Z"></path><path class="cls-1" d="M136.79,200.85l-.36,0h-1l-.49,0a9.09,9.09,0,0,0-1.74.34,5.07,5.07,0,0,0-1.36.67,5.79,5.79,0,0,0-1.13,1,11.36,11.36,0,0,0-1,1.45l-.19-.13,1.15-3.43a5.66,5.66,0,0,0,.58,0,5.46,5.46,0,0,0,.57,0l6.13-.62,1-.11.94-.14,0,.19a4.09,4.09,0,0,0-.9.27,1,1,0,0,0-.45.46,1.83,1.83,0,0,0-.13.75c0,.3,0,.68.08,1.14l.55,5.44a10.15,10.15,0,0,0,.15,1.13,1.79,1.79,0,0,0,.28.71,1,1,0,0,0,.55.36,3.52,3.52,0,0,0,.94.08l0,.2-1,.07-1,.08-1.13.1-1.35.14-2.28.25-2.31.28c0-.12,0-.24,0-.36a3.31,3.31,0,0,0,0-.34l-.06-.66c0-.24-.06-.48-.11-.72s-.09-.51-.14-.8l.2-.09a4.18,4.18,0,0,0,.69,1.23,2.65,2.65,0,0,0,.9.69,3.13,3.13,0,0,0,1,.27,6.82,6.82,0,0,0,1.19,0c.76-.08,1.52-.19,2.27-.33l-.41-4.08-.63.08a5.82,5.82,0,0,1-.62.08,3.21,3.21,0,0,0-1.74.63,2.22,2.22,0,0,0-.65,1.72l-.19,0c0-.39-.07-.78-.1-1.17s-.07-.78-.1-1.16-.09-.78-.14-1.17-.09-.79-.13-1.18l.19,0a5.09,5.09,0,0,0,.47,1.08,1.67,1.67,0,0,0,.6.61,1.88,1.88,0,0,0,.82.23,7.59,7.59,0,0,0,1.14,0l1-.11Z"></path><path class="cls-1" d="M117.1,210.87l-1.17-.16c-.39-.06-.78-.1-1.17-.14l-1-.09-1,0,0-.2a2.79,2.79,0,0,0,1.16-.27,1.18,1.18,0,0,0,.55-1,11,11,0,0,0,0-1.34c0-.63,0-1.31-.11-2s-.11-1.48-.17-2.22-.13-1.38-.2-1.9a4.08,4.08,0,0,0-.12-.59,1.53,1.53,0,0,0-.23-.46,1.32,1.32,0,0,0-.48-.36,3.61,3.61,0,0,0-.84-.27l0-.2,1.29.18,1.29.14,1.22.11,1.22.07,0,.2-.66.05a1.82,1.82,0,0,0-.57.17,1,1,0,0,0-.41.36,1.56,1.56,0,0,0-.2.67c0,.13,0,.3,0,.52a4,4,0,0,0,0,.76l.47,6.69h0c.38-.75.78-1.5,1.2-2.23s.82-1.47,1.22-2.21.8-1.49,1.19-2.24.75-1.54,1.08-2.34h0c.36,1.74.78,3.42,1.29,5.05s1,3.26,1.64,4.9h0c.15-.59.3-1.24.46-2s.31-1.42.45-2.11.26-1.31.36-1.87.17-1,.2-1.28a6,6,0,0,0,0-.93,1.41,1.41,0,0,0-.23-.68,1.24,1.24,0,0,0-.53-.45,3.58,3.58,0,0,0-.94-.26l0-.2,1.33.19,1.34.15,1,.08,1,0,0,.2a3.22,3.22,0,0,0-.69.06,2.29,2.29,0,0,0-.64.21,1.68,1.68,0,0,0-.51.36,1.17,1.17,0,0,0-.29.54c-.1.37-.2.77-.3,1.18s-.19.82-.29,1.23L124,210.64a2.94,2.94,0,0,0,.77.54,5,5,0,0,0,.92.35l0,.2-1.39-.19-1.39-.16-1-.08-1-.05,0-.2a1.55,1.55,0,0,0,.59-.21.67.67,0,0,0,.32-.57,1.64,1.64,0,0,0,0-.54c0-.18-.09-.37-.15-.56l-1.74-5.88c-.67,1.1-1.31,2.2-1.93,3.31s-1.19,2.25-1.72,3.43a1.29,1.29,0,0,0,.39.38,2.82,2.82,0,0,0,.48.27Z"></path><path class="cls-1" d="M108.87,204.09a5.45,5.45,0,0,1-1.2,2.11,5.21,5.21,0,0,1-1.79,1.29,5.58,5.58,0,0,1-2.17.46,7,7,0,0,1-2.36-.36,7.12,7.12,0,0,1-2.12-1.1,5.64,5.64,0,0,1-1.48-1.65,5.42,5.42,0,0,1-.69-2.1,5.66,5.66,0,0,1,3.27-5.81,5.77,5.77,0,0,1,2.17-.46,7.48,7.48,0,0,1,2.36.36,7.36,7.36,0,0,1,2.12,1.1,5.68,5.68,0,0,1,1.48,1.66,5.32,5.32,0,0,1,.69,2.09A5.52,5.52,0,0,1,108.87,204.09Zm-1.65-.54a6,6,0,0,0,.31-1.91,4.87,4.87,0,0,0-.31-1.8,4.06,4.06,0,0,0-.94-1.48,4,4,0,0,0-1.6-1,3.89,3.89,0,0,0-1.86-.17,4.11,4.11,0,0,0-1.64.64,4.78,4.78,0,0,0-1.31,1.27,6.27,6.27,0,0,0-.88,1.73,6,6,0,0,0-.31,1.91,4.8,4.8,0,0,0,.31,1.8,4.33,4.33,0,0,0,.94,1.49,4,4,0,0,0,1.6,1,3.88,3.88,0,0,0,1.86.16,4.1,4.1,0,0,0,1.64-.63,4.93,4.93,0,0,0,1.31-1.27A6.19,6.19,0,0,0,107.22,203.55Z"></path><path class="cls-1" d="M86.51,197.31a5.81,5.81,0,0,0,0,1.18,4.51,4.51,0,0,0,.25,1.17,3.77,3.77,0,0,0,.57,1,2.89,2.89,0,0,0,.92.77,3.16,3.16,0,0,0,1.52.42,1.3,1.3,0,0,0,1.1-.81,1.5,1.5,0,0,0,.19-.93,2.73,2.73,0,0,0-.31-.94,8.14,8.14,0,0,0-.65-1l-.8-1c-.28-.34-.53-.68-.78-1a5.31,5.31,0,0,1-.57-1.11,3.14,3.14,0,0,1-.19-1.18,2.85,2.85,0,0,1,.37-1.27,3,3,0,0,1,.91-1.08,2.68,2.68,0,0,1,1.15-.47,3.32,3.32,0,0,1,1.29,0,5.5,5.5,0,0,1,1.34.51,5.89,5.89,0,0,1,.72.47l.67.55.58.5a2.23,2.23,0,0,0,.43.32,1.42,1.42,0,0,0,.33.11l.36.05c-.2.6-.39,1.19-.55,1.77s-.33,1.19-.49,1.8h-.24a13.9,13.9,0,0,0-.07-1.39,7.84,7.84,0,0,0-.3-1.44,5.37,5.37,0,0,0-.62-1.3,2.84,2.84,0,0,0-1-1,3.47,3.47,0,0,0-.86-.33,2.21,2.21,0,0,0-.84-.07,1.58,1.58,0,0,0-.75.27,2,2,0,0,0-.6.71,1.83,1.83,0,0,0-.19,1.36,4.78,4.78,0,0,0,.62,1.35,12,12,0,0,0,1,1.35,11.08,11.08,0,0,1,1,1.37,4.29,4.29,0,0,1,.59,1.41,2.09,2.09,0,0,1-.24,1.46,2.65,2.65,0,0,1-.77.91,2.72,2.72,0,0,1-1,.48,3,3,0,0,1-1.12,0,3.51,3.51,0,0,1-1.13-.38,7,7,0,0,1-.92-.58c-.26-.2-.51-.4-.75-.61l-.73-.6a4.57,4.57,0,0,0-.83-.54c.23-.44.45-.86.65-1.28s.4-.85.57-1.29Z"></path><path class="cls-1" d="M82.3,185.72a3,3,0,0,0-.76-.45,1.4,1.4,0,0,0-.57-.11.77.77,0,0,0-.41.13,1.81,1.81,0,0,0-.3.25l-5.11,5.6a4.61,4.61,0,0,0-.39.49.89.89,0,0,0-.16.49,1.07,1.07,0,0,0,.15.56,3.8,3.8,0,0,0,.54.71l-.13.15c-.19-.21-.39-.41-.6-.61s-.4-.4-.61-.59A20.56,20.56,0,0,0,72.29,191a18.08,18.08,0,0,1-1.56-1.27,7.37,7.37,0,0,1-1.57-2,6.19,6.19,0,0,1-.72-2.24,5.58,5.58,0,0,1,.22-2.29,5.76,5.76,0,0,1,1.26-2.14,5,5,0,0,1,1.93-1.38,4.6,4.6,0,0,1,2-.28,5.46,5.46,0,0,1,2,.61,8.47,8.47,0,0,1,1.82,1.28l1.11,1,.81.76c.24.21.44.4.63.58l.52.49.83.73c.27.23.55.47.84.7Zm-3-1.27a2.9,2.9,0,0,0-.43-1.32,4.79,4.79,0,0,0-.88-1.07,4.7,4.7,0,0,0-3.59-1.52,5.45,5.45,0,0,0-3.38,2,5.32,5.32,0,0,0-1.06,1.73,4.89,4.89,0,0,0-.3,1.92,4.79,4.79,0,0,0,.47,1.89,5.27,5.27,0,0,0,1.25,1.68,5.5,5.5,0,0,0,1.92,1.13c.42-.39.82-.79,1.21-1.2l1.18-1.27Z"></path><path class="cls-1" d="M71.49,175.18a3.09,3.09,0,0,0-.72-.6,1,1,0,0,0-.63-.14,1.67,1.67,0,0,0-.7.3,9.58,9.58,0,0,0-.92.68l-4.26,3.43q-.54.43-.87.75a1.66,1.66,0,0,0-.43.62,1.06,1.06,0,0,0,0,.66,3.93,3.93,0,0,0,.45.84l-.15.12-.8-1.07c-.26-.34-.54-.69-.83-1.05s-.45-.56-.69-.83-.47-.54-.71-.8l.16-.13a3,3,0,0,0,.7.59,1,1,0,0,0,.63.13,1.72,1.72,0,0,0,.7-.3,11.11,11.11,0,0,0,.91-.68l4.27-3.43c.35-.29.64-.54.86-.75a1.62,1.62,0,0,0,.43-.62.94.94,0,0,0,0-.66,3.65,3.65,0,0,0-.46-.85l.16-.13c.24.34.49.67.74,1s.51.66.77,1,.51.63.76.93l.78.89Z"></path><path class="cls-1" d="M63.24,167.65a6.89,6.89,0,0,0,.85-.59,1.12,1.12,0,0,0,.35-.54,1.24,1.24,0,0,0,0-.68c-.07-.26-.18-.61-.34-1l.17-.1c.22.42.45.82.68,1.22s.47.8.71,1.2.42.69.64,1,.44.67.66,1l-.16.1a3.81,3.81,0,0,0-.64-.7,1,1,0,0,0-.62-.23,1.6,1.6,0,0,0-.74.18,11.15,11.15,0,0,0-1,.55l-4.68,2.84c-.39.24-.71.45-1,.63a1.64,1.64,0,0,0-.5.58,1,1,0,0,0-.09.65,3.7,3.7,0,0,0,.33.89l-.17.1-.28-.54c-.13-.22-.25-.44-.39-.67s-.26-.46-.39-.67l-.31-.51-1.84-3c-.29-.48-.56-.89-.79-1.25s-.48-.73-.73-1.13c.2-.1.41-.2.6-.31s.39-.22.58-.33l.71-.45c.24-.15.47-.31.7-.48l.14.22a4,4,0,0,0-.89,1.34,2.5,2.5,0,0,0-.14,1.23,3.88,3.88,0,0,0,.43,1.25c.22.43.48.88.77,1.37l.3.47c.11.15.21.32.32.49l3.48-2.1-.68-1.12a2.48,2.48,0,0,0-1.14-1.1,2.83,2.83,0,0,0-1.6,0l-.1-.17c.65-.36,1.29-.73,1.93-1.11l.92-.58c.29-.17.59-.37.9-.59l.1.17a8.11,8.11,0,0,0-.68.82,1.93,1.93,0,0,0-.33.7,1.6,1.6,0,0,0,0,.72,4.81,4.81,0,0,0,.32.84l.14.28.17.3.4.66Z"></path><path class="cls-1" d="M59.23,156.47c0-.1,0-.22-.07-.36s-.07-.29-.11-.45-.08-.32-.14-.49a4.35,4.35,0,0,0-.15-.47,9.16,9.16,0,0,0-.81-1.57,5.3,5.3,0,0,0-1-1.13,5.5,5.5,0,0,0-1.31-.79,10.57,10.57,0,0,0-1.68-.58l.07-.23,3.62.16c0,.18.1.37.16.55s.13.37.2.54l2.29,5.72c.12.3.24.59.37.88s.26.58.4.86l-.18.08a3.37,3.37,0,0,0-.51-.79.94.94,0,0,0-.56-.3,1.75,1.75,0,0,0-.76.08c-.28.09-.64.21-1.07.39l-5.08,2c-.43.17-.77.33-1,.46a1.75,1.75,0,0,0-.6.46,1,1,0,0,0-.2.63,4,4,0,0,0,.18.93l-.18.08c-.13-.35-.25-.68-.36-1l-.36-1c-.13-.34-.27-.69-.42-1.06s-.31-.79-.5-1.25q-.42-1.06-.87-2.13c-.29-.7-.6-1.42-.91-2.14l.34-.11.33-.12.61-.25q.33-.13.66-.3l.73-.36.14.17a4,4,0,0,0-1,1,2.61,2.61,0,0,0-.42,1.05,2.86,2.86,0,0,0,0,1.09,6.36,6.36,0,0,0,.35,1.13c.28.71.6,1.41.94,2.09l3.81-1.52c-.08-.2-.17-.4-.25-.58s-.17-.38-.25-.58a3.19,3.19,0,0,0-1.09-1.5,2.21,2.21,0,0,0-1.83-.14l-.07-.18,1.1-.43c.37-.13.73-.27,1.08-.41l1.09-.46,1.09-.45.08.18a4.66,4.66,0,0,0-.91.75,1.67,1.67,0,0,0-.42.75,1.88,1.88,0,0,0,0,.85,6.51,6.51,0,0,0,.34,1.08l.39,1Z"></path><path class="cls-1" d="M54.15,136.28l.61,2.88a27.55,27.55,0,0,1-1.87,2.35,18.13,18.13,0,0,1-2.14,2.06,2.11,2.11,0,0,1,.06.42c0,.17,0,.34,0,.52s0,.36,0,.54,0,.31,0,.43l2.5-.53c.45-.1.82-.19,1.11-.28a1.7,1.7,0,0,0,.67-.36,1,1,0,0,0,.29-.59,3.58,3.58,0,0,0,0-1l.19,0,.21,1.23c.08.41.16.81.25,1.22s.17.78.26,1.17.19.76.3,1.14l-.2,0a3.26,3.26,0,0,0-.36-.86,1,1,0,0,0-.51-.4,1.66,1.66,0,0,0-.76-.06c-.3,0-.67.1-1.12.2l-5.35,1.14c-.45.1-.82.19-1.11.28a1.7,1.7,0,0,0-.67.36,1,1,0,0,0-.3.57,3.36,3.36,0,0,0,0,.94l-.19,0c0-.35-.11-.69-.17-1s-.13-.69-.21-1c0-.15-.08-.33-.14-.55s-.13-.46-.21-.71-.15-.49-.22-.75-.12-.48-.17-.68a5.72,5.72,0,0,1-.12-1.45,4.17,4.17,0,0,1,.28-1.42,3.35,3.35,0,0,1,.78-1.15,2.71,2.71,0,0,1,1.33-.67,2.44,2.44,0,0,1,1,0,2.6,2.6,0,0,1,.87.37,2.83,2.83,0,0,1,.69.69,3.88,3.88,0,0,1,.51.88c.23-.2.48-.44.76-.71s.55-.57.83-.89.55-.66.81-1a6.65,6.65,0,0,0,.69-1.09,5.8,5.8,0,0,0,.46-1.11,2.8,2.8,0,0,0,.09-1.07Zm-3.85,9.31a4.26,4.26,0,0,0,0-1.55,3,3,0,0,0-1-1.81,2.34,2.34,0,0,0-2-.29,2.22,2.22,0,0,0-.91.4,2.34,2.34,0,0,0-.62.71,2.65,2.65,0,0,0-.31.91,2.75,2.75,0,0,0,0,1c.06.27.13.53.2.78a3.9,3.9,0,0,0,.31.73l1.56-.29,1.71-.34Z"></path><path class="cls-1" d="M53.29,131.53c0-.1,0-.22.05-.36s0-.3,0-.46,0-.34,0-.51a4,4,0,0,0,0-.49A8.26,8.26,0,0,0,53.2,128a5,5,0,0,0-.57-1.4,5.69,5.69,0,0,0-1-1.19,10.42,10.42,0,0,0-1.38-1.11l.14-.19,3.35,1.37a5.3,5.3,0,0,0,0,.57v.58l.23,6.16c0,.31,0,.63.05.95s0,.63.09.95h-.2a3.72,3.72,0,0,0-.21-.91,1,1,0,0,0-.43-.47,1.58,1.58,0,0,0-.74-.18,10.72,10.72,0,0,0-1.14,0l-5.47.2q-.69,0-1.14.09a1.57,1.57,0,0,0-.72.23,1,1,0,0,0-.39.52,3.22,3.22,0,0,0-.14.94h-.2c0-.37,0-.73,0-1.06s0-.68,0-1,0-.73,0-1.13,0-.85-.05-1.36c0-.76-.07-1.52-.11-2.29s-.08-1.54-.13-2.32h.7l.66,0,.73-.06.81-.1.07.21a4.3,4.3,0,0,0-1.27.62,2.69,2.69,0,0,0-.74.85,2.78,2.78,0,0,0-.34,1,7.65,7.65,0,0,0-.06,1.19c0,.76.09,1.52.19,2.29l4.09-.16c0-.21,0-.42,0-.63s0-.41,0-.63a3.2,3.2,0,0,0-.51-1.77,2.22,2.22,0,0,0-1.68-.75v-.2l1.18,0,1.17,0,1.18-.06q.59,0,1.17-.06v.19a5,5,0,0,0-1.11.41,1.67,1.67,0,0,0-.64.55,1.81,1.81,0,0,0-.28.81,5.76,5.76,0,0,0,0,1.13l0,1.05Z"></path><path class="cls-1" d="M43.05,121c.08-.38.15-.73.21-1.07s.13-.74.19-1.19c0-.24.07-.47.09-.7s0-.46.06-.71c.21-.11.54-.3,1-.56l1.52-.91,1.82-1.1c.65-.39,1.27-.77,1.89-1.13l1.7-1c.53-.3,1-.54,1.29-.71v0l-1-.15-1-.15L49,111.3c-.69-.1-1.3-.17-1.82-.2a4.86,4.86,0,0,0-1.33.1,1.81,1.81,0,0,0-.89.5,2.18,2.18,0,0,0-.48,1l-.19,0c.07-.37.15-.75.21-1.14s.13-.76.19-1.14.1-.69.14-1,.08-.71.11-1.06l.19,0a2.13,2.13,0,0,0,.39,1.49,2.24,2.24,0,0,0,1.36.6l8.59,1.27-.08.6c-1,.46-2,.95-3,1.49s-1.91,1.07-2.79,1.61-1.72,1.06-2.48,1.57l-2.05,1.38.82.14.82.13,2.84.43c1,.14,1.73.23,2.29.28a3.71,3.71,0,0,0,1.32-.09,1.17,1.17,0,0,0,.7-.56,5.78,5.78,0,0,0,.41-1.16l.19,0c-.1.55-.2,1.08-.28,1.6s-.17,1-.26,1.6q-.06.48-.12.93c0,.3-.06.62-.09.93l-.19,0c0-.37,0-.7,0-1a2,2,0,0,0-.14-.72,1,1,0,0,0-.43-.48,2.47,2.47,0,0,0-.86-.28l-7.42-1.3a4.32,4.32,0,0,0-.83,1,10.41,10.41,0,0,0-.59,1.21Z"></path><path class="cls-1" d="M52.71,96.46a6,6,0,0,0-1.48.09,4.57,4.57,0,0,0-1.29.44,3.29,3.29,0,0,0-1,.82,3.69,3.69,0,0,0-.7,1.25,3.45,3.45,0,0,0-.19,1.76,3.31,3.31,0,0,0,.62,1.44,4.76,4.76,0,0,0,1.26,1.13,8.06,8.06,0,0,0,1.7.8,6.47,6.47,0,0,0,1.86.37,4.73,4.73,0,0,0,1.74-.23,3.61,3.61,0,0,0,1.43-.87,3.74,3.74,0,0,0,1-1.56,4.47,4.47,0,0,0,.13-2.74,7.27,7.27,0,0,0-1.34-2.54l.44-.28a13.32,13.32,0,0,1,1,1.54,6.47,6.47,0,0,1,.63,1.5,5.12,5.12,0,0,1,.17,1.56,6.34,6.34,0,0,1-.35,1.72,5.39,5.39,0,0,1-2.74,3.08,5.45,5.45,0,0,1-2.07.52,5.72,5.72,0,0,1-2.31-.34,6,6,0,0,1-2-1.15,5.55,5.55,0,0,1-1.3-1.7A5.28,5.28,0,0,1,47.61,99a6.63,6.63,0,0,1,.44-1c.16-.32.32-.62.47-.9s.31-.57.46-.83a6.81,6.81,0,0,0,.39-.82c.22.08.47.16.77.24s.6.17.91.24l.93.22.8.17Z"></path><path class="cls-1" d="M60.65,95.6a3.16,3.16,0,0,0,.26-.9,1,1,0,0,0-.14-.63,1.63,1.63,0,0,0-.55-.52c-.26-.16-.59-.35-1-.55l-4.87-2.49c-.41-.21-.76-.37-1-.48a1.68,1.68,0,0,0-.74-.15,1,1,0,0,0-.6.28,3.15,3.15,0,0,0-.59.75l-.17-.09.65-1.17c.2-.38.41-.77.62-1.18l.48-1c.15-.33.3-.65.44-1l.17.09a3.34,3.34,0,0,0-.25.88,1,1,0,0,0,.14.62,1.77,1.77,0,0,0,.56.52c.26.16.59.34,1,.55l4.87,2.49c.41.21.76.37,1,.48a1.53,1.53,0,0,0,.74.14.92.92,0,0,0,.6-.27,3.51,3.51,0,0,0,.6-.76l.17.09c-.21.36-.41.72-.61,1.08s-.39.74-.58,1.11-.36.71-.53,1.07-.33.71-.49,1.07Z"></path><path class="cls-1" d="M62,83.78l1.81,2.59c.06.08.1.15.14.21a.54.54,0,0,0,.15.15.81.81,0,0,0,.52.15,1.44,1.44,0,0,0,.53-.14,2.83,2.83,0,0,0,.47-.29,4.06,4.06,0,0,0,.35-.3l.16.12c-.21.25-.41.51-.61.78s-.39.53-.58.81-.37.53-.54.79-.35.54-.53.84l-.16-.11a2.41,2.41,0,0,0,.2-.9,2.56,2.56,0,0,0-.14-.78,4.27,4.27,0,0,0-.36-.75c-.15-.24-.31-.49-.48-.74l-4.09-6.32-.12-.19a.58.58,0,0,0-.12-.14l-.24-.1a1.25,1.25,0,0,0-.32,0,3.72,3.72,0,0,0,.25-.73c0-.22.1-.46.17-.72l9.63,2.58a2.36,2.36,0,0,0,1.2,0,2.16,2.16,0,0,0,1.07-.72l.17.11-.78,1c-.25.34-.51.69-.77,1.07l-.44.63-.34.49-.26.42c-.08.14-.17.29-.27.44L67.53,84a3,3,0,0,0,.37-1.15.82.82,0,0,0-.33-.8.63.63,0,0,0-.25-.1l-.25-.07L64,81Zm-2.8-4.12,2.49,3.71,1.77-2.53Z"></path><path class="cls-1" d="M79.82,70.44l-2.08,2.09a28.84,28.84,0,0,1-3-.29,19.22,19.22,0,0,1-2.89-.67,3.66,3.66,0,0,1-.32.27l-.42.32-.44.3-.37.22,1.81,1.81c.32.32.6.58.83.77a1.56,1.56,0,0,0,.67.37,1,1,0,0,0,.65-.08,3.5,3.5,0,0,0,.8-.54l.14.14L74.3,76l-.9.87-.83.86-.8.87-.14-.14a3.45,3.45,0,0,0,.52-.77,1,1,0,0,0,.06-.65,1.67,1.67,0,0,0-.36-.66,10.48,10.48,0,0,0-.78-.84L67.2,71.66c-.33-.32-.6-.58-.84-.78a1.67,1.67,0,0,0-.66-.36,1.05,1.05,0,0,0-.65.06,3.56,3.56,0,0,0-.77.53L64.14,71l.77-.71.76-.73.39-.42.47-.56L67,68l.48-.52a6.4,6.4,0,0,1,1.15-.89A4.12,4.12,0,0,1,70,66a3.15,3.15,0,0,1,1.4,0,2.7,2.7,0,0,1,1.28.75,2.56,2.56,0,0,1,.58.86,2.54,2.54,0,0,1,.15.94,2.72,2.72,0,0,1-.19,1,3.93,3.93,0,0,1-.47.91l1,.25q.57.12,1.2.21c.42.06.85.1,1.29.13a6.93,6.93,0,0,0,1.29,0,6.17,6.17,0,0,0,1.18-.22,2.71,2.71,0,0,0,1-.51Zm-9.91,1.85a4.36,4.36,0,0,0,1.28-.88,3,3,0,0,0,1-1.83,2.34,2.34,0,0,0-.86-1.85,2.16,2.16,0,0,0-.83-.54,2.27,2.27,0,0,0-.93-.14,2.56,2.56,0,0,0-.94.24,2.83,2.83,0,0,0-.81.57c-.19.19-.37.39-.54.59a3.54,3.54,0,0,0-.44.65c.35.39.71.77,1.09,1.16s.77.8,1.21,1.24Z"></path><path class="cls-1" d="M74.72,60.77c.33-.19.64-.39.93-.57l1-.66.57-.41.56-.44c.22.08.59.19,1.08.34l1.7.5,2,.59,2.11.62,1.89.58c.58.18,1,.33,1.4.46h0q-.27-.42-.54-.81L87,60.14l-1.07-1.57c-.39-.58-.76-1.07-1.09-1.47a4.5,4.5,0,0,0-1-.91,1.81,1.81,0,0,0-1-.31,2.11,2.11,0,0,0-1.06.32L81.68,56l1-.61c.33-.21.65-.42,1-.64s.58-.4.88-.61l.85-.64.11.16A2.16,2.16,0,0,0,84.62,55a2.31,2.31,0,0,0,.49,1.41L90,63.58l-.5.34c-1-.44-2.06-.83-3.12-1.19s-2.08-.67-3.07-1-1.94-.54-2.84-.76l-2.4-.57.45.71c.15.22.3.46.46.69l1.62,2.37c.54.81,1,1.43,1.34,1.87a3.63,3.63,0,0,0,1,.92,1.15,1.15,0,0,0,.88.13,5.6,5.6,0,0,0,1.13-.48l.11.16-1.37.87-1.35.9-.76.54c-.25.18-.5.37-.74.57l-.12-.16c.28-.26.52-.48.72-.68a1.8,1.8,0,0,0,.43-.59,1.07,1.07,0,0,0,.07-.64,2.52,2.52,0,0,0-.38-.82l-4.07-6.34a4.94,4.94,0,0,0-1.33.09,10.55,10.55,0,0,0-1.29.39Z"></path><path class="cls-1" d="M91.29,56.47a5.41,5.41,0,0,1,0-4.53,5.72,5.72,0,0,1,1.35-1.77,7.07,7.07,0,0,1,2-1.27A7.14,7.14,0,0,1,97,48.35a5.54,5.54,0,0,1,2.2.28,5.24,5.24,0,0,1,1.89,1.13,5.55,5.55,0,0,1,1.37,2,5.75,5.75,0,0,1,.48,2.38,5.31,5.31,0,0,1-.52,2.14,5.68,5.68,0,0,1-1.34,1.78,7.46,7.46,0,0,1-4.34,1.82,5.77,5.77,0,0,1-2.21-.28,5.44,5.44,0,0,1-1.89-1.14A5.58,5.58,0,0,1,91.29,56.47Zm1.6-.68a6.2,6.2,0,0,0,1,1.66,5.14,5.14,0,0,0,1.41,1.16,4.35,4.35,0,0,0,1.69.5,3.92,3.92,0,0,0,1.84-.32,4,4,0,0,0,1.52-1.09,4.26,4.26,0,0,0,.82-1.56,5.21,5.21,0,0,0,.16-1.82,6.31,6.31,0,0,0-1.49-3.53,4.83,4.83,0,0,0-1.41-1.16,4.1,4.1,0,0,0-1.68-.5,3.76,3.76,0,0,0-1.84.32,3.81,3.81,0,0,0-1.52,1.09,4.21,4.21,0,0,0-.82,1.55,4.77,4.77,0,0,0-.16,1.82A6,6,0,0,0,92.89,55.79Z"></path><path class="cls-1" d="M112.64,47a7.07,7.07,0,0,0-.77-.9,5.47,5.47,0,0,0-1-.72,3.72,3.72,0,0,0-1.11-.41,2.86,2.86,0,0,0-1.2,0,3,3,0,0,0-1.42.68,1.29,1.29,0,0,0-.31,1.33,1.57,1.57,0,0,0,.47.83,2.62,2.62,0,0,0,.85.5,7.9,7.9,0,0,0,1.12.3l1.25.22c.43.08.85.17,1.27.28a4.85,4.85,0,0,1,1.15.46,3.1,3.1,0,0,1,.92.77,2.9,2.9,0,0,1,.55,1.2,3,3,0,0,1,0,1.42,2.65,2.65,0,0,1-.56,1.11,3.51,3.51,0,0,1-1,.8,5.77,5.77,0,0,1-1.34.49,4.59,4.59,0,0,1-.85.11l-.87,0h-.77a2.42,2.42,0,0,0-.53,0,1,1,0,0,0-.33.14l-.31.19c-.23-.58-.48-1.15-.74-1.7s-.52-1.11-.8-1.68l.18-.16c.28.33.6.66,1,1a7.16,7.16,0,0,0,1.18.89,4.94,4.94,0,0,0,1.31.58,2.8,2.8,0,0,0,1.41,0,3.6,3.6,0,0,0,.87-.31A2.23,2.23,0,0,0,113,54a1.79,1.79,0,0,0,.39-.7,2,2,0,0,0,0-.93,1.89,1.89,0,0,0-.75-1.15,4.63,4.63,0,0,0-1.35-.61,15.1,15.1,0,0,0-1.66-.36,11.86,11.86,0,0,1-1.66-.37,4.56,4.56,0,0,1-1.36-.68,2.13,2.13,0,0,1-.78-1.27,2.82,2.82,0,0,1,0-1.19,3,3,0,0,1,.45-1A2.87,2.87,0,0,1,107,45a3.36,3.36,0,0,1,1.1-.45,5.65,5.65,0,0,1,1.08-.16l1,0,1,0a5,5,0,0,0,1-.13c.11.48.23.94.35,1.39a12.91,12.91,0,0,0,.41,1.34Z"></path><path class="cls-1" d="M119,52a.91.91,0,0,1,1,.81.87.87,0,0,1-.19.68.93.93,0,0,1-.62.33.91.91,0,0,1-1-.81.9.9,0,0,1,.19-.68A.93.93,0,0,1,119,52Z"></path><path class="cls-1" d="M92.27,120.21c.27-9,7.89-14.95,15.65-17.92A47.54,47.54,0,0,1,116.2,100a1.18,1.18,0,0,0,.73-1.7,18,18,0,0,0-2.18-3.9,9.44,9.44,0,0,0-.69-.87l0,.3a.37.37,0,0,1-.24.27c-.09,0-.09,0,0,0l.19,0c.28.06.86.15,1.25.25a8.14,8.14,0,0,1,5.3,3.5,1.18,1.18,0,0,0,2.13-.26l.85-2.35.59-1.63c0-.16.11-.31.16-.47s0,.06-.15.14-.44-.11-.47,0,.13.29.16.35l.68,1.5,1.07,2.35a1.18,1.18,0,0,0,1.83.25l4.26-3.57,1.16-1a4.81,4.81,0,0,0,.64-.54l.05,0c.05.07-.36.12-.39.11-.19,0-.19-.11-.3-.26s0-.17,0-.07a.41.41,0,0,0,0,.19l0,1.44.13,3.1c0,.66.7,1.45,1.45,1.15A55.76,55.76,0,0,1,141,96.14c.46-.13.93-.24,1.4-.35.18-.05,1.14-.14,1.22-.28s-.15-.06-.24-.17,0-.22,0-.35l.1-.16-.24.19c-.16.11-.31.24-.47.36a19.19,19.19,0,0,0-3.66,3.87,1.18,1.18,0,0,0,.67,1.72c6.94,2,13.41,6,17.67,11.89a28.36,28.36,0,0,1,5.24,17.08,35.65,35.65,0,0,1-4.93,17.18,37.93,37.93,0,0,1-5.54,7.31,17.66,17.66,0,0,1-1.7,1.53c-.21.17.11-.08-.06,0l-.21.15-.49.35c-.32.21-.64.41-1,.6a20.8,20.8,0,0,1-2.1,1.08l-.56.24-.26.11c-.16.07.19-.07,0,0l-.17.07-1.19.43a33.54,33.54,0,0,1-5.21,1.27l-1.44.2-.16,0s.18,0,0,0l-.33,0-.76.07q-1.49.13-3,.15a47.69,47.69,0,0,1-6.09-.31,45.32,45.32,0,0,1-6-1.14,47.14,47.14,0,0,1-6.15-2c-.86-.36-1.89-.83-2.84-1.32s-1.92-1-2.85-1.59a36.77,36.77,0,0,1-5.28-3.87,34.56,34.56,0,0,1-8.28-10.81,39.7,39.7,0,0,1-3.81-15c-.09-1.49-.11-3-.07-4.49a1.17,1.17,0,0,0-2.33,0,45.35,45.35,0,0,0,2.65,17.08,37.36,37.36,0,0,0,7.87,12.64,40.14,40.14,0,0,0,11.19,8.2,47.14,47.14,0,0,0,12.81,4.23,46.58,46.58,0,0,0,12.75.57,33.43,33.43,0,0,0,11-2.86c3.94-1.86,6.84-4.91,9.38-8.4a39.22,39.22,0,0,0,7.11-17.69,31.56,31.56,0,0,0-3-18.54,32.69,32.69,0,0,0-15.57-14.55,43.14,43.14,0,0,0-5.72-2.12l.68,1.71a14.8,14.8,0,0,1,2-2.3,27.28,27.28,0,0,0,2.07-1.78,1.94,1.94,0,0,0,0-2.54c-.71-.8-1.66-.65-2.61-.45A54,54,0,0,0,133.93,96l1.45,1.15-.13-3c-.05-1.25.15-2.84-1.17-3.5s-2.21.36-3.09,1.1l-3,2.55-2.14,1.79,1.83.25c-.63-1.39-1.18-2.87-1.91-4.21a2,2,0,0,0-3.58.3c-.29.71-.52,1.45-.79,2.17L120.49,97l2.13-.25A10.82,10.82,0,0,0,115.07,92a3.34,3.34,0,0,0-2.29.06,2,2,0,0,0-.8,2.48,6.36,6.36,0,0,0,.79,1.08c.31.41.59.84.86,1.28a19,19,0,0,1,1.27,2.56l.73-1.7A43.24,43.24,0,0,0,101.11,103a23.8,23.8,0,0,0-9.37,9.71,18.53,18.53,0,0,0-1.8,7.42A1.17,1.17,0,0,0,92.27,120.21Z"></path><path class="cls-1" d="M120,102.12a11.57,11.57,0,0,0,3.89,1.32,20.28,20.28,0,0,0,10.18-1c1.07-.37.64-2.09-.44-1.72a18.41,18.41,0,0,1-9.38.95,15.39,15.39,0,0,1-2.57-.74s-.32-.14-.1,0l-.15-.07-.29-.14-.24-.13a.89.89,0,0,0-.9,1.53Z"></path><g id="qD8hfe.tif"><path class="cls-1" d="M119.77,109.86l.6-.15h-.61a6.13,6.13,0,0,1,2.3,1c.79.5,1.59,1,2.4,1.45a7.85,7.85,0,0,0,5,1.08,9.42,9.42,0,0,0,2.37-.78,1.52,1.52,0,0,1,1-.17c.11,0,0-.08,0,.08,0,.81-.5,1.47-.2,2.31a1.82,1.82,0,0,0,.73.89,4.25,4.25,0,0,0,.46.27c.35.19.16.18.12-.07v-.61l0,.09.3-.5c.17-.18-.19,0-.3.1l-.69.27c-.44.19-.88.38-1.3.61a10.36,10.36,0,0,0-2.13,1.47,8.09,8.09,0,0,0-2.49,4.69c-.29,1.75-.5,3.8.5,5.36a6.87,6.87,0,0,0,2,1.91l2.54,1.73a2.89,2.89,0,0,0,2.44.5,3.74,3.74,0,0,0,1.3-.77c.18-.15.35-.32.53-.48l.23-.21.16-.13c.22-.17.07-.16-.45,0l-.51-.3a4.44,4.44,0,0,1,.35,1.23,3.2,3.2,0,0,0,.62,1.38,2.69,2.69,0,0,0,2.67.63c.43-.11.49-.27.86-.06a3.58,3.58,0,0,1,.95.91c.63.82.46,1.66.46,2.63a15,15,0,0,0,.32,3.41c.26,1.1.83,2.07,1,3.2a13.84,13.84,0,0,1,0,3.28c0,.51-.08,1-.1,1.55q0,.42,0,.84c0,.16,0,.31,0,.47s0,.32,0,.19l.3-.51.23-.11-.35.08-.58.15a3.15,3.15,0,0,1-.94.21l.57.17a17.82,17.82,0,0,1-1.8-1.27,15.17,15.17,0,0,0-2.31-1.08c-1.59-.57-3.26-.87-4.89-1.29a13.11,13.11,0,0,1-7.17-4.41c-1.13-1.37-2.14-2.83-3.26-4.2s-2.26-2.66-3.44-3.93-2.52-2.63-3.84-3.9a19.15,19.15,0,0,0-1.79-1.57,16.87,16.87,0,0,0-2.11-1.2,4,4,0,0,1-2.08-2.31,3.4,3.4,0,0,1-.19-1.61c0-.4.41-1.41.69-1.44h-.61c.36.1.3,0-.17-.34,0,.15,0,.3,0,.45a2.46,2.46,0,0,0,.16.76,1.84,1.84,0,0,0,1.14,1.09,5.54,5.54,0,0,0,3.17.19,2.49,2.49,0,0,0,1.62-2.25c.1-.88-.13-1.71.48-2.46a19.86,19.86,0,0,1,2.6-2.14,7.38,7.38,0,0,0,1.79-2.14,5.3,5.3,0,0,0,.64-2.46,6.06,6.06,0,0,0-.16-1.34c-.1-.41-.44-.91-.29-1.28a1.18,1.18,0,0,0-.8-1.44,1.2,1.2,0,0,0-1.44.8c-.47,1.18.41,2.2.36,3.38a3.55,3.55,0,0,1-1.14,2.28c-1,1-2.2,1.6-3.11,2.59a4.89,4.89,0,0,0-1.23,3.56c0,.17,0,.54-.07.69s.08,0,0,0-.75,0-1,0-.27-.06-.41-.07c-.51,0,.07.14,0,.18a3.9,3.9,0,0,0-.05-.83,1.75,1.75,0,0,0-.4-.82,1.87,1.87,0,0,0-2-.52,3.92,3.92,0,0,0-2,2.67,5.52,5.52,0,0,0,.06,3,6.67,6.67,0,0,0,3.77,4.17,11.6,11.6,0,0,1,3,2.28c1,1,2,2,3,3,1.91,2,3.73,4.1,5.43,6.29.81,1,1.54,2.16,2.43,3.14a14.44,14.44,0,0,0,2.63,2.24,20.59,20.59,0,0,0,6.93,2.63,21.35,21.35,0,0,1,3.68,1.1,11.17,11.17,0,0,1,1.44.79,9.22,9.22,0,0,0,1.58,1.11,6.8,6.8,0,0,0,3.77-.9c.49-.52.37-1.23.38-1.89s.07-1.51.12-2.27a15.07,15.07,0,0,0-.18-4.24c-.29-1.37-1-2.55-1.14-4a25.19,25.19,0,0,0-.19-4.18,5.53,5.53,0,0,0-2.34-3,3,3,0,0,0-1.66-.5c-.53,0-1,.37-1.52.26.24.05.16.2,0-.23s-.16-.67-.26-1a2.24,2.24,0,0,0-1.23-1.7,1.73,1.73,0,0,0-1.67.43,7.06,7.06,0,0,1-1.33,1.12c-.14.06-.25,0-.5-.14-.62-.38-1.2-.84-1.8-1.24-.92-.6-2.06-1.19-2.38-2.32a7.78,7.78,0,0,1,.15-3.49c.55-2.42,2.33-3.78,4.51-4.71a4.76,4.76,0,0,0,1.67-.83,1.44,1.44,0,0,0,0-2,2.14,2.14,0,0,0-.59-.49c-.09-.06-.2-.1-.29-.16l-.18-.1c-.17-.12-.2-.12-.08,0s.34.38.17.33c0,0,.12-.4.12-.41a4.61,4.61,0,0,0,.19-1.1,2.37,2.37,0,0,0-1.87-2.49c-1.39-.3-2.43.52-3.71.84-2.46.61-4.61-1.11-6.57-2.34a9.21,9.21,0,0,0-1.71-.88,3.27,3.27,0,0,0-2,0A1.16,1.16,0,0,0,119.77,109.86Z"></path></g><path class="cls-1" d="M127.5,255A127.5,127.5,0,1,1,255,127.5,127.65,127.65,0,0,1,127.5,255Zm0-252A124.5,124.5,0,1,0,252,127.5,124.64,124.64,0,0,0,127.5,3Z"></path></g></g></svg>