<svg xmlns="http://www.w3.org/2000/svg" viewBox="0 0 255 255"><defs><style>.cls-1{fill:#c2a9d3;}</style></defs><g id="Capa_2" data-name="Capa 2"><g id="Capa_1-2" data-name="Capa 1"><path class="cls-1" d="M215.06,134.11c.49,0,.9.09,1.22.1a1.88,1.88,0,0,0,.8-.14,1.1,1.1,0,0,0,.5-.48,3.76,3.76,0,0,0,.31-1l.2,0c-.06.36-.12.71-.17,1.06s-.1.7-.14,1.06a13,13,0,0,0-.1,1.4,14,14,0,0,1-.11,1.51,8,8,0,0,1-.33,1.52,5.17,5.17,0,0,1-.71,1.43,3.39,3.39,0,0,1-1.14,1,2.66,2.66,0,0,1-1.62.27,2.32,2.32,0,0,1-1.36-.67,2.57,2.57,0,0,1-.74-1.33h0a4,4,0,0,1-1.4,1.73,3.15,3.15,0,0,1-2.18.43,2.51,2.51,0,0,1-1.29-.51,2.67,2.67,0,0,1-.75-1,4.11,4.11,0,0,1-.3-1.36,8.54,8.54,0,0,1,.05-1.51c.09-.8.21-1.59.36-2.35s.27-1.55.37-2.35c0-.27.06-.54.08-.82s0-.54,0-.81l.21,0a3.41,3.41,0,0,0,.08,1,1,1,0,0,0,.37.58,2,2,0,0,0,.75.31c.32.06.72.12,1.21.18Zm-7.82.67a.56.56,0,0,0-.28.29,3.87,3.87,0,0,0-.25.57,6.6,6.6,0,0,0-.21.71,7,7,0,0,0-.13.73,3.14,3.14,0,0,0,.48,2.29,2.81,2.81,0,0,0,2.06,1,2.29,2.29,0,0,0,1.46-.31,4.44,4.44,0,0,0,1.18-1l0-.86a5,5,0,0,1,0-.86,7.73,7.73,0,0,1,.19-1.07,4.43,4.43,0,0,1,.37-1Zm5.44.64a3.11,3.11,0,0,0-.44.92,5.34,5.34,0,0,0-.21,1,2.89,2.89,0,0,0,.4,1.93,2.22,2.22,0,0,0,1.7.95,2.18,2.18,0,0,0,1.09-.12,2.56,2.56,0,0,0,.89-.55,2.78,2.78,0,0,0,.63-.87,3.37,3.37,0,0,0,.32-1.08c0-.28.05-.56.06-.83a3.31,3.31,0,0,0-.08-.82Z"></path><path class="cls-1" d="M201.4,156.36l.91-3a30.09,30.09,0,0,1,3-1.25,21.61,21.61,0,0,1,3.06-.83c0-.11.09-.25.17-.42s.15-.34.23-.51.17-.35.27-.51l.23-.4-2.62-.78c-.47-.14-.86-.25-1.18-.31a1.71,1.71,0,0,0-.81,0,1.06,1.06,0,0,0-.58.41,3.65,3.65,0,0,0-.48.92l-.2-.06c.15-.42.29-.84.43-1.27s.27-.84.4-1.27.24-.83.35-1.23.21-.82.31-1.23l.21.06a3.24,3.24,0,0,0-.1,1,1.11,1.11,0,0,0,.26.64,1.91,1.91,0,0,0,.69.44c.3.12.68.25,1.15.39l5.62,1.68a10,10,0,0,0,1.18.31,1.71,1.71,0,0,0,.81,0,1.08,1.08,0,0,0,.58-.39,3.66,3.66,0,0,0,.47-.88l.2,0c-.13.36-.26.71-.38,1.07s-.23.71-.33,1.07c-.05.15-.1.35-.16.59s-.1.5-.16.77l-.18.82c-.06.27-.13.51-.19.73a7.09,7.09,0,0,1-.63,1.42,4.46,4.46,0,0,1-1,1.19,3.46,3.46,0,0,1-1.32.68,2.8,2.8,0,0,1-1.59,0,2.56,2.56,0,0,1-1-.53,2.72,2.72,0,0,1-.63-.8,3.15,3.15,0,0,1-.3-1,4.41,4.41,0,0,1,0-1.09c-.32.07-.68.17-1.08.28s-.81.25-1.24.41-.85.33-1.28.53a9.35,9.35,0,0,0-1.21.66,6.69,6.69,0,0,0-1,.81,3,3,0,0,0-.65,1Zm8.41-6.78a4.43,4.43,0,0,0-.76,1.48,3.23,3.23,0,0,0,0,2.22,2.53,2.53,0,0,0,1.75,1.31,2.43,2.43,0,0,0,1.06.09,2.48,2.48,0,0,0,.95-.35,2.8,2.8,0,0,0,.76-.7,2.91,2.91,0,0,0,.47-.95,8.48,8.48,0,0,0,.22-.83,3.89,3.89,0,0,0,.08-.83c-.53-.19-1.07-.37-1.61-.54s-1.14-.36-1.78-.55Z"></path><path class="cls-1" d="M200.57,158.16a3.64,3.64,0,0,0-.24,1,1.07,1.07,0,0,0,.18.67,1.72,1.72,0,0,0,.61.54c.28.16.65.34,1.09.55l5.33,2.44c.45.21.82.36,1.13.47a1.72,1.72,0,0,0,.8.12,1,1,0,0,0,.63-.32,3.64,3.64,0,0,0,.6-.83l.19.09c-.23.44-.44.86-.65,1.28s-.41.84-.61,1.29-.32.71-.47,1.06l-.43,1.06-.19-.09a3.28,3.28,0,0,0,.23-1,1.06,1.06,0,0,0-.18-.66,1.84,1.84,0,0,0-.62-.52,12,12,0,0,0-1.09-.55l-5.33-2.45c-.44-.2-.82-.36-1.12-.47a1.92,1.92,0,0,0-.81-.12,1.12,1.12,0,0,0-.63.32,3.83,3.83,0,0,0-.6.85l-.19-.09c.21-.39.41-.79.6-1.19s.39-.8.58-1.21.35-.78.52-1.17l.48-1.17Z"></path><path class="cls-1" d="M201.82,168.77a6.09,6.09,0,0,1,1.84,1.84,5.87,5.87,0,0,1,.82,2.21,6.21,6.21,0,0,1-.14,2.38,7.72,7.72,0,0,1-1.05,2.33,7.38,7.38,0,0,1-1.73,1.87,5.94,5.94,0,0,1-2.13,1.07,5.66,5.66,0,0,1-2.36.11,6,6,0,0,1-2.41-1,6.06,6.06,0,0,1-1.84-1.83,5.75,5.75,0,0,1-.82-2.22,6.24,6.24,0,0,1,.14-2.38,7.88,7.88,0,0,1,2.78-4.2,5.92,5.92,0,0,1,2.13-1.06,5.66,5.66,0,0,1,2.36-.12A6.15,6.15,0,0,1,201.82,168.77Zm-1,1.55a6.45,6.45,0,0,0-1.89-.86,5.19,5.19,0,0,0-1.94-.19,4.39,4.39,0,0,0-1.8.55,4.46,4.46,0,0,0-2.15,3.26,4.55,4.55,0,0,0,.2,1.87,5.15,5.15,0,0,0,.94,1.71,6.45,6.45,0,0,0,1.54,1.4,6.82,6.82,0,0,0,1.88.87,5.46,5.46,0,0,0,2,.19,4.67,4.67,0,0,0,1.8-.56,4.46,4.46,0,0,0,2.15-3.25,4.58,4.58,0,0,0-.2-1.88,5.35,5.35,0,0,0-.94-1.71A6.66,6.66,0,0,0,200.79,170.32Z"></path><path class="cls-1" d="M183.53,194.36a6.2,6.2,0,0,0,1.19.43A4.62,4.62,0,0,0,186,195a4,4,0,0,0,1.25-.19,2.85,2.85,0,0,0,1.11-.65,3.38,3.38,0,0,0,1-1.37,1.41,1.41,0,0,0-.41-1.41,1.67,1.67,0,0,0-.87-.53,2.88,2.88,0,0,0-1.06,0,7.51,7.51,0,0,0-1.2.3l-1.29.45c-.44.15-.88.29-1.33.4a5,5,0,0,1-1.32.18,3.35,3.35,0,0,1-1.25-.24,3,3,0,0,1-1.15-.83,3.32,3.32,0,0,1-.76-1.32,3,3,0,0,1-.06-1.33,3.71,3.71,0,0,1,.53-1.28,5.66,5.66,0,0,1,1-1.16,5.35,5.35,0,0,1,.73-.55l.8-.48.71-.4a2.61,2.61,0,0,0,.48-.32,1.05,1.05,0,0,0,.23-.29l.19-.35c.52.43,1,.82,1.58,1.2l1.63,1.15-.09.25a13.31,13.31,0,0,0-1.42-.44,7.62,7.62,0,0,0-1.56-.22,5.64,5.64,0,0,0-1.54.15,3.08,3.08,0,0,0-1.33.71,4.11,4.11,0,0,0-.65.74,2.39,2.39,0,0,0-.38.83,1.64,1.64,0,0,0,0,.85,2,2,0,0,0,.49.87,2,2,0,0,0,1.3.68,5.18,5.18,0,0,0,1.59-.13,16.84,16.84,0,0,0,1.72-.54,12.65,12.65,0,0,1,1.75-.51,4.78,4.78,0,0,1,1.63-.09,2.27,2.27,0,0,1,1.39.78,2.88,2.88,0,0,1,.64,1.1,2.84,2.84,0,0,1,.11,1.19,3,3,0,0,1-.36,1.14,3.75,3.75,0,0,1-.79,1,6.9,6.9,0,0,1-.93.72l-.88.53-.87.52a5.32,5.32,0,0,0-.85.63c-.35-.39-.7-.76-1.05-1.12s-.71-.7-1.09-1Z"></path><path class="cls-1" d="M178.11,195.75a6,6,0,0,1,.91,2.43,5.6,5.6,0,0,1-.17,2.35,6,6,0,0,1-1.11,2.11,8,8,0,0,1-1.92,1.69,7.44,7.44,0,0,1-2.36,1,6,6,0,0,1-2.38.09,5.74,5.74,0,0,1-2.19-.88,6.49,6.49,0,0,1-2.7-4.31,5.66,5.66,0,0,1,.17-2.36,6,6,0,0,1,1.12-2.1,7.41,7.41,0,0,1,1.91-1.69,7.81,7.81,0,0,1,2.36-1,6.18,6.18,0,0,1,2.38-.08,5.72,5.72,0,0,1,2.19.87A6,6,0,0,1,178.11,195.75Zm-1.58,1a6.84,6.84,0,0,0-1.36-1.57,5.26,5.26,0,0,0-1.69-1,4.51,4.51,0,0,0-1.86-.24,4.53,4.53,0,0,0-3.31,2.07,4.76,4.76,0,0,0-.6,1.78,5.41,5.41,0,0,0,.15,2,6.31,6.31,0,0,0,.82,1.91,6.88,6.88,0,0,0,1.35,1.58,5.52,5.52,0,0,0,1.7,1,4.51,4.51,0,0,0,1.86.24,4.53,4.53,0,0,0,3.31-2.07,4.63,4.63,0,0,0,.6-1.79,5.44,5.44,0,0,0-.15-2A6.53,6.53,0,0,0,176.53,196.73Z"></path><path class="cls-1" d="M154.71,209.68a6.59,6.59,0,0,0,1.09,1.14,5.12,5.12,0,0,0,1.26.75,3.83,3.83,0,0,0,1.39.28,4.18,4.18,0,0,0,1.51-.3,3.77,3.77,0,0,0,1.57-1.07,3.55,3.55,0,0,0,.73-1.51,5,5,0,0,0,.05-1.81,8.91,8.91,0,0,0-.53-1.94,6.94,6.94,0,0,0-1-1.77,5,5,0,0,0-1.38-1.26,4.07,4.07,0,0,0-1.71-.56,4,4,0,0,0-1.95.3,4.74,4.74,0,0,0-2.32,1.79,8,8,0,0,0-1.14,2.86l-.53-.17a15.6,15.6,0,0,1,.53-1.9,7.14,7.14,0,0,1,.79-1.56,5.59,5.59,0,0,1,1.16-1.22,6.25,6.25,0,0,1,1.64-.91,5.62,5.62,0,0,1,2.24-.4,5.73,5.73,0,0,1,2.17.49,6,6,0,0,1,1.87,1.32,6.3,6.3,0,0,1,1.32,2.11,6.18,6.18,0,0,1,.46,2.45,5.68,5.68,0,0,1-.47,2.24,5.59,5.59,0,0,1-1.26,1.84,5.7,5.7,0,0,1-1.91,1.23,10.29,10.29,0,0,1-1.16.37l-1.06.23-1,.21a5.79,5.79,0,0,0-.93.25c-.09-.23-.2-.5-.33-.79s-.29-.61-.45-.92l-.47-.91-.41-.77Z"></path><path class="cls-1" d="M148.47,203.81a3.25,3.25,0,0,0-.91.42,1,1,0,0,0-.42.55,1.64,1.64,0,0,0,0,.81,10.5,10.5,0,0,0,.24,1.2l1.36,5.7c.12.48.23.87.33,1.18a1.79,1.79,0,0,0,.4.7,1,1,0,0,0,.64.3,3.67,3.67,0,0,0,1,0l0,.2-1.4.28c-.46.1-.92.2-1.4.32s-.75.18-1.12.29l-1.1.31-.05-.2a3.57,3.57,0,0,0,.89-.41,1,1,0,0,0,.41-.55,2,2,0,0,0,0-.82c0-.31-.13-.71-.24-1.19l-1.37-5.7c-.11-.48-.22-.87-.32-1.18a1.85,1.85,0,0,0-.41-.71,1.06,1.06,0,0,0-.64-.29,3.75,3.75,0,0,0-1,0l-.05-.2,1.31-.26,1.3-.29,1.24-.32,1.22-.34Z"></path><path class="cls-1" d="M137.89,210.91l.85-3.27c0-.1,0-.18.08-.26a.58.58,0,0,0,0-.23.82.82,0,0,0-.24-.52,1.37,1.37,0,0,0-.48-.33,2.31,2.31,0,0,0-.56-.19l-.49-.08,0-.21,1.06,0,1.06-.09,1-.11,1.05-.16,0,.21a2.48,2.48,0,0,0-.87.47,2.56,2.56,0,0,0-.54.65,4.72,4.72,0,0,0-.36.82l-.27.9-2.31,7.72c0,.08-.06.16-.08.23a.49.49,0,0,0,0,.2.79.79,0,0,0,.08.26,2.16,2.16,0,0,0,.18.3,3.65,3.65,0,0,0-.76.3l-.71.37L131,208.2a2.72,2.72,0,0,0-.78-1,2.34,2.34,0,0,0-1.34-.37l0-.21,1.37-.08,1.41-.12.82-.08.63-.07.53-.07.55-.09,0,.21a3.21,3.21,0,0,0-1.2.49.89.89,0,0,0-.42.83.72.72,0,0,0,.09.27,1.87,1.87,0,0,1,.12.25l1.44,3.11Zm-1.41,5.14,1.29-4.6-3.29.32Z"></path><path class="cls-1" d="M120.4,217.43a9.31,9.31,0,0,0,1.33-.19,1.61,1.61,0,0,0,.72-.34,1.07,1.07,0,0,0,.32-.58,7.23,7.23,0,0,0,.12-.88l.61-8.4-.91-.23a7.21,7.21,0,0,0-2.71-.05,4.45,4.45,0,0,0-1.43.53,5.43,5.43,0,0,0-1.21,1,15.31,15.31,0,0,0-1.15,1.42l-.26,0,1.63-3.82c.42.06.84.1,1.27.15l1.27.11,5.14.37.88.05h.88l0,.21a3.69,3.69,0,0,0-.93.11,1.39,1.39,0,0,0-.56.27.87.87,0,0,0-.28.42,2.66,2.66,0,0,0-.11.61l-.51,6.93c0,.5,0,.9,0,1.23a2,2,0,0,0,.16.79,1,1,0,0,0,.49.48,3.78,3.78,0,0,0,1,.26v.21l-1.36-.15c-.45-.05-.9-.08-1.35-.12l-1.48-.09-1.49-.05Z"></path><path class="cls-1" d="M104.93,203.84l-.35-.19-.44-.22-.5-.22a3.9,3.9,0,0,0-.5-.19,8.88,8.88,0,0,0-1.84-.42,5.51,5.51,0,0,0-1.63.06,6.33,6.33,0,0,0-1.55.53,13.18,13.18,0,0,0-1.63,1l-.13-.21L99,201.11l.57.24.58.2,6.27,2,1,.29q.49.15,1,.27l-.07.2a3.28,3.28,0,0,0-1-.12,1,1,0,0,0-.64.25,2,2,0,0,0-.45.68c-.13.29-.26.68-.42,1.14L104,211.89c-.15.47-.27.86-.34,1.17a1.89,1.89,0,0,0,0,.81,1.06,1.06,0,0,0,.38.59,3.93,3.93,0,0,0,.89.49l-.06.2-1.07-.38-1-.37-1.15-.38-1.38-.45-2.34-.74c-.78-.25-1.58-.49-2.39-.72l.15-.36.12-.35.22-.67c.08-.24.15-.5.21-.75s.12-.54.2-.85h.24a4.34,4.34,0,0,0,.15,1.5,3,3,0,0,0,.57,1.07,3.27,3.27,0,0,0,.92.72,7.75,7.75,0,0,0,1.17.49q1.17.38,2.37.66l1.36-4.17c-.22-.07-.44-.14-.65-.19l-.65-.2a3.37,3.37,0,0,0-2-.13,2.37,2.37,0,0,0-1.37,1.41l-.2-.07c.13-.4.27-.8.41-1.2s.28-.79.4-1.18.26-.8.38-1.2.24-.81.37-1.21l.2.06a5.35,5.35,0,0,0,0,1.27,1.84,1.84,0,0,0,.32.85,2,2,0,0,0,.71.58,7.34,7.34,0,0,0,1.12.46l1.07.35Z"></path><path class="cls-1" d="M83.09,201.72a6.51,6.51,0,0,0-.14,1.57,5.17,5.17,0,0,0,.25,1.44,4,4,0,0,0,.7,1.23,4.07,4.07,0,0,0,1.22.95,3.63,3.63,0,0,0,1.83.48,3.57,3.57,0,0,0,1.63-.43A5.13,5.13,0,0,0,90,205.81a8.73,8.73,0,0,0,1.13-1.67,7.69,7.69,0,0,0,.69-1.91,5.14,5.14,0,0,0,0-1.87,4.23,4.23,0,0,0-.7-1.67,4,4,0,0,0-1.5-1.27,4.75,4.75,0,0,0-2.87-.58,8,8,0,0,0-2.91,1l-.22-.51a15,15,0,0,1,1.79-.85,7.46,7.46,0,0,1,1.69-.42,5.58,5.58,0,0,1,1.68.08,6.17,6.17,0,0,1,1.77.65,5.57,5.57,0,0,1,1.76,1.43,5.74,5.74,0,0,1,1.27,4.24,6.63,6.63,0,0,1-2.27,4.33,5.8,5.8,0,0,1-4.22,1.36,5.83,5.83,0,0,1-2.18-.64,8.28,8.28,0,0,1-1-.64c-.31-.22-.6-.43-.88-.65l-.81-.62a6.9,6.9,0,0,0-.79-.54c.11-.21.24-.47.37-.77s.27-.61.4-.93l.38-1c.13-.31.23-.58.31-.82Z"></path><path class="cls-1" d="M80,197.78a6,6,0,0,1-2,1.67,5.63,5.63,0,0,1-2.27.62,5.87,5.87,0,0,1-2.36-.35,7.58,7.58,0,0,1-2.23-1.24,7.49,7.49,0,0,1-1.72-1.89,6.16,6.16,0,0,1-.87-2.22,5.89,5.89,0,0,1,.09-2.36,6,6,0,0,1,1.18-2.31,6,6,0,0,1,2-1.67,5.9,5.9,0,0,1,2.28-.63,6.19,6.19,0,0,1,2.35.35,8,8,0,0,1,3.95,3.14,5.87,5.87,0,0,1,.87,2.21,5.55,5.55,0,0,1-.09,2.36A6.09,6.09,0,0,1,80,197.78Zm-1.46-1.16a6.5,6.5,0,0,0,1-1.8,5.33,5.33,0,0,0,.37-1.93,4.72,4.72,0,0,0-.4-1.84,4.2,4.2,0,0,0-1.25-1.56,4.16,4.16,0,0,0-1.8-.86,4.62,4.62,0,0,0-1.89,0,5.43,5.43,0,0,0-1.79.78,6.81,6.81,0,0,0-1.52,1.42,6.36,6.36,0,0,0-1,1.8,5.22,5.22,0,0,0-.36,1.92,4.36,4.36,0,0,0,.4,1.84A4.07,4.07,0,0,0,71.52,198a4.16,4.16,0,0,0,1.81.87,4.58,4.58,0,0,0,1.88,0A5.37,5.37,0,0,0,77,198,6.54,6.54,0,0,0,78.52,196.62Z"></path><path class="cls-1" d="M62.85,191c-.24-.33-.48-.64-.71-.93s-.5-.62-.82-1c-.16-.2-.33-.39-.5-.57s-.34-.36-.52-.54c.06-.25.14-.65.24-1.19s.22-1.17.35-1.87.27-1.44.41-2.24.29-1.56.43-2.31.28-1.44.41-2.07.25-1.15.35-1.54l0,0-.81.67c-.27.21-.54.44-.8.66l-1.56,1.31a18.55,18.55,0,0,0-1.45,1.32,4.73,4.73,0,0,0-.86,1.14,1.91,1.91,0,0,0-.23,1.07,2.2,2.2,0,0,0,.46,1.09l-.16.13-.76-1-.78-1q-.36-.43-.75-.87l-.78-.84.17-.13a2.3,2.3,0,0,0,1.46.75,2.42,2.42,0,0,0,1.44-.67l7.12-6,.42.49c-.35,1.14-.66,2.29-.93,3.46s-.49,2.28-.69,3.37-.36,2.13-.49,3.11-.25,1.85-.36,2.62l.71-.56.69-.56,2.35-2c.8-.67,1.41-1.22,1.85-1.64a4,4,0,0,0,.87-1.12,1.21,1.21,0,0,0,0-1,4.94,4.94,0,0,0-.64-1.15l.17-.14c.36.47.72.93,1.07,1.36s.72.89,1.11,1.35l.66.75c.22.24.44.49.68.73l-.16.14-.8-.7a2.08,2.08,0,0,0-.68-.39,1.13,1.13,0,0,0-.68,0,2.72,2.72,0,0,0-.84.49l-6.3,5a4.73,4.73,0,0,0,.24,1.4,10.89,10.89,0,0,0,.54,1.33Z"></path><path class="cls-1" d="M45.25,171.49a6.89,6.89,0,0,1-.72-.2.64.64,0,0,1-.4-.31q-.35-.63.15-.9a.72.72,0,0,1,.43-.06,1.2,1.2,0,0,1,.49.14l2.65,1.35.37.67Zm11.2,2.32a5.93,5.93,0,0,1-2.48.76,5.56,5.56,0,0,1-2.34-.31,6,6,0,0,1-2-1.23A7.46,7.46,0,0,1,48,171a7.59,7.59,0,0,1-.85-2.4,6,6,0,0,1,.06-2.39,5.62,5.62,0,0,1,1-2.13,5.86,5.86,0,0,1,2-1.68,6.19,6.19,0,0,1,2.48-.77,5.93,5.93,0,0,1,2.35.31,6.24,6.24,0,0,1,2,1.24,7.45,7.45,0,0,1,1.57,2,7.64,7.64,0,0,1,.85,2.41,5.93,5.93,0,0,1-.06,2.38,5.59,5.59,0,0,1-1,2.14A6,6,0,0,1,56.45,173.81Zm-.89-1.63a6.72,6.72,0,0,0,1.65-1.27,5.15,5.15,0,0,0,1.08-1.63,4.48,4.48,0,0,0,.35-1.85,4.08,4.08,0,0,0-.54-1.92,4.14,4.14,0,0,0-1.33-1.5,4.53,4.53,0,0,0-1.74-.7,5.62,5.62,0,0,0-2,0,6.88,6.88,0,0,0-3.6,2,5.19,5.19,0,0,0-1.08,1.64,4.3,4.3,0,0,0-.35,1.85,4.47,4.47,0,0,0,1.87,3.42,4.47,4.47,0,0,0,1.74.7,5.4,5.4,0,0,0,2,0A6.71,6.71,0,0,0,55.56,172.18Z"></path><path class="cls-1" d="M40.21,150.84c-.09-.41-.2-.82-.31-1.23s-.22-.81-.34-1.22-.21-.71-.33-1.06-.24-.7-.36-1.06l.2-.06a2.85,2.85,0,0,0,.74,1,1.3,1.3,0,0,0,1.23.13,12,12,0,0,0,1.34-.53c.61-.27,1.27-.58,2-.94l2.14-1.06c.71-.37,1.31-.69,1.8-1a5.67,5.67,0,0,0,.54-.35,1.44,1.44,0,0,0,.36-.42,1.52,1.52,0,0,0,.17-.62,5,5,0,0,0-.07-.95l.2-.06c.11.46.22.91.34,1.36s.25.89.38,1.34.25.84.39,1.25.27.82.42,1.24l-.2.06c-.11-.23-.22-.44-.33-.64a2.22,2.22,0,0,0-.39-.5,1.13,1.13,0,0,0-.53-.25,1.54,1.54,0,0,0-.74.07l-.53.17a6.33,6.33,0,0,0-.74.33l-6.45,3.17v0c.9.07,1.8.17,2.69.29l2.69.32c.9.1,1.8.19,2.71.27s1.82.13,2.75.13v0q-2.37,1.58-4.49,3.3t-4.19,3.61v0l2.13-.34,2.27-.4c.73-.14,1.4-.27,2-.4s1-.24,1.35-.32a5.33,5.33,0,0,0,.93-.36,1.54,1.54,0,0,0,.59-.5,1.36,1.36,0,0,0,.23-.71,4.3,4.3,0,0,0-.12-1l.2-.06c.11.48.23.95.35,1.4l.39,1.38c.11.35.21.69.33,1s.23.68.35,1l-.2.06a3.67,3.67,0,0,0-.34-.65,2.53,2.53,0,0,0-.46-.55,2,2,0,0,0-.57-.36,1.19,1.19,0,0,0-.65-.07c-.41,0-.84.11-1.29.18l-1.34.21-6.23,1a3.28,3.28,0,0,0-.23,1,6.1,6.1,0,0,0,0,1l-.2.06c-.12-.49-.24-1-.37-1.45s-.27-1-.41-1.45c-.1-.34-.21-.69-.32-1s-.23-.68-.36-1l.2-.06a1.72,1.72,0,0,0,.46.51.74.74,0,0,0,.69.09,1.74,1.74,0,0,0,.53-.26c.16-.11.32-.24.49-.37l5.13-4.09c-1.36-.23-2.71-.42-4.06-.58s-2.71-.28-4.1-.33a1.5,1.5,0,0,0-.22.54,3.81,3.81,0,0,0-.07.59Z"></path><path class="cls-1" d="M49.37,139.42a3.76,3.76,0,0,0-.31-.95,1.15,1.15,0,0,0-.5-.48,1.79,1.79,0,0,0-.81-.13c-.32,0-.73,0-1.21.1l-5.82.7c-.49.06-.89.12-1.21.19a1.79,1.79,0,0,0-.75.32,1.16,1.16,0,0,0-.37.6,3.81,3.81,0,0,0-.07,1l-.21,0c0-.49-.07-1-.12-1.42s-.09-.94-.15-1.43-.1-.76-.16-1.14-.12-.76-.19-1.13l.21,0a3.67,3.67,0,0,0,.31.94,1,1,0,0,0,.5.47,1.9,1.9,0,0,0,.8.12c.32,0,.73,0,1.22-.1l5.82-.7c.49-.06.89-.12,1.2-.19a1.74,1.74,0,0,0,.75-.32,1.1,1.1,0,0,0,.37-.6,3.48,3.48,0,0,0,.07-1l.21,0c0,.44.07.89.11,1.33s.09.89.14,1.33.11.85.17,1.27.13.83.2,1.25Z"></path><path class="cls-1" d="M41.26,120.91a7,7,0,0,0-1.46.58,4.75,4.75,0,0,0-1.18.87,3.65,3.65,0,0,0-.79,1.18,4,4,0,0,0-.3,1.51,3.67,3.67,0,0,0,.38,1.85A3.57,3.57,0,0,0,39,128.16a5,5,0,0,0,1.65.74,9.19,9.19,0,0,0,2,.26,7.38,7.38,0,0,0,2-.24,5.23,5.23,0,0,0,1.7-.8,4.21,4.21,0,0,0,1.17-1.37,4,4,0,0,0,.47-1.91,4.76,4.76,0,0,0-.77-2.83,7.63,7.63,0,0,0-2.2-2.14l.36-.44A15.17,15.17,0,0,1,47,120.66,7.33,7.33,0,0,1,48.11,122a6,6,0,0,1,.69,1.54,6.47,6.47,0,0,1,.2,1.87,5.61,5.61,0,0,1-.49,2.22,5.83,5.83,0,0,1-1.28,1.82,5.9,5.9,0,0,1-1.94,1.21,6.36,6.36,0,0,1-2.46.42,6.26,6.26,0,0,1-2.44-.52,5.83,5.83,0,0,1-1.88-1.29,5.53,5.53,0,0,1-1.21-1.87,5.64,5.64,0,0,1-.41-2.24,9.06,9.06,0,0,1,.11-1.21c.06-.37.12-.73.19-1.07s.13-.68.19-1a6.37,6.37,0,0,0,.13-1h.86l1-.06,1-.09c.33,0,.62,0,.87-.08Z"></path><path class="cls-1" d="M43.4,116.37a5.94,5.94,0,0,1-2.38-1,5.75,5.75,0,0,1-1.58-1.76,6.08,6.08,0,0,1-.74-2.26,7.87,7.87,0,0,1,.12-2.55,7.61,7.61,0,0,1,.92-2.38,6.08,6.08,0,0,1,1.6-1.77,5.61,5.61,0,0,1,2.15-1,5.86,5.86,0,0,1,2.6,0,5.92,5.92,0,0,1,2.38,1,5.75,5.75,0,0,1,1.58,1.76,6.27,6.27,0,0,1,.74,2.26,7.87,7.87,0,0,1-.12,2.55,7.3,7.3,0,0,1-.93,2.38,5.91,5.91,0,0,1-1.59,1.77,5.78,5.78,0,0,1-2.15,1A6.17,6.17,0,0,1,43.4,116.37Zm.39-1.82a6.89,6.89,0,0,0,2.07.11,5.46,5.46,0,0,0,1.88-.53A4.54,4.54,0,0,0,49.21,113a4.51,4.51,0,0,0,.81-3.82,4.53,4.53,0,0,0-.87-1.67,5.27,5.27,0,0,0-1.5-1.25,6.82,6.82,0,0,0-1.95-.73,6.58,6.58,0,0,0-2.07-.12,5.26,5.26,0,0,0-1.88.54,4.41,4.41,0,0,0-1.47,1.18,4.1,4.1,0,0,0-.84,1.81,4.21,4.21,0,0,0,0,2,4.68,4.68,0,0,0,.87,1.67,5.27,5.27,0,0,0,1.5,1.25A6.84,6.84,0,0,0,43.79,114.55Z"></path><path class="cls-1" d="M44,92.28l.7-1.26.67-1.28L46,88.51c.19-.42.39-.84.57-1.26l.19.1a4.46,4.46,0,0,0-.11.46,2.21,2.21,0,0,0,0,.51,1.26,1.26,0,0,0,.12.47.8.8,0,0,0,.36.34,1,1,0,0,0,.54.06,9.13,9.13,0,0,0,.94-.11l4.14-.7-2-3.32a2.7,2.7,0,0,0-1-1,1,1,0,0,0-.92,0,1.82,1.82,0,0,0-.74.69l-.18-.1q.3-.52.6-1.08c.2-.36.39-.73.58-1.09s.33-.67.49-1,.31-.67.46-1l.19.1a2.92,2.92,0,0,0-.11,1.2,5.29,5.29,0,0,0,.25,1.13,7.77,7.77,0,0,0,.46,1c.18.32.33.61.47.88l2,3.74,2.3,1.17a4.69,4.69,0,0,0,1,.38,1.3,1.3,0,0,0,.71,0,1.47,1.47,0,0,0,.59-.42,6.24,6.24,0,0,0,.6-.83l.19.1c-.26.45-.52.91-.76,1.36s-.49.92-.72,1.39-.39.77-.58,1.16-.37.79-.54,1.18l-.19-.09a5.53,5.53,0,0,0,.3-.94,1.34,1.34,0,0,0,0-.72,1.27,1.27,0,0,0-.4-.58,5.17,5.17,0,0,0-.89-.56l-2.45-1.25-5.07,1L46.6,91a6.21,6.21,0,0,0-.81.24,4.54,4.54,0,0,0-.81.43,3.6,3.6,0,0,0-.77.71Z"></path><path class="cls-1" d="M63,73.6l1.61,3a2.67,2.67,0,0,1,.12.24.62.62,0,0,0,.14.18.81.81,0,0,0,.54.22,1.69,1.69,0,0,0,.58-.08,3.22,3.22,0,0,0,.53-.25L67,76.6l.16.14c-.25.25-.5.5-.74.76s-.48.52-.72.79-.46.52-.67.78-.43.53-.66.83l-.16-.14a2.58,2.58,0,0,0,.32-.93,2.43,2.43,0,0,0-.06-.85,3.73,3.73,0,0,0-.29-.83c-.13-.28-.27-.57-.42-.85l-3.59-7.22-.1-.22a.74.74,0,0,0-.12-.16,1,1,0,0,0-.24-.13,1.46,1.46,0,0,0-.34-.1,3.84,3.84,0,0,0,.36-.74c.07-.23.16-.48.26-.75l10,3.9a2.52,2.52,0,0,0,1.26.2,2.23,2.23,0,0,0,1.23-.64l.16.14c-.33.34-.65.67-1,1s-.62.68-.95,1-.39.44-.54.62-.3.33-.42.48l-.33.41c-.1.14-.22.29-.34.44l-.16-.14a3.29,3.29,0,0,0,.54-1.17.9.9,0,0,0-.26-.9.86.86,0,0,0-.25-.14l-.26-.1-3.18-1.28Zm-2.49-4.72,2.21,4.24,2.18-2.47Z"></path><path class="cls-1" d="M180.62,68l.23.31.31.39.36.42.37.38a9.61,9.61,0,0,0,1.49,1.16,5.71,5.71,0,0,0,1.5.63,6.22,6.22,0,0,0,1.63.18,12.43,12.43,0,0,0,1.89-.2l0,.25L184.86,73l-.41-.46-.44-.43-4.82-4.51-.75-.68q-.39-.34-.78-.66l.14-.16a3.51,3.51,0,0,0,.85.54,1,1,0,0,0,.68,0,1.7,1.7,0,0,0,.7-.42c.24-.21.53-.5.87-.86l4-4.28a9.07,9.07,0,0,0,.8-.92,1.8,1.8,0,0,0,.38-.72,1,1,0,0,0-.1-.69,4.16,4.16,0,0,0-.6-.82l.15-.16.8.8c.25.26.51.51.79.78s.56.54.88.83l1.05,1c.6.56,1.2,1.12,1.81,1.67s1.22,1.11,1.85,1.66l-.28.27-.26.26-.48.51q-.25.28-.51.6l-.54.68-.21-.11a4.37,4.37,0,0,0,.5-1.41,3,3,0,0,0-.07-1.21,3.35,3.35,0,0,0-.53-1,7.29,7.29,0,0,0-.85-.94c-.6-.56-1.22-1.09-1.86-1.6l-3,3.2c.17.16.33.31.5.45s.34.29.51.45a3.37,3.37,0,0,0,1.73,1,2.35,2.35,0,0,0,1.84-.69l.15.14c-.28.31-.58.61-.87.91s-.59.6-.87.9l-.85.93c-.28.32-.56.63-.85.94l-.15-.15a6.3,6.3,0,0,0,.54-1.14,1.93,1.93,0,0,0,.07-.91,2.08,2.08,0,0,0-.4-.82,7.1,7.1,0,0,0-.82-.89l-.82-.77Z"></path><path class="cls-1" d="M195,87.5l-1.46,0a4.64,4.64,0,0,1-1.21-.22,3.7,3.7,0,0,1-1.06-.55,5.35,5.35,0,0,1-1-1.08,4.31,4.31,0,0,1-.58-1.1,7.93,7.93,0,0,1-.3-1.21c-.07-.41-.13-.83-.17-1.26s-.09-.85-.16-1.26a7.56,7.56,0,0,0-.32-1.22,4.15,4.15,0,0,0-.59-1.12,2.75,2.75,0,0,0-.6-.58,7.74,7.74,0,0,0-.73-.43l.08-.36a4.79,4.79,0,0,1,1.15.63,4.61,4.61,0,0,1,.91,1,6.85,6.85,0,0,1,.91,1.74c.23.64.44,1.27.62,1.91s.37,1.24.56,1.82a5.31,5.31,0,0,0,.73,1.47,3.83,3.83,0,0,0,.69.74,2.88,2.88,0,0,0,.75.45,3.52,3.52,0,0,0,.86.23,7.27,7.27,0,0,0,1,.09Zm-3-15.41A6,6,0,0,1,194.38,71a5.52,5.52,0,0,1,2.36,0,6.06,6.06,0,0,1,2.19.95,7.91,7.91,0,0,1,1.82,1.79A7.65,7.65,0,0,1,201.9,76a5.81,5.81,0,0,1,.26,2.36,5.73,5.73,0,0,1-.71,2.26,6,6,0,0,1-1.75,1.92,6.1,6.1,0,0,1-2.35,1.09,5.91,5.91,0,0,1-2.37,0,6.3,6.3,0,0,1-2.18-1,8,8,0,0,1-3-4.06,6,6,0,0,1-.25-2.37,5.64,5.64,0,0,1,.71-2.25A6.07,6.07,0,0,1,192,72.09Zm1.1,1.5a7,7,0,0,0-1.46,1.47,5.43,5.43,0,0,0-.86,1.76,4.42,4.42,0,0,0-.1,1.88,4.2,4.2,0,0,0,.79,1.84A4.25,4.25,0,0,0,193,81.85a4.5,4.5,0,0,0,1.83.46,5.23,5.23,0,0,0,1.93-.28,6.79,6.79,0,0,0,1.85-1,6.57,6.57,0,0,0,1.46-1.47,5.33,5.33,0,0,0,.86-1.76A4.57,4.57,0,0,0,201,76a4.2,4.2,0,0,0-.79-1.84,4.13,4.13,0,0,0-1.51-1.3,4.36,4.36,0,0,0-1.83-.47,5.41,5.41,0,0,0-1.93.28A6.79,6.79,0,0,0,193.12,73.59Z"></path><path class="cls-1" d="M206,85.69a2.72,2.72,0,0,0,.65-.41,1,1,0,0,0,.26-.45,1.13,1.13,0,0,0,0-.52c0-.19-.09-.41-.15-.65l.19-.09c.19.46.38.9.57,1.34l.59,1.31c.15.32.3.64.46.94s.32.62.49.93l-.19.09a4.55,4.55,0,0,0-.55-.77,1.33,1.33,0,0,0-.57-.38,1.28,1.28,0,0,0-.65,0,3.8,3.8,0,0,0-.85.3l-5.18,2.41a3.15,3.15,0,0,0-1.15.84,2.4,2.4,0,0,0-.53,1.07,3.07,3.07,0,0,0,0,1.21,5.25,5.25,0,0,0,.4,1.28,4.56,4.56,0,0,0,1.09,1.53,3.36,3.36,0,0,0,1.22.69,2.81,2.81,0,0,0,1.18.08,3.48,3.48,0,0,0,1-.27l4.46-2.07a8.63,8.63,0,0,0,1-.56,2.13,2.13,0,0,0,.62-.55,1.2,1.2,0,0,0,.2-.67,2.89,2.89,0,0,0-.16-.88l.19-.09c.13.34.27.68.41,1l.44,1q.19.42.39.81c.14.26.28.52.43.78L212,95a6.56,6.56,0,0,0-.41-.55,1.18,1.18,0,0,0-.51-.34,1.6,1.6,0,0,0-.73,0,4.65,4.65,0,0,0-1.11.39l-4.75,2.21a4.08,4.08,0,0,1-1.81.43,3.59,3.59,0,0,1-1.59-.39,4.26,4.26,0,0,1-1.32-1.06,6.67,6.67,0,0,1-1-1.58,6.29,6.29,0,0,1-.51-1.65,4.5,4.5,0,0,1,0-1.64,3.63,3.63,0,0,1,.66-1.44,3.46,3.46,0,0,1,1.35-1.05Z"></path><path class="cls-1" d="M202.75,102.57a3.6,3.6,0,0,0,.46.89,1.09,1.09,0,0,0,.57.39,1.88,1.88,0,0,0,.82,0c.31-.07.71-.17,1.18-.31l5.62-1.66c.47-.14.86-.27,1.16-.39a1.78,1.78,0,0,0,.68-.44,1.07,1.07,0,0,0,.27-.66,3.59,3.59,0,0,0-.1-1l.2-.06c.12.48.24.94.36,1.39s.25.9.39,1.37.22.74.34,1.11.25.73.38,1.08l-.21.06a3.27,3.27,0,0,0-.46-.87,1,1,0,0,0-.57-.38,1.71,1.71,0,0,0-.81,0c-.31.06-.71.16-1.18.3l-5.62,1.67c-.47.14-.86.26-1.16.38a1.68,1.68,0,0,0-.68.45,1,1,0,0,0-.27.65,3.83,3.83,0,0,0,.11,1l-.2.06-.33-1.29-.36-1.29c-.13-.41-.25-.82-.38-1.22l-.41-1.2Z"></path><path class="cls-1" d="M216.89,114.24a8.94,8.94,0,0,0-.48-1.26,1.73,1.73,0,0,0-.5-.62,1.11,1.11,0,0,0-.63-.18,5.44,5.44,0,0,0-.89.09l-8.32,1.3c0,.32,0,.63,0,.93a5.49,5.49,0,0,0,.07.91,7,7,0,0,0,.48,1.75,4.53,4.53,0,0,0,.84,1.27,5.46,5.46,0,0,0,1.23,1,14.82,14.82,0,0,0,1.64.8l0,.26-4.09-.73c0-.42-.09-.84-.15-1.27s-.11-.84-.18-1.26l-.79-5.09c-.05-.29-.1-.58-.16-.87s-.12-.57-.18-.86l.21,0a3.39,3.39,0,0,0,.31.88,1.4,1.4,0,0,0,.39.48.92.92,0,0,0,.48.19,2.67,2.67,0,0,0,.61,0l6.87-1.07c.49-.08.89-.15,1.2-.23a1.89,1.89,0,0,0,.74-.34,1,1,0,0,0,.35-.59,3.4,3.4,0,0,0,0-1l.21,0c.05.45.1.9.16,1.35s.12.9.19,1.35.16,1,.25,1.46.18,1,.28,1.46Z"></path><path class="cls-1" d="M206.67,123.24a3.36,3.36,0,0,0,.21,1,1.12,1.12,0,0,0,.45.53,1.76,1.76,0,0,0,.79.21c.32,0,.73,0,1.22,0l5.86-.13c.49,0,.9,0,1.22-.07a1.63,1.63,0,0,0,.77-.24,1.11,1.11,0,0,0,.43-.56,3.57,3.57,0,0,0,.17-1H218c0,.49,0,1,0,1.43s0,.94,0,1.43,0,.77,0,1.16,0,.76.07,1.14h-.21a3.28,3.28,0,0,0-.21-1,1.1,1.1,0,0,0-.45-.52,1.86,1.86,0,0,0-.79-.2c-.32,0-.73,0-1.22,0l-5.86.13c-.49,0-.9,0-1.22.07a1.63,1.63,0,0,0-.77.24,1.11,1.11,0,0,0-.43.56,3.59,3.59,0,0,0-.17,1h-.21c0-.45,0-.89,0-1.34s0-.88,0-1.33,0-.86,0-1.28,0-.84-.08-1.26Z"></path><path class="cls-1" d="M74.89,53.93l1-.72,1-.75c.3-.23.59-.45.88-.69s.57-.46.86-.71l.12.17a2.81,2.81,0,0,0-.71,1.07,1.26,1.26,0,0,0,.31,1.19,11.94,11.94,0,0,0,1,1.07c.47.47,1,1,1.57,1.53l1.76,1.62q.89.81,1.53,1.35a4.3,4.3,0,0,0,.52.37,1.51,1.51,0,0,0,.52.2,1.34,1.34,0,0,0,.64-.07,4.09,4.09,0,0,0,.86-.39l.13.16-1.15.8L84.63,61l-1,.8c-.33.27-.67.54-1,.83l-.12-.17c.17-.18.33-.35.48-.53a1.88,1.88,0,0,0,.32-.54,1,1,0,0,0,.06-.58A1.53,1.53,0,0,0,83,60.1l-.35-.44a6.09,6.09,0,0,0-.57-.58l-5.22-4.92,0,0c.24.87.47,1.75.68,2.62s.42,1.76.64,2.63.45,1.75.69,2.63.53,1.76.85,2.63l0,0Q77.34,63,75,61.67T70.13,59l0,0c.31.57.66,1.2,1.06,1.88s.79,1.34,1.18,2,.74,1.22,1.08,1.74.59.9.77,1.14a5.16,5.16,0,0,0,.66.75,1.58,1.58,0,0,0,.67.38,1.38,1.38,0,0,0,.75,0,3.44,3.44,0,0,0,.93-.48l.13.17c-.41.28-.8.55-1.18.83s-.77.55-1.17.85l-.85.66-.83.69-.12-.16a4.28,4.28,0,0,0,.49-.55,3.09,3.09,0,0,0,.36-.63,2.21,2.21,0,0,0,.13-.65A1.24,1.24,0,0,0,74,67c-.19-.37-.4-.75-.62-1.15s-.45-.78-.67-1.18l-3.09-5.49a3.24,3.24,0,0,0-1,.13,6.45,6.45,0,0,0-1,.39l-.13-.17c.42-.28.83-.57,1.23-.86s.81-.58,1.21-.89.58-.44.85-.66l.83-.69.13.16a1.85,1.85,0,0,0-.31.61.72.72,0,0,0,.16.68,1.77,1.77,0,0,0,.42.4l.53.33,5.63,3.36c-.27-1.35-.57-2.68-.89-4s-.69-2.64-1.13-4a1.42,1.42,0,0,0-.58,0,3.77,3.77,0,0,0-.58.14Z"></path><path class="cls-1" d="M86.47,50c-.21-.44-.4-.8-.56-1.08a1.8,1.8,0,0,0-.55-.6,1.09,1.09,0,0,0-.67-.17,3.73,3.73,0,0,0-1,.25l-.09-.19c.34-.13.67-.27,1-.41l1-.45a13.59,13.59,0,0,0,1.24-.67c.4-.24.84-.48,1.33-.72a8.17,8.17,0,0,1,1.47-.52,4.76,4.76,0,0,1,1.58-.17,3.46,3.46,0,0,1,1.47.42,2.58,2.58,0,0,1,1.09,1.22,2.31,2.31,0,0,1,.17,1.51,2.61,2.61,0,0,1-.73,1.33v0a4,4,0,0,1,2.22.26A3.16,3.16,0,0,1,97,51.68,2.39,2.39,0,0,1,97.22,53a2.56,2.56,0,0,1-.46,1.18,4.39,4.39,0,0,1-1,1,7.76,7.76,0,0,1-1.31.77c-.72.35-1.45.67-2.18,1s-1.45.6-2.18.95l-.73.37-.71.4-.09-.19a3.41,3.41,0,0,0,.78-.59,1,1,0,0,0,.29-.62,1.9,1.9,0,0,0-.14-.8c-.12-.3-.28-.68-.49-1.12Zm2.38,1.31a3.11,3.11,0,0,0,1-.11,5.68,5.68,0,0,0,.94-.36,2.79,2.79,0,0,0,1.42-1.37,2.23,2.23,0,0,0-.11-1.94,2.2,2.2,0,0,0-.69-.86,2.7,2.7,0,0,0-.93-.46,3,3,0,0,0-1.08-.06,3.5,3.5,0,0,0-1.08.31,7.19,7.19,0,0,0-.73.39,3.47,3.47,0,0,0-.65.51Zm2.37,4.94a.59.59,0,0,0,.4.08,3.86,3.86,0,0,0,.62-.09,6.93,6.93,0,0,0,.71-.2c.25-.09.47-.18.68-.28a3.12,3.12,0,0,0,1.68-1.63,2.8,2.8,0,0,0-.21-2.3,2.3,2.3,0,0,0-1-1.07,4.64,4.64,0,0,0-1.44-.49l-.71.48a6,6,0,0,1-.74.43,9.79,9.79,0,0,1-1,.42,4.35,4.35,0,0,1-1.06.22Z"></path><path class="cls-1" d="M101,52.93a4,4,0,0,0,.88-.49,1,1,0,0,0,.37-.58,1.72,1.72,0,0,0,0-.81c-.07-.32-.18-.71-.33-1.18l-1.79-5.58c-.15-.47-.29-.85-.42-1.15a1.83,1.83,0,0,0-.45-.67,1.07,1.07,0,0,0-.66-.25,4.26,4.26,0,0,0-1,.12l-.06-.2,1.38-.39,1.37-.42c.36-.11.73-.24,1.09-.37l1.07-.4.07.2a3.45,3.45,0,0,0-.86.48,1,1,0,0,0-.37.58,1.88,1.88,0,0,0,0,.81c.07.32.18.71.33,1.18l1.79,5.58c.16.47.29.85.42,1.15a1.84,1.84,0,0,0,.46.67,1,1,0,0,0,.66.25,4,4,0,0,0,1-.13l.06.2-1.29.36-1.27.39-1.22.41-1.18.44Z"></path><path class="cls-1" d="M112,49.33a2.52,2.52,0,0,0,.39,0h.5l.54,0a4.08,4.08,0,0,0,.53-.06,9.3,9.3,0,0,0,1.83-.5,5.26,5.26,0,0,0,1.4-.82,6.07,6.07,0,0,0,1.12-1.19,11.64,11.64,0,0,0,1-1.64l.22.13-1,3.75-.61,0-.61.09-6.5,1.14-1,.2-1,.22,0-.2a3.6,3.6,0,0,0,.93-.36,1,1,0,0,0,.45-.53,1.8,1.8,0,0,0,.08-.8c0-.33-.08-.73-.17-1.21l-1-5.78c-.09-.48-.17-.88-.26-1.19a1.78,1.78,0,0,0-.35-.73,1,1,0,0,0-.61-.34,3.69,3.69,0,0,0-1,0l0-.2,1.12-.17L109,39l1.19-.2,1.43-.25,2.42-.45,2.44-.48c0,.13,0,.26,0,.39l.06.36.12.69a7.08,7.08,0,0,0,.17.77c.07.25.14.53.22.84l-.21.11a4.25,4.25,0,0,0-.84-1.25,2.71,2.71,0,0,0-1-.67,3.13,3.13,0,0,0-1.15-.21,8.05,8.05,0,0,0-1.26.11c-.81.14-1.61.32-2.4.53l.76,4.32.66-.13.66-.13a3.35,3.35,0,0,0,1.81-.81,2.34,2.34,0,0,0,.55-1.89l.21,0c.07.42.14.83.2,1.25s.13.83.2,1.23.15.83.24,1.24.16.83.23,1.25l-.21,0a5.25,5.25,0,0,0-.58-1.12,2,2,0,0,0-.69-.6,2,2,0,0,0-.89-.18,7.14,7.14,0,0,0-1.21.12L111,44Z"></path><path class="cls-1" d="M121.66,36.93l1.16.07,1.29,0h.76l.75-.05c.16.21.4.53.75,1l1.19,1.48c.44.56.92,1.15,1.43,1.77L130.46,43c.48.6.91,1.15,1.31,1.67s.72.93.95,1.26h0c0-.35,0-.7,0-1s0-.7,0-1l0-2a19.29,19.29,0,0,0-.06-2,5,5,0,0,0-.3-1.4,2,2,0,0,0-.66-.87,2.29,2.29,0,0,0-1.13-.36V37l1.24.07,1.24,0h1.14l1.14,0v.21a2.27,2.27,0,0,0-1.53.62,2.34,2.34,0,0,0-.42,1.54l-.1,9.3h-.65c-.63-1-1.3-2-2-2.95s-1.42-1.86-2.12-2.72-1.37-1.67-2-2.4l-1.76-2c0,.31,0,.61,0,.9s0,.59,0,.89l0,3.07c0,1.05,0,1.87,0,2.47A3.81,3.81,0,0,0,125,47.4a1.26,1.26,0,0,0,.7.66,5.67,5.67,0,0,0,1.28.26v.22c-.59,0-1.18-.06-1.74-.07l-1.73,0h-1l-1,0v-.21l1-.16a2,2,0,0,0,.74-.25,1.21,1.21,0,0,0,.45-.52,2.62,2.62,0,0,0,.17-1l.29-8.05a4.63,4.63,0,0,0-1.22-.74,10.83,10.83,0,0,0-1.36-.45Z"></path><path class="cls-1" d="M139.92,49.26a3.67,3.67,0,0,0,1,0,1,1,0,0,0,.61-.33,1.87,1.87,0,0,0,.37-.72c.09-.31.18-.71.27-1.19l1.54-8a12.85,12.85,0,0,0-1.54-.22,2.32,2.32,0,0,0-1.13.15,2.47,2.47,0,0,0-1,.72,8.67,8.67,0,0,0-1,1.47l-.21-.11.89-3.33,1.42.32c.47.11.94.2,1.43.3l4.05.77c.46.09.91.18,1.36.25s.91.15,1.37.21L149,43l-.24,0a8.74,8.74,0,0,0-.36-1.73,2.55,2.55,0,0,0-.61-1,2.48,2.48,0,0,0-1-.56,14.35,14.35,0,0,0-1.55-.37l-1.54,8q-.14.72-.18,1.2a1.7,1.7,0,0,0,.07.81,1.09,1.09,0,0,0,.46.54,3.55,3.55,0,0,0,1,.38l0,.21-1.31-.31-1.3-.26c-.43-.09-.85-.16-1.26-.23l-1.26-.19Z"></path><path class="cls-1" d="M153.47,47.46l-2.15,2.61a2.61,2.61,0,0,0-.17.2.45.45,0,0,0-.12.2.8.8,0,0,0,0,.57,1.4,1.4,0,0,0,.3.51,2.72,2.72,0,0,0,.43.4,4.37,4.37,0,0,0,.4.28l-.07.2-1-.41-1-.37-1-.33-1-.31.07-.19a2.58,2.58,0,0,0,1-.06,2.77,2.77,0,0,0,.78-.36,4.51,4.51,0,0,0,.66-.59c.21-.22.42-.46.63-.71l5.36-6,.17-.18a.55.55,0,0,0,.11-.17,1.25,1.25,0,0,0,0-.27,1.76,1.76,0,0,0,0-.34,4.92,4.92,0,0,0,.82,0l.8,0,.07,10.69a2.64,2.64,0,0,0,.29,1.24,2.3,2.3,0,0,0,1,.91l-.07.2-1.28-.51c-.42-.17-.86-.33-1.32-.49l-.78-.28c-.22-.08-.42-.15-.6-.2l-.51-.16-.53-.15.07-.2a3.19,3.19,0,0,0,1.29.06.83.83,0,0,0,.77-.85c0-.11,0-.2,0-.28V48.69Zm3.46-4.06L153.82,47l3.11,1.11Z"></path><path class="cls-1" d="M172,48.91a10.12,10.12,0,0,0-1.29-.4,1.75,1.75,0,0,0-.8,0,1.17,1.17,0,0,0-.53.39c-.14.2-.3.45-.47.75L164.86,57l.73.59a6.65,6.65,0,0,0,.76.5,7.11,7.11,0,0,0,1.68.69,4.39,4.39,0,0,0,1.52.12,5.34,5.34,0,0,0,1.5-.38,14.54,14.54,0,0,0,1.64-.81l.23.13-3.08,2.78L168.75,60l-1.11-.63-4.51-2.51-.78-.41-.79-.37.1-.19a3.39,3.39,0,0,0,.9.29,1.56,1.56,0,0,0,.61,0,1,1,0,0,0,.44-.27,3,3,0,0,0,.35-.51l3.37-6.08c.24-.43.43-.79.56-1.09a2,2,0,0,0,.19-.79,1.07,1.07,0,0,0-.25-.64,3.64,3.64,0,0,0-.77-.64l.1-.19c.39.25.78.48,1.17.71l1.18.67c.43.24.86.48,1.3.71s.89.46,1.33.67Z"></path><path class="cls-1" d="M90.78,146.29l5.2,2.19,12.48,5.25,15,6.33,13,5.49c2.1.88,4.18,1.86,6.32,2.66l.09,0a1.25,1.25,0,0,0,1.46-.37,5.5,5.5,0,0,0,.49-4.33c-1.1-4.32-5.13-7.51-8.65-9.86a76.07,76.07,0,0,0-11.78-6.29,98.25,98.25,0,0,0-14.11-5.12c-5-1.34-10.64-2.44-15.7-.91-1.64.5-3.75,1.55-4.49,3.24l0,.06c-.66,1.46,1.64,2.43,2.29,1,.13-.29-.24.33,0,.06s.29-.37.44-.55-.2.17,0,0,.14-.13.22-.19l.5-.38.28-.18c.33-.21-.19.09.1-.06s.52-.25.79-.36a9.52,9.52,0,0,1,.94-.34l.26-.07c.2-.06-.26.06,0,0l.62-.14a17.13,17.13,0,0,1,2.77-.3h.56l.94,0q1,0,1.95.15a40.75,40.75,0,0,1,4.53.75,78.66,78.66,0,0,1,12.35,4,94.8,94.8,0,0,1,12.62,6,36.48,36.48,0,0,1,7.23,5.35l.18.19c-.09-.1.17.18.21.21l.51.58c.3.35.59.72.86,1.1l.33.49.15.25.08.13c.11.18-.11-.2,0-.06a9.54,9.54,0,0,1,.44.91c.12.28.2.57.31.85s-.07-.32,0,0c0,.06,0,.13,0,.19s0,.25.07.37,0,.45.06.68,0-.36,0,0l0,.3a3.65,3.65,0,0,1-.07.46c-.07.4.13-.31,0,.09-.05.14-.15.29-.19.44s.22-.35.14-.23l1.46-.37-5.2-2.19-12.48-5.25-15-6.33-13-5.49c-2.1-.88-4.19-1.86-6.32-2.66l-.09,0A1.25,1.25,0,0,0,90.78,146.29Z"></path><path class="cls-1" d="M145,86.16l-2.54,6-6.09,14.48L129,124.11l-6.35,15.07c-1,2.45-2.16,4.88-3.1,7.36a.42.42,0,0,1,0,.1,1.25,1.25,0,0,0,2.3,1l2.54-6,6.09-14.48,7.34-17.44,6.35-15.07c1-2.45,2.16-4.88,3.1-7.36l0-.1a1.25,1.25,0,0,0-2.3-1Z"></path><path class="cls-1" d="M141.94,132.91l8.9,3.75,14.18,6,3.24,1.37-.66-1.64a12.06,12.06,0,0,1-.48,1.31c-.2.45-.41.89-.64,1.32l-.19.33c-.17.31.12-.18-.1.17s-.35.55-.54.82a15.48,15.48,0,0,1-1.31,1.6l-.21.21c.22-.22,0,0-.06,0l-.38.34c-.28.24-.59.48-.9.7a7.88,7.88,0,0,1-2.06,1.08,9.1,9.1,0,0,1-2.43.56,14.94,14.94,0,0,1-6.48-1,19.46,19.46,0,0,1-6.68-3.94,10.18,10.18,0,0,1-2.77-4.42,2.76,2.76,0,0,1-.08-.27c-.07-.21.06.28,0-.06s-.09-.39-.13-.59a11.55,11.55,0,0,1-.17-1.2l0-.51c0-.1,0-.2,0-.3v-.07c0-.36,0-.71.07-1.06a16,16,0,0,1,.38-2.18c.08-.33-.07.22.06-.21,0-.14.09-.28.13-.43s.19-.55.3-.82a10.57,10.57,0,0,1,.7-1.53,1.25,1.25,0,0,0-.66-1.63,1.29,1.29,0,0,0-1.64.66,14.72,14.72,0,0,0-1.65,5.08,12.72,12.72,0,0,0,2.73,10.18,18.86,18.86,0,0,0,6.47,4.74,19.84,19.84,0,0,0,8,2.1,12.6,12.6,0,0,0,10-4.51,15.29,15.29,0,0,0,3.09-5.54,1.29,1.29,0,0,0-.67-1.63l-8.9-3.75-14.18-6-3.24-1.36A1.24,1.24,0,0,0,141.94,132.91Z"></path><path class="cls-1" d="M142.89,132.92l16.37-7.81,2.32-1.11-1.63-.68L167,140.69l1,2.45a1.25,1.25,0,0,0,2.31-.94l-7.08-17.37-1-2.45a1.24,1.24,0,0,0-1.62-.68l-16.37,7.81-2.32,1.1c-1.44.69-.51,3,.94,2.31Z"></path><path class="cls-1" d="M91.09,111.51l8.9,3.74,14.18,6,3.25,1.37-.67-1.63a10.14,10.14,0,0,1-.48,1.3c-.19.45-.41.89-.64,1.32-.06.11-.12.23-.19.34-.16.3.12-.18-.09.16s-.36.56-.55.83a14.18,14.18,0,0,1-1.31,1.59l-.21.21,0,.05-.38.34c-.29.25-.59.48-.9.7a7.74,7.74,0,0,1-2.06,1.08,8.54,8.54,0,0,1-2.44.56,14.79,14.79,0,0,1-6.48-1,19.26,19.26,0,0,1-6.67-3.94,10.2,10.2,0,0,1-2.78-4.42c0-.09,0-.18-.08-.27s.07.28,0-.06c0-.19-.09-.39-.13-.58-.07-.4-.13-.8-.16-1.2a4.36,4.36,0,0,1,0-.51c0-.1,0-.2,0-.3,0-.34,0,.25,0-.08s0-.71.06-1.06a14.75,14.75,0,0,1,.39-2.17c.07-.33-.08.21,0-.21,0-.15.09-.29.14-.43s.19-.55.29-.83a11.09,11.09,0,0,1,.7-1.53,1.25,1.25,0,0,0-.66-1.63,1.27,1.27,0,0,0-1.63.67A14.68,14.68,0,0,0,88.77,115a12.73,12.73,0,0,0,2.74,10.18A18.57,18.57,0,0,0,98,129.87a19.88,19.88,0,0,0,8,2.1,12.61,12.61,0,0,0,10-4.5,15.35,15.35,0,0,0,3.08-5.54,1.29,1.29,0,0,0-.67-1.64l-8.9-3.74-14.18-6-3.24-1.37A1.25,1.25,0,0,0,91.09,111.51Z"></path><path class="cls-1" d="M92.05,111.51l16.37-7.81,2.31-1.1-1.62-.69,7.07,17.37,1,2.45a1.25,1.25,0,0,0,2.31-.94l-7.08-17.36-1-2.46a1.26,1.26,0,0,0-1.62-.68L93.42,108.1l-2.31,1.11c-1.45.68-.51,3,.94,2.3Z"></path><path class="cls-1" d="M129.68,108.05l10.88,4.58,1.53.64a1.24,1.24,0,0,0,1-2.29l-10.88-4.58-1.54-.65a1.25,1.25,0,0,0-1,2.3Z"></path><path class="cls-1" d="M128,112l10.88,4.58,1.53.65a1.25,1.25,0,0,0,1-2.3l-10.88-4.58-1.54-.65a1.25,1.25,0,0,0-1,2.3Z"></path><path class="cls-1" d="M111.41,101.93l4.86-11.55.7-1.65-1.31.75a40.84,40.84,0,0,1,4.39.68,98.39,98.39,0,0,1,12.06,3.24,124.1,124.1,0,0,1,29.07,13.83,48.92,48.92,0,0,1,4.71,3.4l-.37-1.47-4.87,11.55-.69,1.66a1.24,1.24,0,0,0,2.29,1l4.87-11.55.69-1.65a1.27,1.27,0,0,0-.37-1.46,46.34,46.34,0,0,0-3.78-2.77,110.13,110.13,0,0,0-11.34-6.68A123.63,123.63,0,0,0,121.63,88,43.24,43.24,0,0,0,116,87a1.28,1.28,0,0,0-1.31.75l-4.86,11.55-.7,1.65a1.25,1.25,0,0,0,2.3,1Z"></path><path class="cls-1" d="M127.5,255A127.5,127.5,0,1,1,255,127.5,127.65,127.65,0,0,1,127.5,255Zm0-252A124.5,124.5,0,1,0,252,127.5,124.64,124.64,0,0,0,127.5,3Z"></path></g></g></svg>