<svg xmlns="http://www.w3.org/2000/svg" viewBox="0 0 181.98 147.29"><defs><style>.cls-1{fill:#2c0e5b;}</style></defs><g id="Capa_2" data-name="Capa 2"><g id="Capa_1-2" data-name="Capa 1"><path class="cls-1" d="M0,139.82q7.47-6.93,12.54-12.54a49,49,0,0,0,8-11.74,46.68,46.68,0,0,0,4-13.08,110.68,110.68,0,0,0,1.07-16.54q0-9.61-4.81-22.68A73.31,73.31,0,0,1,16,37.89Q16,0,49.63,0,66.7,0,75,12t8.27,30.15a87.47,87.47,0,0,1-6.14,32.55,116,116,0,0,1-16.54,28.82,142.29,142.29,0,0,1-24.28,24.28A234,234,0,0,1,7.47,147.29Zm98.73,0q7.45-6.93,12.54-12.54a49.61,49.61,0,0,0,8-11.74,46.66,46.66,0,0,0,4-13.08,110.68,110.68,0,0,0,1.07-16.54q0-9.61-4.8-22.68a73.31,73.31,0,0,1-4.8-25.35Q114.74,0,148.36,0q17.07,0,25.35,12T182,42.16a87.47,87.47,0,0,1-6.14,32.55,116,116,0,0,1-16.54,28.82A142.65,142.65,0,0,1,135,127.81a234.78,234.78,0,0,1-28.82,19.48Z"></path></g></g></svg>