<svg xmlns="http://www.w3.org/2000/svg" viewBox="0 0 185.94 150.5"><defs><style>.cls-1{fill:#2c0e5b;}</style></defs><g id="Capa_2" data-name="Capa 2"><g id="Capa_1-2" data-name="Capa 1"><path class="cls-1" d="M85.06,7.63Q69.79,21.27,64.34,32.45T58.89,62.71q0,9.81,4.91,23.17a75,75,0,0,1,4.91,25.9q0,38.73-34.36,38.72-17.46,0-25.9-12.27T0,107.42A89.45,89.45,0,0,1,6.27,74.16,119,119,0,0,1,23.18,44.71,145.59,145.59,0,0,1,48,19.9,239.94,239.94,0,0,1,77.43,0Zm100.88,0q-15.27,13.64-20.72,24.82t-5.45,30.26q0,9.81,4.91,23.17a75,75,0,0,1,4.9,25.9q0,38.73-34.35,38.72-17.46,0-25.9-12.27t-8.45-30.81a89.25,89.25,0,0,1,6.27-33.26,118.7,118.7,0,0,1,16.9-29.45A146,146,0,0,1,148.86,19.9,240.81,240.81,0,0,1,178.31,0Z"></path></g></g></svg>